<?xml version="1.0" standalone="no"?>
<!DOCTYPE svg PUBLIC "-//W3C//DTD SVG 20010904//EN"
 "http://www.w3.org/TR/2001/REC-SVG-20010904/DTD/svg10.dtd">
<svg version="1.0" xmlns="http://www.w3.org/2000/svg"
 width="822.000000pt" height="4860.000000pt" viewBox="0 0 822.000000 4860.000000"
 preserveAspectRatio="xMidYMid meet">

<g transform="translate(0.000000,4860.000000) scale(0.100000,-0.100000)"
fill="#000000" stroke="none">
<path d="M2544 47311 c-293 -52 -530 -172 -743 -376 -205 -196 -341 -453 -397
-750 -24 -124 -24 -415 -1 -542 92 -502 439 -906 922 -1073 202 -70 322 -79
1063 -80 502 0 572 2 572 15 0 21 56 20 64 -1 5 -14 75 -15 668 -11 570 3 675
6 751 21 296 57 540 182 739 378 226 224 357 482 405 798 21 141 13 405 -16
542 -108 503 -479 899 -978 1043 -191 56 -171 55 -1615 54 -1232 -1 -1341 -2
-1434 -18z m2936 -65 c565 -136 958 -554 1045 -1111 21 -134 16 -397 -10 -515
-69 -314 -245 -595 -490 -785 -156 -120 -301 -190 -515 -247 l-85 -23 -1394
-2 c-1535 -4 -1467 -6 -1668 58 -415 133 -746 474 -867 893 -80 276 -71 607
25 875 137 386 444 683 840 815 199 67 130 64 1659 62 1296 -2 1390 -3 1460
-20z"/>
<path d="M2901 46158 c-67 -11 -115 -48 -146 -112 -24 -49 -27 -65 -23 -133 4
-98 28 -147 90 -189 58 -39 116 -49 187 -30 53 14 56 13 90 -10 41 -28 66 -31
75 -8 8 22 10 20 -29 43 l-36 21 27 46 c57 96 41 245 -34 316 -55 52 -120 70
-201 56z m111 -67 c48 -18 82 -76 86 -146 4 -67 -9 -125 -34 -146 -11 -9 -23
-8 -55 6 -35 16 -42 17 -50 4 -14 -23 -11 -37 11 -44 35 -11 10 -28 -35 -22
-88 9 -138 76 -139 183 0 81 26 130 85 162 45 24 76 25 131 3z"/>
<path d="M4467 46153 c-4 -3 -7 -19 -7 -35 0 -24 4 -28 30 -28 28 0 30 3 30
35 0 30 -3 35 -23 35 -13 0 -27 -3 -30 -7z"/>
<path d="M4312 46124 c-16 -11 -22 -25 -22 -55 0 -32 -3 -39 -20 -39 -15 0
-20 -7 -20 -25 0 -18 5 -25 19 -25 18 0 20 -10 23 -131 3 -116 5 -132 22 -145
25 -18 106 -19 105 -1 -1 24 -14 42 -34 45 -31 6 -35 20 -35 130 l0 102 30 0
c25 0 30 4 30 25 0 21 -5 25 -30 25 -30 0 -30 1 -30 55 0 59 -4 63 -38 39z"/>
<path d="M3670 46018 c-62 -32 -83 -72 -83 -158 0 -80 21 -124 73 -154 42 -25
122 -26 168 -2 29 15 62 60 62 86 0 22 -53 9 -80 -20 -30 -32 -73 -40 -111
-20 -18 10 -49 59 -49 79 0 6 48 11 123 13 l122 3 -3 45 c-8 118 -118 182
-222 128z m145 -79 c8 -15 15 -32 15 -37 0 -5 -39 -9 -87 -8 -82 1 -88 2 -85
21 5 27 40 63 66 67 36 6 76 -13 91 -43z"/>
<path d="M4026 46030 c-62 -20 -92 -77 -70 -135 8 -21 66 -49 132 -65 61 -14
79 -36 56 -68 -21 -31 -95 -31 -124 0 -11 12 -20 25 -20 30 0 4 -14 8 -31 8
-29 0 -31 -2 -25 -27 9 -40 57 -80 104 -88 101 -17 189 50 168 128 -11 41 -24
50 -107 77 -46 15 -88 35 -93 44 -16 24 14 48 60 48 29 0 43 -6 60 -27 16 -21
26 -25 47 -20 23 6 25 9 15 36 -6 17 -20 37 -32 44 -29 19 -103 27 -140 15z"/>
<path d="M4670 46018 c-62 -32 -84 -74 -84 -159 1 -85 23 -126 84 -157 79 -41
174 -12 210 63 45 94 14 217 -64 254 -54 27 -91 26 -146 -1z m135 -62 c46 -46
42 -166 -8 -201 -35 -24 -90 -19 -118 11 -21 22 -24 35 -24 94 0 59 3 72 24
94 33 35 92 36 126 2z"/>
<path d="M5085 46033 c-10 -3 -29 -12 -42 -20 -21 -14 -23 -14 -23 1 0 11 -9
16 -30 16 l-30 0 0 -170 0 -170 29 0 29 0 4 120 c4 109 6 122 28 145 27 28 75
33 106 11 17 -13 19 -29 22 -145 l4 -131 29 0 29 0 0 130 c0 150 -10 183 -65
206 -35 14 -54 16 -90 7z"/>
<path d="M3240 45905 c0 -151 12 -188 66 -211 44 -19 103 -11 133 17 21 20 21
20 21 -1 0 -16 6 -20 30 -20 l30 0 0 170 0 170 -29 0 -28 0 -5 -122 c-5 -117
-6 -123 -32 -145 -27 -23 -70 -30 -93 -15 -23 15 -33 65 -33 173 l0 109 -30 0
-30 0 0 -125z"/>
<path d="M4460 45860 l0 -170 30 0 30 0 0 170 0 170 -30 0 -30 0 0 -170z"/>
<path d="M3840 43285 l0 -64 -28 16 c-42 24 -98 11 -122 -30 -31 -50 -27 -137
6 -176 21 -25 33 -31 66 -31 21 0 49 5 61 11 16 9 22 9 25 0 2 -6 10 -11 18
-11 12 0 14 31 14 175 0 168 -1 175 -20 175 -18 0 -20 -7 -20 -65z m-16 -97
c25 -36 21 -104 -9 -133 -31 -32 -50 -31 -82 1 -22 22 -25 32 -21 74 3 27 11
56 18 65 19 23 76 19 94 -7z"/>
<path d="M3573 43333 c-18 -6 -16 -40 1 -46 8 -3 20 1 27 9 10 12 9 18 -2 28
-8 8 -20 12 -26 9z"/>
<path d="M4337 43333 c-11 -10 -8 -41 3 -48 19 -12 41 15 29 36 -10 20 -21 24
-32 12z"/>
<path d="M5290 43275 c-5 -14 -17 -28 -25 -31 -19 -8 -20 -34 0 -34 12 0 15
-15 15 -77 0 -106 12 -127 74 -131 42 -3 47 -1 44 15 -2 11 -11 17 -22 15 -35
-6 -46 16 -46 99 l0 78 33 3 c20 2 32 8 32 18 0 10 -12 16 -32 18 -27 3 -33 7
-33 28 0 32 -28 32 -40 -1z"/>
<path d="M2614 43237 c-2 -7 -3 -87 -2 -177 3 -157 4 -165 23 -165 17 0 21 8
25 62 4 52 7 61 20 53 20 -13 77 -13 101 0 44 24 64 125 37 185 -23 50 -96 70
-143 39 -23 -15 -25 -15 -25 0 0 19 -28 22 -36 3z m148 -44 c9 -10 19 -28 22
-40 10 -31 -11 -101 -34 -113 -25 -14 -68 -3 -80 20 -16 30 -12 111 7 132 21
23 65 23 85 1z"/>
<path d="M2897 43243 c-4 -3 -7 -60 -7 -125 0 -111 1 -118 20 -118 18 0 20 7
20 58 0 105 24 152 78 152 11 0 22 9 25 20 4 16 0 20 -23 20 -15 0 -39 -9 -54
-21 l-26 -20 0 20 c0 20 -19 28 -33 14z"/>
<path d="M3111 43236 c-34 -19 -50 -54 -51 -109 0 -84 37 -127 110 -127 74 0
110 42 110 130 0 46 -4 56 -34 86 -27 27 -42 34 -72 34 -22 -1 -50 -7 -63 -14z
m108 -52 c56 -71 -14 -186 -85 -140 -25 17 -40 71 -30 110 15 60 79 76 115 30z"/>
<path d="M3300 43238 c0 -6 19 -62 42 -125 39 -103 45 -113 68 -113 23 0 29
11 68 113 23 62 42 118 42 125 0 7 -9 12 -19 12 -15 0 -26 -19 -50 -86 -17
-47 -31 -89 -31 -95 0 -5 -4 -9 -10 -9 -5 0 -10 4 -10 9 0 6 -14 48 -31 95
-24 67 -35 86 -50 86 -10 0 -19 -5 -19 -12z"/>
<path d="M3567 43243 c-4 -3 -7 -60 -7 -125 0 -111 1 -118 20 -118 19 0 20 7
20 125 0 98 -3 125 -13 125 -8 0 -17 -3 -20 -7z"/>
<path d="M4003 43240 c-69 -28 -79 -170 -16 -219 18 -15 40 -21 74 -21 60 0
79 7 79 31 0 16 -5 18 -27 12 -46 -12 -87 -5 -105 18 -34 41 -25 49 62 49 l80
0 0 41 c0 75 -72 119 -147 89z m91 -52 c9 -12 16 -26 16 -30 0 -5 -27 -8 -60
-8 -33 0 -60 3 -60 8 0 23 34 52 60 52 18 0 34 -8 44 -22z"/>
<path d="M4330 43125 c0 -118 1 -125 20 -125 19 0 20 7 20 125 0 118 -1 125
-20 125 -19 0 -20 -7 -20 -125z"/>
<path d="M4447 43243 c-4 -3 -7 -60 -7 -125 l0 -118 25 0 c25 0 25 1 25 83 0
100 14 127 65 127 46 0 55 -20 55 -124 0 -79 2 -86 20 -86 19 0 20 7 20 100 0
94 -2 103 -25 125 -28 29 -72 32 -115 10 -27 -14 -30 -14 -30 0 0 15 -21 21
-33 8z"/>
<path d="M4724 43237 c-2 -7 -3 -87 -2 -177 3 -157 4 -165 23 -165 17 0 21 8
25 62 4 52 7 61 20 53 28 -18 87 -11 116 13 22 19 28 34 32 80 3 34 -1 69 -8
87 -23 54 -96 76 -145 44 -23 -15 -25 -15 -25 0 0 19 -28 22 -36 3z m148 -44
c9 -10 19 -28 22 -40 10 -31 -11 -101 -34 -113 -25 -14 -68 -3 -80 20 -16 30
-12 111 7 132 21 23 65 23 85 1z"/>
<path d="M5000 43154 c0 -90 9 -130 34 -146 20 -13 91 -8 114 8 20 14 22 14
22 0 0 -9 9 -16 20 -16 20 0 20 5 18 123 -3 114 -4 122 -23 122 -18 0 -20 -8
-25 -92 -3 -51 -9 -96 -15 -102 -23 -22 -63 -23 -84 -2 -18 18 -21 33 -21 111
0 83 -1 90 -20 90 -19 0 -20 -7 -20 -96z"/>
<path d="M1760 41612 c-14 -2 -28 -7 -32 -10 -4 -4 506 -6 1133 -4 1038 2
1142 1 1164 -14 14 -9 25 -12 25 -8 0 5 5 2 10 -6 8 -13 10 -13 10 2 0 10 -10
22 -21 29 -15 8 -19 8 -15 0 4 -6 3 -11 -3 -11 -5 0 -14 6 -18 13 -6 10 -223
13 -1118 12 -610 0 -1121 -2 -1135 -3z"/>
<path d="M4160 41608 c0 -10 2257 -10 2263 0 3 4 -505 7 -1129 7 -624 0 -1134
-3 -1134 -7z"/>
<path d="M4141 41601 c-1 -8 -7 -11 -18 -6 -13 4 -15 3 -7 -5 7 -7 348 -10
1144 -10 631 0 1138 -4 1144 -9 15 -12 67 -20 60 -10 -3 5 -1 9 5 9 5 0 11 -5
13 -12 2 -6 15 -12 29 -13 13 -1 23 -7 22 -12 -3 -17 45 -13 52 4 3 10 3 14
-1 10 -4 -4 -14 -1 -23 6 -14 11 -14 10 -2 -5 8 -11 9 -18 3 -18 -14 0 -43 41
-36 52 3 4 -3 5 -12 1 -13 -5 -15 -3 -9 7 6 9 4 11 -5 5 -10 -6 -9 -11 5 -21
10 -8 16 -17 12 -21 -4 -3 -15 1 -24 9 -12 10 -29 14 -50 11 -21 -3 -33 -1
-33 6 0 8 -300 10 -1130 9 -997 -3 -1130 -1 -1134 12 -3 11 -4 11 -5 1z"/>
<path d="M6436 41595 c-3 -8 -1 -15 4 -15 6 0 10 4 10 10 0 5 8 7 18 4 14 -5
15 -4 2 5 -20 14 -27 14 -34 -4z"/>
<path d="M1656 41588 c5 -8 1 -9 -12 -4 -10 4 -15 4 -12 0 9 -8 -19 -37 -30
-30 -8 5 -67 -51 -67 -63 0 -3 -10 -16 -22 -28 -14 -14 -20 -29 -16 -39 5 -13
8 -13 15 -2 8 10 11 10 15 0 2 -6 9 -9 15 -6 7 4 6 9 -2 14 -8 5 -6 12 7 25
18 19 19 22 22 51 0 8 5 13 11 9 5 -3 6 -13 3 -22 -5 -12 -2 -12 15 3 27 22
27 25 5 17 -16 -6 -16 -5 -5 10 8 8 19 14 27 11 7 -3 16 -1 20 5 4 7 -1 8 -12
4 -17 -6 -17 -5 0 13 13 14 20 16 25 7 8 -12 29 -13 49 0 6 4 19 5 30 2 10 -3
2 2 -17 11 -46 21 -72 26 -64 12z m44 -13 c0 -2 -9 -3 -19 -2 -11 0 -18 5 -15
9 4 6 34 0 34 -7z m-107 -40 c-3 -9 -8 -14 -10 -11 -3 3 -2 9 2 15 9 16 15 13
8 -4z m-33 -35 c0 -5 -5 -10 -11 -10 -5 0 -7 5 -4 10 3 6 8 10 11 10 2 0 4 -4
4 -10z m0 -24 c0 -2 -7 -7 -16 -10 -8 -3 -12 -2 -9 4 6 10 25 14 25 6z"/>
<path d="M2150 41583 c1066 -7 1858 -7 1853 0 -2 4 -511 6 -1131 5 -620 -2
-945 -4 -722 -5z"/>
<path d="M6599 41525 c-1 -3 -2 -9 -3 -14 -2 -15 -16 -26 -16 -13 0 7 -5 12
-11 12 -8 0 -8 -4 1 -15 8 -10 17 -12 29 -6 10 6 23 5 34 0 9 -6 17 -8 17 -6
0 6 -50 47 -51 42z"/>
<path d="M6599 41473 c-8 -9 -9 -14 -4 -11 14 9 31 -13 29 -39 -1 -13 4 -23
12 -23 19 0 23 -23 5 -38 -9 -8 -10 -11 -3 -7 15 8 16 -7 0 -23 -9 -9 -9 -12
0 -12 10 0 12 -211 12 -956 -1 -526 2 -959 5 -962 3 -3 4 431 3 965 -2 534 0
966 4 960 4 -7 8 -443 8 -969 0 -526 3 -959 8 -961 4 -3 7 429 7 959 0 530 -3
964 -7 964 -4 0 -3 11 3 24 9 18 7 30 -5 55 -9 17 -14 36 -11 41 3 5 1 11 -4
14 -5 4 -8 -5 -7 -18 2 -16 -1 -23 -9 -20 -7 3 -11 16 -9 29 3 33 -19 50 -37
28z m74 -124 c-6 -6 -10 1 -10 23 0 30 1 30 10 10 7 -15 7 -26 0 -33z"/>
<path d="M1500 41391 c0 -7 -4 -9 -10 -6 -5 3 -10 1 -10 -4 0 -6 4 -11 9 -11
13 0 25 20 17 27 -3 4 -6 1 -6 -6z"/>
<path d="M1517 41373 c-4 -3 -7 -11 -7 -17 0 -6 5 -5 12 2 6 6 9 14 7 17 -3 3
-9 2 -12 -2z"/>
<path d="M1480 41340 c0 -5 5 -10 10 -10 6 0 10 5 10 10 0 6 -4 10 -10 10 -5
0 -10 -4 -10 -10z"/>
<path d="M1481 40347 c0 -637 3 -976 9 -972 6 3 10 -1 10 -9 0 -9 -5 -16 -11
-16 -5 0 -7 -5 -3 -11 4 -8 10 -5 17 7 6 11 15 22 21 26 7 4 6 15 -2 33 -7 14
-10 38 -6 53 5 26 5 26 -8 5 -11 -18 -13 131 -10 860 1 485 -2 909 -7 942 -5
38 -9 -302 -10 -918z m34 -947 c3 -5 2 -10 -4 -10 -5 0 -13 5 -16 10 -3 6 -2
10 4 10 5 0 13 -4 16 -10z"/>
<path d="M2335 40593 c-82 -43 -118 -111 -118 -220 0 -97 38 -177 102 -212 55
-30 158 -34 208 -8 41 22 83 77 86 113 2 22 -3 29 -25 35 -25 6 -29 3 -48 -36
-35 -72 -109 -94 -180 -54 -51 29 -72 69 -77 148 -4 55 -1 73 19 110 32 62 66
85 128 85 41 0 55 -5 80 -29 16 -16 32 -37 36 -47 4 -14 12 -17 32 -12 15 4
30 10 35 13 13 12 -52 98 -87 115 -44 21 -151 20 -191 -1z"/>
<path d="M5167 40603 c-4 -3 -7 -19 -7 -35 0 -24 4 -28 30 -28 28 0 30 3 30
35 0 30 -3 35 -23 35 -13 0 -27 -3 -30 -7z"/>
<path d="M5012 40574 c-16 -11 -22 -25 -22 -55 0 -32 -3 -39 -20 -39 -15 0
-20 -7 -20 -25 0 -18 5 -25 19 -25 18 0 19 -10 22 -131 4 -115 6 -132 23 -145
22 -15 106 -19 106 -5 0 20 -13 41 -25 41 -35 0 -45 29 -45 136 l0 104 30 0
c25 0 30 4 30 25 0 21 -5 25 -30 25 -30 0 -30 1 -30 55 0 59 -4 63 -38 39z"/>
<path d="M2767 40476 c-20 -7 -43 -19 -51 -25 -48 -40 -62 -171 -26 -241 26
-50 70 -74 137 -73 63 0 114 29 137 77 23 48 21 152 -3 196 -33 63 -121 93
-194 66z m131 -86 c32 -47 28 -137 -8 -175 -25 -27 -75 -34 -111 -15 -63 34
-64 182 -2 219 10 6 36 10 58 8 33 -2 43 -8 63 -37z"/>
<path d="M3145 40470 c-47 -24 -45 -24 -45 -5 0 9 -9 15 -25 15 l-25 0 0 -170
0 -170 29 0 29 0 4 126 c3 118 4 127 27 145 30 24 83 25 104 1 14 -15 17 -41
17 -145 l0 -127 30 0 30 0 0 135 c0 160 -9 188 -68 204 -51 15 -62 14 -107 -9z"/>
<path d="M3814 40480 c-47 -15 -91 -70 -100 -125 -13 -93 7 -153 69 -199 35
-26 134 -27 172 -2 24 16 65 71 65 89 0 4 -16 7 -35 7 -19 0 -35 -4 -35 -8 0
-5 -9 -18 -20 -30 -45 -48 -140 -14 -152 53 l-5 25 123 0 124 0 0 37 c0 49
-33 115 -68 135 -37 22 -98 30 -138 18z m114 -73 c12 -11 22 -31 22 -44 0 -22
-3 -23 -85 -23 -70 0 -85 3 -85 16 0 28 21 55 53 69 37 16 63 11 95 -18z"/>
<path d="M4190 40483 c-8 -3 -23 -12 -32 -21 -16 -14 -18 -13 -18 1 0 11 -8
17 -25 17 l-25 0 0 -170 0 -170 30 0 30 0 0 113 c0 138 10 162 65 163 30 0 41
5 48 22 6 14 7 26 1 32 -13 12 -56 20 -74 13z"/>
<path d="M4370 40480 c-43 -10 -80 -52 -80 -90 0 -46 36 -78 119 -103 85 -26
105 -45 77 -76 -14 -15 -31 -21 -62 -21 -37 0 -47 5 -66 30 -20 28 -60 41 -72
22 -8 -14 23 -71 49 -88 56 -36 188 -15 215 35 14 28 13 84 -3 106 -8 10 -52
30 -98 45 -46 15 -88 35 -93 44 -16 23 14 48 59 49 29 1 43 -5 61 -26 18 -21
29 -26 49 -21 29 7 28 5 15 38 -18 48 -96 74 -170 56z"/>
<path d="M4715 40481 c-49 -12 -72 -29 -85 -61 -15 -35 -14 -36 23 -45 20 -5
27 -3 27 7 0 28 37 50 81 50 47 -1 81 -26 77 -56 -2 -17 -14 -23 -53 -30 -94
-16 -127 -27 -151 -51 -29 -30 -33 -92 -6 -124 32 -40 120 -47 184 -15 34 18
38 17 38 -1 0 -10 11 -15 35 -15 33 0 34 1 25 26 -6 14 -10 74 -10 134 0 113
-8 148 -40 168 -24 15 -108 23 -145 13z m125 -205 c0 -76 -127 -127 -161 -65
-17 33 11 65 68 77 81 17 93 15 93 -12z"/>
<path d="M5370 40468 c-62 -32 -83 -72 -82 -159 1 -82 20 -123 72 -153 44 -26
125 -26 169 0 93 55 94 252 2 307 -50 30 -110 32 -161 5z m135 -62 c46 -46 42
-166 -8 -201 -34 -24 -90 -19 -117 10 -19 20 -25 40 -28 88 -4 57 -1 66 23 95
35 41 93 45 130 8z"/>
<path d="M5785 40483 c-11 -3 -30 -14 -42 -26 l-23 -20 0 21 c0 17 -6 22 -25
22 l-25 0 0 -170 0 -170 30 0 30 0 0 120 c0 115 1 122 25 145 16 17 35 25 59
25 57 0 66 -23 66 -167 l0 -123 31 0 30 0 -3 145 c-3 139 -4 146 -28 169 -25
26 -86 40 -125 29z"/>
<path d="M3370 40478 c0 -2 29 -77 63 -168 61 -160 64 -165 93 -168 l30 -3 59
158 c32 87 60 164 63 171 3 10 -4 13 -28 10 -32 -3 -33 -5 -78 -127 -35 -96
-47 -120 -53 -105 -5 10 -25 67 -46 127 -37 107 -37 107 -70 107 -18 0 -33 -1
-33 -2z"/>
<path d="M5160 40310 l0 -170 30 0 30 0 0 170 0 170 -30 0 -30 0 0 -170z"/>
<path d="M6660 39386 c0 -2 8 -10 18 -17 15 -13 16 -12 3 4 -13 16 -21 21 -21
13z"/>
<path d="M1517 39346 c-4 -9 -2 -16 3 -16 5 0 10 -8 12 -17 2 -10 6 -13 10 -8
3 6 1 21 -6 34 -11 19 -14 21 -19 7z"/>
<path d="M6630 39345 c-6 -8 -11 -22 -10 -32 4 -32 0 -43 -12 -40 -8 1 -12 -6
-10 -17 2 -11 -1 -15 -7 -11 -6 3 -11 1 -11 -4 0 -6 -3 -10 -7 -9 -17 3 -43
-15 -36 -25 4 -6 0 -8 -9 -5 -8 4 -21 2 -29 -3 -11 -7 -11 -9 -1 -9 7 0 10 -5
7 -10 -5 -8 -11 -8 -20 0 -9 8 -15 8 -20 0 -3 -5 -17 -10 -30 -10 -13 0 -27
-4 -30 -10 -4 -6 1 -7 11 -3 11 4 15 2 11 -4 -4 -6 3 -13 15 -16 23 -7 41 10
31 28 -4 5 4 1 17 -10 13 -11 20 -14 16 -8 -4 8 5 24 22 41 23 23 31 25 41 15
9 -10 9 -13 -4 -13 -8 0 -15 -5 -15 -11 0 -5 -5 -7 -12 -3 -7 4 -8 3 -4 -5 6
-9 13 -9 29 2 20 13 35 53 15 41 -7 -4 -8 -2 -4 5 4 6 13 10 19 9 14 -3 54 30
69 56 9 16 7 18 -6 13 -21 -8 -31 16 -17 40 6 10 11 12 11 6 0 -15 20 -18 20
-4 0 16 -28 20 -40 6z m18 -69 c-2 -1 -10 -7 -20 -14 -12 -10 -18 -10 -24 -1
-4 8 -3 9 5 5 6 -4 14 0 17 8 3 9 10 13 16 10 5 -3 8 -7 6 -8z"/>
<path d="M1510 39285 c0 -6 13 -22 30 -35 16 -12 29 -25 28 -29 -2 -21 4 -32
20 -29 10 2 16 -2 14 -11 -3 -12 0 -12 13 -1 8 7 19 10 22 6 4 -4 1 -11 -6
-15 -8 -6 -9 -11 -3 -15 6 -3 14 3 17 15 6 17 1 27 -16 40 -13 10 -29 19 -35
19 -15 0 -47 48 -40 59 3 5 -6 9 -19 9 -14 0 -25 -6 -25 -13z m41 -22 c13 -16
12 -17 -3 -4 -10 7 -18 15 -18 17 0 8 8 3 21 -13z m39 -53 c0 -5 -2 -10 -4
-10 -3 0 -8 5 -11 10 -3 6 -1 10 4 10 6 0 11 -4 11 -10z m28 -15 c-3 -3 -9 2
-12 12 -6 14 -5 15 5 6 7 -7 10 -15 7 -18z"/>
<path d="M1679 39183 c-19 -5 -32 -39 -15 -40 6 0 20 -4 31 -9 18 -7 18 -6 6
9 -7 9 -17 14 -22 11 -5 -3 -9 0 -9 5 0 6 2 11 5 11 10 0 50 -25 63 -40 11
-13 12 -12 6 9 -5 18 -3 22 7 17 8 -4 5 0 -5 8 -12 9 -28 13 -39 10 -13 -4
-17 -2 -13 5 4 6 6 10 4 10 -2 -1 -10 -3 -19 -6z"/>
<path d="M1772 39158 c7 -19 2225 -19 2240 -1 8 11 -214 13 -1117 13 -896 0
-1126 -3 -1123 -12z"/>
<path d="M4064 39161 c3 -4 26 -7 51 -6 24 2 43 0 41 -4 -2 -3 499 -6 1115 -6
900 0 1119 2 1119 13 0 10 -227 12 -1165 12 -641 -1 -1163 -5 -1161 -9z"/>
<path d="M4000 39135 c-11 -13 -10 -14 4 -9 9 3 16 10 16 15 0 13 -6 11 -20
-6z"/>
<path d="M4030 39129 c0 -5 5 -7 10 -4 6 3 10 8 10 11 0 2 -4 4 -10 4 -5 0
-10 -5 -10 -11z"/>
<path d="M4125 39130 c3 -5 8 -10 11 -10 2 0 4 5 4 10 0 6 -5 10 -11 10 -5 0
-7 -4 -4 -10z"/>
<path d="M3340 37734 l0 -65 -22 15 c-32 23 -82 20 -113 -6 -54 -47 -52 -172
4 -215 23 -18 91 -16 113 4 17 15 18 15 18 0 0 -10 8 -17 20 -17 19 0 20 7 20
175 0 168 -1 175 -20 175 -18 0 -20 -7 -20 -66z m-19 -91 c19 -22 18 -118 -1
-137 -50 -47 -110 -11 -110 66 0 58 22 88 64 88 19 0 40 -7 47 -17z"/>
<path d="M3620 37734 l0 -65 -22 15 c-52 37 -126 7 -148 -60 -17 -49 -4 -121
25 -150 29 -28 88 -32 123 -8 20 14 22 14 22 0 0 -9 9 -16 20 -16 19 0 20 7
20 175 0 168 -1 175 -20 175 -18 0 -20 -7 -20 -66z m-28 -91 c36 -42 25 -137
-18 -153 -29 -11 -69 1 -78 25 -11 31 -6 100 10 123 19 27 64 29 86 5z"/>
<path d="M3850 37625 c0 -168 1 -175 20 -175 18 0 20 7 20 78 0 96 14 126 58
130 54 5 62 -9 62 -114 l0 -94 26 0 26 0 -4 106 c-3 97 -6 108 -27 125 -28 23
-88 25 -119 3 l-22 -15 0 65 c0 59 -2 66 -20 66 -19 0 -20 -7 -20 -175z"/>
<path d="M4134 37776 c-8 -22 3 -49 19 -43 6 2 12 14 12 27 0 27 -22 39 -31
16z"/>
<path d="M4474 37725 c-3 -13 -15 -27 -25 -30 -26 -8 -24 -35 2 -35 18 0 20
-6 19 -57 -4 -136 4 -153 71 -153 32 0 39 4 39 19 0 14 -5 18 -20 14 -38 -10
-50 13 -50 98 l0 79 35 0 c28 0 35 4 35 20 0 16 -7 20 -35 20 -31 0 -35 3 -35
25 0 33 -28 33 -36 0z"/>
<path d="M2958 37687 c-41 -18 -21 -34 42 -33 53 1 55 0 58 -26 3 -25 0 -28
-25 -28 -47 0 -102 -20 -113 -40 -16 -29 -12 -75 8 -93 24 -21 90 -22 120 -1
20 14 22 14 22 0 0 -10 9 -16 21 -16 21 0 21 3 17 107 -4 95 -7 108 -28 125
-25 21 -81 23 -122 5z m102 -138 c0 -49 -49 -81 -90 -59 -36 19 -22 61 25 73
47 11 65 7 65 -14z"/>
<path d="M4130 37575 c0 -118 1 -125 20 -125 19 0 20 7 20 125 0 118 -1 125
-20 125 -19 0 -20 -7 -20 -125z"/>
<path d="M4256 37679 c-48 -38 -27 -84 57 -122 43 -19 55 -40 36 -63 -13 -16
-60 -15 -103 2 -11 4 -16 0 -16 -14 0 -25 18 -32 81 -32 40 0 55 5 74 25 43
43 32 76 -39 112 -66 33 -76 41 -69 60 4 11 19 14 62 11 45 -2 56 0 59 13 6
34 -101 40 -142 8z"/>
<path d="M4661 37684 c-47 -34 -65 -119 -36 -174 21 -41 53 -60 103 -60 79 0
127 79 102 168 -5 21 -19 47 -30 57 -28 26 -108 31 -139 9z m113 -46 c25 -36
21 -104 -9 -133 -29 -30 -45 -31 -79 -4 -21 17 -26 29 -26 68 0 62 21 91 65
91 24 0 39 -7 49 -22z"/>
<path d="M4900 37575 c0 -116 1 -125 19 -125 17 0 19 9 22 86 4 76 7 88 28
105 13 10 34 19 47 19 17 0 24 6 24 20 0 27 -48 27 -77 1 -21 -20 -21 -20 -26
0 -3 10 -12 19 -21 19 -14 0 -16 -17 -16 -125z"/>
<path d="M5050 37693 c0 -5 20 -59 45 -121 25 -61 45 -118 45 -126 0 -25 -41
-66 -66 -66 -19 0 -25 -5 -22 -17 4 -24 43 -28 73 -9 31 20 45 48 100 194 24
64 47 125 50 135 6 13 2 17 -17 17 -22 0 -28 -10 -58 -95 -18 -53 -34 -94 -36
-93 -2 2 -18 44 -37 93 -27 71 -39 91 -56 93 -11 2 -21 0 -21 -5z"/>
<path d="M1730 35796 c0 -2 7 -7 16 -10 8 -3 12 -2 9 4 -6 10 -25 14 -25 6z"/>
<path d="M4008 35793 c7 -3 16 -2 19 1 4 3 -2 6 -13 5 -11 0 -14 -3 -6 -6z"/>
<path d="M4130 35790 c0 -5 5 -10 10 -10 6 0 10 5 10 10 0 6 -4 10 -10 10 -5
0 -10 -4 -10 -10z"/>
<path d="M6440 35787 c14 -6 30 -18 35 -25 8 -10 11 -9 12 7 1 11 -1 20 -5 20
-4 -1 -9 -1 -12 1 -3 1 -16 3 -30 5 l-25 4 25 -12z"/>
<path d="M1636 35762 c-9 -11 -14 -26 -10 -36 8 -20 18 -20 34 -1 6 8 15 14
18 13 4 0 16 0 27 1 17 1 18 3 5 11 -21 14 -27 13 -50 -12 -15 -16 -20 -18
-20 -7 0 8 5 20 12 27 6 6 9 14 6 17 -2 3 -12 -3 -22 -13z"/>
<path d="M1678 35773 c7 -3 16 -2 19 1 4 3 -2 6 -13 5 -11 0 -14 -3 -6 -6z"/>
<path d="M2165 35773 c1053 -7 1843 -7 1838 0 -2 4 -507 6 -1121 5 -614 -2
-937 -4 -717 -5z"/>
<path d="M4052 35761 c15 -24 43 -28 51 -7 4 10 1 13 -8 10 -7 -3 -23 0 -35 6
-19 10 -20 10 -8 -9z"/>
<path d="M4157 35773 c-5 -7 785 -7 1838 0 220 1 -103 3 -717 5 -614 1 -1119
-1 -1121 -5z"/>
<path d="M6504 35768 c-4 -6 -3 -8 3 -5 6 4 14 0 17 -9 4 -11 2 -15 -7 -11 -8
3 -14 -1 -14 -9 0 -7 4 -11 8 -8 4 2 10 0 14 -6 3 -5 12 -10 18 -10 8 0 8 3
-1 9 -11 7 -11 9 2 14 9 4 16 2 16 -4 0 -6 6 -7 13 -3 6 4 4 -2 -6 -13 -14
-16 -15 -23 -6 -29 8 -4 10 -3 5 4 -4 7 -1 12 8 12 22 0 20 22 -4 43 -11 9
-20 12 -20 6 0 -5 -5 -7 -10 -4 -6 4 -8 10 -5 15 3 4 -2 10 -10 14 -8 3 -17 0
-21 -6z"/>
<path d="M6404 35759 c-3 -5 3 -6 12 -2 12 5 15 3 9 -6 -5 -10 -2 -11 13 -7
11 4 23 2 27 -4 3 -5 10 -10 16 -10 5 0 1 8 -8 18 -19 19 -60 25 -69 11z"/>
<path d="M1580 35725 c-7 -9 -11 -17 -9 -18 2 -1 13 -9 23 -17 11 -8 17 -10
13 -3 -4 6 -1 14 5 16 7 3 3 6 -10 6 -13 1 -20 5 -17 11 4 6 11 7 17 4 7 -4 8
-2 4 4 -9 15 -11 15 -26 -3z"/>
<path d="M1539 35689 c-8 -5 -9 -9 -4 -9 6 0 1 -7 -9 -15 -19 -14 -12 -21 17
-16 12 2 8 -22 -9 -49 -14 -23 -14 -23 -9 -3 8 31 -3 47 -21 32 -8 -6 -14 -17
-14 -23 0 -6 5 -4 10 4 8 12 10 8 11 -15 1 -16 0 -42 -1 -57 -1 -16 3 -28 9
-28 6 0 8 6 5 13 -3 8 4 35 16 61 12 29 18 59 15 77 -6 34 2 38 14 7 8 -22 8
-22 13 -1 6 24 -20 37 -43 22z"/>
<path d="M6603 35671 c2 -11 6 -23 9 -27 4 -3 4 -12 2 -18 -3 -7 3 -19 12 -27
10 -8 15 -9 11 -2 -4 6 -2 15 4 18 7 5 3 12 -10 21 -11 8 -18 21 -15 28 3 8 1
17 -5 21 -7 4 -10 -2 -8 -14z"/>
<path d="M6654 35605 c-3 -8 -3 -19 1 -25 3 -5 2 -10 -2 -10 -5 0 -9 -13 -8
-28 0 -19 5 -29 17 -29 21 -2 34 33 18 52 -6 8 -8 20 -4 26 5 8 3 9 -6 4 -10
-6 -12 -4 -7 8 3 10 4 17 1 17 -2 0 -7 -7 -10 -15z m26 -56 c0 -5 -4 -9 -10
-9 -5 0 -10 7 -10 16 0 8 5 12 10 9 6 -3 10 -10 10 -16z"/>
<path d="M1486 35536 c11 -52 20 -58 19 -12 0 28 -4 43 -13 43 -9 0 -11 -9 -6
-31z"/>
<path d="M1480 34525 c1 -708 4 -954 12 -949 7 5 9 2 6 -7 -3 -8 -2 -23 3 -34
5 -13 7 -7 4 20 -3 22 -5 462 -4 977 0 647 -3 938 -11 943 -7 4 -10 -280 -10
-950z"/>
<path d="M6651 34560 c-2 -509 -3 -942 -3 -963 1 -27 -2 -36 -11 -30 -6 4 -2
-6 11 -21 12 -16 22 -34 22 -40 0 -6 -6 -3 -13 6 -9 11 -18 14 -28 7 -11 -7
-11 -9 4 -9 19 0 21 -8 7 -30 -7 -11 -10 -11 -10 -2 0 10 -3 10 -14 0 -8 -7
-12 -21 -10 -30 1 -11 -3 -18 -12 -18 -9 0 -12 5 -8 12 4 7 3 8 -4 4 -6 -4 -8
-14 -5 -23 5 -12 3 -14 -7 -8 -9 6 -11 4 -5 -5 6 -10 4 -12 -8 -7 -10 3 -17 2
-17 -3 0 -6 6 -10 14 -10 8 0 17 -4 21 -10 3 -5 -7 -8 -24 -5 -25 3 -28 0 -24
-18 5 -21 4 -21 -15 2 -13 16 -21 20 -26 12 -4 -6 -12 -8 -18 -5 -6 4 -9 3 -5
-2 3 -5 -466 -9 -1156 -9 l-1162 0 1135 -6 c1087 -5 1172 -7 1213 -24 14 -6
16 -4 10 11 -6 17 -5 17 11 5 15 -13 18 -12 23 7 3 15 12 21 27 19 16 -1 21 3
20 20 -1 12 5 24 12 27 9 3 11 0 7 -12 -6 -14 -5 -15 9 -2 9 8 13 17 9 20 -11
9 -12 30 -1 30 5 0 10 -5 10 -11 0 -5 5 -7 11 -3 8 4 7 9 -2 15 -13 8 -12 10
10 13 5 0 13 5 18 10 5 5 3 6 -4 2 -7 -4 -13 -3 -13 2 0 6 7 13 16 16 10 4 14
12 10 23 -4 9 -1 20 6 25 9 5 5 8 -12 9 -14 0 -20 3 -14 5 7 3 9 14 6 26 -3
14 -1 19 6 14 8 -4 12 0 12 11 4 1435 4 1873 -3 1873 -4 0 -7 -415 -7 -922 0
-508 -1 -927 -2 -933 -2 -5 -5 411 -8 925 l-5 935 -4 -925z m-151 -1199 c0 -5
-7 -12 -16 -15 -14 -5 -15 -4 -4 9 14 17 20 19 20 6z"/>
<path d="M2750 34915 l0 -235 35 0 35 0 0 106 0 107 56 -6 c68 -7 84 -21 155
-128 50 -76 53 -79 90 -79 22 0 39 2 39 6 0 13 -114 176 -131 187 -25 16 -24
27 2 27 12 0 36 15 55 34 30 30 34 40 34 85 0 41 -5 56 -27 81 -36 40 -79 49
-225 50 l-118 0 0 -235z m263 164 c33 -15 49 -52 37 -84 -14 -37 -66 -55 -155
-55 l-75 0 0 75 0 75 85 0 c46 0 95 -5 108 -11z"/>
<path d="M3960 35115 c0 -32 2 -35 30 -35 28 0 30 3 30 35 0 32 -2 35 -30 35
-28 0 -30 -3 -30 -35z"/>
<path d="M5360 35071 l0 -78 -39 19 c-48 24 -99 17 -141 -19 -36 -30 -52 -78
-51 -150 0 -68 26 -121 71 -147 42 -25 113 -26 140 -1 18 16 20 16 20 2 0 -12
9 -17 30 -17 l30 0 0 235 0 235 -30 0 -30 0 0 -79z m-17 -140 c20 -34 23 -121
5 -154 -28 -53 -89 -63 -128 -22 -28 30 -39 119 -20 164 26 64 108 70 143 12z"/>
<path d="M3603 35118 c-19 -9 -23 -19 -23 -55 0 -36 -3 -43 -20 -43 -15 0 -20
-7 -20 -25 0 -18 5 -25 20 -25 19 0 20 -7 20 -128 0 -149 6 -162 79 -162 40 0
42 1 39 28 -2 16 -8 26 -17 24 -33 -7 -41 18 -41 129 l0 109 30 0 c25 0 30 4
30 25 0 21 -5 25 -30 25 -30 0 -30 1 -30 55 0 58 -2 60 -37 43z"/>
<path d="M3294 35020 c-47 -15 -91 -70 -100 -125 -13 -92 7 -153 69 -198 34
-26 135 -27 173 -3 23 16 64 72 64 89 0 4 -16 7 -35 7 -19 0 -35 -4 -35 -8 0
-5 -9 -18 -20 -30 -45 -48 -140 -14 -152 53 l-5 25 123 0 124 0 0 37 c0 49
-33 115 -68 135 -37 22 -98 30 -138 18z m114 -73 c12 -11 22 -31 22 -44 0 -22
-3 -23 -85 -23 -70 0 -85 3 -85 16 0 28 21 55 53 69 37 16 63 11 95 -18z"/>
<path d="M3827 35010 c-23 -18 -27 -19 -27 -5 0 12 -7 15 -27 13 l-28 -3 0
-165 0 -165 33 -3 32 -3 0 118 c0 142 11 167 67 161 30 -4 36 -1 44 21 11 29
4 39 -36 47 -22 4 -38 0 -58 -16z"/>
<path d="M4195 35019 c-70 -22 -105 -78 -105 -169 0 -115 54 -175 155 -174 78
2 145 46 145 96 0 30 -48 22 -77 -12 -27 -32 -75 -40 -115 -19 -16 9 -48 64
-48 84 0 3 57 5 126 5 l127 0 -6 52 c-10 81 -59 133 -132 142 -22 3 -53 1 -70
-5z m115 -77 c11 -13 20 -33 20 -43 0 -17 -9 -19 -85 -19 -76 0 -85 2 -85 19
0 10 9 30 20 44 33 42 97 42 130 -1z"/>
<path d="M4875 35020 c-67 -21 -105 -84 -105 -175 0 -108 56 -169 155 -168 77
0 145 45 145 95 0 30 -48 22 -77 -12 -27 -32 -75 -40 -115 -19 -16 9 -48 64
-48 84 0 3 57 5 126 5 l127 0 -6 52 c-13 105 -104 168 -202 138z m113 -76 c12
-14 22 -34 22 -45 0 -17 -7 -19 -85 -19 -70 0 -85 3 -85 16 0 28 21 55 53 69
39 17 65 11 95 -21z"/>
<path d="M3960 34850 l0 -170 30 0 30 0 0 170 0 170 -30 0 -30 0 0 -170z"/>
<path d="M4432 35008 c3 -7 31 -84 64 -171 l59 -158 30 3 c29 3 32 8 92 168
35 91 63 166 63 168 0 2 -15 2 -32 0 -32 -3 -34 -6 -75 -118 -23 -63 -44 -119
-46 -124 -2 -6 -23 46 -48 115 -44 123 -44 124 -78 127 -25 3 -32 0 -29 -10z"/>
<path d="M3125 34423 c-82 -43 -119 -111 -119 -220 1 -59 6 -82 30 -130 38
-77 88 -106 183 -106 77 -1 118 17 156 67 36 47 38 87 4 96 -23 7 -28 3 -48
-36 -38 -71 -110 -93 -181 -53 -58 33 -75 70 -75 166 0 76 2 84 31 120 57 71
149 79 203 18 16 -18 30 -38 32 -43 6 -17 59 -2 59 17 0 26 -46 84 -83 104
-41 22 -150 23 -192 0z"/>
<path d="M4228 34406 c-12 -9 -18 -27 -18 -55 0 -37 -2 -41 -25 -41 -20 0 -25
-5 -25 -25 0 -20 5 -25 25 -25 l25 0 0 -129 c0 -151 5 -161 76 -161 44 0 45 1
42 28 -2 15 -9 27 -18 28 -8 1 -21 2 -27 2 -10 2 -13 32 -13 117 l0 115 25 0
c20 0 25 5 25 25 0 20 -5 25 -25 25 -24 0 -25 3 -25 55 0 58 -9 67 -42 41z"/>
<path d="M5088 34406 c-12 -9 -18 -27 -18 -55 0 -37 -2 -41 -25 -41 -20 0 -25
-5 -25 -25 0 -20 5 -25 25 -25 l25 0 0 -129 c0 -151 5 -161 76 -161 44 0 45 1
42 28 -2 15 -9 27 -18 28 -8 1 -21 2 -27 2 -10 2 -13 32 -13 117 l0 115 25 0
c20 0 25 5 25 25 0 20 -5 25 -25 25 -24 0 -25 3 -25 55 0 58 -9 67 -42 41z"/>
<path d="M3557 34306 c-20 -7 -43 -19 -51 -25 -48 -40 -62 -171 -26 -241 26
-50 70 -74 137 -73 63 0 114 29 137 77 23 48 21 152 -3 196 -33 63 -121 93
-194 66z m104 -56 c54 -29 66 -155 19 -205 -25 -27 -75 -34 -111 -15 -63 34
-64 183 -2 219 23 13 69 14 94 1z"/>
<path d="M3950 34309 c-13 -5 -33 -17 -42 -26 -17 -15 -18 -15 -18 5 0 17 -6
22 -25 22 l-25 0 0 -170 0 -170 30 0 30 0 0 120 c0 115 1 122 25 145 16 17 35
25 59 25 57 0 66 -23 66 -167 l0 -123 31 0 30 0 -3 145 c-3 139 -4 146 -28
169 -29 29 -92 41 -130 25z"/>
<path d="M4441 34298 c-59 -31 -83 -78 -83 -163 0 -76 21 -119 72 -149 42 -25
122 -26 168 -2 29 15 62 60 62 86 0 22 -53 9 -80 -20 -30 -32 -73 -40 -111
-20 -18 10 -49 59 -49 79 0 6 48 11 123 13 l122 3 -3 45 c-9 119 -118 182
-221 128z m144 -71 c8 -12 15 -30 15 -40 0 -16 -9 -17 -87 -15 -82 3 -88 4
-85 23 5 27 40 63 66 67 31 5 74 -11 91 -35z"/>
<path d="M4710 34304 c0 -3 23 -38 50 -78 28 -40 50 -76 50 -80 0 -3 -25 -42
-55 -85 -30 -43 -55 -81 -55 -85 0 -3 15 -6 34 -6 30 0 38 6 72 60 22 33 42
60 46 60 4 0 26 -27 48 -60 37 -54 44 -60 75 -60 19 0 35 2 35 5 0 3 -27 43
-60 90 l-61 84 56 75 c30 41 55 77 55 80 0 4 -16 6 -34 6 -31 0 -40 -7 -74
-55 l-39 -55 -37 55 c-32 49 -40 55 -71 55 -19 0 -35 -3 -35 -6z"/>
<path d="M1523 33533 c0 -11 7 -25 15 -33 12 -11 13 -9 7 11 -10 32 -24 47
-22 22z"/>
<path d="M1503 33485 c0 -8 4 -12 9 -9 4 3 17 -1 29 -9 12 -9 16 -18 10 -21
-5 -4 -12 -2 -16 4 -3 5 -11 10 -16 10 -6 0 -3 -7 5 -16 9 -8 21 -12 26 -9 7
4 9 -3 6 -19 -3 -14 -2 -25 2 -24 15 3 62 -15 62 -23 0 -5 4 -9 9 -9 12 0 2
38 -12 47 -6 3 -7 1 -3 -5 4 -7 1 -12 -9 -12 -9 0 -13 4 -10 10 4 6 -1 7 -12
4 -17 -5 -17 -5 0 9 18 15 18 15 -2 22 -11 3 -20 9 -20 13 3 19 -2 33 -10 28
-5 -3 -14 1 -21 9 -16 19 -27 19 -27 0z"/>
<path d="M1647 33379 c7 -7 15 -10 18 -7 3 3 -2 9 -12 12 -14 6 -15 5 -6 -5z"/>
<path d="M1685 33360 c6 -9 4 -12 -7 -8 -8 4 -15 0 -15 -8 0 -7 4 -11 8 -9 3
3 12 -2 19 -11 11 -12 15 -12 22 -2 6 10 10 10 17 -2 6 -8 13 -11 18 -7 4 5 1
12 -7 17 -8 5 -11 12 -7 16 9 9 38 -16 31 -27 -3 -5 466 -9 1115 -9 617 0
1124 0 1128 0 3 0 7 11 8 25 l1 25 -1152 0 c-633 0 -1160 3 -1169 7 -14 5 -16
3 -10 -7z m25 -14 c0 -3 -4 -8 -10 -11 -5 -3 -10 -1 -10 4 0 6 5 11 10 11 6 0
10 -2 10 -4z m1733 -3 c-310 -2 -816 -2 -1125 0 -310 1 -57 2 562 2 619 0 872
-1 563 -2z"/>
<path d="M4026 33345 c-3 -9 0 -15 8 -15 7 0 13 7 13 15 0 8 -4 15 -8 15 -4 0
-9 -7 -13 -15z"/>
<path d="M4129 33327 c6 -8 9 -16 7 -18 -2 -2 508 -4 1134 -4 910 0 1136 3
1128 13 -13 15 4 16 20 0 8 -8 12 -8 12 -1 0 6 -7 14 -16 17 -9 3 -519 6
-1134 6 -885 0 -1119 -3 -1123 -12 -4 -10 -6 -10 -6 0 -1 6 -8 12 -17 12 -13
0 -14 -3 -5 -13z"/>
<path d="M6450 33320 c0 -5 5 -10 10 -10 6 0 10 5 10 10 0 6 -4 10 -10 10 -5
0 -10 -4 -10 -10z"/>
<path d="M3627 31753 c-4 -3 -7 -82 -7 -175 l0 -168 25 0 25 0 0 175 c0 163
-1 175 -18 175 -10 0 -22 -3 -25 -7z"/>
<path d="M4870 31695 c0 -8 -9 -24 -20 -35 -24 -24 -26 -40 -5 -40 12 0 15
-16 15 -83 0 -103 13 -127 71 -127 32 0 39 4 39 19 0 14 -5 18 -19 14 -35 -9
-51 22 -51 103 l0 74 35 0 c28 0 35 4 35 20 0 16 -7 20 -35 20 -31 0 -35 3
-35 25 0 16 -6 25 -15 25 -8 0 -15 -7 -15 -15z"/>
<path d="M5516 31685 c-3 -13 -15 -29 -26 -35 -26 -14 -26 -30 0 -30 18 0 20
-7 20 -88 0 -102 12 -122 73 -122 30 0 37 4 37 19 0 14 -5 18 -20 14 -38 -10
-50 13 -50 98 l0 79 35 0 c28 0 35 4 35 20 0 16 -7 20 -35 20 -31 0 -35 3 -35
25 0 33 -26 33 -34 0z"/>
<path d="M2590 31647 c-20 -10 -25 -20 -25 -52 0 -39 2 -41 60 -70 64 -32 79
-57 45 -75 -20 -11 -41 -9 -92 6 -13 4 -18 0 -18 -14 0 -25 18 -32 79 -32 56
0 91 26 91 69 0 34 -20 53 -83 80 -36 15 -48 26 -45 38 3 15 14 18 60 17 39
-1 59 3 62 12 12 31 -84 46 -134 21z"/>
<path d="M2790 31555 c0 -92 3 -108 20 -125 23 -23 88 -27 123 -9 16 9 22 9
25 0 2 -6 10 -11 18 -11 11 0 14 24 14 125 0 118 -1 125 -20 125 -17 0 -20 -8
-22 -91 -3 -87 -4 -93 -31 -113 -26 -19 -30 -19 -55 -5 -26 14 -27 18 -30 112
-2 89 -4 97 -22 97 -19 0 -20 -7 -20 -105z"/>
<path d="M3070 31480 c0 -173 1 -180 20 -180 18 0 20 7 20 65 0 62 1 65 19 55
39 -20 91 -12 122 19 26 26 29 36 29 94 0 50 -5 70 -20 90 -28 35 -84 46 -122
24 -25 -14 -30 -15 -34 -2 -4 8 -12 15 -20 15 -11 0 -14 -33 -14 -180z m151
123 c8 -9 14 -39 14 -70 0 -45 -4 -58 -24 -74 -31 -25 -47 -24 -76 6 -30 29
-34 97 -9 133 19 27 75 30 95 5z"/>
<path d="M3344 31647 c-2 -7 -3 -87 -2 -177 3 -157 4 -165 23 -165 17 0 21 8
25 62 4 52 7 61 20 53 28 -18 87 -11 116 13 22 19 28 34 32 80 3 34 -1 69 -8
87 -23 54 -96 76 -145 44 -23 -15 -25 -15 -25 0 0 19 -28 22 -36 3z m148 -44
c9 -10 19 -28 22 -40 10 -31 -11 -101 -34 -113 -25 -14 -68 -3 -80 20 -16 30
-12 111 7 132 21 23 65 23 85 1z"/>
<path d="M3708 31654 c-3 -3 16 -60 43 -126 l49 -121 -18 -31 c-12 -20 -27
-32 -45 -34 -20 -2 -27 -9 -27 -24 0 -18 4 -20 38 -15 20 4 45 16 54 27 16 19
111 255 124 307 6 21 4 24 -16 21 -18 -2 -28 -19 -51 -83 -16 -44 -32 -87 -35
-95 -3 -9 -20 25 -41 83 -26 71 -40 97 -52 97 -10 0 -20 -3 -23 -6z"/>
<path d="M4133 31650 c-69 -28 -79 -170 -16 -220 37 -29 126 -25 131 5 2 18
-2 20 -46 17 -43 -3 -52 0 -66 19 -9 13 -16 43 -16 66 0 59 27 85 82 81 43 -3
64 16 37 33 -18 11 -77 10 -106 -1z"/>
<path d="M4337 31639 c-56 -43 -60 -148 -7 -201 23 -23 37 -28 75 -28 38 0 52
5 75 28 57 57 45 177 -20 209 -38 19 -94 16 -123 -8z m117 -41 c9 -13 16 -43
16 -69 0 -39 -5 -51 -26 -68 -15 -12 -32 -21 -39 -21 -7 0 -24 9 -39 21 -21
17 -26 29 -26 68 0 62 21 91 65 91 24 0 39 -7 49 -22z"/>
<path d="M4580 31535 c0 -118 1 -125 20 -125 18 0 20 7 20 83 0 99 14 127 64
127 49 0 56 -14 56 -117 0 -86 1 -93 20 -93 19 0 20 7 20 105 0 94 -2 106 -22
125 -26 24 -84 27 -116 4 -20 -14 -23 -14 -28 0 -3 9 -12 16 -20 16 -11 0 -14
-25 -14 -125z"/>
<path d="M5059 31645 c-36 -20 -52 -64 -47 -131 6 -69 28 -94 91 -101 62 -7
97 2 97 27 0 11 -1 20 -3 20 -1 0 -17 -4 -35 -9 -43 -13 -86 3 -101 35 -6 14
-11 27 -11 29 0 3 36 5 79 5 44 0 83 4 86 10 11 18 -15 89 -42 109 -30 24 -77
26 -114 6z m93 -42 c34 -31 23 -43 -42 -43 -52 0 -59 2 -53 18 16 45 60 57 95
25z"/>
<path d="M5240 31654 c0 -3 18 -30 40 -61 l39 -55 -39 -59 c-22 -32 -40 -60
-40 -63 0 -4 10 -6 23 -6 15 0 31 14 51 46 33 52 27 53 81 -21 14 -19 27 -26
43 -24 22 4 21 6 -17 59 -22 30 -41 60 -41 65 0 6 16 32 35 59 40 57 42 66 15
66 -11 0 -31 -18 -50 -46 l-32 -45 -31 45 c-22 31 -39 46 -54 46 -13 0 -23 -3
-23 -6z"/>
<path d="M1700 29540 c-13 -9 -13 -10 0 -10 13 0 13 -1 0 -11 -12 -8 -10 -9 8
-4 12 3 22 4 22 0 0 -3 -10 -10 -22 -16 -19 -8 -19 -9 -3 -5 11 2 29 7 39 12
11 4 17 4 14 -2 -5 -8 2246 -4 2262 4 3 1 -2 7 -10 12 -13 8 -12 10 3 10 9 0
17 5 17 10 0 13 -13 13 -26 0 -7 -7 -388 -9 -1132 -8 -617 2 -1122 0 -1122 -4
0 -3 -9 -4 -21 -1 -16 4 -17 8 -7 14 7 5 9 9 3 9 -5 0 -17 -5 -25 -10z m1743
-27 c-310 -2 -816 -2 -1125 0 -310 1 -57 2 562 2 619 0 872 -1 563 -2z"/>
<path d="M6426 29543 c-11 -3 -14 -8 -8 -12 5 -3 -501 -5 -1126 -3 -626 2
-1156 0 -1179 -3 -24 -3 -43 -10 -43 -15 0 -6 11 -5 26 0 31 12 34 12 34 1 0
-5 -10 -11 -22 -13 -13 -2 500 -3 1139 -3 638 0 1159 3 1156 8 -2 4 4 8 14 8
24 2 25 2 47 -7 14 -5 17 -4 11 5 -6 10 -2 11 16 7 21 -6 21 -5 6 4 -9 6 -27
9 -40 6 -12 -3 -16 -3 -9 0 6 3 12 10 12 15 0 9 -3 10 -34 2z m-593 -30 c-309
-2 -817 -2 -1130 0 -312 1 -59 2 562 2 622 0 877 -1 568 -2z"/>
<path d="M1650 29522 c0 -7 -6 -12 -14 -12 -25 0 -27 -16 -4 -36 21 -19 21
-19 11 1 -9 15 -7 22 5 31 10 7 14 16 9 20 -4 4 -7 2 -7 -4z"/>
<path d="M4030 29507 c0 -10 8 -17 18 -17 9 0 13 4 7 8 -5 4 -13 11 -17 16 -5
5 -8 2 -8 -7z"/>
<path d="M6533 29509 c17 -10 15 -29 -4 -29 -6 0 -7 5 -4 10 3 6 -3 10 -14 10
-11 0 -23 -5 -27 -12 -5 -7 -3 -8 5 -4 7 5 21 0 32 -10 10 -9 19 -12 19 -6 0
6 6 9 14 6 8 -3 17 -1 21 5 4 7 -1 8 -12 4 -10 -3 -15 -3 -11 2 9 10 -10 35
-26 35 -6 0 -3 -5 7 -11z"/>
<path d="M1655 29491 c-3 -5 -1 -12 4 -15 5 -3 11 1 15 9 6 16 -9 21 -19 6z"/>
<path d="M1560 29459 c-11 -19 -10 -20 10 -9 11 6 18 15 15 21 -9 13 -13 11
-25 -12z"/>
<path d="M6580 29466 c-8 -11 -9 -16 -1 -16 6 0 11 5 11 11 0 5 5 7 11 3 8 -4
4 -13 -12 -26 -13 -10 -18 -17 -10 -16 7 2 15 -6 17 -17 1 -11 8 -21 14 -23 5
-2 8 -8 4 -13 -3 -5 -1 -9 5 -9 5 0 9 8 9 18 0 9 1 24 3 32 3 9 -3 14 -13 14
-21 -2 -24 12 -5 19 9 3 8 9 -4 21 -14 15 -17 15 -29 2z m50 -50 c0 -2 -7 -7
-16 -10 -8 -3 -12 -2 -9 4 6 10 25 14 25 6z"/>
<path d="M1610 29460 c13 -8 13 -10 -1 -10 -9 0 -28 -9 -42 -20 -14 -11 -33
-20 -42 -20 -9 0 -13 -5 -10 -10 4 -6 10 -8 14 -6 4 3 13 0 21 -5 13 -9 13
-10 0 -8 -34 3 -46 -2 -47 -22 -1 -11 5 -23 13 -26 7 -3 11 -10 7 -16 -4 -6
-1 -7 7 -2 10 6 10 11 -3 20 -20 14 -22 28 -5 23 12 -4 43 19 43 31 0 13 31
48 48 54 19 7 14 27 -6 27 -7 0 -6 -4 3 -10z m-30 -34 c0 -2 -8 -10 -17 -17
-16 -13 -17 -12 -4 4 13 16 21 21 21 13z"/>
<path d="M6646 29382 c-3 -5 1 -9 9 -9 8 0 12 4 9 9 -3 4 -7 8 -9 8 -2 0 -6
-4 -9 -8z"/>
<path d="M6656 29320 c5 -34 3 -39 -10 -34 -9 3 -16 1 -16 -6 0 -6 4 -8 10 -5
13 8 14 -2014 1 -2047 -5 -15 -6 -30 0 -39 6 -10 9 -4 9 21 0 26 3 31 10 20 7
-11 10 -11 10 -2 0 7 3 11 8 9 5 -4 5 1996 -1 2090 -1 12 -7 25 -14 27 -9 4
-11 -5 -7 -34z m14 -1065 l-5 -1020 -3 1016 c-2 843 1 1060 12 1027 1 -2 -1
-462 -4 -1023z"/>
<path d="M6630 29340 c0 -5 5 -10 11 -10 5 0 7 5 4 10 -3 6 -8 10 -11 10 -2 0
-4 -4 -4 -10z"/>
<path d="M1481 29318 c0 -7 4 -22 8 -33 8 -19 8 -19 15 2 8 24 1 43 -15 43 -5
0 -9 -6 -8 -12z"/>
<path d="M1480 28248 c0 -600 4 -1009 9 -1012 13 -9 14 1984 1 2004 -6 10 -10
-323 -10 -992z"/>
<path d="M2820 28606 l0 -236 113 1 c61 0 130 6 152 13 52 15 85 63 85 123 0
38 -5 50 -35 80 l-35 35 25 30 c30 36 32 81 5 125 -29 49 -53 56 -187 61
l-123 4 0 -236z m220 165 c33 -9 53 -51 41 -84 -12 -31 -57 -47 -132 -47 l-59
0 0 70 0 70 63 -1 c34 -1 73 -4 87 -8z m40 -211 c30 -30 27 -83 -6 -109 -22
-17 -41 -21 -105 -21 l-79 0 0 75 0 75 85 0 c72 0 88 -3 105 -20z"/>
<path d="M3930 28806 c0 -33 2 -36 31 -36 28 0 30 2 27 33 -2 27 -8 33 -30 35
-26 3 -28 1 -28 -32z"/>
<path d="M3670 28710 c-43 -10 -80 -52 -80 -90 0 -47 36 -78 119 -104 86 -26
105 -44 77 -75 -14 -15 -31 -21 -62 -21 -37 0 -47 5 -66 30 -15 21 -30 30 -50
30 -15 0 -28 -2 -28 -5 0 -21 32 -76 52 -88 58 -37 158 -28 204 18 27 28 33
89 11 120 -8 10 -52 30 -98 45 -46 15 -88 35 -93 44 -16 23 14 48 59 49 29 1
43 -5 61 -26 18 -21 29 -26 49 -21 29 7 28 5 15 38 -18 48 -96 74 -170 56z"/>
<path d="M4187 28710 c-16 -5 -35 -14 -43 -21 -11 -9 -14 -8 -14 5 0 11 -9 16
-30 16 l-30 0 0 -170 0 -170 30 0 30 0 0 104 c0 145 19 185 86 186 57 0 68
-25 72 -166 l4 -124 29 0 29 0 0 118 c0 134 -11 186 -44 208 -30 19 -83 26
-119 14z"/>
<path d="M4514 28710 c-42 -13 -91 -70 -100 -115 -10 -55 1 -133 23 -163 38
-51 68 -65 133 -65 68 1 101 17 130 66 27 43 26 47 -15 47 -19 0 -35 -4 -35
-8 0 -5 -9 -18 -20 -30 -45 -48 -140 -14 -152 53 l-5 25 123 0 124 0 0 37 c0
49 -33 115 -68 135 -37 22 -98 30 -138 18z m114 -73 c12 -11 22 -31 22 -44 0
-22 -3 -23 -85 -23 -70 0 -85 3 -85 16 0 28 21 55 53 69 37 16 63 11 95 -18z"/>
<path d="M4851 28710 c-44 -11 -70 -38 -77 -81 -9 -53 22 -84 109 -110 77 -23
97 -34 97 -55 0 -43 -100 -62 -133 -26 -10 10 -17 24 -17 30 0 13 -56 17 -64
4 -2 -4 2 -21 9 -39 23 -53 103 -82 175 -63 59 16 90 50 90 97 0 56 -22 80
-88 99 -110 30 -137 49 -112 79 27 32 114 21 126 -17 5 -16 11 -18 32 -13 36
9 37 11 24 39 -22 49 -99 74 -171 56z"/>
<path d="M5168 28707 c-44 -14 -69 -45 -70 -87 -2 -49 26 -78 90 -95 98 -28
112 -35 112 -61 0 -28 -26 -44 -72 -44 -38 0 -78 24 -78 46 0 9 -11 14 -30 14
-35 0 -40 -21 -13 -60 22 -32 30 -38 75 -50 52 -15 115 -2 152 31 24 22 31 35
31 67 0 55 -24 78 -109 103 -39 12 -77 26 -83 31 -23 18 -15 46 16 56 39 14
83 1 96 -26 18 -41 72 -21 61 22 -12 48 -108 76 -178 53z"/>
<path d="M3240 28600 c0 -134 13 -195 48 -218 32 -21 110 -21 143 1 24 16 27
16 32 2 4 -8 18 -15 32 -15 l25 0 0 170 0 170 -30 0 -30 0 0 -104 c0 -145 -19
-185 -86 -186 -57 0 -68 25 -71 163 l-3 122 -30 3 -30 3 0 -111z"/>
<path d="M3930 28540 l0 -170 30 0 30 0 0 170 0 170 -30 0 -30 0 0 -170z"/>
<path d="M3310 27896 l0 -236 30 0 29 0 3 103 3 102 37 3 c67 6 101 -18 164
-117 l59 -91 43 0 42 0 -37 61 c-21 33 -55 81 -77 105 -21 25 -37 46 -35 47 2
2 21 10 42 20 63 29 86 111 47 174 -30 51 -52 57 -207 61 l-143 4 0 -236z
m274 153 c27 -22 34 -56 16 -89 -14 -26 -70 -40 -157 -40 l-73 0 0 75 0 75 94
0 c79 0 97 -3 120 -21z"/>
<path d="M4120 27895 l0 -235 30 0 30 0 0 235 0 235 -30 0 -30 0 0 -235z"/>
<path d="M4355 27999 c-69 -21 -105 -78 -105 -167 0 -116 52 -175 155 -175 77
0 145 45 145 95 0 30 -48 22 -77 -12 -27 -32 -75 -40 -115 -19 -16 9 -48 64
-48 84 0 3 56 5 125 5 l125 0 0 29 c0 73 -48 144 -109 161 -42 12 -56 11 -96
-1z m113 -75 c12 -14 22 -34 22 -45 0 -17 -7 -19 -85 -19 -70 0 -85 3 -85 16
0 28 21 55 53 69 39 17 65 11 95 -21z"/>
<path d="M4691 28000 c-44 -11 -70 -38 -77 -81 -9 -53 22 -84 109 -110 77 -23
97 -34 97 -55 0 -43 -100 -62 -133 -26 -10 10 -17 24 -17 30 0 13 -56 17 -64
4 -2 -4 3 -22 11 -40 27 -55 100 -81 177 -61 57 14 86 48 86 98 0 54 -23 78
-88 97 -110 30 -137 49 -112 79 27 32 114 21 126 -17 5 -16 11 -18 32 -13 36
9 37 11 24 39 -22 49 -99 74 -171 56z"/>
<path d="M3760 27889 c0 -133 13 -194 48 -217 33 -22 110 -21 145 2 24 16 27
17 27 2 0 -11 9 -16 30 -16 l30 0 0 170 0 170 -30 0 -30 0 0 -104 c0 -145 -19
-185 -86 -186 -55 0 -65 23 -71 164 l-6 126 -28 0 -29 0 0 -111z"/>
<path d="M6681 27204 c0 -11 3 -14 6 -6 3 7 2 16 -1 19 -3 4 -6 -2 -5 -13z"/>
<path d="M1481 27184 c0 -11 3 -14 6 -6 3 7 2 16 -1 19 -3 4 -6 -2 -5 -13z"/>
<path d="M1501 27172 c-1 -16 -5 -21 -13 -16 -8 5 -8 1 2 -12 22 -29 24 -30
17 -11 -4 10 -3 16 1 13 16 -9 29 9 21 29 l-8 20 -1 -20 -1 -20 -9 20 c-8 19
-9 19 -9 -3z"/>
<path d="M6657 27170 c-3 -10 1 -24 7 -29 10 -8 11 -3 8 19 -5 35 -8 37 -15
10z"/>
<path d="M6629 27160 c-1 -8 -3 -29 -4 -47 -1 -27 1 -30 16 -22 21 11 34 29
22 29 -5 0 -14 12 -20 28 -6 16 -12 21 -14 12z"/>
<path d="M1520 27134 c0 -4 7 -16 17 -26 9 -10 11 -18 5 -18 -6 0 -14 5 -17
10 -3 6 -12 10 -18 10 -8 0 -7 -4 2 -9 8 -5 16 -17 17 -26 4 -26 12 -28 19 -6
3 12 11 21 16 21 6 0 5 -8 -1 -21 -14 -25 7 -54 48 -64 18 -4 22 -9 13 -14 -7
-5 -9 -11 -5 -13 5 -3 18 3 29 14 17 16 17 18 2 12 -14 -5 -16 -2 -10 12 6 17
5 17 -9 6 -14 -11 -18 -10 -28 7 -6 12 -7 21 -3 21 4 0 1 5 -7 10 -8 5 -15 13
-15 18 0 4 -12 20 -27 35 -16 16 -28 25 -28 21z m64 -90 c9 -24 2 -26 -12 -4
-7 11 -8 20 -3 20 5 0 12 -7 15 -16z"/>
<path d="M6574 27059 c-18 -19 -23 -28 -11 -24 9 4 17 11 17 17 0 5 5 6 12 2
7 -5 5 -11 -7 -21 -23 -16 -2 -18 28 -2 l21 12 -24 9 c-20 7 -22 11 -10 18 8
5 12 11 9 14 -3 3 -19 -8 -35 -25z"/>
<path d="M6536 27016 c10 -8 16 -18 12 -22 -4 -4 -14 -1 -23 6 -9 7 -15 8 -15
2 0 -5 -8 -9 -17 -7 -12 1 -13 0 -3 -3 12 -4 11 -6 -4 -12 -19 -6 -19 -7 2
-12 12 -4 20 -2 16 3 -3 5 -2 9 3 10 43 3 68 10 77 20 8 9 8 10 -2 5 -6 -4
-19 0 -28 8 -8 9 -20 16 -27 16 -6 0 -2 -6 9 -14z"/>
<path d="M1685 26990 c27 -12 43 -12 25 0 -8 5 -22 9 -30 9 -10 0 -8 -3 5 -9z"/>
<path d="M1734 26978 c-3 -4 505 -7 1128 -6 623 2 991 4 818 5 -799 7 -1942 7
-1946 1z"/>
<path d="M4115 26981 c-3 -5 -1 -12 4 -15 5 -3 11 1 15 9 6 16 -9 21 -19 6z"/>
<path d="M5285 26980 l-1120 -5 1126 -2 c807 -2 1134 -6 1158 -14 17 -6 35 -9
38 -5 4 3 -1 6 -10 6 -9 0 -17 6 -17 13 0 8 -11 13 -27 13 -16 -1 -532 -3
-1148 -6z"/>
<path d="M4027 26969 c7 -7 15 -10 18 -7 3 3 -2 9 -12 12 -14 6 -15 5 -6 -5z"/>
<path d="M1700 26963 c8 -3 24 -10 35 -15 20 -9 20 -9 1 6 -11 9 -27 16 -35
15 -14 0 -14 -1 -1 -6z"/>
<path d="M2880 26960 l-1125 -5 1128 0 c620 0 1127 -3 1127 -7 0 -5 -505 -9
-1122 -11 l-1123 -2 1137 -2 c893 -2 1139 0 1144 10 4 6 3 9 -1 4 -5 -4 -15
-1 -24 5 -13 10 -249 12 -1141 8z"/>
<path d="M4132 26954 c-11 -12 -6 -24 10 -24 5 0 6 5 3 10 -4 7 370 9 1144 8
632 -2 1147 0 1143 4 -13 13 -2288 15 -2300 2z"/>
<path d="M1688 26943 c7 -3 16 -2 19 1 4 3 -2 6 -13 5 -11 0 -14 -3 -6 -6z"/>
<path d="M4723 26933 c313 -2 821 -2 1130 0 309 1 54 2 -568 2 -621 0 -874 -1
-562 -2z"/>
<path d="M3767 25394 c-4 -4 -7 -83 -7 -176 l0 -168 25 0 25 0 -2 172 c-3 147
-5 173 -18 176 -9 1 -19 0 -23 -4z"/>
<path d="M4697 25393 c-4 -3 -7 -82 -7 -175 l0 -168 25 0 25 0 0 175 c0 163
-1 175 -18 175 -10 0 -22 -3 -25 -7z"/>
<path d="M2993 25290 c-13 -5 -23 -16 -23 -24 0 -12 11 -13 55 -9 52 6 55 5
65 -21 14 -37 14 -36 -24 -36 -43 0 -98 -18 -113 -38 -19 -24 -16 -69 7 -92
24 -24 86 -27 117 -5 19 13 22 13 27 0 3 -8 13 -15 22 -15 14 0 15 13 12 106
-3 97 -5 107 -27 125 -25 20 -80 24 -118 9z m99 -125 c12 -12 -6 -57 -28 -72
-41 -27 -93 1 -78 41 9 23 90 47 106 31z"/>
<path d="M3210 25120 c0 -173 1 -180 20 -180 18 0 20 7 20 65 0 60 9 80 25 55
3 -5 26 -10 51 -10 35 0 50 5 68 25 45 49 40 160 -9 203 -30 26 -81 29 -112 7
-19 -13 -22 -13 -27 0 -3 8 -12 15 -21 15 -13 0 -15 -25 -15 -180z m154 118
c25 -36 21 -104 -9 -133 -29 -30 -45 -31 -76 -6 -20 16 -24 29 -24 74 0 31 6
61 14 70 20 25 76 22 95 -5z"/>
<path d="M3490 25120 c0 -173 1 -180 20 -180 18 0 20 7 20 65 0 62 1 65 19 55
39 -20 91 -12 122 19 26 27 29 36 29 94 0 58 -3 68 -29 96 -33 35 -81 42 -119
15 -20 -14 -23 -14 -28 0 -3 9 -12 16 -20 16 -11 0 -14 -33 -14 -180z m151
123 c8 -9 14 -39 14 -70 0 -45 -4 -58 -24 -74 -31 -25 -47 -24 -76 6 -30 29
-34 97 -9 133 19 27 75 30 95 5z"/>
<path d="M3850 25286 c0 -8 20 -63 45 -122 28 -67 42 -117 39 -129 -10 -32
-35 -55 -61 -55 -17 0 -23 -6 -23 -21 0 -19 4 -21 37 -16 20 4 45 14 55 24 18
18 128 293 128 319 0 8 -9 14 -19 14 -18 0 -30 -26 -83 -180 -6 -16 -6 -16
-54 113 -19 50 -30 67 -45 67 -10 0 -19 -6 -19 -14z"/>
<path d="M4230 25175 c0 -118 1 -125 20 -125 18 0 20 7 20 70 0 99 24 140 81
140 12 0 19 7 19 20 0 27 -39 27 -73 0 -25 -20 -25 -20 -30 0 -3 11 -12 20
-21 20 -14 0 -16 -17 -16 -125z"/>
<path d="M4413 25285 c-3 -9 -3 -57 -1 -107 4 -80 7 -93 27 -109 25 -21 90
-25 121 -9 13 7 21 7 25 0 3 -5 13 -10 21 -10 11 0 14 23 14 125 0 118 -1 125
-20 125 -18 0 -20 -7 -20 -85 0 -78 -2 -88 -25 -110 -28 -29 -57 -32 -79 -9
-12 12 -16 37 -16 110 0 88 -1 94 -20 94 -11 0 -23 -7 -27 -15z"/>
<path d="M4839 25272 c-26 -23 -33 -38 -37 -80 -9 -95 31 -142 122 -142 57 0
76 8 76 31 0 19 -15 20 -67 4 -27 -9 -72 17 -82 46 l-10 29 85 0 c83 0 84 0
84 25 0 101 -99 151 -171 87z m111 -31 c18 -35 12 -41 -45 -41 -41 0 -55 4
-55 14 0 43 80 64 100 27z"/>
<path d="M5076 25279 c-49 -38 -32 -76 52 -118 48 -25 60 -44 41 -67 -13 -16
-60 -15 -103 2 -11 4 -16 0 -16 -14 0 -25 18 -32 81 -32 40 0 55 5 74 25 43
43 32 76 -39 112 -66 33 -76 41 -69 60 4 11 19 14 62 11 45 -2 56 0 59 13 6
34 -101 40 -142 8z"/>
<path d="M2885 23180 l1120 -5 -1128 -5 c-620 -3 -1127 -2 -1127 3 0 4 -5 7
-11 7 -5 0 -8 -4 -5 -9 4 -5 0 -12 -6 -14 -7 -3 523 -7 1177 -9 l1190 -3
-1175 -5 c-802 -4 -435 -5 1155 -5 2003 0 2330 2 2330 14 0 8 6 16 14 19 8 3
11 0 7 -7 -5 -7 -1 -9 10 -4 11 4 15 3 10 -5 -8 -13 21 -23 49 -17 11 2 23 4
28 4 13 2 7 18 -8 19 -8 1 -22 3 -30 4 -8 1 -15 4 -15 7 0 3 -521 5 -1157 3
-926 -2 -1158 0 -1165 10 -6 10 -8 10 -8 0 0 -7 -5 -10 -12 -6 -7 4 -8 3 -4
-5 4 -6 12 -9 17 -6 5 4 9 0 9 -7 0 -8 -11 -14 -25 -14 -14 0 -25 4 -25 8 0 4
-8 8 -17 8 -9 0 -25 8 -35 17 -13 12 -18 13 -16 4 2 -7 -3 -16 -10 -18 -7 -3
-10 1 -6 11 5 14 -102 15 -1122 13 l-1129 -2 1120 -5z m2958 -37 c-310 -2
-816 -2 -1125 0 -310 1 -57 2 562 2 619 0 872 -1 563 -2z m644 1 c-3 -3 -12
-4 -19 -1 -8 3 -5 6 6 6 11 1 17 -2 13 -5z"/>
<path d="M4718 23183 c310 -2 814 -2 1120 0 306 1 53 2 -563 2 -616 0 -867 -1
-557 -2z"/>
<path d="M1664 23155 c4 -12 0 -14 -18 -9 -13 3 -27 1 -30 -4 -3 -5 0 -10 7
-9 6 0 21 -1 32 -2 17 -1 18 -3 5 -12 -12 -9 -12 -10 3 -5 10 3 24 6 30 7 7 0
3 5 -8 10 -16 7 -13 8 15 5 34 -4 34 -4 8 7 -16 6 -28 14 -28 19 0 4 -5 8 -11
8 -6 0 -9 -7 -5 -15z"/>
<path d="M1582 23105 c-7 -14 -16 -24 -21 -20 -5 3 -16 -8 -24 -25 -14 -26
-14 -30 -1 -30 9 0 13 4 10 8 -3 5 8 21 23 36 21 20 31 24 36 15 5 -7 4 -10
-1 -7 -10 5 -47 -32 -51 -51 -2 -6 2 -11 7 -11 6 0 10 4 10 9 0 5 16 26 35 47
19 20 32 40 29 43 -4 3 -9 0 -11 -7 -4 -10 -8 -9 -17 3 -11 15 -13 14 -24 -10z"/>
<path d="M6542 23114 c16 -8 29 -26 33 -46 6 -26 9 -28 17 -15 5 9 14 17 20
17 7 0 7 -4 1 -12 -16 -20 -12 -47 5 -40 10 4 13 1 8 -7 -11 -18 2 -61 18 -61
19 0 28 -27 11 -34 -9 -3 -12 0 -8 10 3 7 0 14 -5 14 -7 0 -8 -9 -4 -22 4 -13
7 -526 7 -1140 0 -614 3 -1110 8 -1103 4 7 6 500 5 1094 -2 597 1 1081 6 1081
4 0 5 12 2 26 -5 18 -2 32 10 45 10 11 14 22 11 26 -4 3 -7 0 -7 -8 0 -11 -2
-11 -10 1 -13 20 -13 33 0 25 6 -3 10 -1 10 5 0 6 -7 13 -15 16 -8 4 -12 10
-9 15 3 6 0 16 -6 24 -7 8 -9 15 -4 15 4 0 -5 14 -21 30 -16 17 -36 30 -44 30
-14 0 -14 1 -1 10 8 5 11 10 5 11 -5 1 -23 3 -40 5 l-30 3 27 -15z m58 -34 c0
-5 -4 -10 -10 -10 -5 0 -10 5 -10 10 0 6 5 10 10 10 6 0 10 -4 10 -10z m35
-39 c-3 -5 -1 -12 5 -16 13 -8 13 -25 -1 -25 -5 0 -8 4 -4 9 3 5 1 12 -5 16
-13 8 -13 25 1 25 5 0 8 -4 4 -9z m15 -67 c0 -8 -4 -12 -10 -9 -5 3 -10 10
-10 16 0 5 5 9 10 9 6 0 10 -7 10 -16z"/>
<path d="M1512 23015 c10 -10 49 -14 43 -4 -4 5 -16 9 -27 9 -12 0 -19 -2 -16
-5z"/>
<path d="M1501 22991 c-9 -6 -10 -11 -2 -15 6 -4 11 -2 11 4 0 6 5 8 10 5 6
-3 10 -1 10 4 0 13 -10 14 -29 2z"/>
<path d="M1497 22910 c15 -58 33 -80 33 -40 0 11 -4 20 -10 20 -5 0 -10 7 -10
16 0 8 5 12 10 9 6 -3 10 -1 10 5 0 7 -7 9 -16 6 -10 -4 -14 -1 -11 6 2 7 12
12 21 12 19 -2 21 11 4 22 -6 4 -14 2 -16 -5 -3 -8 -8 -9 -17 -1 -10 8 -10 -3
2 -50z"/>
<path d="M6681 22894 c0 -11 3 -14 6 -6 3 7 2 16 -1 19 -3 4 -6 -2 -5 -13z"/>
<path d="M1486 22844 c-3 -9 -5 -502 -5 -1097 1 -595 5 -1059 10 -1032 7 49
12 2145 5 2145 -2 0 -7 -7 -10 -16z"/>
<path d="M6673 21740 c-1 -608 1 -1096 5 -1085 4 11 5 508 2 1105 l-5 1085 -2
-1105z"/>
<path d="M3120 22352 c-45 -22 -75 -79 -66 -127 10 -51 60 -89 147 -110 95
-23 127 -40 135 -70 8 -33 1 -50 -30 -70 -67 -44 -181 -14 -201 53 -8 27 -14
32 -35 30 -58 -7 -20 -106 55 -143 55 -26 159 -26 205 0 48 29 73 67 73 114 0
76 -48 118 -167 146 -93 23 -116 38 -116 75 0 82 169 85 200 4 7 -18 17 -24
40 -24 24 0 30 4 30 23 0 35 -34 82 -73 100 -47 23 -151 22 -197 -1z"/>
<path d="M4152 22334 c-16 -11 -22 -25 -22 -55 0 -32 -3 -39 -20 -39 -15 0
-20 -7 -20 -25 0 -18 5 -25 19 -25 18 0 19 -10 22 -131 4 -115 6 -132 23 -145
22 -15 106 -19 106 -5 0 20 -13 41 -25 41 -35 0 -45 29 -45 136 l0 104 30 0
c25 0 30 4 30 25 0 21 -5 25 -30 25 -30 0 -30 1 -30 55 0 59 -4 63 -38 39z"/>
<path d="M3872 22240 c-51 -12 -82 -47 -82 -92 0 -52 24 -73 116 -100 83 -25
102 -43 78 -76 -21 -30 -95 -31 -124 -2 -11 11 -20 25 -20 30 0 6 -14 10 -31
10 -29 0 -31 -2 -24 -27 22 -94 178 -121 248 -43 59 66 24 128 -92 164 -82 25
-106 46 -80 72 9 9 34 16 54 17 30 1 42 -5 60 -27 17 -22 27 -26 48 -21 23 6
24 9 15 35 -5 16 -19 35 -31 43 -30 19 -94 27 -135 17z"/>
<path d="M4387 22236 c-20 -7 -43 -19 -51 -25 -49 -41 -66 -181 -29 -243 54
-92 222 -98 268 -8 21 41 19 50 -11 50 -16 0 -37 -12 -54 -30 -39 -42 -91 -42
-131 1 -16 17 -29 40 -29 50 0 17 11 19 123 21 l122 3 -3 45 c-7 109 -103 174
-205 136z m128 -79 c8 -12 15 -30 15 -40 0 -16 -9 -17 -87 -15 -82 3 -88 4
-85 23 5 27 40 63 66 67 31 5 74 -11 91 -35z"/>
<path d="M4777 22240 c-16 -5 -34 -14 -41 -20 -10 -8 -15 -7 -20 5 -3 8 -17
15 -31 15 l-25 0 0 -170 0 -170 30 0 30 0 0 104 c0 146 18 186 84 186 46 0 56
-31 56 -167 l0 -123 29 0 29 0 4 126 c3 119 4 127 27 145 34 27 82 22 98 -11
8 -16 13 -68 13 -142 l0 -118 31 0 31 0 -4 145 c-3 141 -4 145 -30 171 -36 37
-103 39 -148 6 -28 -21 -33 -22 -43 -8 -12 16 -60 37 -80 35 -7 0 -25 -5 -40
-9z"/>
<path d="M3450 22233 c0 -4 27 -81 61 -171 62 -163 62 -163 46 -198 -14 -29
-22 -34 -53 -34 -33 0 -35 -2 -32 -27 3 -25 8 -28 45 -31 37 -3 44 1 66 30 13
18 47 94 75 168 28 74 62 165 76 203 l25 67 -32 0 c-32 0 -32 0 -77 -124 -25
-68 -47 -122 -50 -120 -2 3 -23 58 -45 122 -40 114 -42 117 -73 120 -18 2 -32
0 -32 -5z"/>
<path d="M3090 21426 l0 -237 33 3 32 3 3 93 3 92 87 0 c97 0 141 16 176 62
25 35 27 115 3 152 -35 52 -60 60 -204 64 l-133 4 0 -236z m244 163 c50 -23
57 -103 13 -134 -15 -10 -47 -15 -104 -15 l-83 0 0 80 0 80 75 0 c41 0 85 -5
99 -11z"/>
<path d="M5012 21624 c-16 -11 -22 -25 -22 -55 0 -32 -3 -39 -20 -39 -15 0
-20 -7 -20 -25 0 -18 5 -25 19 -25 18 0 19 -10 22 -131 4 -115 6 -132 23 -145
22 -15 106 -19 106 -5 0 20 -13 41 -25 41 -35 0 -45 29 -45 136 l0 104 30 0
c25 0 30 4 30 25 0 21 -5 25 -30 25 -30 0 -30 1 -30 55 0 59 -4 63 -38 39z"/>
<path d="M3596 21519 c-21 -17 -26 -18 -26 -5 0 11 -9 16 -30 16 l-30 0 0
-170 0 -170 29 0 29 0 4 120 c5 138 17 165 75 158 28 -3 34 0 42 24 9 26 8 30
-15 38 -36 14 -48 13 -78 -11z"/>
<path d="M3807 21526 c-20 -7 -43 -19 -51 -25 -47 -39 -62 -171 -27 -239 53
-103 226 -102 275 2 23 48 21 152 -3 196 -33 63 -121 93 -194 66z m131 -86
c32 -47 28 -137 -8 -175 -25 -27 -75 -34 -111 -15 -63 34 -64 182 -2 219 10 6
36 10 58 8 33 -2 43 -8 63 -37z"/>
<path d="M4185 21520 c-47 -24 -45 -24 -45 -5 0 9 -9 15 -25 15 l-25 0 0 -170
0 -170 29 0 29 0 4 126 c3 119 4 127 27 145 34 27 82 22 98 -11 8 -16 13 -68
13 -142 l0 -118 30 0 30 0 0 119 c0 105 2 121 21 145 23 29 78 36 97 13 6 -7
12 -71 14 -142 l3 -130 30 0 30 0 0 135 c-1 152 -7 174 -62 196 -41 18 -81 11
-118 -18 l-26 -20 -22 20 c-34 32 -85 37 -132 12z"/>
<path d="M4718 21522 c-30 -16 -38 -17 -38 -6 0 8 -10 14 -25 14 l-25 0 0
-236 0 -235 28 3 c26 3 27 5 30 75 l3 72 35 -15 c71 -30 148 9 180 91 32 84 1
205 -60 233 -50 22 -90 24 -128 4z m104 -59 c27 -24 41 -79 33 -130 -18 -121
-151 -127 -170 -7 -19 116 66 201 137 137z"/>
<path d="M1485 20637 c-4 -10 -5 -21 -1 -24 10 -10 18 4 13 24 -4 17 -4 17
-12 0z"/>
<path d="M6681 20618 c-1 -21 -17 -24 -24 -5 -3 7 -6 5 -6 -5 -1 -10 4 -18 9
-18 6 0 10 -10 11 -22 1 -17 3 -15 10 10 6 19 8 39 5 45 -2 7 -5 4 -5 -5z"/>
<path d="M1509 20608 c-4 -15 -6 -50 -3 -40 8 17 24 15 24 -3 0 -13 -12 -19
-32 -16 -4 0 -5 -6 -1 -15 4 -11 8 -12 13 -4 6 9 9 9 15 0 4 -7 1 -16 -6 -22
-11 -7 -9 -8 6 -6 11 2 23 8 27 13 4 6 8 0 8 -13 0 -13 -4 -20 -10 -17 -5 3
-10 2 -10 -4 0 -21 18 -19 28 4 8 17 8 26 1 31 -6 3 -17 22 -25 40 -8 19 -19
34 -25 34 -5 0 -7 5 -4 10 3 6 4 10 1 10 -3 0 -6 -1 -7 -2z m35 -74 c3 -8 2
-12 -4 -9 -6 3 -10 10 -10 16 0 14 7 11 14 -7z"/>
<path d="M6621 20559 c-6 -18 -9 -35 -6 -37 3 -3 5 1 5 8 0 10 4 9 18 -3 16
-14 17 -13 19 13 1 16 -4 33 -11 39 -11 9 -16 5 -25 -20z m29 -5 c0 -8 -4 -12
-10 -9 -5 3 -10 10 -10 16 0 5 5 9 10 9 6 0 10 -7 10 -16z"/>
<path d="M6575 20484 c-12 -19 -12 -23 1 -28 8 -3 12 -11 8 -17 -4 -8 -9 -7
-15 2 -5 8 -9 10 -9 4 0 -5 -5 -3 -11 5 -9 13 -10 13 -6 -2 3 -9 -1 -19 -9
-22 -9 -3 -12 -1 -9 4 3 6 1 10 -4 10 -6 0 -11 -7 -11 -16 0 -11 -6 -15 -19
-11 -15 3 -19 0 -16 -13 3 -13 -1 -16 -17 -12 -15 4 -17 7 -6 14 8 6 4 7 -12
2 -14 -5 -536 -11 -1160 -14 l-1135 -5 1145 -3 c630 -1 1151 -2 1158 -2 7 0
10 -4 7 -10 -8 -12 5 -13 24 -1 7 5 10 14 7 20 -4 6 0 11 9 11 10 0 13 -5 9
-12 -4 -7 6 -1 23 15 35 32 54 36 27 5 -12 -14 -6 -12 17 7 20 17 34 33 32 38
-2 4 1 7 6 7 6 0 11 9 11 20 0 11 5 20 11 20 5 0 7 -5 3 -12 -5 -7 -3 -8 5 -4
17 11 5 21 -25 21 -14 1 -30 -8 -39 -21z m27 -16 c-15 -15 -24 -6 -16 16 5 12
10 14 17 7 8 -8 8 -14 -1 -23z"/>
<path d="M1589 20478 c8 -11 9 -18 1 -23 -5 -3 -10 -1 -10 6 0 7 -3 10 -6 6
-3 -3 -2 -12 2 -19 5 -7 9 -17 9 -23 0 -5 20 -20 45 -31 53 -25 103 -41 81
-25 -12 8 -10 11 12 16 30 8 28 20 -3 28 -18 5 -19 3 -8 -11 14 -17 15 -17
-39 5 -11 4 -14 3 -9 -5 4 -7 2 -12 -3 -12 -18 0 -12 28 7 33 16 4 16 5 -1 6
-10 0 -20 -6 -23 -14 -4 -8 -10 -15 -15 -15 -6 0 -5 9 1 21 7 11 9 23 7 26 -3
2 -8 -5 -12 -16 -3 -12 -11 -21 -16 -21 -6 0 -5 9 2 21 9 18 7 25 -12 43 -13
11 -17 14 -10 4z m108 -94 c-3 -3 -12 -4 -19 -1 -8 3 -5 6 6 6 11 1 17 -2 13
-5z"/>
<path d="M4110 20401 c0 -10 19 -25 25 -20 1 2 -3 10 -11 17 -8 7 -14 8 -14 3z"/>
<path d="M4068 20393 c7 -3 16 -2 19 1 4 3 -2 6 -13 5 -11 0 -14 -3 -6 -6z"/>
<path d="M2880 20380 l1125 -5 -1129 -3 c-621 -1 -1127 -4 -1124 -7 2 -3 512
-6 1132 -8 997 -2 1126 0 1124 13 -3 13 -136 15 -1128 15 l-1125 0 1125 -5z"/>
<path d="M5278 20373 c-632 -2 -1148 -6 -1148 -11 0 -11 2282 -4 2294 8 5 5 8
9 6 8 -3 -2 -521 -4 -1152 -5z"/>
<path d="M3620 18645 c0 -146 2 -175 15 -175 7 0 18 7 23 16 8 14 10 14 21 0
22 -26 97 -21 126 8 70 70 24 226 -67 226 -18 0 -44 -7 -56 -16 l-22 -15 0 65
c0 59 -2 66 -20 66 -19 0 -20 -7 -20 -175z m152 18 c18 -16 25 -92 12 -128
-16 -42 -96 -37 -109 6 -11 32 -8 95 5 118 13 26 65 28 92 4z"/>
<path d="M3900 18645 c0 -168 1 -175 20 -175 19 0 20 7 20 175 0 168 -1 175
-20 175 -19 0 -20 -7 -20 -175z"/>
<path d="M5830 18755 c0 -8 -9 -24 -20 -35 -24 -24 -26 -40 -5 -40 12 0 15
-16 15 -83 0 -103 13 -127 71 -127 32 0 39 4 39 19 0 14 -5 18 -19 14 -35 -9
-51 22 -51 103 l0 74 35 0 c28 0 35 4 35 20 0 16 -7 20 -35 20 -31 0 -35 3
-35 25 0 16 -6 25 -15 25 -8 0 -15 -7 -15 -15z"/>
<path d="M2292 18709 c-40 -16 -20 -34 32 -31 51 4 76 -9 76 -39 0 -14 -7 -19
-27 -19 -105 0 -169 -74 -113 -130 25 -25 95 -27 122 -4 16 16 18 16 24 0 3
-9 12 -16 20 -16 11 0 14 22 14 104 0 101 -1 105 -26 125 -28 22 -82 27 -122
10z m108 -139 c0 -26 -43 -70 -68 -70 -25 0 -45 24 -40 47 4 22 44 43 81 43
21 0 27 -5 27 -20z"/>
<path d="M2530 18707 c-20 -10 -25 -20 -25 -52 0 -39 2 -41 60 -70 33 -16 61
-38 63 -47 6 -34 -51 -46 -110 -23 -14 5 -18 2 -18 -13 0 -25 18 -32 79 -32
56 0 91 26 91 69 0 34 -20 53 -83 80 -36 15 -48 26 -45 38 3 15 14 18 60 17
39 -1 59 3 62 12 12 31 -84 46 -134 21z"/>
<path d="M2747 18709 c-10 -6 -22 -22 -28 -36 -13 -36 7 -63 69 -92 57 -27 72
-49 46 -68 -21 -15 -38 -16 -82 -4 -27 8 -34 7 -39 -6 -9 -22 15 -33 78 -33
65 0 99 24 99 69 0 33 -19 52 -83 80 -36 15 -48 25 -45 38 3 15 14 18 58 18
42 0 55 4 58 16 5 27 -92 40 -131 18z"/>
<path d="M2970 18692 c-53 -53 -52 -152 1 -196 24 -20 42 -26 79 -26 61 0 80
7 80 31 0 16 -4 18 -27 12 -64 -17 -123 6 -123 49 0 16 9 18 81 18 l82 0 -6
47 c-7 61 -41 93 -98 93 -31 0 -47 -7 -69 -28z m108 -24 c7 -7 12 -20 12 -30
0 -15 -9 -18 -55 -18 -59 0 -68 10 -38 42 18 20 63 24 81 6z"/>
<path d="M3200 18595 c0 -118 1 -125 20 -125 18 0 20 7 20 78 0 91 14 126 53
130 49 6 57 -11 57 -115 0 -92 1 -94 23 -91 21 3 22 9 27 96 5 100 12 112 63
112 37 0 47 -29 47 -131 0 -72 2 -79 20 -79 19 0 20 7 20 100 0 94 -2 103 -25
125 -28 29 -79 33 -113 9 -20 -14 -24 -14 -44 0 -28 20 -77 20 -105 1 -19 -13
-22 -13 -27 0 -3 8 -12 15 -21 15 -13 0 -15 -19 -15 -125z"/>
<path d="M4063 18710 c-69 -28 -79 -170 -16 -219 18 -15 40 -21 74 -21 60 0
79 7 79 31 0 16 -5 18 -27 12 -46 -12 -87 -5 -105 18 -34 41 -25 49 62 49 l80
0 0 41 c0 75 -72 119 -147 89z m91 -52 c9 -12 16 -26 16 -30 0 -5 -27 -8 -60
-8 -33 0 -60 3 -60 8 0 23 34 52 60 52 18 0 34 -8 44 -22z"/>
<path d="M4390 18540 c0 -173 1 -180 20 -180 18 0 20 7 20 65 0 60 9 80 25 55
3 -5 26 -10 51 -10 35 0 50 5 68 25 45 49 40 160 -9 203 -30 26 -81 29 -112 7
-19 -13 -22 -13 -27 0 -3 8 -12 15 -21 15 -13 0 -15 -25 -15 -180z m154 118
c25 -36 21 -104 -9 -133 -29 -30 -45 -31 -76 -6 -20 16 -24 29 -24 74 0 31 6
61 14 70 20 25 76 22 95 -5z"/>
<path d="M4670 18595 c0 -118 1 -125 20 -125 18 0 20 7 20 79 0 93 21 131 71
131 22 0 29 5 29 20 0 15 -7 20 -27 20 -16 0 -37 -7 -47 -15 -25 -19 -36 -19
-36 0 0 8 -7 15 -15 15 -13 0 -15 -21 -15 -125z"/>
<path d="M4895 18711 c-54 -23 -81 -108 -55 -171 30 -74 126 -96 180 -42 49
49 49 152 0 197 -22 20 -95 29 -125 16z m99 -53 c25 -36 21 -104 -9 -133 -29
-30 -45 -31 -79 -4 -21 17 -26 29 -26 68 0 62 21 91 65 91 24 0 39 -7 49 -22z"/>
<path d="M5120 18595 c0 -118 1 -125 20 -125 18 0 20 7 20 83 0 95 15 127 59
127 44 0 51 -16 51 -117 0 -84 2 -93 19 -93 16 0 19 10 23 89 4 98 15 121 57
121 44 0 51 -16 51 -117 l0 -93 26 0 26 0 -4 106 c-3 97 -6 108 -27 125 -28
23 -79 25 -109 3 -20 -14 -24 -14 -44 0 -29 20 -77 20 -106 0 -20 -14 -23 -14
-28 0 -3 9 -12 16 -20 16 -11 0 -14 -25 -14 -125z"/>
<path d="M5540 18540 c0 -173 1 -180 20 -180 18 0 20 7 20 65 0 60 9 80 25 55
3 -5 26 -10 51 -10 35 0 50 5 68 25 45 49 40 160 -9 203 -30 26 -81 29 -112 7
-19 -13 -22 -13 -27 0 -3 8 -12 15 -21 15 -13 0 -15 -25 -15 -180z m154 118
c25 -36 21 -104 -9 -133 -29 -30 -45 -31 -76 -6 -20 16 -24 29 -24 74 0 31 6
61 14 70 20 25 76 22 95 -5z"/>
<path d="M1755 16600 c-4 -7 371 -10 1119 -10 739 0 1127 3 1131 10 4 7 -371
10 -1119 10 -739 0 -1127 -3 -1131 -10z"/>
<path d="M4130 16599 c0 -5 5 -9 11 -9 5 0 7 -4 4 -10 -4 -7 375 -11 1127 -12
623 -1 1147 -1 1163 0 23 2 27 0 15 -8 -11 -8 -8 -9 14 -4 18 4 27 3 23 -3 -3
-5 6 -8 24 -5 18 3 29 0 29 -8 0 -7 -8 -9 -22 -5 -23 7 -23 7 -3 -8 25 -19 40
-20 40 -4 0 6 4 18 9 26 7 10 5 12 -4 6 -7 -4 -16 -2 -20 6 -5 7 -17 14 -27
16 -33 7 -104 10 -94 4 8 -6 -1420 -4 -2004 2 -143 1 245 3 862 5 758 1 1124
5 1128 12 5 7 -352 10 -1134 10 -698 -1 -1141 -5 -1141 -11z m2370 -29 c8 -5
11 -10 5 -10 -5 0 -17 5 -25 10 -8 5 -10 10 -5 10 6 0 17 -5 25 -10z"/>
<path d="M1682 16589 c-13 -5 -20 -13 -17 -19 3 -5 0 -10 -7 -10 -8 0 -6 -5 5
-11 10 -6 28 -8 40 -6 17 3 16 5 -7 6 -28 1 -29 2 -10 16 10 8 28 14 39 15 17
0 18 -2 5 -11 -12 -9 -12 -10 3 -5 10 3 537 7 1170 8 l1152 3 -1160 5 c-638 3
-1167 8 -1175 12 -8 4 -25 3 -38 -3z"/>
<path d="M4097 16573 c-12 -11 -8 -23 7 -23 8 0 16 7 20 15 5 15 -14 21 -27 8z"/>
<path d="M1607 16557 c-18 -12 -19 -49 -2 -64 4 -5 5 -2 1 5 -7 11 6 17 29 12
5 -1 1 8 -9 19 -17 19 -15 26 7 22 5 -1 6 3 2 9 -8 13 -8 13 -28 -3z"/>
<path d="M4060 16560 c0 -5 5 -10 10 -10 6 0 10 5 10 10 0 6 -4 10 -10 10 -5
0 -10 -4 -10 -10z"/>
<path d="M6570 16520 c6 -10 18 -24 28 -29 13 -8 14 -11 2 -11 -12 0 -11 -3 3
-11 9 -5 17 -17 17 -25 0 -10 -5 -12 -12 -8 -9 5 -9 2 1 -9 7 -9 20 -17 27
-17 8 0 14 -5 14 -11 0 -6 -7 -8 -17 -5 -15 6 -15 5 1 -13 11 -12 16 -29 13
-41 -3 -11 -2 -18 3 -15 4 3 11 -3 15 -13 7 -16 8 -15 15 3 14 33 11 45 -7 38
-11 -4 -14 -3 -9 5 4 7 3 12 -3 12 -6 0 -6 11 0 32 5 18 9 34 9 34 0 1 -7 5
-16 8 -8 3 -12 2 -9 -4 3 -6 2 -10 -3 -10 -5 0 -12 13 -14 29 -3 18 0 28 5 24
6 -3 7 -1 3 5 -4 7 -16 12 -26 12 -14 0 -18 5 -13 17 4 11 3 14 -5 9 -7 -4
-12 -2 -12 3 0 6 -5 11 -10 11 -7 0 -7 -6 0 -20z"/>
<path d="M1570 16523 c-1 -7 -4 -17 -5 -23 -1 -5 -3 -13 -4 -17 -1 -5 -6 -1
-11 7 -7 11 -9 9 -8 -10 1 -14 7 -28 13 -32 6 -5 5 -8 -3 -8 -7 0 -10 -4 -7
-10 3 -5 2 -10 -4 -10 -5 0 -12 6 -14 13 -3 7 -6 5 -6 -5 -1 -9 -9 -23 -18
-30 -10 -7 -19 -20 -21 -28 -1 -9 7 -5 19 10 12 14 27 24 34 22 12 -2 27 24
30 53 1 6 5 18 9 27 4 9 6 25 3 35 -3 10 -6 12 -7 6z"/>
<path d="M1496 16423 c-6 -14 -5 -15 5 -6 7 7 10 15 7 18 -3 3 -9 -2 -12 -12z"/>
<path d="M1525 16380 c-3 -5 -1 -10 4 -10 6 0 11 5 11 10 0 6 -2 10 -4 10 -3
0 -8 -4 -11 -10z"/>
<path d="M1514 16343 c2 -13 0 -26 -5 -29 -5 -3 -9 4 -9 15 0 12 -4 21 -10 21
-13 0 -13 -1 3 -39 12 -28 15 -30 26 -17 10 12 10 22 2 43 -8 20 -10 22 -7 6z"/>
<path d="M6648 15647 c1 -359 3 -764 5 -902 1 -137 3 151 5 640 1 490 -2 895
-6 902 -4 6 -6 -282 -4 -640z"/>
<path d="M6669 15394 c0 -494 -1 -910 -2 -924 -1 -14 2 -25 6 -25 9 0 10 1835
2 1844 -3 2 -6 -400 -6 -895z"/>
<path d="M1481 15388 c0 -507 4 -884 9 -873 13 29 13 1752 0 1760 -7 4 -10
-294 -9 -887z"/>
<path d="M3500 15416 l0 -236 145 0 145 0 0 30 0 30 -110 0 -110 0 -2 203 -3
202 -32 3 -33 3 0 -235z"/>
<path d="M3860 15416 l0 -236 145 0 145 0 0 30 0 30 -110 0 -110 0 -2 203 -3
202 -32 3 -33 3 0 -235z"/>
<path d="M4220 15416 l0 -236 30 0 30 0 2 183 3 182 24 -70 c101 -297 101
-296 134 -293 29 3 31 6 91 181 l61 178 3 -181 2 -180 30 0 30 0 0 236 0 235
-42 -3 -43 -3 -62 -180 c-34 -99 -63 -184 -66 -190 -2 -5 -32 76 -68 180 l-64
190 -47 3 -48 3 0 -235z"/>
<path d="M1500 14510 c0 -5 5 -10 10 -10 6 0 10 5 10 10 0 6 -4 10 -10 10 -5
0 -10 -4 -10 -10z"/>
<path d="M1480 14459 c0 -20 4 -28 12 -23 8 5 9 2 5 -9 -3 -9 -2 -19 3 -22 5
-3 11 3 13 12 3 10 5 3 6 -16 1 -30 -1 -32 -16 -20 -16 13 -17 12 -4 -3 18
-23 28 -23 42 3 8 15 8 19 0 15 -7 -5 -11 4 -11 23 0 23 -4 29 -15 25 -11 -5
-15 1 -15 20 0 14 -4 26 -10 26 -5 0 -10 -14 -10 -31z"/>
<path d="M6644 14398 c-4 -13 -9 -34 -10 -48 -2 -36 -2 -36 -19 -14 -9 10 -14
13 -13 5 2 -7 -5 -15 -16 -16 -10 -2 -24 -9 -30 -15 -8 -8 -8 -11 1 -8 6 2 11
-1 11 -7 1 -5 -6 -9 -15 -7 -8 2 -12 -1 -8 -7 3 -6 0 -9 -8 -5 -8 3 -17 -2
-20 -10 -4 -9 -12 -16 -18 -16 -8 0 -7 6 2 18 12 15 12 16 -2 5 -9 -7 -20 -9
-25 -5 -4 4 -3 0 4 -10 11 -14 10 -17 -5 -21 -17 -4 -17 -5 0 -6 11 -1 15 -6
11 -13 -4 -7 -3 -8 5 -4 6 4 9 12 5 17 -3 6 5 8 20 5 18 -3 24 -1 20 6 -5 7
-2 9 8 5 18 -6 52 25 41 38 -5 4 0 5 9 2 20 -7 50 30 55 67 2 12 5 31 8 44 3
12 3 22 1 22 -3 0 -8 -10 -12 -22z m-32 -100 c-7 -7 -12 -8 -12 -2 0 14 12 26
19 19 2 -3 -1 -11 -7 -17z m-32 -22 c0 -2 -8 -10 -17 -17 -16 -13 -17 -12 -4
4 13 16 21 21 21 13z"/>
<path d="M6610 14375 c0 -8 2 -15 4 -15 2 0 6 7 10 15 3 8 1 15 -4 15 -6 0
-10 -7 -10 -15z"/>
<path d="M1542 14368 c-17 -17 -15 -39 2 -32 8 3 14 14 13 25 -2 23 0 22 -15
7z"/>
<path d="M1577 14329 c7 -9 10 -19 6 -22 -12 -12 -23 -7 -24 11 0 10 -3 12 -6
4 -2 -6 -10 -9 -16 -6 -7 4 -3 -2 8 -13 11 -11 23 -19 28 -16 4 2 7 -2 7 -10
0 -7 18 -23 40 -36 33 -18 40 -20 40 -7 0 10 -6 13 -17 10 -10 -3 -8 1 5 9 21
12 22 15 7 27 -13 11 -15 10 -8 -6 6 -17 5 -17 -10 -5 -9 7 -14 17 -11 22 3 5
2 9 -3 8 -19 -3 -34 2 -29 10 3 5 -2 15 -12 22 -15 12 -16 12 -5 -2z m50 -75
c-3 -3 -13 0 -21 9 -8 8 -12 18 -9 21 4 4 14 0 22 -9 8 -8 12 -17 8 -21z"/>
<path d="M1688 14259 c10 -14 10 -18 -3 -23 -8 -3 -15 -10 -15 -16 0 -16 14
-12 27 9 10 16 9 22 -5 33 -15 11 -16 11 -4 -3z"/>
<path d="M1728 14253 c6 -2 10 -9 7 -14 -4 -5 1 -6 10 -2 13 5 14 7 3 14 -7 5
-17 8 -23 8 -5 0 -4 -3 3 -6z"/>
<path d="M6420 14250 c-13 -8 -13 -10 2 -10 9 0 20 5 23 10 8 13 -5 13 -25 0z"/>
<path d="M4000 14235 c0 -8 -5 -15 -11 -15 -5 0 -8 -4 -5 -9 3 -5 18 -8 32 -8
22 0 24 1 11 9 -31 17 -17 24 43 23 33 -1 60 3 60 7 0 4 -29 8 -65 8 -51 0
-65 -3 -65 -15z"/>
<path d="M4143 14224 c-10 -22 -10 -24 3 -14 11 10 14 10 14 0 0 -8 2 -11 5
-8 3 3 2 15 -2 26 -8 20 -8 20 -20 -4z"/>
<path d="M6408 14223 c6 -2 18 -2 25 0 6 3 1 5 -13 5 -14 0 -19 -2 -12 -5z"/>
<path d="M1706 14211 c-3 -5 6 -8 20 -8 19 0 22 2 13 8 -18 11 -26 11 -33 0z"/>
<path d="M6430 14210 l-25 -8 27 -1 c15 -1 30 4 33 9 7 11 0 11 -35 0z"/>
<path d="M3894 12725 c-3 -13 -15 -27 -25 -30 -25 -8 -24 -35 1 -35 12 0 20
-6 19 -12 -1 -7 -1 -48 0 -90 1 -90 13 -108 72 -108 32 0 39 4 39 19 0 14 -5
18 -20 14 -38 -10 -50 13 -50 98 l0 79 35 0 c28 0 35 4 35 20 0 16 -7 20 -35
20 -31 0 -35 3 -35 25 0 33 -28 33 -36 0z"/>
<path d="M4980 12725 c-5 -14 -17 -28 -25 -31 -19 -8 -20 -34 0 -34 12 0 15
-15 15 -77 0 -106 12 -127 74 -131 42 -3 47 -1 44 15 -2 11 -11 17 -22 15 -35
-6 -46 16 -46 99 l0 78 33 3 c20 2 32 8 32 18 0 10 -12 16 -32 18 -27 3 -33 7
-33 28 0 32 -28 32 -40 -1z"/>
<path d="M5700 12725 c-5 -14 -17 -28 -25 -31 -19 -8 -20 -34 0 -34 12 0 15
-15 15 -77 0 -106 12 -127 74 -131 42 -3 47 -1 44 15 -2 11 -11 17 -22 15 -35
-6 -46 16 -46 99 l0 78 33 3 c20 2 32 8 32 18 0 10 -12 16 -32 18 -27 3 -33 7
-33 28 0 32 -28 32 -40 -1z"/>
<path d="M2415 12678 c-28 -25 -47 -88 -39 -128 10 -48 27 -81 45 -90 23 -13
96 -13 104 0 3 6 11 10 17 10 16 0 1 -63 -19 -77 -20 -16 -72 -17 -108 -3 -24
9 -26 8 -23 -12 2 -19 12 -25 53 -32 63 -10 120 10 135 49 6 15 10 89 10 166
0 118 -2 139 -15 139 -9 0 -18 -7 -21 -15 -5 -13 -8 -13 -27 0 -31 22 -82 19
-112 -7z m115 -33 c7 -9 15 -38 18 -65 4 -42 1 -52 -21 -74 -32 -32 -51 -33
-82 -1 -30 29 -34 97 -9 133 18 26 75 30 94 7z"/>
<path d="M2690 12672 c-53 -53 -52 -152 1 -196 24 -20 42 -26 79 -26 61 0 80
7 80 31 0 16 -5 18 -27 13 -67 -17 -123 5 -123 48 0 16 9 18 81 18 l82 0 -6
47 c-7 61 -41 93 -98 93 -31 0 -47 -7 -69 -28z m108 -24 c7 -7 12 -20 12 -30
0 -15 -9 -18 -55 -18 -59 0 -68 10 -38 42 18 20 63 24 81 6z"/>
<path d="M2920 12575 c0 -118 1 -125 20 -125 18 0 20 7 20 69 0 105 18 141 71
141 42 0 49 -17 49 -117 0 -93 0 -93 25 -93 25 0 25 1 25 78 0 92 -14 148 -40
162 -27 15 -82 12 -107 -5 -19 -13 -22 -13 -27 0 -3 8 -12 15 -21 15 -13 0
-15 -19 -15 -125z"/>
<path d="M3243 12690 c-69 -28 -79 -170 -16 -219 18 -15 40 -21 74 -21 60 0
79 7 79 31 0 16 -5 18 -27 13 -52 -13 -85 -8 -105 15 -34 43 -25 51 62 51 l80
0 0 41 c0 75 -72 119 -147 89z m91 -52 c9 -12 16 -26 16 -30 0 -5 -27 -8 -60
-8 -33 0 -60 3 -60 8 0 23 34 52 60 52 18 0 34 -8 44 -22z"/>
<path d="M3457 12693 c-4 -3 -7 -60 -7 -125 0 -111 1 -118 20 -118 18 0 20 7
20 58 0 105 24 152 78 152 16 0 32 18 32 36 0 13 -61 1 -84 -17 l-26 -20 0 20
c0 20 -19 28 -33 14z"/>
<path d="M3662 12689 c-40 -16 -20 -34 32 -31 51 4 76 -9 76 -39 0 -14 -7 -19
-27 -19 -105 0 -169 -74 -113 -130 25 -25 95 -27 122 -4 16 16 18 16 24 0 3
-9 12 -16 20 -16 11 0 14 22 14 104 0 101 -1 105 -26 125 -28 22 -82 27 -122
10z m108 -139 c0 -26 -43 -70 -68 -70 -25 0 -45 24 -40 47 4 22 44 43 81 43
21 0 27 -5 27 -20z"/>
<path d="M4093 12690 c-69 -28 -79 -170 -16 -219 18 -15 40 -21 74 -21 60 0
79 7 79 31 0 16 -5 18 -27 12 -46 -12 -87 -5 -105 18 -34 41 -25 49 62 49 l80
0 0 41 c0 75 -72 119 -147 89z m91 -52 c9 -12 16 -26 16 -30 0 -5 -27 -8 -60
-8 -33 0 -60 3 -60 8 0 23 34 52 60 52 18 0 34 -8 44 -22z"/>
<path d="M4465 12690 c-30 -11 -46 -34 -56 -77 -12 -53 -1 -98 31 -133 23 -25
36 -30 74 -30 36 0 52 6 78 29 31 27 33 33 33 96 0 63 -2 68 -33 96 -33 30
-83 38 -127 19z m100 -50 c18 -20 24 -77 11 -117 -15 -48 -91 -51 -116 -3 -15
28 -12 93 6 118 20 29 74 30 99 2z"/>
<path d="M4690 12604 c0 -90 9 -130 34 -146 20 -13 91 -8 114 8 20 14 22 14
22 0 0 -9 9 -16 20 -16 20 0 20 5 18 123 -3 114 -4 122 -23 122 -18 0 -20 -8
-25 -92 -3 -51 -9 -96 -15 -102 -23 -22 -63 -23 -84 -2 -18 18 -21 33 -21 111
0 83 -1 90 -20 90 -19 0 -20 -7 -20 -96z"/>
<path d="M5137 12693 c-4 -3 -7 -84 -7 -180 0 -166 1 -173 20 -173 18 0 20 7
20 66 0 59 2 65 18 58 32 -14 90 -16 112 -4 65 35 65 191 0 225 -37 19 -80 19
-108 -1 -20 -14 -22 -14 -22 0 0 16 -21 22 -33 9z m147 -55 c23 -33 21 -113
-4 -138 -39 -39 -86 -18 -100 43 -9 42 2 96 22 109 25 15 67 8 82 -14z"/>
<path d="M5410 12604 c0 -90 9 -130 34 -146 20 -13 91 -8 114 8 20 14 22 14
22 0 0 -9 9 -16 20 -16 20 0 20 5 18 123 -3 114 -4 122 -23 122 -18 0 -20 -8
-25 -92 -3 -51 -9 -96 -15 -102 -23 -22 -63 -23 -84 -2 -18 18 -21 33 -21 111
0 83 -1 90 -20 90 -19 0 -20 -7 -20 -96z"/>
<path d="M1651 10728 c12 -5 552 -7 1200 -6 779 2 1180 0 1183 -7 2 -6 9 -5
17 3 7 6 9 13 3 13 -44 6 -2418 2 -2403 -3z"/>
<path d="M4122 10713 c-18 -15 -30 -19 -38 -12 -11 9 -64 -4 -64 -16 0 -2 12
0 26 5 31 12 37 12 30 2 -2 -4 8 -8 24 -7 15 0 26 3 23 7 -7 13 12 9 27 -4 12
-11 12 -10 0 5 -10 14 -11 20 -1 30 10 9 12 9 9 -3 -3 -13 132 -15 1162 -15
l1165 0 -1165 5 -1165 5 1202 3 c661 1 1204 5 1206 10 3 4 -539 7 -1205 7
l-1210 0 -26 -22z"/>
<path d="M1565 10720 c-4 -6 -4 -14 0 -18 4 -4 10 -1 12 6 6 15 24 16 21 0 -2
-6 6 -13 17 -15 l20 -3 -20 10 c-15 8 -10 9 20 4 22 -4 56 -7 75 -7 19 0 548
2 1175 4 l1140 4 -1205 5 c-663 3 -1215 9 -1226 14 -14 5 -24 4 -29 -4z"/>
<path d="M6591 10723 c3 -20 -2 -34 -11 -28 -6 4 -8 11 -5 16 3 5 -1 6 -9 3
-9 -3 -16 -14 -16 -23 0 -13 2 -13 9 -2 6 9 11 10 15 2 4 -6 12 -9 17 -5 5 3
21 -1 34 -10 15 -10 26 -12 30 -6 4 6 3 10 -2 9 -18 -3 -27 2 -16 9 9 6 3 13
-17 26 -17 9 -30 14 -29 9z m34 -23 c3 -6 -1 -7 -9 -4 -18 7 -21 14 -7 14 6 0
13 -4 16 -10z"/>
<path d="M1530 10705 c-7 -8 -15 -13 -19 -11 -3 2 -22 -7 -41 -20 -19 -13 -30
-24 -26 -24 5 0 -1 -9 -14 -20 -13 -11 -18 -20 -11 -20 7 0 9 -5 6 -10 -4 -6
-12 -7 -18 -3 -7 4 -7 0 1 -10 8 -9 10 -22 6 -28 -5 -9 -9 -7 -15 7 -4 13 -7
6 -7 -21 0 -22 -2 -49 -4 -60 -3 -11 -3 -14 -1 -7 3 6 8 12 13 12 5 0 11 -6
14 -12 3 -7 3 -3 1 9 -3 12 -1 24 5 28 6 4 8 16 4 27 -4 13 -2 18 4 14 6 -4 8
2 5 14 -3 11 0 26 6 33 6 8 8 17 4 20 -3 4 1 7 10 7 11 0 15 -6 11 -17 -4 -14
-2 -13 7 2 19 29 20 48 3 41 -22 -9 -16 0 14 20 18 11 23 13 15 3 -7 -9 -9
-20 -3 -29 8 -12 10 -12 16 3 3 9 10 15 14 12 4 -3 14 3 21 13 13 15 12 16 -3
3 -20 -15 -23 -9 -8 20 13 23 7 25 -10 4z m-110 -175 c0 -5 -5 -10 -11 -10 -5
0 -7 5 -4 10 3 6 8 10 11 10 2 0 4 -4 4 -10z"/>
<path d="M6640 10716 c0 -2 7 -7 16 -10 8 -3 12 -2 9 4 -6 10 -25 14 -25 6z"/>
<path d="M6496 10695 c4 -8 7 -15 9 -15 2 0 5 7 9 15 3 9 0 15 -9 15 -9 0 -12
-6 -9 -15z"/>
<path d="M6680 10692 c0 -7 5 -12 10 -12 6 0 10 -6 10 -14 0 -23 16 -27 31 -8
7 9 9 14 4 9 -4 -4 -19 3 -32 15 -13 12 -23 16 -23 10z"/>
<path d="M1570 10679 c0 -5 5 -7 10 -4 6 3 10 8 10 11 0 2 -4 4 -10 4 -5 0
-10 -5 -10 -11z"/>
<path d="M6666 10662 c-2 -4 5 -14 17 -22 19 -12 21 -11 10 2 -7 8 -10 18 -6
21 3 4 1 7 -5 7 -6 0 -13 -4 -16 -8z"/>
<path d="M6743 10642 c-16 -10 -21 -48 -5 -44 6 1 13 -4 13 -10 1 -7 2 -19 3
-27 0 -8 7 -15 14 -17 7 -1 8 0 2 3 -16 8 -12 20 10 26 13 3 18 10 14 21 -3 9
-10 16 -15 16 -13 0 -11 -18 4 -23 7 -3 5 -6 -5 -6 -12 -1 -18 6 -18 20 0 11
-4 17 -10 14 -14 -9 -13 8 2 23 13 13 9 16 -9 4z"/>
<path d="M1368 10515 c-4 -20 -2 -23 8 -14 7 6 10 17 7 25 -7 20 -10 18 -15
-11z"/>
<path d="M6776 10509 c8 -9 11 -19 6 -20 -6 -3 -6 -13 -1 -27 9 -23 29 -22 29
1 0 7 -4 6 -10 -3 -7 -11 -8 -3 -6 25 4 35 1 41 -14 41 -17 0 -18 -2 -4 -17z"/>
<path d="M6810 10503 c0 -13 5 -23 10 -23 13 0 13 11 0 30 -8 12 -10 11 -10
-7z"/>
<path d="M1378 10420 c2 -16 6 -30 8 -30 2 0 4 14 4 30 0 17 -4 30 -8 30 -5 0
-7 -13 -4 -30z"/>
<path d="M6807 10375 c-4 -8 -3 -16 1 -19 4 -3 9 4 9 15 2 23 -3 25 -10 4z"/>
<path d="M2720 9902 c-45 -22 -75 -79 -66 -127 10 -51 60 -89 147 -110 95 -23
127 -40 135 -70 8 -33 1 -50 -30 -70 -67 -44 -181 -14 -201 53 -8 27 -14 32
-35 30 -58 -7 -20 -106 55 -143 55 -26 159 -26 205 0 48 29 73 67 73 114 0 76
-48 118 -167 146 -93 23 -116 38 -116 75 0 40 36 62 100 62 55 0 85 -18 101
-59 12 -32 69 -33 69 -3 0 37 -30 79 -70 100 -51 26 -151 27 -200 2z"/>
<path d="M5480 9841 l0 -78 -39 19 c-68 33 -148 3 -177 -68 -8 -19 -14 -62
-14 -96 0 -76 22 -124 70 -152 42 -25 113 -26 140 -1 18 16 20 16 20 2 0 -12
9 -17 30 -17 l30 0 0 235 0 235 -30 0 -30 0 0 -79z m-25 -133 c20 -24 25 -41
25 -84 0 -84 -28 -123 -87 -124 -49 0 -83 47 -83 115 0 68 14 100 52 118 38
19 62 12 93 -25z"/>
<path d="M3113 9888 c-19 -9 -23 -19 -23 -55 0 -36 -3 -43 -20 -43 -15 0 -20
-7 -20 -25 0 -18 5 -25 20 -25 19 0 20 -7 20 -128 0 -149 6 -162 78 -162 37 0
42 3 42 23 0 16 -9 26 -30 34 l-30 11 0 111 0 111 30 0 c25 0 30 4 30 25 0 21
-5 25 -30 25 -30 0 -30 1 -30 55 0 58 -2 60 -37 43z"/>
<path d="M4182 9884 c-16 -11 -22 -25 -22 -55 0 -32 -3 -39 -20 -39 -15 0 -20
-7 -20 -25 0 -18 5 -25 19 -25 18 0 19 -10 22 -131 4 -115 6 -132 23 -145 22
-15 106 -19 106 -5 0 20 -13 41 -25 41 -35 0 -45 29 -45 136 l0 104 30 0 c25
0 30 4 30 25 0 21 -5 25 -30 25 -30 0 -30 1 -30 55 0 59 -4 63 -38 39z"/>
<path d="M3360 9793 c-8 -3 -23 -12 -32 -21 -16 -14 -18 -13 -18 1 0 11 -8 17
-25 17 l-25 0 0 -170 0 -170 30 0 30 0 0 113 c0 138 10 162 65 163 30 0 41 5
48 22 6 14 7 26 1 32 -13 12 -56 20 -74 13z"/>
<path d="M3920 9789 c-71 -21 -103 -73 -104 -169 -1 -112 52 -174 149 -174 65
0 101 22 129 78 20 42 21 41 -15 49 -23 6 -28 2 -39 -23 -14 -35 -37 -50 -74
-50 -59 0 -86 38 -86 120 0 83 28 119 93 120 32 0 41 -5 55 -30 19 -33 58 -41
68 -15 7 18 -18 59 -49 79 -31 20 -86 27 -127 15z"/>
<path d="M4777 9780 c-22 -18 -27 -19 -27 -6 0 11 -9 16 -30 16 l-30 0 0 -170
0 -170 29 0 29 0 4 120 c5 138 17 165 75 158 28 -3 34 0 42 24 11 31 9 33 -35
42 -23 5 -37 2 -57 -14z"/>
<path d="M4995 9789 c-70 -22 -105 -78 -105 -167 0 -116 53 -176 155 -175 77
0 145 45 145 95 0 31 -53 23 -78 -12 -18 -23 -30 -30 -58 -30 -48 0 -73 15
-90 55 -8 19 -14 37 -14 40 0 3 57 5 126 5 l127 0 -6 52 c-10 81 -59 133 -132
142 -22 3 -53 1 -70 -5z m115 -77 c11 -13 20 -33 20 -43 0 -17 -9 -19 -85 -19
-76 0 -85 2 -85 19 0 10 9 30 20 44 33 42 97 42 130 -1z"/>
<path d="M3470 9665 c0 -179 21 -218 118 -218 28 0 53 7 72 22 30 21 30 21 30
1 0 -16 7 -20 30 -20 l30 0 0 170 0 170 -29 0 -29 0 -4 -121 c-4 -118 -5 -122
-32 -145 -27 -23 -70 -31 -92 -16 -26 17 -34 56 -34 166 l0 116 -30 0 -30 0 0
-125z"/>
<path d="M4330 9663 c0 -155 13 -191 74 -211 46 -15 85 -9 121 19 l25 20 0
-20 c0 -17 6 -21 30 -21 l30 0 0 170 0 170 -29 0 -29 0 -4 -121 c-4 -118 -5
-122 -32 -145 -31 -27 -73 -31 -102 -10 -17 13 -19 29 -22 145 l-4 131 -29 0
-29 0 0 -127z"/>
<path d="M2690 8975 l0 -235 35 0 35 0 0 106 0 106 55 -4 c67 -6 84 -20 156
-129 50 -76 53 -79 90 -79 22 0 39 2 39 6 0 13 -114 176 -131 187 -25 16 -24
27 2 27 12 0 36 15 55 34 30 30 34 40 34 85 0 41 -5 56 -27 81 -36 40 -79 49
-225 50 l-118 0 0 -235z m263 164 c33 -15 49 -52 37 -84 -14 -37 -66 -55 -155
-55 l-75 0 0 75 0 75 85 0 c46 0 95 -5 108 -11z"/>
<path d="M3233 9079 c-78 -23 -122 -138 -92 -240 34 -111 186 -142 267 -55 39
44 42 66 6 66 -16 0 -37 -12 -54 -30 -40 -43 -98 -43 -134 1 -14 17 -26 39
-26 50 0 18 8 19 120 19 l120 0 0 43 c0 61 -28 108 -80 135 -47 23 -75 26
-127 11z m133 -90 c8 -16 12 -34 9 -39 -9 -14 -175 -13 -175 1 0 6 5 20 11 32
33 63 124 66 155 6z"/>
<path d="M3570 9079 c-45 -13 -69 -45 -70 -89 0 -53 23 -77 88 -96 96 -26 112
-35 112 -58 0 -33 -19 -46 -67 -46 -42 0 -83 25 -83 50 0 6 -13 10 -30 10 -35
0 -40 -21 -13 -60 22 -32 30 -38 75 -50 52 -15 115 -2 152 31 24 22 31 35 31
67 0 55 -24 78 -109 103 -83 25 -98 35 -94 62 6 43 104 41 123 -1 18 -41 72
-21 61 22 -11 46 -105 76 -176 55z"/>
<path d="M3945 9083 c-11 -3 -28 -12 -37 -21 -16 -14 -18 -14 -18 1 0 12 -9
17 -30 17 l-30 0 0 -235 0 -235 30 0 30 0 0 75 c0 74 5 86 28 63 17 -17 92
-14 129 6 92 47 100 245 13 307 -27 20 -83 30 -115 22z m64 -58 c38 -19 54
-63 49 -130 -6 -67 -35 -105 -82 -105 -57 1 -86 41 -86 120 0 57 21 102 54
119 29 13 33 13 65 -4z"/>
<path d="M4274 9079 c-42 -12 -91 -69 -100 -115 -10 -51 3 -135 24 -163 35
-48 67 -64 125 -64 106 0 160 57 160 171 1 76 -17 119 -61 150 -33 24 -105 34
-148 21z m120 -80 c22 -25 26 -41 26 -89 0 -48 -4 -64 -26 -89 -52 -63 -144
-30 -159 57 -15 88 25 152 96 152 29 0 43 -6 63 -31z"/>
<path d="M4663 9079 c-18 -5 -35 -14 -38 -19 -9 -15 -25 -12 -25 5 0 9 -9 15
-25 15 l-25 0 0 -170 0 -170 29 0 29 0 4 126 c3 118 4 127 27 145 30 24 83 25
104 1 14 -15 17 -41 17 -145 l0 -127 30 0 30 0 0 135 c0 160 -9 188 -68 204
-43 12 -46 12 -89 0z"/>
<path d="M4971 9080 c-62 -15 -90 -76 -62 -133 13 -26 27 -35 76 -50 105 -33
115 -38 115 -61 0 -32 -19 -46 -65 -46 -44 0 -85 22 -85 46 0 9 -11 14 -30 14
-35 0 -40 -21 -13 -60 22 -32 30 -38 75 -50 52 -15 116 -2 151 30 23 20 30 35
31 67 1 56 -22 79 -108 104 -80 24 -96 34 -96 60 0 12 11 21 33 27 43 11 80 1
92 -26 18 -41 72 -21 61 22 -11 45 -102 74 -175 56z"/>
<path d="M5313 9079 c-78 -23 -122 -138 -92 -240 34 -111 186 -142 267 -55 39
44 42 66 6 66 -16 0 -37 -12 -54 -30 -40 -43 -98 -43 -134 1 -14 17 -26 39
-26 50 0 18 8 19 120 19 l120 0 0 43 c0 61 -28 108 -80 135 -47 23 -75 26
-127 11z m133 -90 c8 -16 12 -34 9 -39 -9 -14 -175 -13 -175 1 0 6 5 20 11 32
33 63 124 66 155 6z"/>
<path d="M6788 8225 c-2 -19 0 -35 4 -35 4 0 8 16 8 35 0 19 -2 35 -4 35 -2 0
-6 -16 -8 -35z"/>
<path d="M1370 8174 c-7 -18 -7 -30 0 -39 5 -6 8 -14 5 -17 -3 -3 3 -12 14
-22 28 -25 44 -1 32 50 l-9 39 -2 -35 c-1 -19 -1 -42 0 -49 1 -12 -1 -13 -14
-2 -11 10 -13 18 -5 38 7 19 6 29 -3 35 -10 6 -10 10 2 18 10 7 11 10 2 10 -7
0 -17 -12 -22 -26z m20 -18 c0 -3 -4 -8 -10 -11 -5 -3 -10 -1 -10 4 0 6 5 11
10 11 6 0 10 -2 10 -4z"/>
<path d="M6807 8139 c-10 -11 -21 -18 -25 -15 -5 3 -13 -4 -20 -15 -7 -10 -9
-19 -5 -19 13 1 78 58 72 64 -3 3 -13 -4 -22 -15z"/>
<path d="M6770 8089 c-17 -15 -24 -29 -21 -47 3 -23 1 -25 -13 -13 -9 8 -19
11 -23 7 -3 -3 0 -6 8 -6 8 0 4 -6 -9 -16 -12 -8 -20 -19 -17 -24 3 -5 1 -11
-4 -15 -5 -3 -14 2 -19 11 -13 22 -22 -4 -11 -31 l8 -20 1 20 c1 11 4 14 7 8
2 -7 9 -13 14 -13 6 0 7 5 4 11 -4 6 2 13 14 16 11 3 18 9 15 14 -3 5 -10 6
-16 3 -7 -4 -8 -2 -4 4 5 9 13 9 28 1 15 -8 19 -8 14 0 -4 6 0 14 8 17 11 4
13 11 6 30 -6 15 -6 24 0 24 6 0 10 -7 10 -15 0 -8 5 -15 11 -15 5 0 7 5 4 10
-3 6 1 13 9 16 9 3 16 10 16 16 0 5 -4 6 -10 3 -5 -3 -10 -2 -10 4 0 5 8 12
18 14 12 3 12 5 2 6 -8 0 -26 -9 -40 -20z"/>
<path d="M1425 8079 c-4 -6 -4 -13 -1 -16 3 -4 6 -1 6 6 0 7 5 9 12 5 7 -4 8
-3 4 4 -9 15 -13 15 -21 1z"/>
<path d="M1396 8055 c4 -8 8 -15 10 -15 2 0 4 7 4 15 0 8 -4 15 -10 15 -5 0
-7 -7 -4 -15z"/>
<path d="M1431 8046 c-18 -21 -2 -49 25 -43 15 3 21 0 17 -10 -3 -7 -1 -13 5
-13 13 0 10 30 -6 58 -15 25 -25 28 -41 8z m33 -12 c8 -22 8 -23 -9 -20 -20 3
-28 13 -20 25 9 16 22 13 29 -5z"/>
<path d="M1500 8010 c-8 -23 -4 -60 7 -64 10 -4 11 -1 4 13 -7 13 -6 18 4 18
8 0 14 -3 13 -6 -2 -21 4 -31 20 -31 14 0 15 -2 2 -10 -12 -7 -11 -9 5 -9 11
0 40 -2 65 -4 25 -3 36 -2 26 2 -20 8 -20 8 0 12 10 2 546 2 1189 -1 l1170 -5
-1160 -5 -1160 -5 1190 -1 c655 -1 1182 1 1173 3 -10 2 -18 10 -18 18 0 7 -7
16 -16 19 -13 5 -14 3 -6 -6 14 -17 -2298 -14 -2339 3 -27 11 -79 3 -79 -12 0
-5 -5 -9 -11 -9 -6 0 -9 6 -6 14 6 16 -26 50 -36 39 -4 -3 -7 -1 -7 6 0 7 -4
10 -9 7 -5 -4 -12 0 -14 6 -3 7 -6 11 -7 8z m60 -50 c0 -5 -4 -10 -9 -10 -6 0
-13 5 -16 10 -3 6 1 10 9 10 9 0 16 -4 16 -10z m99 -14 c-2 -1 -20 -8 -39 -14
-32 -11 -33 -10 -16 3 16 12 69 23 55 11z"/>
<path d="M6612 7963 c-9 -13 -14 -15 -18 -5 -7 14 -24 16 -24 3 0 -5 10 -13
23 -17 21 -7 21 -7 2 -15 -15 -6 -13 -7 12 -6 17 1 29 5 26 10 -2 4 1 7 6 7 6
0 11 5 11 11 0 5 -4 8 -9 4 -5 -3 -11 2 -13 10 -3 13 -5 13 -16 -2z"/>
<path d="M4122 7934 l23 -23 1200 2 1200 2 -1195 5 -1195 5 1175 5 1175 5
-1177 3 c-933 1 -1177 -1 -1181 -10 -4 -8 -6 -7 -6 3 -1 9 -10 19 -21 22 -19
5 -19 4 2 -19z"/>
<path d="M6508 7953 c7 -3 16 -2 19 1 4 3 -2 6 -13 5 -11 0 -14 -3 -6 -6z"/>
<path d="M6538 7933 c6 -2 18 -2 25 0 6 3 1 5 -13 5 -14 0 -19 -2 -12 -5z"/>
<path d="M3640 6345 c0 -164 1 -175 19 -175 16 0 19 11 24 83 3 45 8 90 12
100 15 38 98 34 109 -5 3 -13 6 -58 6 -100 0 -71 2 -78 20 -78 19 0 20 7 20
100 0 94 -2 103 -25 125 -28 29 -75 33 -117 11 l-28 -15 0 65 c0 57 -2 64 -20
64 -19 0 -20 -7 -20 -175z"/>
<path d="M2860 6455 c0 -8 -9 -24 -20 -35 -24 -24 -26 -40 -5 -40 12 0 15 -16
15 -83 0 -103 13 -127 71 -127 32 0 39 4 39 19 0 14 -5 18 -19 14 -35 -9 -51
22 -51 103 l0 74 35 0 c28 0 35 4 35 20 0 16 -7 20 -35 20 -31 0 -35 3 -35 25
0 16 -6 25 -15 25 -8 0 -15 -7 -15 -15z"/>
<path d="M3020 6446 c-5 -15 -17 -29 -25 -32 -19 -8 -20 -34 -1 -34 11 0 15
-21 18 -91 4 -104 14 -119 81 -119 31 0 38 3 35 18 -2 10 -11 16 -22 14 -35
-6 -46 16 -46 99 l0 78 33 3 c43 4 44 32 0 36 -23 2 -33 9 -35 24 -4 32 -26
33 -38 4z"/>
<path d="M2628 6407 c-41 -18 -21 -34 42 -33 53 1 55 0 58 -26 3 -25 0 -28
-25 -28 -47 0 -102 -20 -113 -40 -16 -29 -12 -75 8 -93 24 -21 90 -22 120 -1
20 14 22 14 22 0 0 -10 9 -16 21 -16 21 0 21 3 17 107 -4 95 -7 108 -28 125
-25 21 -81 23 -122 5z m102 -140 c0 -49 -57 -81 -95 -54 -16 13 -18 19 -8 40
11 24 30 33 81 36 17 1 22 -4 22 -22z"/>
<path d="M3203 6410 c-15 -6 -21 -15 -17 -24 5 -12 16 -14 50 -9 47 6 74 -7
74 -37 0 -13 -11 -19 -50 -23 -62 -7 -88 -21 -100 -53 -10 -26 2 -73 23 -86
21 -13 92 -9 115 8 20 14 22 14 22 0 0 -9 7 -16 15 -16 12 0 15 18 15 105 0
92 -3 108 -20 125 -22 22 -86 26 -127 10z m107 -144 c0 -27 -42 -66 -70 -66
-23 0 -43 24 -38 47 4 22 44 43 81 43 22 0 27 -4 27 -24z"/>
<path d="M3473 6410 c-69 -28 -79 -170 -16 -220 37 -29 126 -25 131 5 2 18 -2
20 -46 17 -43 -3 -52 0 -66 19 -9 13 -16 43 -16 66 0 59 27 85 82 81 43 -3 64
16 37 33 -18 11 -77 10 -106 -1z"/>
<path d="M4053 6405 c-50 -35 -33 -85 41 -122 62 -30 76 -51 49 -71 -17 -13
-68 -11 -107 4 -11 4 -16 0 -16 -14 0 -25 18 -32 84 -32 62 0 96 25 96 69 0
33 -19 52 -83 80 -36 15 -48 25 -45 38 3 15 14 18 58 18 42 0 55 4 58 16 6 30
-97 41 -135 14z"/>
<path d="M4292 6405 c-68 -50 -68 -171 0 -219 12 -9 42 -16 66 -16 79 0 127
79 102 168 -5 21 -19 47 -30 57 -28 25 -108 31 -138 10z m112 -47 c9 -13 16
-43 16 -69 0 -39 -5 -51 -26 -68 -15 -12 -32 -21 -39 -21 -7 0 -24 9 -39 21
-21 17 -26 29 -26 68 0 62 21 91 65 91 24 0 39 -7 49 -22z"/>
<path d="M4524 6405 c-4 -8 -4 -57 -2 -107 4 -80 7 -93 27 -109 28 -23 103
-26 124 -4 13 13 16 13 21 0 3 -8 12 -15 21 -15 13 0 15 19 15 125 0 118 -1
125 -20 125 -18 0 -20 -7 -20 -85 0 -78 -2 -88 -25 -110 -13 -14 -32 -25 -42
-25 -41 1 -48 16 -53 117 -4 83 -8 98 -23 101 -9 2 -20 -4 -23 -13z"/>
<path d="M4810 6295 c0 -118 1 -125 20 -125 18 0 20 7 20 79 0 93 21 131 71
131 22 0 29 5 29 20 0 15 -7 20 -28 20 -16 0 -37 -7 -48 -15 -25 -19 -34 -19
-34 0 0 8 -7 15 -15 15 -13 0 -15 -21 -15 -125z"/>
<path d="M5033 6410 c-55 -22 -79 -118 -48 -185 18 -38 51 -55 103 -55 43 0
66 12 60 31 -3 9 -18 13 -47 10 -61 -4 -81 17 -81 84 0 67 22 90 79 82 30 -4
41 -1 46 11 3 8 0 19 -7 24 -17 10 -77 9 -105 -2z"/>
<path d="M5230 6393 c-27 -24 -33 -38 -38 -81 -9 -95 31 -142 122 -142 57 0
76 8 76 31 0 16 -5 18 -27 13 -67 -17 -114 1 -126 47 -5 18 1 19 74 19 91 0
99 7 80 70 -14 48 -31 61 -85 67 -37 5 -48 1 -76 -24z m110 -32 c18 -35 12
-41 -45 -41 -41 0 -55 4 -55 14 0 43 80 64 100 27z"/>
<path d="M5466 6399 c-49 -38 -32 -76 52 -118 48 -25 60 -44 41 -67 -13 -16
-60 -15 -103 2 -11 4 -16 0 -16 -14 0 -25 18 -32 81 -32 40 0 55 5 74 25 43
43 32 76 -39 112 -66 33 -76 41 -69 60 4 11 19 14 62 11 45 -2 56 0 59 13 6
34 -101 40 -142 8z"/>
<path d="M3010 4445 c-8 -2 -62 -9 -120 -15 -116 -14 -292 -63 -415 -116 -523
-228 -883 -699 -971 -1269 -18 -117 -18 -413 0 -530 44 -284 142 -522 305
-745 72 -99 245 -272 349 -348 204 -151 465 -258 724 -297 139 -21 2286 -22
2423 -1 188 29 309 68 490 157 430 211 742 598 860 1069 58 228 64 552 15 787
-123 594 -540 1053 -1123 1238 -204 65 -240 68 -858 72 -495 4 -557 3 -568
-11 -17 -20 -35 -20 -51 -1 -11 13 -81 15 -529 14 -284 -1 -523 -3 -531 -4z
m2240 -69 c367 -44 697 -207 945 -468 182 -191 298 -384 375 -624 86 -269 97
-635 29 -909 -75 -296 -212 -538 -427 -751 -210 -210 -452 -343 -762 -420
l-115 -29 -1200 0 -1200 0 -114 29 c-154 38 -256 77 -382 143 -448 235 -760
671 -834 1165 -19 124 -19 404 -1 523 52 339 199 633 434 873 119 121 193 180
321 256 213 127 398 186 696 220 17 1 500 4 1075 4 829 1 1069 -1 1160 -12z"/>
<path d="M3155 3003 c-82 -43 -119 -111 -119 -220 1 -59 6 -82 30 -130 33 -67
77 -97 155 -107 90 -12 179 32 209 104 16 38 9 56 -24 62 -22 4 -28 -1 -46
-37 -34 -71 -110 -93 -181 -53 -95 53 -106 238 -19 311 62 52 152 38 195 -30
16 -25 25 -30 45 -26 14 3 28 9 33 12 14 13 -49 97 -86 114 -45 22 -151 22
-192 0z"/>
<path d="M3510 2985 c0 -32 2 -35 30 -35 28 0 30 3 30 35 0 32 -2 35 -30 35
-28 0 -30 -3 -30 -35z"/>
<path d="M4370 2985 c0 -32 2 -35 30 -35 28 0 30 3 30 35 0 32 -2 35 -30 35
-28 0 -30 -3 -30 -35z"/>
<path d="M3682 2984 c-16 -11 -22 -25 -22 -55 0 -32 -3 -39 -20 -39 -15 0 -20
-7 -20 -25 0 -18 5 -25 19 -25 18 0 20 -10 23 -131 3 -150 9 -159 86 -159 41
0 44 2 38 23 -3 12 -6 26 -6 31 0 4 -7 6 -15 2 -33 -12 -45 21 -45 130 l0 104
30 0 c25 0 30 4 30 25 0 21 -5 25 -30 25 -30 0 -30 1 -30 55 0 59 -4 63 -38
39z"/>
<path d="M4223 2988 c-19 -9 -23 -19 -23 -55 0 -36 -3 -43 -20 -43 -15 0 -20
-7 -20 -25 0 -18 5 -25 20 -25 19 0 20 -7 20 -123 0 -152 7 -167 82 -167 42 0
49 3 44 16 -3 9 -6 22 -6 31 0 8 -6 13 -12 10 -7 -2 -21 0 -30 5 -16 7 -18 24
-18 118 l0 110 30 0 c25 0 30 4 30 25 0 21 -5 25 -30 25 -30 0 -30 1 -30 55 0
58 -2 60 -37 43z"/>
<path d="M3913 2891 c-40 -10 -60 -26 -79 -64 -18 -33 -18 -33 18 -42 21 -5
29 -2 39 17 17 32 28 38 76 38 45 0 73 -19 73 -50 0 -25 -5 -27 -85 -40 -37
-6 -80 -17 -95 -25 -59 -30 -63 -117 -7 -158 34 -26 109 -27 156 -3 32 17 36
17 46 2 7 -9 23 -16 36 -16 l24 0 -3 122 c-4 147 -10 176 -43 200 -28 21 -109
31 -156 19z m127 -209 c0 -38 -24 -68 -65 -82 -46 -15 -89 4 -93 42 -4 31 16
45 81 58 72 14 77 13 77 -18z"/>
<path d="M4595 2889 c-105 -30 -140 -215 -57 -302 85 -89 249 -36 267 88 24
154 -74 254 -210 214z m113 -69 c12 -11 24 -33 28 -48 3 -15 8 -33 10 -41 7
-22 -16 -91 -37 -112 -12 -12 -33 -19 -58 -19 -32 0 -44 6 -65 31 -22 25 -26
41 -26 89 0 48 4 64 26 89 32 38 87 43 122 11z"/>
<path d="M4967 2881 c-29 -15 -37 -16 -37 -5 0 9 -11 14 -30 14 l-30 0 0 -170
0 -170 30 0 30 0 0 104 c0 145 19 185 86 186 51 0 62 -23 65 -130 3 -148 6
-160 40 -160 l29 0 0 125 c0 150 -12 188 -64 210 -47 20 -74 19 -119 -4z"/>
<path d="M3510 2720 l0 -170 30 0 30 0 0 170 0 170 -30 0 -30 0 0 -170z"/>
<path d="M4370 2720 l0 -170 30 0 30 0 0 170 0 170 -30 0 -30 0 0 -170z"/>
</g>
</svg>
