<?xml version="1.0" standalone="no"?>
<!DOCTYPE svg PUBLIC "-//W3C//DTD SVG 20010904//EN"
 "http://www.w3.org/TR/2001/REC-SVG-20010904/DTD/svg10.dtd">
<svg version="1.0" xmlns="http://www.w3.org/2000/svg"
 width="811.000000pt" height="4930.000000pt" viewBox="0 0 811.000000 4930.000000"
 preserveAspectRatio="xMidYMid meet">

<g transform="translate(0.000000,4930.000000) scale(0.100000,-0.100000)"
fill="#000000" stroke="none">
<path d="M2825 47984 c-240 -21 -433 -72 -625 -168 -415 -206 -731 -600 -845
-1053 -63 -253 -59 -610 10 -871 123 -462 467 -865 895 -1049 152 -66 241 -92
396 -118 144 -25 153 -25 750 -25 530 0 604 2 604 15 0 10 11 15 35 15 24 0
35 -5 35 -15 0 -13 74 -15 604 -15 594 0 607 0 748 24 529 90 971 423 1193
901 212 454 208 1013 -10 1457 -229 466 -642 778 -1165 881 -102 20 -139 20
-1345 22 -682 1 -1258 1 -1280 -1z m2570 -79 c349 -56 625 -195 865 -435 332
-333 490 -773 451 -1258 -13 -160 -30 -248 -77 -392 -186 -572 -709 -988
-1323 -1050 -140 -14 -2391 -14 -2532 0 -606 61 -1113 456 -1318 1029 -72 198
-102 451 -83 684 33 395 180 715 452 987 102 102 182 165 299 234 188 112 353
169 611 209 14 3 597 5 1295 6 1071 1 1284 -1 1360 -14z"/>
<path d="M2420 46725 l0 -245 35 0 35 0 0 83 c0 83 0 83 38 120 l38 37 84
-120 84 -120 43 0 c24 0 43 3 43 6 0 3 -43 65 -96 136 -52 71 -97 135 -100
142 -3 7 37 53 90 103 53 50 96 94 96 97 0 3 -19 6 -42 6 -41 0 -47 -5 -160
-117 l-118 -118 0 118 0 117 -35 0 -35 0 0 -245z"/>
<path d="M4100 46725 l0 -245 35 0 35 0 0 245 0 245 -35 0 -35 0 0 -245z"/>
<path d="M4860 46890 c0 -44 -3 -80 -7 -80 -5 0 -17 7 -27 15 -31 23 -107 19
-147 -8 -91 -61 -88 -261 5 -318 50 -30 91 -34 136 -11 31 15 40 16 40 6 0 -9
11 -14 30 -14 l30 0 0 245 0 245 -30 0 -30 0 0 -80z m-38 -129 c27 -24 32 -36
35 -87 5 -70 -18 -124 -58 -138 -67 -23 -119 30 -119 122 0 115 70 167 142
103z"/>
<path d="M2864 46827 c-2 -7 -3 -87 -2 -177 l3 -165 33 -3 32 -3 0 115 c0 136
8 162 55 181 46 20 52 19 80 -10 24 -23 25 -29 25 -155 l0 -130 31 0 30 0 -3
156 -3 156 -28 24 c-37 31 -117 33 -164 4 -33 -20 -33 -20 -33 0 0 15 -7 20
-25 20 -14 0 -28 -6 -31 -13z"/>
<path d="M3303 46824 c-49 -24 -75 -74 -80 -152 -8 -121 54 -196 162 -196 58
0 106 23 139 67 16 22 22 46 24 105 4 89 -14 132 -68 170 -40 27 -128 30 -177
6z m121 -44 c45 -17 74 -104 56 -171 -25 -90 -134 -109 -175 -29 -18 36 -19
126 -1 159 24 44 71 60 120 41z"/>
<path d="M3580 46826 c0 -12 48 -178 91 -313 9 -29 15 -33 45 -33 28 0 35 4
40 28 4 15 19 72 34 127 l27 99 33 -127 33 -128 35 3 35 3 53 170 c30 94 54
174 54 178 0 5 -14 7 -32 5 -31 -3 -32 -4 -67 -125 -19 -68 -38 -120 -42 -115
-4 4 -21 59 -36 122 l-29 115 -35 0 -34 0 -34 -128 c-19 -70 -36 -126 -38
-124 -2 2 -13 37 -24 78 -51 188 -47 179 -79 179 -19 0 -30 -5 -30 -14z"/>
<path d="M4309 46817 c-48 -32 -70 -83 -70 -161 0 -70 9 -95 49 -139 67 -71
213 -52 257 33 19 37 19 38 -23 46 -21 4 -32 3 -32 -5 0 -7 -11 -23 -25 -36
-49 -50 -134 -21 -154 53 l-10 32 130 0 129 0 0 43 c0 53 -27 105 -70 135 -46
31 -134 31 -181 -1z m152 -56 c16 -16 29 -39 29 -50 0 -20 -6 -21 -90 -21 -80
0 -90 2 -90 18 0 24 28 62 54 72 39 16 67 10 97 -19z"/>
<path d="M5046 46810 c-41 -37 -59 -84 -58 -156 1 -127 91 -201 199 -162 l43
16 0 -28 c0 -35 -32 -76 -66 -84 -34 -9 -92 11 -99 34 -3 10 -18 20 -35 22
-26 4 -30 1 -30 -18 0 -38 11 -54 51 -74 75 -39 178 -19 223 43 19 26 21 45
24 233 l3 204 -30 0 c-21 0 -31 -5 -31 -15 0 -19 -9 -19 -34 0 -12 9 -42 15
-73 15 -44 0 -58 -5 -87 -30z m153 -48 c51 -50 49 -171 -4 -206 -13 -9 -38
-16 -55 -16 -88 0 -122 150 -50 222 37 36 73 36 109 0z"/>
<path d="M5439 46817 c-48 -32 -71 -85 -71 -162 1 -68 15 -106 55 -143 68 -64
211 -42 253 39 18 36 18 37 -24 45 -21 4 -32 3 -32 -5 0 -7 -11 -23 -25 -36
-49 -50 -134 -21 -154 53 l-10 32 130 0 129 0 0 43 c0 53 -27 105 -70 135 -46
31 -134 31 -181 -1z m152 -56 c16 -16 29 -39 29 -50 0 -20 -6 -21 -90 -21 -80
0 -90 2 -90 18 0 24 28 62 54 72 39 16 67 10 97 -19z"/>
<path d="M3111 46198 c-96 -249 -171 -449 -171 -457 0 -6 15 -11 34 -11 32 0
34 2 61 75 l27 75 98 0 98 0 27 -75 28 -75 39 0 c34 0 39 3 34 18 -3 9 -48
119 -99 244 l-92 228 -38 0 c-30 0 -39 -5 -46 -22z m89 -167 c16 -45 30 -87
30 -92 0 -5 -31 -9 -70 -9 -48 0 -70 4 -70 12 0 7 14 54 32 105 35 105 33 105
78 -16z"/>
<path d="M3840 46185 c0 -33 2 -35 35 -35 33 0 35 2 35 35 0 33 -2 35 -35 35
-33 0 -35 -2 -35 -35z"/>
<path d="M4330 45975 l0 -245 30 0 30 0 0 245 0 245 -30 0 -30 0 0 -245z"/>
<path d="M3698 46194 c-24 -13 -28 -21 -28 -59 0 -50 -1 -51 -92 -46 -35 2
-51 -2 -66 -17 -20 -20 -20 -20 -25 -1 -3 13 -14 19 -31 19 l-26 0 0 -180 0
-180 29 0 29 0 4 125 c4 114 6 126 28 150 19 21 30 24 57 19 20 -4 33 -2 33 4
0 6 12 9 28 8 l27 -3 3 -134 c3 -158 9 -169 84 -169 50 0 51 1 42 37 -4 14
-15 23 -33 25 l-26 3 -3 117 -3 117 28 3 c22 2 29 9 31 31 3 24 0 27 -27 27
-30 0 -30 1 -33 59 l-3 59 -27 -14z"/>
<path d="M3847 46084 c-4 -4 -7 -85 -7 -181 l0 -173 35 0 35 0 -2 178 -3 177
-25 3 c-14 2 -29 0 -33 -4z"/>
<path d="M4070 46083 c-29 -11 -70 -57 -81 -92 -17 -52 -14 -142 7 -186 56
-119 255 -103 280 23 6 30 5 32 -24 32 -24 0 -32 -6 -42 -30 -15 -36 -37 -50
-80 -50 -62 0 -99 70 -87 163 7 48 52 97 91 97 28 0 76 -35 76 -56 0 -15 37
-19 57 -6 19 12 -11 69 -49 92 -32 19 -111 26 -148 13z"/>
<path d="M4540 46067 c-54 -36 -75 -81 -75 -162 0 -120 56 -179 166 -179 69 1
117 26 142 74 l17 35 -31 9 c-26 8 -33 6 -41 -8 -36 -63 -105 -76 -150 -28
-15 15 -30 39 -33 55 l-7 27 131 0 131 0 0 38 c-1 54 -32 115 -72 140 -49 31
-133 30 -178 -1z m151 -56 c16 -16 29 -39 29 -50 0 -20 -6 -21 -90 -21 -88 0
-90 0 -90 24 0 32 53 76 92 76 19 0 39 -10 59 -29z"/>
<path d="M4905 46081 c-37 -15 -60 -51 -60 -92 0 -54 24 -74 125 -107 91 -29
107 -47 74 -83 -34 -38 -144 -10 -144 37 0 15 -12 17 -47 8 -19 -5 -20 -9 -11
-35 22 -65 113 -102 196 -80 50 14 82 49 89 100 8 57 -28 91 -122 115 -38 10
-75 22 -82 28 -19 16 -16 46 6 58 44 23 121 0 121 -37 0 -11 6 -14 23 -9 12 3
27 6 34 6 23 0 -8 61 -41 81 -33 20 -122 25 -161 10z"/>
<path d="M3400 43515 c0 -18 5 -25 19 -25 24 0 33 13 25 34 -10 27 -44 20 -44
-9z"/>
<path d="M4612 43480 c-6 -16 -18 -33 -27 -36 -19 -8 -20 -34 -1 -34 11 0 15
-22 18 -96 3 -109 13 -124 80 -124 32 0 38 3 38 21 0 13 -5 19 -12 16 -7 -2
-23 -1 -35 4 -21 8 -23 14 -23 94 l0 85 35 0 c28 0 35 4 35 20 0 16 -7 20 -34
20 -30 0 -35 4 -38 27 -4 38 -24 39 -36 3z"/>
<path d="M3400 43320 c0 -123 1 -130 20 -130 19 0 20 7 20 130 0 123 -1 130
-20 130 -19 0 -20 -7 -20 -130z"/>
<path d="M3520 43320 l0 -130 25 0 c25 0 25 1 25 88 0 104 13 132 64 132 50 0
56 -13 56 -122 l0 -98 26 0 26 0 -4 111 c-3 102 -5 113 -27 130 -29 23 -98 25
-129 3 -20 -14 -22 -14 -22 0 0 9 -9 16 -20 16 -19 0 -20 -7 -20 -130z"/>
<path d="M3852 43443 c-22 -8 -52 -80 -52 -123 0 -51 22 -105 48 -119 26 -14
87 -14 113 -1 17 9 19 7 19 -18 0 -48 -30 -66 -100 -59 -53 4 -60 3 -60 -13 0
-20 27 -30 87 -30 106 0 123 31 123 230 0 133 -1 140 -20 140 -11 0 -20 -7
-20 -16 0 -14 -2 -14 -22 0 -21 15 -88 20 -116 9z m112 -55 c22 -30 21 -116
-1 -140 -9 -10 -30 -18 -49 -18 -43 0 -64 30 -64 90 0 61 21 90 65 90 24 0 39
-7 49 -22z"/>
<path d="M4138 43430 c-36 -28 -51 -72 -46 -132 4 -42 11 -57 37 -80 26 -23
40 -28 85 -28 67 0 86 7 86 30 0 16 -7 17 -59 13 -50 -5 -61 -3 -80 16 -11 11
-21 30 -21 41 0 18 7 20 85 20 84 0 85 0 85 25 0 38 -25 92 -48 104 -33 18
-97 13 -124 -9z m108 -37 c26 -35 17 -43 -46 -43 -64 0 -73 9 -43 42 21 23 72
23 89 1z"/>
<path d="M4382 43434 c-27 -19 -30 -74 -4 -96 9 -9 38 -25 65 -36 34 -15 47
-27 47 -41 0 -37 -36 -45 -112 -24 -13 3 -18 -1 -18 -15 0 -25 18 -32 79 -32
59 0 101 28 101 68 0 39 -9 49 -79 82 -46 22 -61 35 -59 48 3 14 15 17 62 17
60 0 85 17 55 36 -23 15 -113 10 -137 -7z"/>
<path d="M1539 41689 c-10 -6 -4 -9 18 -9 17 0 34 3 36 8 7 10 -38 11 -54 1z"/>
<path d="M3988 41688 c-4 -11 -221 -13 -1199 -16 -1341 -3 -1255 -2 -1237 -13
11 -7 10 -9 -1 -9 -8 0 -24 8 -35 18 l-21 17 20 -25 c11 -14 21 -27 22 -29 1
-2 9 1 17 8 8 7 25 9 42 5 19 -5 25 -4 20 5 -9 15 2386 16 2414 1 10 -5 26 -7
34 -4 26 10 18 21 -13 16 -21 -3 -33 2 -44 18 -10 15 -16 17 -19 8z"/>
<path d="M4123 41692 c-15 -2 -23 -10 -23 -23 0 -25 21 -24 42 1 19 22 14 28
-19 22z"/>
<path d="M4167 41668 c-7 -4 511 -8 1151 -8 817 0 1162 -3 1162 -11 0 -6 9 -8
20 -4 12 4 28 1 38 -7 15 -12 16 -11 3 5 -15 19 -2 24 17 5 9 -9 12 -9 12 2 1
8 7 2 14 -15 8 -19 15 -25 20 -17 4 7 3 12 -2 12 -5 0 -12 9 -15 21 -3 13 -1
19 6 16 7 -3 11 -10 9 -17 -2 -8 5 -9 20 -4 20 6 21 5 10 -9 -12 -14 -11 -16
5 -12 12 2 20 -2 20 -10 0 -7 -6 -11 -14 -8 -7 3 -13 0 -13 -6 0 -6 3 -10 8
-10 19 3 33 -2 27 -11 -3 -6 1 -7 9 -4 9 3 16 2 16 -4 0 -6 -4 -12 -10 -14 -6
-2 -6 -8 0 -18 8 -13 10 -12 10 3 0 9 4 17 10 17 5 0 7 -6 4 -13 -3 -8 1 -14
9 -14 7 0 13 8 12 18 -1 21 -12 34 -27 34 -6 0 -13 6 -16 14 -3 9 0 11 8 6 9
-6 11 -4 6 4 -5 7 -11 10 -14 7 -3 -3 -11 3 -19 13 -21 30 -72 52 -93 41 -13
-7 -21 -7 -25 0 -3 5 -16 10 -28 9 -21 0 -21 -1 -3 -8 19 -7 19 -8 -2 -13 -11
-3 -23 -1 -25 5 -4 13 -2300 18 -2320 5z"/>
<path d="M1456 41644 c-3 -8 -2 -13 3 -9 5 3 17 -3 27 -12 17 -17 18 -17 11 1
-6 14 -4 17 10 12 15 -5 15 -4 -1 9 -25 19 -42 19 -50 -1z"/>
<path d="M1400 41610 c0 -5 4 -10 9 -10 19 0 6 -39 -16 -49 -15 -7 -23 -7 -23
-1 0 6 4 10 9 10 5 0 12 8 15 17 5 13 0 11 -19 -7 -14 -13 -22 -26 -18 -29 12
-9 14 -62 2 -56 -5 4 -9 16 -9 27 0 12 -3 18 -7 14 -9 -9 -11 -46 -2 -40 4 2
6 -19 4 -48 -2 -44 -2 -46 4 -13 3 22 11 39 16 38 6 -2 10 0 10 5 2 24 31 82
42 82 13 0 17 12 14 39 -2 7 2 10 7 7 5 -3 15 1 21 8 9 11 9 14 -1 12 -7 -1
-19 -5 -25 -9 -8 -5 -13 -4 -13 2 0 6 -4 11 -10 11 -5 0 -10 -4 -10 -10z m-16
-95 c-4 -8 -8 -15 -10 -15 -2 0 -4 7 -4 15 0 8 4 15 10 15 5 0 7 -7 4 -15z"/>
<path d="M6705 41510 c-4 -6 -2 -17 4 -24 6 -7 9 -15 6 -18 -3 -3 2 -22 10
-44 l15 -39 -6 35 c-5 32 -5 33 8 16 14 -18 15 -18 21 3 10 39 -2 54 -24 28
-10 -12 -18 -17 -19 -11 0 5 5 15 10 20 11 11 3 44 -10 44 -5 0 -12 -5 -15
-10z m25 -21 c0 -6 -4 -7 -10 -4 -5 3 -10 11 -10 16 0 6 5 7 10 4 6 -3 10 -11
10 -16z m30 -29 c0 -5 -5 -10 -11 -10 -5 0 -7 5 -4 10 3 6 8 10 11 10 2 0 4
-4 4 -10z"/>
<path d="M1316 41424 c-7 -18 -7 -2105 0 -2089 4 9 11 2105 8 2105 -1 0 -5 -7
-8 -16z"/>
<path d="M6771 41384 c0 -11 3 -14 6 -6 3 7 2 16 -1 19 -3 4 -6 -2 -5 -13z"/>
<path d="M1362 41355 c-6 -107 -6 -2021 1 -2003 4 11 6 475 4 1031 -1 557 -3
994 -5 972z"/>
<path d="M6752 40388 c-1 -794 -5 -1007 -14 -1011 -10 -4 -10 -6 0 -6 6 -1 12
-6 12 -12 0 -5 -4 -8 -9 -4 -6 3 -15 -4 -21 -15 -9 -16 -8 -22 5 -26 8 -3 12
-10 9 -15 -3 -5 0 -9 6 -9 6 0 8 -5 4 -11 -4 -8 -9 -8 -17 0 -6 6 -15 11 -21
11 -5 0 -7 -3 -3 -6 3 -3 -3 -15 -13 -27 -21 -21 -17 -45 4 -28 7 6 16 8 19 4
10 -9 9 -25 -1 -19 -4 2 -14 0 -22 -5 -11 -7 -9 -8 8 -6 22 3 56 50 44 61 -3
3 0 6 7 6 7 0 11 6 8 14 -3 7 0 19 6 25 6 6 7 14 3 18 -4 4 -10 2 -14 -4 -5
-8 -13 -9 -22 -3 -15 9 -13 11 13 14 6 1 12 12 11 25 -1 23 0 23 13 6 12 -18
13 -18 13 4 0 12 -4 19 -10 16 -7 -4 -11 336 -13 1002 l-2 1008 -3 -1007z
m-24 -1129 c-2 -6 -8 -11 -13 -11 -6 0 -17 -5 -25 -11 -8 -6 -6 -2 4 11 20 23
40 30 34 11z"/>
<path d="M2920 40641 c-89 -18 -151 -83 -171 -179 -22 -109 20 -238 94 -287
14 -8 51 -20 84 -26 77 -14 131 0 183 47 45 41 71 101 49 115 -28 18 -57 10
-67 -18 -40 -111 -193 -119 -252 -13 -19 36 -24 59 -24 115 -1 122 54 188 155
189 55 0 92 -21 110 -64 14 -31 40 -39 68 -21 36 23 -45 121 -116 140 -42 12
-61 12 -113 2z"/>
<path d="M3240 40395 l0 -245 30 0 30 0 0 245 0 245 -30 0 -30 0 0 -245z"/>
<path d="M4520 40605 c0 -32 2 -35 30 -35 28 0 30 3 30 35 0 32 -2 35 -30 35
-28 0 -30 -3 -30 -35z"/>
<path d="M3455 40491 c-40 -24 -60 -49 -74 -90 -18 -54 -13 -122 12 -171 30
-60 75 -85 150 -84 65 1 97 18 135 75 l23 34 -32 8 c-29 7 -34 5 -61 -27 -24
-30 -36 -36 -66 -36 -39 0 -73 21 -91 57 -26 51 -21 53 120 53 l132 0 -7 47
c-13 96 -73 153 -160 153 -32 0 -62 -7 -81 -19z m126 -41 c22 -13 52 -67 44
-80 -8 -13 -172 -13 -180 0 -9 14 24 66 49 79 28 13 63 13 87 1z"/>
<path d="M3823 40495 c-20 -8 -39 -28 -50 -49 -19 -40 -18 -41 17 -49 20 -5
28 -1 42 23 31 54 133 52 152 -3 13 -37 4 -44 -79 -57 -93 -14 -123 -27 -140
-61 -60 -114 76 -201 202 -129 30 18 31 18 36 -1 4 -13 14 -19 35 -19 l30 0
-4 58 c-2 31 -6 98 -8 149 -5 106 -14 127 -57 142 -44 15 -137 13 -176 -4z
m167 -204 c0 -89 -158 -136 -168 -50 -4 34 18 50 86 65 81 18 82 17 82 -15z"/>
<path d="M4147 40503 c-4 -3 -7 -84 -7 -180 l0 -173 35 0 35 0 0 124 c0 115 2
127 23 150 31 36 76 43 107 18 24 -19 25 -26 28 -156 l4 -136 29 0 29 0 0 140
c0 155 -9 187 -55 208 -40 18 -106 15 -142 -8 -33 -20 -33 -20 -33 0 0 14 -7
20 -23 20 -13 0 -27 -3 -30 -7z"/>
<path d="M4520 40330 l0 -180 30 0 30 0 0 180 0 180 -30 0 -30 0 0 -180z"/>
<path d="M4670 40330 l0 -180 30 0 30 0 0 103 c0 136 11 174 57 193 49 21 85
8 100 -37 7 -19 12 -85 12 -146 l1 -113 30 0 30 0 0 135 c0 156 -10 194 -59
215 -40 16 -125 8 -150 -14 -17 -16 -19 -16 -24 4 -3 14 -13 20 -31 20 l-26 0
0 -180z"/>
<path d="M5093 40488 c-92 -66 -92 -243 0 -312 38 -28 126 -29 156 -2 21 19
21 19 21 -16 0 -69 -67 -114 -134 -89 -15 6 -30 20 -33 30 -3 12 -16 21 -34
23 -37 6 -40 2 -25 -42 20 -64 137 -92 216 -52 67 33 74 61 75 282 l0 195 -27
3 c-20 2 -28 -1 -28 -12 0 -20 -1 -20 -36 -1 -44 23 -113 19 -151 -7z m128
-38 c63 -34 69 -181 10 -227 -28 -22 -85 -16 -111 12 -25 26 -38 102 -26 150
15 57 79 90 127 65z"/>
<path d="M1326 39322 c-3 -6 -2 -13 4 -17 6 -4 8 -11 4 -16 -3 -5 2 -22 12
-37 10 -15 19 -31 19 -37 0 -5 9 -9 18 -8 12 0 16 -4 13 -13 -3 -7 -1 -16 3
-18 14 -9 21 6 10 25 -6 13 -6 19 1 19 5 0 10 -4 10 -10 0 -5 7 -10 15 -10 12
0 10 6 -7 24 -13 13 -27 23 -32 22 -5 0 -10 14 -11 31 -1 18 -5 36 -10 40 -4
5 -5 0 -2 -9 4 -12 -1 -21 -13 -28 -12 -6 -20 -7 -20 -1 0 5 5 11 10 13 7 2 6
10 -3 22 -9 12 -16 15 -21 8z m51 -57 c-4 -8 -2 -17 3 -20 13 -8 13 -35 -1
-35 -5 0 -8 4 -4 9 3 5 -1 16 -9 24 -11 11 -12 17 -3 26 15 15 20 14 14 -4z"/>
<path d="M6647 39203 c-4 -3 -2 -12 4 -20 8 -9 8 -13 1 -13 -6 0 -14 5 -17 10
-4 7 -14 6 -28 -1 l-21 -12 25 -20 c21 -17 24 -17 27 -3 2 9 8 16 13 16 6 0 7
-6 3 -12 -4 -7 5 -2 19 11 33 30 34 34 5 26 -17 -6 -20 -4 -15 9 6 16 -4 22
-16 9z m-20 -38 c0 -17 -13 -20 -21 -6 -4 5 0 12 6 14 7 3 13 6 14 6 0 1 1 -6
1 -14z"/>
<path d="M1430 39180 c0 -5 0 -12 0 -15 0 -3 3 -4 8 -2 4 1 6 5 5 10 -2 4 1 7
6 7 5 0 11 -9 14 -20 3 -11 1 -18 -4 -14 -5 3 -6 -2 -3 -11 5 -12 10 -13 20
-5 13 12 8 40 -10 52 -16 11 -36 10 -36 -2z"/>
<path d="M1510 39153 c5 -2 0 -13 -12 -23 l-23 -19 25 5 c21 5 22 4 10 -6 -13
-10 -13 -11 1 -7 9 3 21 1 26 -4 5 -5 509 -9 1238 -9 1087 0 1230 2 1229 15
-1 8 4 15 12 15 8 0 14 5 14 10 0 7 -6 7 -19 0 -14 -7 -401 -9 -1220 -8 -659
2 -1197 0 -1194 -4 2 -5 545 -9 1206 -10 l1202 -3 -1200 -3 c-757 -1 -1207 1
-1220 7 -11 6 -29 11 -40 13 -11 2 -20 10 -20 17 0 8 -6 15 -13 17 -7 1 -8 0
-2 -3z m67 -49 c-3 -3 -12 -4 -19 -1 -8 3 -5 6 6 6 11 1 17 -2 13 -5z"/>
<path d="M6526 39135 c-5 -15 2 -25 18 -25 6 0 4 5 -4 10 -12 8 -11 10 8 10
12 0 21 -5 20 -11 -2 -6 3 -13 10 -14 7 -2 8 -1 2 2 -7 3 -4 10 7 19 17 13 17
14 -1 7 -11 -3 -17 -2 -14 3 4 5 -4 10 -17 10 -13 1 -26 -4 -29 -11z"/>
<path d="M6405 39130 c4 -7 -373 -10 -1142 -10 -631 0 -1155 0 -1163 0 -13 0
-13 -1 0 -10 12 -8 12 -10 -5 -10 -19 -1 -19 -1 -2 -11 10 -6 26 -8 35 -4 14
5 14 7 2 15 -9 6 433 10 1165 10 1022 1 1183 3 1199 15 11 8 15 15 9 15 -7 0
-15 -4 -18 -10 -3 -5 -15 -10 -26 -10 -14 0 -18 4 -13 13 5 7 0 6 -11 -3 -11
-9 -16 -10 -11 -2 4 7 1 12 -9 12 -9 0 -13 -5 -10 -10z"/>
<path d="M6496 39104 c-8 -22 -4 -25 11 -9 7 8 9 16 4 19 -5 3 -12 -1 -15 -10z"/>
<path d="M4160 39093 c0 -9 2310 -7 2318 2 3 3 -517 5 -1156 5 -639 0 -1162
-3 -1162 -7z"/>
<path d="M3230 37445 c0 -178 1 -185 20 -185 18 0 20 7 20 66 0 59 2 65 18 58
9 -4 36 -9 59 -12 36 -3 47 0 71 25 53 52 50 169 -5 212 -31 25 -89 27 -121 5
-20 -14 -22 -14 -22 0 0 9 -9 16 -20 16 -19 0 -20 -7 -20 -185z m146 137 c34
-23 43 -82 20 -137 -12 -29 -20 -35 -45 -35 -47 0 -60 9 -71 51 -12 43 1 114
23 122 19 8 61 8 73 -1z"/>
<path d="M3520 37500 c0 -123 1 -130 20 -130 18 0 20 7 20 69 0 107 24 150 83
151 20 0 27 5 27 20 0 28 -56 27 -87 -2 l-23 -21 0 21 c0 15 -6 22 -20 22 -19
0 -20 -7 -20 -130z"/>
<path d="M3729 37602 c-26 -23 -33 -38 -37 -80 -9 -97 35 -152 120 -152 43 0
54 4 78 30 58 62 46 181 -22 216 -46 24 -103 18 -139 -14z m125 -28 c32 -31
33 -121 3 -151 -23 -23 -78 -19 -99 7 -23 28 -24 107 -2 138 18 26 74 30 98 6z"/>
<path d="M4034 37619 c-33 -17 -54 -62 -54 -119 0 -93 42 -135 131 -128 36 2
45 7 47 24 3 20 -1 21 -45 17 -64 -7 -87 17 -87 87 0 67 23 92 82 89 45 -3 74
17 49 33 -17 11 -98 9 -123 -3z"/>
<path d="M4254 37612 c-31 -25 -46 -58 -46 -107 -2 -90 40 -135 126 -135 56 0
76 8 76 29 0 15 -8 17 -58 13 -61 -4 -82 7 -96 56 -7 22 -6 22 78 22 l86 0 0
41 c0 58 -42 99 -102 99 -26 0 -52 -7 -64 -18z m103 -34 c6 -7 13 -21 16 -30
6 -16 -1 -18 -59 -18 -64 0 -65 0 -53 23 7 12 17 25 23 29 18 12 63 9 73 -4z"/>
<path d="M4502 37618 c-12 -6 -25 -21 -28 -34 -10 -41 6 -64 63 -92 31 -15 61
-35 67 -44 22 -35 -29 -52 -101 -34 -29 7 -33 5 -33 -12 0 -25 18 -32 83 -32
72 1 100 23 95 76 -3 36 -7 41 -57 66 -75 38 -84 47 -69 65 9 12 26 14 64 10
42 -4 54 -2 58 10 4 9 4 18 1 21 -11 11 -121 11 -143 0z"/>
<path d="M4722 37614 c-27 -19 -30 -74 -4 -96 9 -9 38 -25 65 -36 34 -15 47
-26 47 -42 0 -21 -38 -43 -62 -36 -53 17 -68 16 -68 -3 0 -24 19 -31 81 -31
40 0 55 5 74 25 25 24 32 59 17 82 -5 7 -36 26 -71 43 -46 22 -61 35 -59 48 3
14 15 17 62 17 60 0 85 17 55 36 -23 15 -113 10 -137 -7z"/>
<path d="M1644 35682 c31 -3 36 -6 25 -14 -11 -8 -10 -9 4 -4 10 3 539 7 1175
8 636 1 1087 4 1002 5 -234 4 -2251 8 -2206 5z"/>
<path d="M4100 35680 c0 -5 5 -10 10 -10 6 0 10 5 10 10 0 6 -4 10 -10 10 -5
0 -10 -4 -10 -10z"/>
<path d="M4130 35675 c-7 -9 -21 -13 -35 -9 -13 3 -26 1 -30 -6 -4 -6 -16 -8
-28 -4 -21 6 -21 5 -5 -12 17 -17 18 -17 37 0 11 10 22 13 25 8 3 -6 0 -13 -6
-15 -7 -3 -8 -6 -3 -6 15 -1 71 46 64 53 -3 4 -12 0 -19 -9z"/>
<path d="M5320 35680 l-1165 -5 1172 -2 c760 -2 1174 1 1178 7 3 6 0 9 -7 8
-7 -2 -537 -5 -1178 -8z"/>
<path d="M6525 35680 c3 -6 0 -10 -7 -10 -8 0 -6 -5 5 -11 10 -6 25 -8 35 -6
11 3 9 5 -8 6 -18 1 -21 4 -12 10 11 7 10 9 -3 14 -9 4 -13 3 -10 -3z"/>
<path d="M1529 35678 c-8 -28 -5 -35 14 -30 12 3 16 7 9 10 -7 2 -10 8 -6 13
3 5 0 9 -5 9 -6 0 -11 -1 -12 -2z"/>
<path d="M1583 35663 c9 -2 25 -2 35 0 9 3 1 5 -18 5 -19 0 -27 -2 -17 -5z"/>
<path d="M1460 35645 c-11 -13 -10 -14 4 -9 9 3 16 10 16 15 0 13 -6 11 -20
-6z"/>
<path d="M6504 35643 c16 -8 34 -16 40 -17 6 -1 16 -5 21 -8 6 -4 17 -3 25 3
13 7 13 9 1 9 -8 0 -12 3 -8 6 3 3 11 3 17 -1 8 -5 8 -11 -1 -21 -7 -9 -8 -14
-3 -13 18 3 54 -13 48 -22 -3 -5 0 -8 8 -7 7 2 12 -3 11 -9 -2 -7 2 -13 8 -13
5 0 7 -5 3 -12 -4 -7 -3 -8 5 -4 9 6 8 14 -4 33 -9 13 -14 31 -11 38 2 7 -2
16 -9 19 -17 6 -30 -10 -15 -17 6 -3 5 -4 -2 -3 -15 3 -18 28 -5 37 5 3 1 9
-8 12 -10 4 -14 3 -9 -4 4 -7 0 -9 -14 -5 -11 4 -23 2 -26 -3 -4 -6 -22 -5
-48 5 -52 18 -61 17 -24 -3z"/>
<path d="M1575 35639 c7 -11 35 -12 35 -1 0 4 -9 8 -20 9 -11 1 -18 -2 -15 -8z"/>
<path d="M1656 35639 c16 -4 549 -6 1184 -6 635 1 1067 3 960 4 -444 6 -2172
8 -2144 2z"/>
<path d="M4718 35633 c325 -2 859 -2 1185 0 325 1 59 2 -593 2 -652 0 -918 -1
-592 -2z"/>
<path d="M1416 35621 c-3 -5 1 -14 9 -21 13 -11 13 -14 -2 -27 -16 -13 -16
-13 7 -7 28 8 69 35 70 46 0 4 -7 4 -17 1 -11 -5 -14 -3 -8 6 6 10 3 11 -13 2
-27 -14 -54 -15 -32 -1 9 6 10 10 3 10 -6 0 -14 -4 -17 -9z"/>
<path d="M6676 35601 c-7 -10 20 -48 29 -40 3 4 -1 13 -9 22 -8 8 -12 17 -9
21 4 3 4 6 0 6 -3 0 -8 -4 -11 -9z"/>
<path d="M1400 35585 c0 -10 -5 -13 -12 -9 -7 4 -8 3 -4 -4 4 -7 1 -12 -8 -12
-14 0 -21 -12 -13 -25 1 -2 -7 -11 -18 -19 -19 -14 -19 -14 5 -35 17 -14 21
-23 14 -28 -12 -9 -29 -53 -20 -53 3 0 12 13 21 29 11 23 12 36 5 57 -6 15 -8
29 -5 32 2 3 9 -6 14 -19 7 -16 10 -19 10 -7 1 9 8 24 17 33 12 12 14 19 6 27
-8 8 -8 15 -1 24 7 8 7 14 -1 19 -5 3 -10 -1 -10 -10z m-9 -62 c-12 -20 -14
-14 -5 12 4 9 9 14 11 11 3 -2 0 -13 -6 -23z"/>
<path d="M6708 35541 c-16 -19 -16 -20 1 -26 14 -4 17 -16 17 -54 -1 -35 2
-47 12 -44 7 3 12 -3 12 -13 0 -11 0 -379 0 -819 0 -690 3 -803 15 -819 13
-17 15 -18 15 -3 0 9 -5 17 -10 17 -13 0 -9 1595 3 1625 6 13 6 15 0 7 -7 -9
-12 -6 -21 13 -16 35 -16 68 1 59 9 -6 9 -5 0 8 -7 8 -9 19 -5 23 4 5 1 4 -7
0 -11 -6 -13 -4 -8 9 5 11 3 15 -5 10 -8 -5 -9 -2 -5 9 8 22 5 21 -15 -2z"/>
<path d="M6696 35497 c3 -10 9 -15 12 -12 3 3 0 11 -7 18 -10 9 -11 8 -5 -6z"/>
<path d="M1322 35475 c4 -4 2 -18 -3 -32 -6 -16 -5 -30 2 -41 9 -15 10 -15 5
1 -3 10 1 25 9 33 20 20 19 30 -2 38 -10 4 -14 4 -11 1z"/>
<path d="M6757 35449 c4 -13 8 -18 11 -10 2 7 -1 18 -6 23 -8 8 -9 4 -5 -13z"/>
<path d="M1358 34873 c1 -285 3 -648 5 -808 1 -159 3 73 5 518 1 444 -1 807
-5 807 -5 0 -7 -233 -5 -517z"/>
<path d="M1315 34580 c0 -443 1 -624 2 -402 2 221 2 583 0 805 -1 221 -2 40
-2 -403z"/>
<path d="M2830 34811 c-71 -15 -120 -53 -156 -121 -14 -26 -19 -57 -19 -120 0
-72 4 -93 27 -140 78 -158 319 -157 383 2 13 33 14 43 3 49 -24 16 -56 10 -63
-11 -12 -38 -56 -80 -96 -90 -113 -31 -199 66 -186 211 8 96 51 148 134 164
45 8 102 -19 128 -63 17 -28 24 -32 49 -27 16 3 31 7 33 9 10 9 -27 74 -56 99
-50 41 -105 53 -181 38z"/>
<path d="M3150 34565 l0 -245 30 0 30 0 0 109 c0 59 5 122 11 140 20 57 93 76
133 35 13 -12 16 -41 16 -150 l0 -134 36 0 36 0 -4 151 -3 151 -33 29 c-27 24
-41 29 -85 29 -31 0 -61 -6 -73 -15 -10 -8 -22 -15 -26 -15 -5 0 -8 36 -8 80
l0 80 -30 0 -30 0 0 -245z"/>
<path d="M4280 34565 l0 -245 30 0 30 0 0 68 c0 56 4 72 20 87 11 10 22 16 24
14 1 -2 27 -41 55 -86 52 -81 54 -83 93 -83 l40 0 -18 28 c-9 15 -42 64 -73
110 l-55 83 62 62 c34 34 62 66 62 70 0 4 -17 7 -37 7 -34 0 -45 -8 -105 -71
l-68 -71 0 136 0 136 -30 0 -30 0 0 -245z"/>
<path d="M4610 34775 c0 -33 2 -35 35 -35 33 0 35 2 35 35 0 33 -2 35 -35 35
-33 0 -35 -2 -35 -35z"/>
<path d="M3520 34543 c0 -111 3 -145 18 -173 30 -60 121 -75 185 -29 27 20 27
20 27 -1 0 -16 7 -20 30 -20 l30 0 0 180 0 180 -30 0 -30 0 0 -97 c-1 -118
-12 -172 -41 -195 -27 -23 -71 -23 -99 0 -21 17 -23 29 -28 155 l-5 137 -28 0
-29 0 0 -137z"/>
<path d="M3900 34500 l0 -180 30 0 30 0 0 103 c0 136 11 174 56 193 41 17 80
9 96 -20 7 -11 14 -78 16 -148 l4 -128 29 0 29 0 0 135 c0 156 -10 194 -59
215 -40 16 -125 8 -150 -14 -17 -16 -19 -16 -24 4 -3 14 -13 20 -31 20 l-26 0
0 -180z"/>
<path d="M4617 34674 c-4 -4 -7 -85 -7 -181 l0 -173 35 0 35 0 -2 178 -3 177
-25 3 c-14 2 -29 0 -33 -4z"/>
<path d="M4767 34673 c-4 -3 -7 -84 -7 -180 l0 -173 35 0 35 0 0 124 c0 115 2
127 23 150 31 36 76 43 107 18 24 -19 25 -26 28 -156 l4 -136 29 0 29 0 0 140
c0 155 -9 187 -55 208 -40 18 -106 15 -142 -8 -33 -20 -33 -20 -33 0 0 14 -7
20 -23 20 -13 0 -27 -3 -30 -7z"/>
<path d="M5192 34660 c-69 -43 -94 -174 -49 -260 38 -72 108 -97 184 -65 20 8
38 13 40 11 2 -2 -1 -23 -7 -46 -9 -34 -18 -44 -47 -56 -44 -19 -89 -10 -109
22 -20 30 -74 34 -74 6 0 -28 30 -63 66 -78 69 -29 156 -12 204 40 25 27 25
30 28 237 l3 209 -25 0 c-14 0 -29 -7 -34 -16 -9 -16 -11 -16 -33 0 -33 23
-106 21 -147 -4z m130 -50 c57 -45 65 -163 14 -207 -32 -27 -81 -30 -113 -8
-51 36 -52 158 -2 207 32 33 67 36 101 8z"/>
<path d="M6732 33755 c0 -16 2 -22 5 -12 2 9 2 23 0 30 -3 6 -5 -1 -5 -18z"/>
<path d="M1350 33720 c-1 -20 -3 -21 -8 -8 -7 17 -8 17 -19 -1 -9 -15 -9 -23
2 -37 13 -17 14 -17 15 -2 0 9 -3 18 -7 21 -5 2 -3 3 3 1 23 -5 37 13 25 32
-9 17 -10 17 -11 -6z"/>
<path d="M6753 33713 c5 -25 4 -26 -8 -10 -11 16 -13 16 -19 1 -8 -22 -8 -26
4 -19 6 3 10 1 10 -5 0 -21 25 -4 26 17 1 11 4 25 8 32 4 6 0 11 -10 11 -12 0
-15 -6 -11 -27z"/>
<path d="M1343 33655 c-6 -14 -8 -25 -4 -25 4 0 13 11 19 25 6 14 8 25 4 25
-4 0 -12 -11 -19 -25z"/>
<path d="M6710 33648 c0 -6 3 -8 7 -5 3 4 12 2 20 -4 10 -9 13 -8 13 3 0 7 -9
14 -20 15 -11 1 -20 -3 -20 -9z"/>
<path d="M6700 33616 c0 -19 17 -29 25 -15 4 5 14 8 24 5 12 -5 11 -2 -3 9
-25 19 -46 19 -46 1z"/>
<path d="M1342 33596 c7 -8 16 -12 21 -9 4 2 7 0 7 -6 0 -5 -3 -11 -7 -14 -5
-2 -2 -2 6 0 9 2 12 -3 8 -18 -4 -16 1 -24 29 -35 19 -8 38 -13 42 -10 5 3 14
1 21 -4 10 -6 8 -10 -8 -15 -13 -4 -29 -1 -39 7 -15 12 -16 11 -3 -5 10 -13
23 -16 45 -13 17 3 25 3 19 0 -7 -3 -13 -10 -13 -16 0 -6 6 -6 15 2 8 7 13 16
10 20 -3 5 1 11 7 13 8 3 6 6 -4 6 -10 1 -32 17 -50 37 -18 20 -38 42 -45 49
-7 7 -9 16 -5 21 4 5 0 3 -8 -3 -10 -8 -21 -9 -30 -3 -22 14 -32 12 -18 -4z
m74 -38 c16 -17 24 -28 17 -24 -6 3 -13 1 -15 -6 -5 -13 -28 -2 -28 13 0 6 5
7 10 4 6 -3 10 -1 10 4 0 6 -4 11 -9 11 -5 0 -11 7 -15 15 -8 21 -3 19 30 -17z"/>
<path d="M6716 33574 c-11 -13 -23 -24 -29 -24 -5 0 -4 6 2 14 9 11 9 16 0 22
-7 4 -9 3 -5 -4 3 -5 0 -12 -6 -15 -10 -3 -10 -7 1 -20 9 -11 10 -17 2 -17
-22 0 -26 2 -23 12 1 5 -2 7 -8 3 -8 -5 -8 -11 0 -20 8 -10 7 -14 -2 -18 -9
-4 -9 -6 -1 -6 6 -1 15 4 18 9 3 6 15 10 25 10 14 0 18 5 13 17 -5 12 -3 14 7
8 9 -5 11 -4 6 3 -4 7 -1 12 9 12 9 0 14 4 11 9 -4 5 -1 11 6 13 8 3 8 7 2 11
-6 3 -18 -5 -28 -19z"/>
<path d="M6584 33488 c-3 -5 -13 -7 -21 -4 -8 3 -11 1 -8 -4 4 -6 -7 -7 -27
-3 -18 3 -30 3 -27 -1 12 -13 98 -14 109 -1 6 7 21 10 33 7 12 -3 19 -2 16 2
-10 10 -69 14 -75 4z"/>
<path d="M1505 33460 c-16 -18 -16 -20 -1 -26 9 -3 33 -3 54 0 27 5 33 4 22
-3 -9 -7 -10 -11 -3 -11 28 0 20 20 -16 38 -38 20 -39 20 -56 2z m45 -12 c8
-3 0 -6 -17 -5 -27 0 -31 3 -21 14 6 8 14 10 17 5 3 -5 13 -11 21 -14z"/>
<path d="M6558 33447 c-12 -4 -31 -6 -40 -3 -10 2 -21 0 -24 -5 -3 -5 -502 -9
-1212 -9 -664 0 -1202 -4 -1195 -8 13 -8 2359 -7 2413 2 19 3 50 7 69 10 19 3
38 9 42 13 11 11 -24 11 -53 0z"/>
<path d="M1648 33443 c23 -2 61 -2 85 0 23 2 4 4 -43 4 -47 0 -66 -2 -42 -4z"/>
<path d="M4148 33443 c7 -3 16 -2 19 1 4 3 -2 6 -13 5 -11 0 -14 -3 -6 -6z"/>
<path d="M1630 33422 c0 -5 7 -9 15 -9 8 0 15 4 15 9 0 4 -7 8 -15 8 -8 0 -15
-4 -15 -8z"/>
<path d="M1684 33423 c10 -10 2326 -10 2326 -1 0 5 -525 8 -1167 8 -641 0
-1163 -3 -1159 -7z"/>
<path d="M4490 31890 c0 -173 1 -180 20 -180 18 0 20 7 20 74 0 76 12 125 33
138 7 4 26 8 44 8 44 0 53 -21 53 -130 0 -89 1 -91 23 -88 20 3 22 9 25 68 4
88 -6 148 -29 171 -24 24 -95 26 -127 3 l-22 -15 0 65 c0 59 -2 66 -20 66 -19
0 -20 -7 -20 -180z"/>
<path d="M4140 32035 c0 -18 5 -25 19 -25 24 0 33 13 25 34 -10 27 -44 20 -44
-9z"/>
<path d="M3410 31942 c-50 -51 -50 -162 0 -207 22 -19 104 -31 144 -21 17 4
26 13 26 25 0 17 -6 19 -58 14 -55 -5 -60 -4 -80 22 -39 49 -31 55 64 55 l87
0 -6 47 c-7 63 -40 93 -103 93 -37 0 -51 -6 -74 -28z m120 -31 c18 -36 12 -41
-50 -41 -33 0 -60 3 -60 8 0 4 7 18 16 30 20 29 79 31 94 3z"/>
<path d="M3650 31840 l0 -130 25 0 c25 0 25 1 25 88 0 104 13 132 64 132 50 0
56 -13 56 -122 l0 -98 26 0 26 0 -4 111 c-3 102 -5 113 -27 130 -29 23 -98 25
-129 3 -20 -14 -22 -14 -22 0 0 9 -9 16 -20 16 -19 0 -20 -7 -20 -130z"/>
<path d="M3947 31963 c-4 -3 -7 -62 -7 -130 l0 -123 25 0 c25 0 25 1 25 85 0
78 2 88 25 110 13 14 36 25 50 25 18 0 25 5 25 20 0 27 -48 27 -84 -1 l-26
-20 0 20 c0 20 -19 28 -33 14z"/>
<path d="M4140 31840 c0 -123 1 -130 20 -130 19 0 20 7 20 130 0 123 -1 130
-20 130 -19 0 -20 -7 -20 -130z"/>
<path d="M4304 31959 c-33 -17 -54 -62 -54 -119 0 -93 42 -135 131 -128 36 2
45 7 47 24 3 20 -1 21 -45 17 -64 -7 -87 17 -87 87 0 67 23 92 82 89 45 -3 74
17 49 33 -17 11 -98 9 -123 -3z"/>
<path d="M1628 30025 c-3 -3 -19 -7 -34 -8 -21 -2 -29 -8 -28 -20 1 -10 -3
-16 -10 -14 -6 2 -10 11 -10 20 1 13 -2 14 -16 7 -9 -5 -21 -6 -25 -2 -5 4 -4
1 0 -7 6 -11 4 -13 -10 -7 -15 5 -16 4 -6 -8 7 -9 8 -17 2 -20 -5 -3 -12 0
-14 6 -4 9 -8 10 -14 2 -4 -6 -16 -14 -27 -17 -11 -4 -16 -13 -12 -22 3 -9 0
-15 -10 -15 -9 0 -12 5 -8 12 5 7 3 8 -5 4 -7 -5 -10 -10 -7 -13 2 -3 -7 -16
-22 -29 -15 -13 -22 -24 -16 -24 7 0 15 7 18 16 3 8 10 12 16 9 5 -3 10 -1 10
4 0 6 7 11 15 11 8 0 15 -5 15 -11 0 -5 -4 -8 -8 -5 -5 3 -9 -2 -9 -10 0 -11
6 -9 23 7 13 12 21 26 18 30 -3 5 0 10 5 10 6 1 17 2 24 3 6 0 12 6 12 13 0 6
3 15 8 19 4 4 7 2 7 -4 0 -7 5 -12 10 -12 6 0 9 5 8 11 -2 6 3 14 11 17 8 3
11 0 7 -6 -4 -6 2 -10 14 -9 11 1 20 5 20 9 0 5 12 6 28 3 22 -4 21 -3 -5 7
-45 15 -41 23 12 26 33 1 47 -3 54 -16 10 -16 10 -16 11 1 0 16 62 17 1155 17
739 0 1155 3 1155 10 0 10 -2352 15 -2362 5z m-106 -47 c-7 -7 -12 -8 -12 -2
0 14 12 26 19 19 2 -3 -1 -11 -7 -17z m-38 -26 c3 -5 0 -9 -7 -9 -7 0 -20 -4
-29 -8 -11 -4 -18 -3 -18 3 0 9 15 16 42 21 4 0 9 -3 12 -7z"/>
<path d="M4110 30018 c0 -4 4 -8 9 -8 5 0 7 -9 4 -20 -4 -17 -1 -20 23 -19 24
1 25 2 7 6 -13 2 -23 9 -23 14 0 6 6 7 13 3 9 -6 9 -4 -1 8 -10 13 -10 17 0
21 7 3 3 4 -9 4 -13 -1 -23 -5 -23 -9z"/>
<path d="M4170 30020 c0 -7 360 -10 1114 -10 612 0 1120 -2 1129 -6 23 -8 60
-1 64 13 4 10 -248 12 -1151 13 -782 0 -1156 -3 -1156 -10z"/>
<path d="M6487 30014 c-7 -7 22 -54 33 -54 5 0 3 14 -3 30 -11 30 -18 35 -30
24z"/>
<path d="M6534 29999 c-4 -8 1 -9 17 -5 23 7 23 7 5 -8 -11 -9 -14 -16 -7 -16
7 0 9 -4 6 -10 -3 -5 -2 -10 4 -10 5 0 13 5 16 10 3 6 1 10 -5 10 -6 0 -8 5
-5 10 5 8 11 7 21 -1 12 -9 12 -15 2 -27 -11 -13 -11 -14 0 -8 7 4 19 3 27 -4
10 -8 15 -8 21 1 4 8 3 9 -4 5 -10 -6 -17 11 -14 35 1 4 -6 6 -16 5 -9 0 -16
4 -15 9 2 14 -44 17 -53 4z"/>
<path d="M4058 29973 c7 -3 16 -2 19 1 4 3 -2 6 -13 5 -11 0 -14 -3 -6 -6z"/>
<path d="M6643 29935 c-6 -15 -7 -27 -2 -31 5 -3 8 -1 7 4 -2 6 2 10 7 11 6 1
11 -3 11 -9 1 -5 3 -13 4 -17 1 -5 2 -11 1 -15 0 -5 5 -7 12 -5 6 1 12 -7 13
-18 0 -11 5 -30 12 -41 6 -12 8 -25 4 -29 -4 -5 -1 -5 6 -1 7 5 11 14 8 21 -3
8 4 17 15 20 18 6 19 9 5 23 -8 10 -14 22 -14 27 0 6 -9 15 -21 21 -11 6 -18
14 -14 17 6 7 -25 47 -36 47 -3 0 -11 -11 -18 -25z m44 -25 c-1 -10 -5 -17 -9
-14 -4 3 -5 11 -1 19 3 8 0 15 -6 15 -6 0 -11 5 -11 11 0 8 4 8 14 0 8 -7 14
-21 13 -31z m32 -30 c-1 -3 3 -14 9 -25 9 -18 7 -21 -9 -21 -12 0 -15 4 -9 10
6 6 5 16 -1 29 -8 14 -8 18 1 15 6 -2 10 -6 9 -8z"/>
<path d="M1376 29865 c-11 -8 -14 -15 -7 -15 7 0 9 -5 6 -10 -5 -8 -11 -8 -20
0 -10 8 -15 8 -21 -1 -4 -8 -3 -9 4 -5 7 4 12 3 12 -3 0 -5 -8 -15 -17 -20
-17 -10 -17 -10 0 -11 9 0 17 5 17 11 0 5 5 7 10 4 12 -7 14 -26 3 -24 -21 3
-34 -2 -28 -11 4 -6 11 -8 16 -5 5 4 4 -6 -2 -22 -7 -19 -7 -33 1 -48 7 -14
11 -379 13 -1175 l2 -1155 3 1162 c1 766 -1 1164 -8 1168 -5 3 -10 13 -10 21
0 9 5 12 12 8 8 -5 9 -2 5 10 -4 9 0 31 9 48 10 19 11 27 4 23 -8 -5 -11 -3
-8 6 3 8 11 13 17 11 7 -1 10 2 7 7 -4 5 0 12 6 14 10 4 10 6 0 6 -7 1 -10 6
-7 11 8 13 4 12 -19 -5z"/>
<path d="M6740 29819 c0 -4 7 -20 15 -35 8 -16 15 -22 15 -13 0 14 -29 61 -30
48z"/>
<path d="M6726 29774 c-9 -24 -6 -42 4 -19 7 17 9 17 9 3 1 -10 6 -18 12 -18
6 0 8 7 5 16 -3 9 -6 20 -6 25 0 15 -17 10 -24 -7z"/>
<path d="M1313 29716 c0 -23 1 -34 4 -26 20 63 20 67 9 67 -7 0 -12 -17 -13
-41z"/>
<path d="M6762 29725 c-18 -39 -15 -2327 2 -2375 l13 -35 1 37 c0 21 -4 35 -9
32 -5 -3 -9 473 -9 1163 0 642 4 1162 8 1155 6 -8 9 -2 9 18 0 16 -1 30 -2 30
-1 0 -7 -11 -13 -25z"/>
<path d="M6730 29719 c0 -5 5 -7 10 -4 6 3 10 8 10 11 0 2 -4 4 -10 4 -5 0
-10 -5 -10 -11z"/>
<path d="M1315 28525 c0 -627 1 -885 2 -573 2 311 2 824 0 1140 -1 315 -2 60
-2 -567z"/>
<path d="M2680 28545 l0 -245 35 0 35 0 2 190 3 190 65 -190 65 -190 31 0 31
0 64 185 64 186 3 -186 2 -185 35 0 35 0 0 246 0 245 -47 -3 -46 -3 -66 -192
c-36 -106 -68 -193 -71 -193 -3 0 -35 88 -70 195 l-64 195 -53 0 -53 0 0 -245z"/>
<path d="M4400 28709 l0 -80 -22 15 c-32 23 -106 20 -146 -4 -87 -53 -96 -242
-16 -311 47 -40 120 -45 172 -11 20 13 22 13 22 -2 0 -11 9 -16 30 -16 l30 0
0 245 0 245 -35 0 -35 0 0 -81z m-37 -120 c54 -42 60 -169 10 -215 -34 -32
-82 -32 -112 0 -49 53 -47 169 4 214 32 27 65 28 98 1z"/>
<path d="M3658 28762 c-24 -14 -28 -23 -28 -59 0 -36 -3 -43 -19 -43 -17 0
-31 -18 -31 -40 0 -5 10 -10 23 -12 21 -3 22 -7 27 -141 6 -158 10 -167 87
-167 34 0 43 4 43 18 0 26 -13 40 -40 43 l-25 4 0 120 0 120 28 3 c21 3 27 9
27 28 0 20 -5 24 -30 24 -29 0 -29 1 -32 59 l-3 60 -27 -17z"/>
<path d="M4973 28760 c-28 -17 -33 -25 -33 -60 0 -33 -3 -40 -20 -40 -15 0
-20 -7 -20 -25 0 -18 5 -25 20 -25 19 0 20 -7 20 -119 0 -117 9 -168 33 -183
7 -4 31 -8 55 -8 40 0 42 1 42 29 0 25 -4 30 -27 33 l-28 3 -3 123 -3 122 31
0 c27 0 31 3 28 23 -2 15 -11 23 -30 25 -26 3 -27 6 -30 63 l-3 59 -32 -20z"/>
<path d="M3305 28641 c-40 -24 -60 -49 -74 -90 -26 -79 -1 -191 52 -226 73
-48 163 -41 220 15 44 44 47 65 11 74 -23 6 -32 1 -56 -28 -24 -30 -36 -36
-66 -36 -39 0 -73 21 -91 57 -26 51 -21 53 120 53 l132 0 -7 47 c-13 96 -73
153 -160 153 -32 0 -62 -7 -81 -19z m126 -41 c22 -13 52 -67 44 -80 -8 -13
-172 -13 -180 0 -9 14 24 66 49 79 28 13 63 13 87 1z"/>
<path d="M3864 28646 c-34 -15 -64 -51 -64 -77 0 -19 53 -34 59 -16 10 29 52
57 84 57 40 0 87 -33 87 -60 0 -25 -5 -28 -91 -41 -119 -18 -149 -42 -149
-117 0 -92 127 -131 223 -67 26 17 27 17 27 -4 0 -17 6 -21 36 -21 33 0 36 2
29 23 -4 12 -10 82 -14 154 -8 167 -14 176 -124 180 -46 2 -83 -2 -103 -11z
m166 -195 c0 -60 -45 -103 -107 -103 -35 0 -73 27 -73 53 0 19 43 44 93 55 77
17 87 17 87 -5z"/>
<path d="M4613 28645 c-29 -12 -75 -78 -62 -88 12 -11 59 -16 59 -7 0 6 11 22
25 35 45 46 145 22 145 -35 0 -25 -5 -27 -86 -40 -92 -14 -122 -27 -139 -61
-30 -56 -12 -119 39 -141 44 -18 120 -14 160 10 33 20 34 20 39 1 4 -13 14
-19 35 -19 l30 0 -4 63 c-2 34 -5 101 -8 148 -4 100 -14 123 -57 138 -44 15
-137 13 -176 -4z m167 -206 c0 -37 -47 -88 -82 -90 -62 -3 -88 10 -88 46 0 30
21 46 83 61 81 19 87 18 87 -17z"/>
<path d="M5175 28642 c-35 -22 -50 -39 -59 -68 -6 -18 -2 -22 24 -26 26 -4 34
0 45 22 16 31 33 40 79 40 45 0 78 -26 74 -58 -3 -24 -9 -28 -53 -36 -98 -17
-129 -28 -158 -57 -26 -26 -29 -35 -24 -71 3 -22 14 -50 25 -60 41 -42 142
-43 199 -3 20 14 22 14 28 -5 5 -15 15 -20 40 -20 33 0 34 1 25 26 -6 14 -10
77 -10 139 0 126 -9 159 -51 181 -41 21 -147 18 -184 -4z m165 -205 c0 -66
-86 -111 -148 -78 -26 14 -29 52 -7 71 13 11 104 36 143 39 7 1 12 -12 12 -32z"/>
<path d="M1310 27360 c0 -11 4 -20 9 -20 5 0 7 9 4 20 -3 11 -7 20 -9 20 -2 0
-4 -9 -4 -20z"/>
<path d="M1345 27358 c4 -21 1 -28 -9 -28 -8 0 -14 -8 -13 -20 1 -10 3 -17 6
-15 2 3 10 0 17 -6 18 -15 39 -2 24 16 -6 7 -8 19 -5 27 3 7 -2 22 -10 33 -16
19 -16 19 -10 -7z m20 -58 c3 -5 2 -10 -4 -10 -5 0 -13 5 -16 10 -3 6 -2 10 4
10 5 0 13 -4 16 -10z"/>
<path d="M6726 27335 c1 -19 -2 -35 -7 -35 -5 0 -8 -3 -7 -7 1 -5 -4 -19 -11
-31 -7 -13 -10 -26 -7 -29 3 -4 1 -12 -5 -20 -6 -7 -8 -13 -4 -13 4 0 2 -7 -5
-15 -7 -8 -16 -13 -20 -10 -5 3 -11 1 -15 -5 -3 -5 2 -10 12 -10 16 -1 16 -2
2 -10 -9 -5 -26 -8 -38 -5 -25 5 -74 -18 -63 -30 4 -4 -4 -4 -18 -1 l-25 7 24
-14 c18 -11 20 -16 10 -20 -8 -3 0 -4 16 -1 17 3 35 6 42 6 7 1 9 6 6 11 -4 6
0 8 10 4 17 -7 41 15 29 28 -4 5 0 6 10 2 21 -7 31 3 18 18 -7 9 -5 17 7 26
15 12 16 12 10 -3 -8 -23 -5 -23 16 3 11 12 13 19 5 17 -7 -2 -13 2 -14 7 0 6
7 9 18 7 11 -2 18 3 18 12 0 9 5 16 12 16 9 0 9 3 0 12 -14 14 -16 32 -3 23 5
-3 13 0 17 6 4 7 3 9 -3 6 -6 -4 -15 5 -22 19 -15 34 -14 42 4 18 15 -20 18
-13 9 24 -10 36 -32 27 -28 -13z m10 -65 c-2 -34 -20 -58 -30 -41 -6 8 21 71
30 71 1 0 1 -13 0 -30z m-106 -143 c0 -4 5 -5 12 -1 6 4 8 3 5 -3 -4 -6 -19
-8 -33 -5 -17 3 -25 1 -21 -6 4 -5 1 -12 -7 -15 -22 -9 -28 5 -9 23 18 17 53
22 53 7z"/>
<path d="M6715 27250 c-3 -5 -1 -10 4 -10 6 0 11 5 11 10 0 6 -2 10 -4 10 -3
0 -8 -4 -11 -10z"/>
<path d="M1335 27262 c2 -32 15 -39 31 -18 14 19 14 19 14 -2 0 -11 -7 -25
-16 -30 -14 -8 -11 -11 14 -20 17 -6 33 -8 36 -5 12 12 18 -28 6 -42 -12 -15
-10 -17 20 -19 8 -1 14 -7 13 -14 -2 -7 5 -12 15 -12 9 0 25 -7 35 -15 11 -7
25 -11 33 -8 8 3 14 1 14 -3 0 -5 12 -10 28 -11 26 -1 26 -1 -8 17 -19 11 -44
17 -55 15 -11 -3 -14 -2 -7 1 18 8 15 32 -5 38 -10 2 -30 3 -45 1 -16 -2 -28
1 -28 7 0 6 9 8 20 5 11 -3 23 0 27 5 3 7 1 8 -5 4 -7 -4 -12 -2 -12 5 0 7 -3
9 -7 6 -3 -4 -13 2 -20 13 -8 11 -19 17 -25 14 -6 -4 -8 1 -3 16 5 17 4 21 -6
15 -8 -6 -11 -4 -7 7 9 23 -8 46 -23 31 -10 -10 -15 -9 -24 4 -10 14 -12 13
-10 -5z m170 -152 c-3 -5 -13 -6 -21 -3 -12 4 -13 8 -3 14 15 9 32 2 24 -11z"/>
<path d="M1400 27159 c0 -5 5 -7 10 -4 6 3 10 8 10 11 0 2 -4 4 -10 4 -5 0
-10 -5 -10 -11z"/>
<path d="M1530 27120 c0 -13 38 -28 68 -26 35 2 26 21 -11 21 -17 0 -38 4 -44
8 -8 5 -13 4 -13 -3z"/>
<path d="M4015 27111 c-12 -12 -2 -19 25 -17 38 2 44 21 7 21 -15 1 -30 -1
-32 -4z"/>
<path d="M6487 27113 c-12 -11 -8 -23 8 -23 8 0 15 -5 15 -11 0 -6 -7 -9 -15
-6 -8 4 -16 3 -19 -1 -3 -5 12 -9 32 -10 28 -2 33 0 22 8 -8 5 -10 10 -5 10 6
0 2 5 -8 11 -9 6 -15 14 -12 20 7 10 -8 12 -18 2z"/>
<path d="M4107 27079 c6 -23 9 -24 16 -5 3 8 0 17 -7 19 -10 4 -12 -1 -9 -14z"/>
<path d="M4150 27086 c-6 -6 -10 -15 -10 -20 0 -6 4 -5 8 2 7 10 234 12 1125
12 613 0 1118 3 1120 7 7 12 -2232 10 -2243 -1z"/>
<path d="M2323 27083 c306 -2 808 -2 1115 0 306 1 55 2 -558 2 -613 0 -864 -1
-557 -2z"/>
<path d="M6435 27070 c-3 -6 1 -7 9 -4 18 7 21 14 7 14 -6 0 -13 -4 -16 -10z"/>
<path d="M4662 25880 c-6 -16 -18 -33 -27 -36 -19 -8 -20 -34 -1 -34 11 0 15
-22 18 -96 3 -109 13 -124 80 -124 32 0 38 3 38 21 0 13 -5 19 -12 16 -7 -2
-23 -1 -35 4 -21 8 -23 14 -23 94 l0 85 35 0 c28 0 35 4 35 20 0 16 -7 20 -34
20 -30 0 -35 4 -38 27 -4 38 -24 39 -36 3z"/>
<path d="M3117 25839 c-35 -20 -52 -76 -49 -157 3 -51 49 -92 104 -92 24 0 49
5 56 12 17 17 25 4 17 -31 -9 -43 -36 -55 -107 -47 -47 5 -58 3 -58 -9 0 -23
34 -35 95 -35 49 0 60 4 86 29 l29 29 0 156 c0 133 -2 156 -15 156 -9 0 -18
-7 -21 -15 -5 -13 -8 -13 -27 0 -24 17 -84 19 -110 4z m107 -44 c30 -30 32
-118 4 -152 -6 -7 -28 -13 -49 -13 -33 0 -41 5 -54 30 -24 45 -14 122 18 142
20 13 65 9 81 -7z"/>
<path d="M3398 25821 c-29 -25 -32 -35 -36 -95 -4 -64 -3 -67 31 -101 30 -30
41 -35 84 -35 66 0 93 9 93 30 0 16 -7 17 -59 13 -50 -5 -61 -3 -80 16 -11 11
-21 30 -21 41 0 18 7 20 86 20 l87 0 -7 40 c-8 50 -23 75 -53 89 -44 20 -90
13 -125 -18z m116 -33 c9 -12 16 -26 16 -30 0 -5 -27 -8 -60 -8 -64 0 -73 9
-43 42 23 25 68 23 87 -4z"/>
<path d="M3640 25720 c0 -121 1 -130 19 -130 16 0 19 10 23 90 5 104 20 130
74 130 46 0 54 -21 54 -130 0 -89 1 -91 23 -88 19 3 22 10 25 58 5 84 -7 159
-29 181 -24 24 -95 26 -127 3 -20 -14 -22 -14 -22 0 0 9 -9 16 -20 16 -19 0
-20 -7 -20 -130z"/>
<path d="M3958 25821 c-29 -25 -32 -35 -36 -95 -4 -64 -3 -67 31 -101 30 -30
41 -35 84 -35 66 0 93 9 93 30 0 16 -7 17 -59 13 -50 -5 -61 -3 -80 16 -11 11
-21 30 -21 41 0 18 7 20 86 20 l87 0 -7 40 c-8 50 -23 75 -53 89 -44 20 -90
13 -125 -18z m116 -33 c9 -12 16 -26 16 -30 0 -5 -27 -8 -60 -8 -64 0 -73 9
-43 42 23 25 68 23 87 -4z"/>
<path d="M4200 25720 c0 -123 1 -130 20 -130 18 0 20 7 20 75 0 104 23 145 80
145 15 0 30 18 30 36 0 13 -69 1 -87 -16 -22 -20 -22 -20 -28 0 -4 11 -13 20
-21 20 -11 0 -14 -24 -14 -130z"/>
<path d="M4413 25840 c-14 -6 -21 -15 -17 -24 4 -12 17 -14 55 -9 53 6 79 -6
79 -38 0 -14 -11 -19 -55 -24 -73 -10 -105 -35 -105 -84 0 -24 7 -44 18 -54
24 -21 90 -22 120 -1 20 14 23 14 28 0 3 -9 12 -16 20 -16 11 0 14 23 14 110
0 97 -2 112 -20 130 -22 22 -95 27 -137 10z m117 -146 c0 -26 -20 -54 -45 -64
-55 -21 -98 27 -55 62 29 23 100 25 100 2z"/>
<path d="M4863 25840 c-48 -19 -71 -122 -43 -190 16 -39 56 -60 114 -60 56 0
76 8 76 29 0 15 -8 17 -58 13 -61 -4 -82 7 -96 56 -7 22 -6 22 78 22 l86 0 0
41 c0 77 -78 121 -157 89z m94 -42 c6 -7 13 -21 16 -30 6 -16 -1 -18 -59 -18
-64 0 -65 0 -53 23 7 12 17 25 23 29 18 12 63 9 73 -4z"/>
<path d="M1564 24138 c10 -6 22 -6 26 -2 5 5 -3 10 -18 11 -22 1 -24 0 -8 -9z"/>
<path d="M3920 24133 c0 -15 2 -16 10 -3 9 13 11 13 21 0 9 -13 10 -13 6 0 -6
22 -37 25 -37 3z"/>
<path d="M4121 24136 c-19 -23 -89 -31 -109 -13 -15 14 -19 14 -38 -2 -21 -17
-19 -17 61 -18 46 -1 92 -4 103 -7 18 -6 21 -3 20 25 -1 24 -3 27 -10 15 -5
-9 -6 -21 -3 -26 3 -6 -1 -7 -9 -4 -12 5 -13 11 -5 25 12 22 6 25 -10 5z"/>
<path d="M6499 24138 c37 -10 37 -10 1 -27 -24 -11 -24 -11 -6 3 17 14 18 16
3 16 -9 0 -17 -4 -17 -10 0 -5 -8 -10 -17 -11 -11 0 -7 -5 11 -11 22 -8 30 -7
37 3 8 11 12 10 24 -5 13 -17 15 -18 15 -3 0 9 5 17 10 17 9 0 13 -12 12 -30
0 -3 11 -7 24 -8 15 -1 22 2 19 8 -3 6 1 10 10 10 9 0 14 -4 11 -8 -2 -4 5 -9
17 -9 21 -2 21 -1 -3 17 -14 11 -29 15 -35 10 -12 -10 -45 12 -45 29 0 8 -8
10 -21 6 -13 -4 -19 -3 -16 2 4 6 -10 10 -31 10 l-37 1 34 -10z m56 -18 c-3
-5 -12 -10 -18 -10 -7 0 -6 4 3 10 19 12 23 12 15 0z"/>
<path d="M1503 24117 c-3 -5 -11 -6 -19 -3 -7 3 -16 0 -20 -6 -4 -6 -3 -8 3
-5 6 4 16 1 22 -6 7 -10 5 -17 -9 -29 -16 -14 -19 -14 -24 -2 -3 8 -2 13 2 10
4 -2 14 0 22 6 13 8 12 9 -1 5 -9 -3 -22 0 -28 6 -7 7 -12 8 -11 2 5 -22 -1
-29 -11 -15 -9 13 -10 13 -6 -2 3 -9 -1 -22 -9 -28 -8 -7 -14 -21 -14 -32 0
-13 -5 -18 -13 -15 -8 3 -20 1 -28 -4 -10 -6 -10 -9 -1 -9 6 0 12 -5 12 -10 0
-6 -7 -10 -16 -8 -12 2 -18 -6 -21 -27 -2 -16 -8 -43 -13 -59 -8 -24 -8 -27 5
-16 10 9 15 9 15 1 0 -6 7 -11 16 -11 14 0 14 3 4 15 -15 18 -23 98 -9 89 5
-3 7 -9 4 -14 -3 -5 3 -8 14 -7 11 0 18 4 15 8 -2 4 2 10 8 12 10 4 10 6 1 6
-7 1 -13 6 -13 12 0 5 5 7 11 3 11 -7 58 42 58 61 0 6 -8 -1 -19 -15 -15 -20
-18 -21 -16 -6 3 22 32 41 41 26 8 -13 54 20 55 38 0 7 5 10 12 6 7 -4 8 -3 4
5 -4 7 2 15 16 20 22 9 22 10 -5 8 -16 -1 -31 -5 -34 -10z"/>
<path d="M1633 24123 c9 -2 25 -2 35 0 9 3 1 5 -18 5 -19 0 -27 -2 -17 -5z"/>
<path d="M6580 24126 c0 -2 7 -7 16 -10 8 -3 12 -2 9 4 -6 10 -25 14 -25 6z"/>
<path d="M1560 24110 c-9 -6 -10 -10 -3 -10 6 0 15 5 18 10 8 12 4 12 -15 0z"/>
<path d="M1590 24100 c0 -6 7 -10 15 -10 8 0 15 2 15 4 0 2 -7 6 -15 10 -8 3
-15 1 -15 -4z"/>
<path d="M6630 24060 c-12 -8 -10 -10 8 -10 13 0 20 4 17 10 -7 12 -6 12 -25
0z"/>
<path d="M6670 24050 c-6 -11 -15 -18 -20 -15 -6 3 -7 -1 -3 -10 5 -13 7 -14
14 -3 8 13 10 10 13 -22 0 -8 7 -14 15 -12 9 2 11 -3 7 -14 -5 -14 -4 -15 9
-4 12 10 13 15 3 21 -6 4 -16 5 -22 2 -5 -3 -6 -1 -2 5 4 6 14 8 23 5 13 -5
15 -2 10 11 -4 10 -7 20 -7 22 0 2 -5 4 -11 4 -8 0 -7 -6 2 -17 13 -15 12 -15
-9 -4 -22 12 -22 14 -6 25 11 9 13 15 6 20 -6 3 -16 -3 -22 -14z"/>
<path d="M1375 24030 c-3 -5 -1 -10 4 -10 6 0 11 5 11 10 0 6 -2 10 -4 10 -3
0 -8 -4 -11 -10z"/>
<path d="M6718 23963 c-17 -19 -13 -47 4 -36 7 4 9 -2 5 -16 -4 -18 -3 -20 8
-11 8 7 20 8 26 4 9 -5 10 -2 6 10 -4 10 -7 24 -7 32 0 8 -4 14 -10 14 -5 0
-7 -8 -4 -17 5 -15 4 -15 -6 1 -10 15 -9 20 1 27 8 5 9 9 3 9 -6 0 -18 -8 -26
-17z"/>
<path d="M1357 23919 c7 -7 15 -10 18 -7 3 3 -2 9 -12 12 -14 6 -15 5 -6 -5z"/>
<path d="M6754 23878 c3 -15 26 -23 26 -8 0 6 -4 9 -9 6 -5 -4 -12 -1 -14 4
-3 6 -4 5 -3 -2z"/>
<path d="M6733 23820 c0 -25 2 -35 4 -22 2 12 2 32 0 45 -2 12 -4 2 -4 -23z"/>
<path d="M1315 22875 c0 -539 1 -758 2 -487 2 272 2 713 0 980 -1 268 -2 46
-2 -493z"/>
<path d="M6757 23844 c-3 -4 -7 -450 -7 -991 0 -865 -2 -988 -16 -1014 -8 -17
-12 -39 -8 -51 4 -15 3 -19 -7 -14 -8 4 -5 0 5 -8 11 -9 27 -15 35 -15 13 1
13 2 -1 6 -24 6 -32 50 -13 76 13 19 15 136 15 979 0 617 4 966 10 983 10 26
0 62 -13 49z"/>
<path d="M1365 22820 c0 -531 1 -748 2 -482 2 265 2 699 0 965 -1 265 -2 48
-2 -483z"/>
<path d="M2390 22845 l0 -245 180 0 180 0 0 30 0 29 -147 3 -148 3 -3 78 -3
77 136 0 135 0 0 30 0 29 -132 3 -133 3 0 70 0 70 143 3 142 3 0 29 0 30 -175
0 -175 0 0 -245z"/>
<path d="M3390 22845 l0 -245 30 0 c19 0 30 5 30 14 0 10 9 9 40 -6 45 -23 86
-19 136 11 45 27 68 83 68 161 0 116 -51 180 -145 180 -25 0 -54 -7 -65 -15
-10 -8 -22 -15 -26 -15 -5 0 -8 36 -8 80 l0 80 -30 0 -30 0 0 -245z m191 55
c29 -16 49 -64 49 -120 0 -111 -76 -167 -146 -107 -22 19 -28 34 -32 80 -5 65
9 109 46 137 28 22 54 25 83 10z"/>
<path d="M4370 23010 c0 -44 -3 -80 -7 -80 -5 0 -17 7 -27 15 -28 21 -105 19
-142 -4 -93 -57 -94 -265 -1 -321 49 -30 94 -34 138 -12 30 15 39 16 39 6 0
-9 11 -14 30 -14 l30 0 0 245 0 245 -30 0 -30 0 0 -80z m-38 -129 c28 -25 32
-35 35 -92 5 -74 -18 -124 -62 -135 -68 -17 -115 34 -115 124 0 116 70 167
142 103z"/>
<path d="M4740 23009 l0 -80 -22 15 c-32 23 -106 20 -146 -4 -87 -53 -96 -242
-16 -311 47 -40 120 -45 172 -11 20 13 22 13 22 -2 0 -11 9 -16 30 -16 l30 0
0 245 0 245 -35 0 -35 0 0 -81z m-37 -120 c55 -43 61 -168 10 -215 -34 -32
-82 -32 -112 0 -49 53 -47 169 4 214 32 27 65 28 98 1z"/>
<path d="M4900 23055 c0 -32 2 -35 30 -35 28 0 30 3 30 35 0 32 -2 35 -30 35
-28 0 -30 -3 -30 -35z"/>
<path d="M2830 22780 l0 -180 30 0 30 0 0 110 c0 128 14 174 57 191 35 14 74
-5 84 -41 4 -14 7 -78 8 -142 l1 -118 30 0 30 0 0 124 c0 108 2 126 20 149 26
33 65 42 96 22 23 -15 24 -19 24 -155 l0 -140 35 0 35 0 0 118 c0 149 -7 186
-38 217 -40 41 -140 30 -173 -18 -4 -5 -18 3 -32 17 -34 34 -111 37 -150 6
-14 -11 -28 -20 -31 -20 -3 0 -6 9 -6 20 0 15 -7 20 -25 20 l-25 0 0 -180z"/>
<path d="M3830 22941 c-70 -37 -103 -166 -66 -255 40 -97 186 -123 266 -48 42
39 47 68 15 76 -21 5 -32 0 -59 -29 -45 -47 -95 -49 -137 -4 -16 17 -29 42
-29 55 0 23 1 23 127 26 l128 3 -3 40 c-8 95 -68 155 -156 155 -31 0 -65 -7
-86 -19z m129 -46 c30 -15 41 -33 41 -66 0 -17 -8 -19 -90 -19 -79 0 -90 2
-90 18 1 34 54 81 93 82 10 0 31 -7 46 -15z"/>
<path d="M4900 22780 l0 -180 30 0 30 0 0 180 0 180 -30 0 -30 0 0 -180z"/>
<path d="M5049 22958 c-1 -4 -1 -320 0 -340 1 -13 9 -18 31 -18 l30 0 0 114
c0 132 7 159 49 181 41 21 58 19 86 -10 24 -23 25 -29 25 -155 l0 -130 31 0
30 0 -3 155 c-3 143 -5 156 -25 176 -33 33 -121 38 -168 11 -34 -21 -35 -21
-35 -2 0 15 -7 20 -25 20 -14 0 -25 -1 -26 -2z"/>
<path d="M5478 22945 c-60 -33 -93 -141 -68 -229 27 -97 127 -144 206 -97 l37
22 -6 -42 c-8 -58 -36 -84 -93 -84 -38 0 -50 5 -68 28 -14 18 -31 27 -50 27
-26 0 -28 -2 -21 -27 9 -37 24 -53 62 -70 46 -19 118 -16 162 7 64 32 71 59
71 284 l0 196 -25 0 c-14 0 -28 -7 -31 -15 -5 -13 -9 -13 -34 0 -36 19 -107
19 -142 0z m121 -49 c36 -19 51 -55 51 -121 0 -72 -33 -115 -90 -115 -57 0
-90 43 -90 116 0 107 54 158 129 120z"/>
<path d="M1314 21837 c3 -32 10 -53 22 -62 18 -14 18 -14 -1 -15 -18 -1 -19
-1 -2 -11 9 -5 17 -15 17 -20 0 -6 -5 -7 -12 -3 -7 4 -8 3 -4 -5 6 -9 11 -9
23 1 9 7 18 12 20 10 3 -2 7 -1 11 2 3 3 -4 6 -16 6 -12 0 -22 5 -22 11 0 6 8
8 18 5 16 -6 16 -5 0 8 -18 13 -26 32 -10 22 10 -6 9 45 -2 62 -4 7 -12 12
-19 12 -8 0 -8 -3 1 -12 14 -14 16 -58 3 -58 -5 0 -14 21 -20 48 l-10 47 3
-48z"/>
<path d="M6760 21831 c-6 -16 -10 -38 -7 -48 3 -11 5 -7 6 12 1 20 4 26 9 17
6 -8 9 -2 9 18 0 16 -1 30 -2 30 -2 0 -8 -13 -15 -29z"/>
<path d="M6709 21727 c-1 -7 0 -19 1 -26 1 -13 -1 -13 -17 -1 -10 8 -15 10
-11 6 4 -5 2 -16 -5 -25 -11 -14 -10 -15 7 -1 18 14 19 13 12 -12 -7 -31 4
-37 24 -13 7 8 9 15 4 15 -4 0 -3 5 3 11 6 6 9 18 6 27 -4 10 -2 13 5 8 6 -3
13 -2 17 4 3 5 3 10 -2 11 -4 0 -16 2 -25 4 -10 2 -19 -2 -19 -8z"/>
<path d="M1357 21698 c-3 -10 -1 -15 4 -12 6 3 16 0 24 -6 9 -8 15 -8 15 -2 0
6 -6 13 -12 15 -10 4 -9 8 2 16 12 8 11 10 -7 8 -12 0 -24 -9 -26 -19z"/>
<path d="M1398 21669 c-14 -15 -15 -19 -1 -39 12 -18 17 -19 31 -8 13 11 15
11 10 -4 -4 -10 1 -23 14 -35 15 -13 22 -15 25 -5 3 6 9 12 14 12 4 0 6 -6 3
-13 -5 -15 71 -45 83 -34 3 4 -3 7 -15 7 -11 0 -23 4 -26 9 -3 4 8 8 24 7 27
-1 34 -7 32 -27 -1 -4 8 -4 20 -1 21 5 21 6 2 13 -14 6 -10 8 18 8 20 1 40 -3
43 -9 4 -7 403 -9 1173 -8 l1167 3 -1170 5 -1170 5 1165 4 c641 1 1175 6 1188
9 13 4 -527 6 -1200 5 -761 -2 -1217 1 -1208 6 10 7 6 10 -18 9 -17 -1 -29 -5
-26 -10 6 -10 -41 0 -69 14 -12 6 -23 5 -33 -3 -9 -7 -14 -8 -14 -1 0 6 7 15
16 20 15 8 15 10 0 15 -10 4 -14 3 -11 -2 3 -5 1 -12 -5 -16 -5 -3 -11 1 -11
9 -2 27 -4 30 -19 51 -14 20 -16 20 -32 4z m31 -13 c9 -11 7 -15 -8 -19 -17
-4 -20 4 -12 31 2 5 9 1 20 -12z"/>
<path d="M6664 21645 c-4 -8 -10 -12 -15 -9 -5 3 -9 3 -9 0 0 -3 8 -10 18 -15
14 -7 17 -5 18 15 2 27 -4 31 -12 9z"/>
<path d="M6616 21625 c-3 -9 -9 -14 -13 -12 -5 3 -15 -2 -23 -11 -13 -14 -12
-15 3 -9 9 3 17 2 17 -3 0 -10 -13 -14 -40 -11 -12 2 -13 0 -1 -7 11 -8 11
-10 0 -15 -8 -3 -4 -4 8 -4 12 1 19 5 16 11 -4 6 1 6 13 2 10 -4 15 -4 11 1
-4 4 7 15 25 26 l33 18 -29 -6 c-26 -6 -28 -4 -16 10 7 8 11 18 8 21 -3 3 -8
-2 -12 -11z"/>
<path d="M6525 21590 c-3 -5 -2 -10 4 -10 5 0 13 5 16 10 3 6 2 10 -4 10 -5 0
-13 -4 -16 -10z"/>
<path d="M4138 21583 c7 -3 16 -2 19 1 4 3 -2 6 -13 5 -11 0 -14 -3 -6 -6z"/>
<path d="M5325 21570 l-1160 -5 1190 -2 c655 -1 1181 3 1170 7 -11 5 -24 8
-30 7 -5 -1 -532 -4 -1170 -7z"/>
<path d="M4108 21563 c6 -2 18 -2 25 0 6 3 1 5 -13 5 -14 0 -19 -2 -12 -5z"/>
<path d="M5323 21553 c-640 -2 -1163 -6 -1163 -11 0 -4 527 -7 1170 -7 644 0
1170 3 1170 7 0 3 10 4 23 2 20 -4 21 -4 2 5 -11 5 -24 9 -30 8 -5 -1 -533 -3
-1172 -4z"/>
<path d="M4100 21540 c0 -5 12 -10 26 -10 14 0 23 4 19 10 -3 6 -15 10 -26 10
-10 0 -19 -4 -19 -10z"/>
<path d="M3751 20350 c-5 -17 -17 -33 -26 -36 -19 -8 -20 -34 0 -34 12 0 15
-14 15 -68 0 -74 13 -131 32 -144 7 -4 30 -8 51 -8 31 0 37 3 37 21 0 13 -5
19 -12 16 -7 -2 -23 -1 -35 4 -21 8 -23 14 -23 94 l0 85 35 0 c28 0 35 4 35
20 0 16 -7 20 -35 20 -32 0 -35 2 -35 30 0 40 -25 40 -39 0z"/>
<path d="M3540 20313 c-40 -14 -54 -78 -22 -105 9 -8 36 -23 60 -33 62 -27 72
-43 42 -67 -15 -12 -32 -17 -47 -14 -13 3 -34 9 -48 12 -20 5 -25 2 -25 -14 0
-25 18 -32 84 -32 60 0 96 25 96 66 0 42 -16 60 -74 84 -90 36 -88 76 4 67 50
-4 59 -2 63 13 3 13 -2 20 -17 24 -26 7 -95 6 -116 -1z"/>
<path d="M3934 20286 c-30 -30 -34 -40 -34 -85 0 -89 42 -141 113 -141 80 0
117 42 117 130 0 90 -37 130 -121 130 -33 0 -47 -6 -75 -34z m132 -27 c27 -30
25 -112 -3 -141 -26 -26 -69 -26 -95 -1 -26 27 -29 100 -5 136 22 34 75 37
103 6z"/>
<path d="M4200 20190 c0 -123 1 -130 20 -130 18 0 20 7 20 69 0 107 24 150 83
151 20 0 27 5 27 20 0 28 -56 27 -87 -2 l-23 -21 0 21 c0 15 -6 22 -20 22 -19
0 -20 -7 -20 -130z"/>
<path d="M4418 20300 c-36 -28 -51 -72 -46 -132 4 -42 11 -57 37 -80 26 -23
40 -28 85 -28 67 0 86 7 86 30 0 16 -7 17 -59 13 -50 -5 -61 -3 -80 16 -11 11
-21 30 -21 41 0 18 7 20 85 20 84 0 85 0 85 25 0 38 -25 92 -48 104 -33 18
-97 13 -124 -9z m108 -37 c26 -35 17 -43 -46 -43 -33 0 -60 3 -60 8 0 4 7 18
16 30 19 27 71 30 90 5z"/>
<path d="M3940 18604 c0 -9 -5 -12 -12 -8 -7 4 -9 3 -5 -2 11 -12 59 -13 77
-2 12 8 11 8 -4 4 -13 -5 -17 -2 -12 9 3 8 1 15 -4 15 -6 0 -10 -4 -10 -10 0
-5 -5 -10 -11 -10 -5 0 -7 5 -4 10 3 6 1 10 -4 10 -6 0 -11 -7 -11 -16z"/>
<path d="M4087 18613 c-11 -10 13 -33 34 -33 11 0 19 7 19 18 0 15 2 15 11 2
8 -12 10 -12 7 -1 -5 16 -48 26 -48 11 0 -6 -5 -10 -11 -10 -5 0 -7 5 -4 10 7
11 2 13 -8 3z"/>
<path d="M1535 18600 c-4 -6 -10 -8 -15 -5 -11 7 -60 -15 -60 -27 0 -5 -5 -6
-10 -3 -6 4 -10 3 -9 -2 4 -23 -3 -34 -27 -43 -14 -6 -28 -19 -31 -30 -3 -11
-9 -18 -13 -15 -5 3 -12 0 -16 -6 -4 -8 -3 -9 4 -5 7 4 12 1 12 -6 0 -8 5 -6
11 5 5 9 14 17 20 17 5 0 4 -9 -3 -20 -7 -11 -17 -20 -23 -20 -5 0 -11 -12
-11 -28 -1 -15 1 -21 3 -14 3 6 10 9 15 6 7 -4 8 -2 4 5 -5 7 4 28 21 49 15
20 29 42 29 47 4 27 6 29 15 10 7 -16 8 -14 4 9 -6 27 -5 28 12 16 10 -8 15
-10 11 -6 -13 16 25 35 45 24 10 -5 21 -7 25 -4 3 3 -1 6 -9 6 -11 0 -11 2 1
10 11 7 6 8 -18 5 -18 -2 -30 0 -27 5 3 5 11 7 18 4 7 -2 21 2 32 10 11 9 15
16 8 16 -6 0 -15 -5 -18 -10z m-45 -34 c0 -2 -7 -7 -16 -10 -8 -3 -12 -2 -9 4
6 10 25 14 25 6z m-68 -65 c8 11 9 11 6 1 -4 -16 -22 -18 -24 -2 -2 7 -1 6 3
-1 4 -8 8 -7 15 2z"/>
<path d="M1570 18599 c0 -5 5 -7 10 -4 6 3 10 8 10 11 0 2 -4 4 -10 4 -5 0
-10 -5 -10 -11z"/>
<path d="M6490 18599 c0 -5 -5 -7 -11 -4 -16 11 -83 -5 -72 -16 12 -12 115 9
107 22 -7 12 -24 11 -24 -2z"/>
<path d="M6530 18596 c0 -2 7 -6 15 -10 8 -3 15 -1 15 4 0 6 -7 10 -15 10 -8
0 -15 -2 -15 -4z"/>
<path d="M6574 18585 c-4 -8 -13 -15 -21 -15 -8 0 -11 -5 -8 -10 9 -14 38 3
41 24 3 20 -5 21 -12 1z"/>
<path d="M1596 18575 c4 -8 11 -15 16 -15 6 0 5 6 -2 15 -7 8 -14 15 -16 15
-2 0 -1 -7 2 -15z"/>
<path d="M6601 18584 c-1 -7 8 -22 20 -35 11 -13 18 -18 14 -11 -3 6 -2 12 4
12 5 0 12 -6 14 -12 3 -8 6 -5 6 6 1 14 -4 17 -20 13 -15 -4 -19 -2 -15 9 3 8
2 13 -3 9 -5 -3 -12 1 -14 7 -4 8 -6 9 -6 2z"/>
<path d="M6511 18571 c-8 -5 -9 -11 -3 -15 5 -3 12 1 16 9 6 17 6 18 -13 6z"/>
<path d="M1500 18540 c-9 -6 -10 -10 -3 -10 6 0 15 5 18 10 8 12 4 12 -15 0z"/>
<path d="M6619 18517 c25 -27 38 -36 26 -17 -3 6 -1 10 4 10 6 0 11 -4 11 -9
0 -5 6 -11 14 -14 9 -4 13 0 12 11 -2 11 -12 17 -28 17 -14 1 -34 7 -44 15
-11 8 -8 2 5 -13z"/>
<path d="M6707 18493 c-14 -13 -7 -33 16 -43 21 -10 21 -10 3 4 -10 9 -16 22
-13 31 7 16 4 19 -6 8z"/>
<path d="M1336 18434 c-3 -9 -4 -20 0 -25 3 -5 1 -9 -4 -9 -5 0 -9 -6 -9 -12
-1 -7 -4 -29 -7 -48 -6 -33 -6 -33 5 -10 7 14 11 32 10 40 -2 8 5 5 16 -9 18
-22 19 -22 19 -3 0 11 -5 20 -11 19 -6 -1 -9 14 -8 36 2 40 -1 46 -11 21z"/>
<path d="M6691 18434 c0 -11 3 -14 6 -6 3 7 2 16 -1 19 -3 4 -6 -2 -5 -13z"/>
<path d="M6736 18415 c-10 -8 -23 -12 -27 -9 -5 3 -6 -2 -3 -11 6 -14 8 -14
25 1 21 19 26 3 7 -18 -15 -16 -21 -38 -10 -38 4 0 9 -15 10 -32 2 -18 7 -559
10 -1203 l7 -1170 3 1163 c1 793 5 1162 12 1162 7 0 7 8 -1 22 -9 16 -9 23 0
26 6 2 11 8 11 13 0 6 -4 8 -9 4 -6 -3 -15 3 -20 14 -16 28 -13 39 4 17 13
-17 14 -16 13 13 -1 18 -5 34 -10 37 -4 3 -6 10 -3 15 8 12 3 11 -19 -6z m23
-150 c0 -5 -4 -3 -9 5 -5 8 -9 22 -9 30 0 16 17 -16 18 -35z"/>
<path d="M1332 18298 c-2 -32 0 -39 8 -28 5 8 7 24 4 35 -4 16 -3 17 5 5 12
-17 14 -10 5 14 -11 28 -20 17 -22 -26z"/>
<path d="M1315 17150 c0 -619 1 -872 2 -562 2 309 2 815 0 1125 -1 309 -2 56
-2 -563z"/>
<path d="M1365 17140 c0 -619 1 -872 2 -562 2 309 2 815 0 1125 -1 309 -2 56
-2 -563z"/>
<path d="M3090 17753 c0 -5 41 -115 91 -245 l92 -238 33 0 c22 0 37 6 43 18
12 24 181 457 181 465 0 4 -15 7 -33 7 l-34 0 -73 -197 c-40 -109 -76 -201
-79 -205 -3 -4 -30 61 -60 145 -96 275 -88 257 -127 257 -19 0 -34 -3 -34 -7z"/>
<path d="M4298 17732 c-23 -14 -28 -24 -28 -59 0 -36 -3 -42 -22 -45 -33 -4
-37 -45 -6 -50 23 -3 23 -5 26 -138 3 -157 10 -170 88 -170 35 0 44 3 44 18 0
26 -13 40 -40 43 l-25 4 0 120 0 120 28 3 c21 3 27 9 27 28 0 20 -5 24 -30 24
-29 0 -29 1 -32 59 l-3 60 -27 -17z"/>
<path d="M3600 17607 c-54 -36 -74 -80 -74 -162 0 -119 55 -178 164 -178 70 0
115 23 141 73 l19 35 -32 8 c-24 6 -34 5 -37 -4 -18 -56 -106 -78 -150 -38
-21 20 -41 59 -41 80 0 5 57 9 131 9 l132 0 -6 51 c-12 98 -68 149 -165 149
-34 0 -59 -7 -82 -23z m151 -56 c16 -16 29 -39 29 -50 0 -20 -6 -21 -90 -21
-88 0 -90 0 -90 24 0 32 53 76 92 76 19 0 39 -10 59 -29z"/>
<path d="M3980 17612 c-68 -36 -98 -144 -68 -244 25 -83 122 -126 207 -92 40
16 71 52 86 102 6 20 3 22 -29 22 -28 0 -36 -4 -36 -18 0 -30 -42 -62 -81 -62
-68 0 -107 80 -87 175 17 80 93 111 143 60 14 -13 25 -29 25 -35 0 -13 30 -13
50 0 13 8 12 14 -5 45 -10 20 -31 43 -46 51 -39 20 -117 18 -159 -4z"/>
<path d="M4502 17610 c-65 -40 -94 -129 -72 -221 42 -172 291 -165 319 9 22
143 -38 232 -159 232 -37 0 -66 -6 -88 -20z m141 -50 c86 -68 46 -240 -55
-240 -70 0 -108 65 -95 163 11 80 92 122 150 77z"/>
<path d="M4820 17450 l0 -180 30 0 30 0 0 98 c1 162 21 208 86 196 28 -5 32
-3 38 22 5 18 3 30 -6 35 -24 15 -77 10 -97 -10 -19 -19 -19 -19 -24 0 -3 13
-14 19 -31 19 l-26 0 0 -180z"/>
<path d="M2650 16766 l0 -246 106 0 c58 0 126 5 151 11 97 25 150 124 141 263
-6 89 -34 146 -90 183 -38 26 -49 28 -174 31 l-134 4 0 -246z m232 174 c60
-17 90 -65 96 -154 3 -58 0 -82 -16 -118 -28 -65 -57 -81 -158 -86 l-84 -5 0
187 0 186 63 0 c34 0 79 -5 99 -10z"/>
<path d="M4070 16765 l0 -245 30 0 c19 0 30 5 30 14 0 10 9 9 39 -6 48 -24 99
-17 142 19 46 39 61 77 61 154 0 113 -52 179 -142 179 -22 0 -54 -7 -70 -15
l-30 -16 0 81 0 80 -30 0 -30 0 0 -245z m199 44 c78 -73 42 -239 -53 -239 -54
0 -86 45 -86 121 0 65 11 94 44 121 29 24 68 22 95 -3z"/>
<path d="M3548 16982 c-23 -14 -28 -24 -28 -59 0 -36 -3 -42 -22 -45 -33 -4
-37 -45 -6 -50 23 -3 23 -6 26 -138 3 -160 8 -170 85 -170 41 0 48 3 43 16 -3
9 -6 22 -6 29 0 8 -12 15 -27 17 l-28 3 -3 123 -3 122 31 0 c25 0 30 4 30 25
0 21 -5 25 -30 25 -29 0 -29 1 -32 59 l-3 60 -27 -17z"/>
<path d="M3183 16865 c-28 -12 -63 -58 -63 -83 0 -6 14 -12 30 -14 17 -3 30
-1 30 4 0 5 11 20 25 33 45 46 145 22 145 -35 0 -25 -5 -27 -86 -40 -38 -6
-82 -15 -97 -22 -34 -13 -57 -55 -57 -101 0 -85 121 -122 217 -67 30 18 31 18
36 -1 4 -13 14 -19 35 -19 l30 0 -4 63 c-2 34 -5 101 -8 148 -4 100 -14 123
-57 138 -44 15 -137 13 -176 -4z m167 -204 c0 -89 -158 -136 -168 -50 -4 34
18 50 86 65 81 18 82 17 82 -15z"/>
<path d="M3742 16860 c-18 -11 -39 -35 -47 -53 -13 -31 -13 -32 13 -37 21 -4
34 2 58 27 24 25 40 33 67 33 42 0 76 -26 79 -60 3 -24 -1 -25 -77 -38 -92
-15 -134 -36 -154 -76 -18 -38 0 -100 35 -122 38 -25 122 -23 168 4 37 22 38
22 43 2 4 -15 14 -20 40 -20 30 0 34 3 27 18 -4 9 -10 79 -13 154 -7 174 -13
181 -129 186 -64 3 -83 0 -110 -18z m178 -177 c0 -5 -5 -24 -10 -44 -16 -56
-75 -87 -131 -67 -35 12 -49 52 -26 75 22 22 167 53 167 36z"/>
<path d="M4504 16866 c-34 -15 -64 -51 -64 -77 0 -19 53 -34 59 -16 10 29 52
57 84 57 40 0 87 -33 87 -60 0 -25 -5 -28 -91 -41 -119 -18 -149 -42 -149
-117 0 -93 128 -130 227 -65 22 14 23 14 23 -6 0 -17 6 -21 36 -21 31 0 35 3
29 18 -4 9 -10 79 -14 154 -8 173 -13 181 -124 185 -46 2 -83 -2 -103 -11z
m163 -212 c-8 -46 -30 -71 -74 -83 -41 -12 -77 0 -92 28 -21 38 6 62 89 79 81
17 83 17 77 -24z"/>
<path d="M4858 16865 c-35 -20 -48 -44 -48 -90 0 -49 33 -78 117 -100 80 -21
93 -30 93 -61 0 -47 -93 -62 -134 -21 -13 13 -25 29 -27 36 -3 8 -14 10 -33 5
-24 -6 -27 -10 -21 -33 16 -63 87 -98 173 -85 64 10 112 56 112 109 0 53 -38
86 -125 109 -97 26 -115 44 -79 80 26 26 82 20 112 -11 20 -20 35 -27 55 -25
23 3 27 7 21 25 -3 12 -17 33 -30 47 -20 20 -35 25 -91 27 -47 2 -76 -1 -95
-12z"/>
<path d="M5220 16861 c-93 -49 -110 -234 -29 -308 77 -70 235 -38 263 53 5 17
2 23 -19 28 -21 5 -32 0 -59 -29 -45 -47 -95 -49 -137 -4 -16 17 -29 42 -29
55 l0 24 129 0 129 0 -5 43 c-12 101 -68 157 -157 157 -31 0 -65 -7 -86 -19z
m129 -46 c27 -14 56 -67 44 -79 -4 -3 -46 -6 -95 -6 -80 0 -88 2 -88 19 0 28
57 81 86 81 14 0 38 -7 53 -15z"/>
<path d="M1336 16002 c-16 -26 -23 -68 -14 -87 8 -19 8 -18 4 2 -3 15 2 24 15
28 20 7 22 18 10 49 -5 14 -10 16 -15 8z"/>
<path d="M6771 15934 c0 -11 3 -14 6 -6 3 7 2 16 -1 19 -3 4 -6 -2 -5 -13z"/>
<path d="M1342 15920 c0 -14 2 -19 5 -12 2 6 2 18 0 25 -3 6 -5 1 -5 -13z"/>
<path d="M6747 15924 c-4 -4 -7 -21 -7 -38 0 -29 -1 -29 -16 -10 -14 18 -15
18 -4 -3 8 -17 8 -23 0 -23 -6 0 -9 -4 -6 -8 2 -4 -5 -19 -16 -32 -15 -19 -18
-20 -14 -6 6 16 4 17 -9 6 -12 -10 -13 -15 -3 -21 6 -4 16 -5 20 -3 4 3 8 0 8
-6 0 -8 -9 -10 -24 -6 -14 3 -28 2 -31 -4 -6 -10 7 -14 34 -11 11 2 11 0 0
-12 -11 -12 -17 -12 -28 -3 -11 8 -13 8 -8 -1 4 -6 3 -14 -3 -18 -9 -6 -15 9
-10 30 1 5 -7 2 -17 -6 -10 -9 -23 -18 -29 -20 -6 -2 4 -11 23 -21 19 -9 32
-14 29 -11 -8 9 18 31 31 26 7 -3 18 7 24 21 7 14 17 26 23 26 6 0 6 4 -1 11
-9 9 -5 21 13 50 13 21 24 47 24 56 0 15 2 16 10 3 11 -17 12 -4 1 23 -3 10
-10 15 -14 11z m-122 -204 c3 -6 -1 -7 -9 -4 -18 7 -21 14 -7 14 6 0 13 -4 16
-10z"/>
<path d="M1326 15882 c-4 -7 -3 -19 3 -26 6 -7 7 -17 3 -21 -4 -5 -1 -4 7 0
11 6 13 4 8 -8 -10 -26 8 -29 29 -4 12 13 13 17 3 9 -13 -10 -18 -8 -27 11 -6
12 -12 29 -14 37 -3 11 -6 11 -12 2z"/>
<path d="M6741 15823 c-10 -26 -10 -27 4 -9 8 11 15 23 15 28 0 15 -7 8 -19
-19z"/>
<path d="M1377 15803 c-4 -3 -2 -13 3 -23 5 -10 6 -20 2 -24 -3 -4 2 -4 12 0
11 4 17 3 14 -2 -3 -5 1 -16 10 -24 14 -13 15 -12 9 2 -4 12 -2 15 8 11 8 -3
12 -10 8 -17 -4 -7 -1 -7 9 1 8 7 18 10 22 6 4 -4 -4 -13 -16 -21 -14 -8 -16
-11 -5 -8 11 3 20 0 23 -9 4 -8 10 -15 15 -15 4 0 6 6 3 14 -3 8 2 16 13 19
17 4 17 5 0 6 -11 1 -15 6 -11 13 4 7 3 8 -4 4 -6 -3 -16 2 -21 13 -8 14 -18
18 -35 15 -22 -4 -24 -1 -20 23 l4 28 -16 -25 c-8 -14 -13 -17 -10 -8 5 18 -6
32 -17 21z"/>
<path d="M1530 15711 c0 -5 5 -13 10 -16 12 -7 4 -25 -11 -25 -6 0 -8 4 -4 9
3 5 1 12 -4 15 -5 4 -8 -2 -7 -11 2 -10 9 -18 17 -18 8 0 17 -4 21 -10 5 -6
12 -5 20 3 9 9 8 12 -7 13 -19 0 -19 1 0 9 11 5 15 9 8 9 -6 1 -19 8 -27 17
-9 8 -16 11 -16 5z"/>
<path d="M1586 15699 c4 -7 44 0 44 7 0 2 -11 3 -24 2 -14 -1 -23 -5 -20 -9z"/>
<path d="M1660 15700 c-13 -8 -12 -10 3 -10 9 0 17 5 17 10 0 12 -1 12 -20 0z"/>
<path d="M6484 15702 c4 -7 -7 -13 -26 -17 -18 -3 -556 -4 -1196 -3 -639 2
-1162 0 -1162 -5 0 -4 538 -6 1195 -5 850 2 1195 0 1195 -8 0 -16 42 -11 61 7
9 9 28 15 43 14 14 -2 24 1 20 6 -3 5 -10 6 -16 3 -6 -4 -14 0 -19 7 -6 10 -9
11 -9 2 0 -7 -5 -13 -11 -13 -5 0 -7 5 -4 10 8 13 -8 13 -22 -1 -8 -8 -17 -8
-33 1 -13 7 -20 8 -16 2z m48 -25 c-15 -7 -26 -7 -33 0 -6 6 1 10 23 10 30 0
30 -1 10 -10z"/>
<path d="M4015 15690 c3 -5 8 -10 11 -10 2 0 4 5 4 10 0 6 -5 10 -11 10 -5 0
-7 -4 -4 -10z"/>
<path d="M4048 15693 c6 -2 18 -2 25 0 6 3 1 5 -13 5 -14 0 -19 -2 -12 -5z"/>
<path d="M1603 15673 c9 -2 25 -2 35 0 9 3 1 5 -18 5 -19 0 -27 -2 -17 -5z"/>
<path d="M2257 15673 c320 -2 846 -2 1170 0 323 1 62 2 -582 2 -643 0 -908 -1
-588 -2z"/>
<path d="M2218 15653 c332 -2 872 -2 1200 0 328 1 57 2 -603 2 -660 0 -929 -1
-597 -2z"/>
<path d="M4108 15653 c7 -3 16 -2 19 1 4 3 -2 6 -13 5 -11 0 -14 -3 -6 -6z"/>
<path d="M4738 15653 c320 -2 844 -2 1165 0 320 1 58 2 -583 2 -641 0 -903 -1
-582 -2z"/>
<path d="M3309 14470 c-6 -16 -19 -32 -30 -35 -25 -8 -24 -25 1 -32 18 -5 20
-14 20 -92 0 -110 12 -131 76 -131 36 0 44 3 44 19 0 13 -7 19 -27 19 -40 0
-53 26 -53 109 l0 73 40 0 c33 0 40 3 40 20 0 17 -7 20 -40 20 -38 0 -40 2
-40 30 0 38 -18 39 -31 0z"/>
<path d="M4191 14470 c-5 -17 -17 -33 -26 -36 -19 -8 -20 -34 0 -34 12 0 15
-14 15 -68 0 -74 13 -131 32 -144 7 -4 30 -8 51 -8 30 0 37 4 37 19 0 13 -7
19 -26 19 -37 0 -44 16 -44 105 l0 77 35 0 c28 0 35 4 35 20 0 16 -7 20 -35
20 -32 0 -35 2 -35 30 0 40 -25 40 -39 0z"/>
<path d="M3075 14415 c-47 -46 -29 -81 58 -120 42 -18 57 -30 57 -45 0 -28
-38 -41 -86 -29 -53 12 -54 12 -54 -10 0 -24 19 -31 86 -31 45 0 59 4 79 25
46 45 29 83 -56 126 -43 21 -59 35 -57 47 3 14 15 17 61 17 40 0 58 4 62 14 8
21 -14 31 -73 31 -43 0 -58 -5 -77 -25z"/>
<path d="M3470 14310 c0 -123 1 -130 20 -130 18 0 20 7 20 75 0 104 23 145 80
145 15 0 30 18 30 36 0 13 -69 1 -87 -15 -21 -20 -21 -20 -26 0 -3 10 -12 19
-21 19 -14 0 -16 -18 -16 -130z"/>
<path d="M3660 14336 c0 -89 3 -107 21 -130 17 -21 29 -26 65 -26 25 0 55 5
67 11 16 9 22 9 25 0 2 -6 12 -11 23 -11 19 0 19 7 17 128 -3 123 -4 127 -25
130 -22 3 -23 1 -23 -85 0 -105 -13 -133 -63 -133 -57 0 -62 9 -65 120 -4 90
-6 100 -23 100 -17 0 -19 -8 -19 -104z"/>
<path d="M3979 14412 c-27 -24 -33 -37 -37 -84 -8 -102 36 -153 129 -146 36 2
45 7 47 24 3 20 -1 21 -46 16 -43 -4 -51 -1 -66 19 -24 35 -21 114 5 140 17
17 30 20 64 16 36 -4 44 -1 48 14 6 22 -11 29 -69 29 -34 0 -51 -6 -75 -28z"/>
<path d="M4350 14336 c0 -89 3 -107 21 -130 17 -21 29 -26 65 -26 25 0 55 5
67 11 16 9 22 9 25 0 2 -6 12 -11 23 -11 19 0 19 7 17 128 -3 123 -4 127 -25
130 -22 3 -23 1 -23 -86 0 -103 -15 -134 -65 -134 -50 0 -65 31 -65 133 0 82
-1 89 -20 89 -19 0 -20 -7 -20 -104z"/>
<path d="M4647 14433 c-4 -3 -7 -62 -7 -130 l0 -123 25 0 c25 0 25 1 25 85 0
78 2 88 25 110 13 14 36 25 50 25 18 0 25 5 25 20 0 27 -48 27 -84 -1 l-26
-20 0 20 c0 20 -19 28 -33 14z"/>
<path d="M4858 14411 c-29 -25 -32 -35 -36 -95 -4 -64 -3 -67 31 -101 30 -30
41 -35 84 -35 66 0 93 9 93 30 0 16 -7 17 -59 13 -50 -5 -61 -3 -80 16 -11 11
-21 30 -21 41 0 18 7 20 86 20 l87 0 -7 40 c-8 50 -23 75 -53 89 -44 20 -90
13 -125 -18z m116 -33 c9 -12 16 -26 16 -30 0 -5 -27 -8 -60 -8 -64 0 -73 9
-43 42 23 25 68 23 87 -4z"/>
<path d="M1644 12722 c22 -2 35 -6 29 -10 -6 -4 517 -7 1162 -7 646 0 1171 3
1167 7 -4 4 -545 9 -1202 10 -657 2 -1177 2 -1156 0z"/>
<path d="M4100 12720 c0 -5 5 -10 10 -10 6 0 10 5 10 10 0 6 -4 10 -10 10 -5
0 -10 -4 -10 -10z"/>
<path d="M4130 12715 c-7 -9 -19 -14 -26 -11 -19 7 -80 -19 -65 -28 6 -4 18 0
27 8 20 20 28 20 20 1 -3 -8 -2 -15 2 -15 13 0 67 48 61 54 -3 4 -12 -1 -19
-9z"/>
<path d="M5320 12720 l-1165 -5 1172 -2 c760 -2 1174 1 1178 7 3 6 0 9 -7 8
-7 -2 -537 -5 -1178 -8z"/>
<path d="M6525 12720 c3 -5 11 -10 16 -10 6 0 7 5 4 10 -3 6 -11 10 -16 10 -6
0 -7 -4 -4 -10z"/>
<path d="M1529 12718 c-6 -22 -5 -37 2 -32 6 3 31 10 57 14 l47 9 -42 -2 c-24
-2 -43 1 -43 5 0 7 -19 12 -21 6z"/>
<path d="M4142 12684 c-11 -12 152 -14 1185 -14 659 0 1206 -2 1215 -3 10 -2
20 -6 24 -9 3 -4 13 -4 22 -1 11 5 13 3 7 -7 -5 -9 -4 -11 4 -6 13 9 71 -45
71 -66 0 -9 3 -8 10 2 6 10 5 17 -5 23 -15 8 -10 37 7 37 6 0 4 -8 -3 -17 -12
-15 -12 -16 4 -10 11 4 16 3 12 -3 -3 -6 -1 -10 4 -10 13 0 10 -22 -4 -32 -6
-5 -5 -8 3 -8 6 0 12 -5 12 -11 0 -5 -4 -7 -10 -4 -6 3 -7 -1 -3 -10 4 -12 8
-13 13 -5 5 8 10 2 14 -14 4 -15 11 -24 16 -21 6 3 10 -3 10 -14 0 -12 -4 -21
-10 -21 -5 0 -10 -6 -10 -12 1 -7 9 -3 19 9 10 12 17 32 15 45 -1 12 -3 27 -3
31 -1 4 -8 7 -17 5 -10 -2 -19 3 -21 10 -3 8 1 10 14 5 13 -4 11 0 -7 16 -18
16 -20 21 -7 17 14 -5 12 2 -9 30 -15 19 -32 33 -38 31 -6 -2 -28 7 -48 19
-22 14 -44 21 -54 17 -10 -4 -15 -2 -11 3 3 6 -13 10 -38 10 -24 0 -41 -4 -39
-8 3 -4 -519 -8 -1160 -8 -682 0 -1166 4 -1168 9 -1 5 -9 3 -16 -5z m2462 -12
c2 -4 -4 -8 -14 -8 -10 0 -16 4 -14 8 3 4 9 8 14 8 5 0 11 -4 14 -8z m41 -30
c-3 -3 -11 0 -18 7 -9 10 -8 11 6 5 10 -3 15 -9 12 -12z m110 -122 c3 -5 1
-10 -4 -10 -6 0 -11 5 -11 10 0 6 2 10 4 10 3 0 8 -4 11 -10z"/>
<path d="M1457 12683 c-4 -3 -7 -17 -7 -31 0 -22 -2 -23 -17 -11 -11 10 -14
10 -9 2 4 -7 2 -13 -3 -13 -6 0 -11 -4 -11 -8 0 -15 49 -7 67 11 10 9 12 17 6
17 -6 0 -14 -6 -16 -12 -4 -10 -6 -10 -6 -1 -1 7 9 17 20 24 17 9 19 13 8 20
-17 11 -24 11 -32 2z"/>
<path d="M1575 12679 c7 -11 35 -12 35 -1 0 4 -9 8 -20 9 -11 1 -18 -2 -15 -8z"/>
<path d="M1656 12679 c42 -9 2342 -11 2347 -1 3 4 -531 7 -1186 7 -655 0
-1178 -3 -1161 -6z"/>
<path d="M1381 12626 c-9 -10 -8 -15 3 -19 15 -6 15 -16 3 -53 -5 -15 -15 -20
-32 -19 -18 2 -22 -1 -18 -13 4 -10 2 -13 -5 -8 -7 4 -12 2 -12 -3 0 -6 5 -11
10 -11 6 0 10 -5 10 -11 0 -5 -4 -8 -9 -5 -5 3 -12 -1 -15 -9 -4 -12 -2 -13
12 -7 9 5 22 7 28 5 13 -4 27 24 18 38 -3 5 0 9 5 9 6 0 11 7 11 15 0 8 12 26
27 40 15 14 24 26 20 26 -19 4 -23 5 -35 12 -7 5 -10 13 -7 18 9 14 -1 11 -14
-5z m-16 -136 c-6 -9 -9 -9 -16 1 -10 17 0 34 13 21 6 -6 7 -16 3 -22z"/>
<path d="M1353 12587 c-4 -6 -1 -7 7 -2 9 5 10 2 5 -14 -4 -12 -2 -21 4 -21 6
0 11 3 12 8 0 4 2 14 4 23 3 17 -22 22 -32 6z"/>
<path d="M6767 12458 c-2 -7 -1 -22 3 -33 6 -16 8 -13 7 13 0 35 -2 39 -10 20z"/>
<path d="M1346 12445 c5 -12 11 -695 14 -1745 l5 -1725 3 1728 c2 1613 1 1730
-15 1745 -16 16 -16 16 -7 -3z"/>
<path d="M1320 12450 c-1 -3 -3 -18 -6 -35 -3 -28 -3 -29 7 -6 5 13 8 29 5 35
-2 6 -5 9 -6 6z"/>
<path d="M6748 10709 c2 -1508 4 -1723 17 -1742 13 -18 15 -19 15 -4 0 9 -4
17 -10 17 -7 0 -10 582 -10 1725 0 949 -3 1725 -7 1725 -5 0 -7 -774 -5 -1721z"/>
<path d="M1315 10660 c0 -927 1 -1306 2 -842 2 463 2 1221 0 1685 -1 463 -2
84 -2 -843z"/>
<path d="M2420 11055 l0 -245 35 0 35 0 0 83 0 83 38 37 38 38 85 -121 84
-120 43 0 c23 0 42 3 42 6 0 4 -43 64 -95 135 -52 70 -98 134 -101 142 -3 8
32 49 91 105 52 50 95 94 95 97 0 3 -19 5 -42 5 -41 0 -47 -5 -160 -117 l-118
-118 0 118 0 117 -35 0 -35 0 0 -245z"/>
<path d="M4100 11055 l0 -245 35 0 35 0 0 245 0 245 -35 0 -35 0 0 -245z"/>
<path d="M4860 11220 c0 -44 -3 -80 -7 -80 -5 0 -17 7 -27 15 -11 8 -39 15
-63 15 -96 0 -148 -61 -148 -175 0 -112 42 -173 132 -190 25 -4 46 -1 74 13
30 15 39 16 39 6 0 -9 11 -14 30 -14 l30 0 0 245 0 245 -30 0 -30 0 0 -80z
m-38 -129 c28 -25 32 -35 35 -92 5 -74 -18 -124 -62 -135 -68 -17 -115 34
-115 124 0 116 70 167 142 103z"/>
<path d="M2870 11163 c-1 -48 -1 -305 -1 -325 1 -24 5 -28 31 -28 l30 0 0 121
c0 66 5 129 10 140 12 21 60 49 85 49 9 0 27 -11 40 -25 24 -23 25 -29 25
-155 l0 -130 31 0 30 0 -3 156 -3 156 -28 24 c-37 31 -117 33 -164 4 -33 -20
-33 -20 -33 0 0 15 -7 20 -25 20 -14 0 -25 -3 -25 -7z"/>
<path d="M3305 11155 c-16 -8 -41 -32 -55 -52 -21 -31 -25 -48 -25 -112 0 -58
5 -84 20 -111 57 -97 209 -101 279 -7 16 22 22 46 24 105 3 86 -13 130 -62
166 -35 27 -139 33 -181 11z m147 -66 c10 -11 22 -39 28 -60 32 -120 -73 -217
-156 -146 -23 20 -28 34 -32 86 -5 72 10 116 47 136 34 20 91 12 113 -16z"/>
<path d="M3580 11156 c0 -7 23 -87 50 -176 28 -89 50 -164 50 -166 0 -2 16 -4
35 -4 38 0 32 -13 76 164 13 51 25 82 29 75 4 -8 20 -65 35 -127 l29 -113 34
3 34 3 54 170 c29 94 54 174 54 178 0 5 -14 7 -32 5 -31 -3 -31 -4 -66 -125
-20 -68 -38 -123 -42 -123 -3 0 -19 55 -36 123 l-30 122 -34 0 -34 0 -34 -128
c-20 -70 -37 -126 -39 -124 -2 2 -17 53 -33 113 -17 60 -33 117 -36 127 -7 21
-64 24 -64 3z"/>
<path d="M4310 11148 c-50 -35 -70 -81 -70 -164 0 -78 18 -117 72 -157 35 -26
129 -28 176 -3 28 15 72 68 72 87 0 13 -65 20 -69 7 -17 -51 -93 -74 -140 -42
-19 14 -51 69 -51 89 0 3 59 5 130 5 l130 0 0 38 c-1 53 -33 118 -72 142 -47
29 -134 28 -178 -2z m151 -57 c16 -16 29 -39 29 -50 0 -20 -6 -21 -90 -21 -84
0 -90 1 -90 21 0 32 53 79 90 79 22 0 41 -9 61 -29z"/>
<path d="M5075 11160 c-104 -43 -119 -251 -23 -323 36 -27 99 -33 139 -13 41
20 39 21 39 -13 0 -38 -33 -78 -71 -86 -37 -8 -86 10 -94 35 -3 10 -18 20 -35
22 -27 4 -30 2 -30 -21 1 -35 20 -58 63 -76 76 -32 168 -11 211 48 20 27 21
42 21 230 l0 202 -27 3 c-23 3 -28 -1 -28 -18 l0 -21 -26 20 c-28 22 -99 28
-139 11z m118 -61 c52 -40 59 -158 11 -206 -32 -32 -87 -31 -119 1 -47 47 -45
148 5 198 34 33 67 36 103 7z"/>
<path d="M5440 11148 c-50 -35 -70 -81 -70 -164 0 -78 18 -117 73 -158 35 -26
126 -27 175 -2 28 15 72 68 72 87 0 13 -65 20 -69 7 -17 -51 -93 -74 -140 -42
-19 14 -51 69 -51 89 0 3 59 5 130 5 l130 0 0 38 c-1 53 -33 118 -72 142 -47
29 -134 28 -178 -2z m151 -57 c16 -16 29 -39 29 -50 0 -20 -6 -21 -90 -21 -84
0 -90 1 -90 21 0 32 53 79 90 79 22 0 41 -9 61 -29z"/>
<path d="M3320 10549 c-101 -20 -168 -104 -177 -222 -10 -116 42 -213 135
-253 21 -9 67 -16 109 -16 62 -1 81 3 137 31 l66 32 0 95 0 94 -105 0 -105 0
0 -30 0 -30 70 0 70 0 0 -46 c0 -44 -1 -46 -46 -66 -59 -26 -150 -22 -192 8
-62 45 -89 158 -59 242 47 127 238 150 286 34 10 -24 17 -28 37 -24 35 6 39
23 16 69 -35 68 -138 103 -242 82z"/>
<path d="M4650 10305 l0 -245 29 0 29 0 3 126 4 126 33 29 c35 31 47 34 86 19
34 -13 46 -61 46 -192 l0 -108 30 0 30 0 0 136 c0 150 -11 192 -56 213 -35 16
-104 14 -138 -4 -15 -8 -30 -15 -32 -15 -2 0 -4 36 -4 80 l0 80 -30 0 -30 0 0
-245z"/>
<path d="M3677 10413 c-4 -3 -7 -85 -7 -180 l0 -174 33 3 32 3 5 128 c5 121 6
130 29 148 17 14 33 18 52 14 25 -6 29 -3 35 20 4 18 2 30 -7 36 -25 16 -72
10 -96 -13 l-23 -21 0 21 c0 16 -6 22 -23 22 -13 0 -27 -3 -30 -7z"/>
<path d="M3953 10405 c-20 -8 -39 -28 -50 -49 -19 -40 -18 -41 17 -49 20 -5
28 -1 42 23 31 54 133 52 152 -3 13 -37 4 -44 -79 -57 -120 -18 -155 -44 -155
-113 0 -92 118 -134 217 -77 30 18 31 18 36 -1 4 -13 14 -19 35 -19 l30 0 -4
63 c-2 34 -5 101 -8 148 -4 100 -14 123 -57 138 -44 15 -137 13 -176 -4z m167
-206 c0 -37 -47 -88 -82 -90 -62 -3 -88 10 -88 46 0 32 28 52 90 63 82 14 80
15 80 -19z"/>
<path d="M4280 10398 c-1 -72 -1 -362 -1 -410 1 -58 1 -58 31 -58 l30 0 0 82
c0 81 0 81 20 63 24 -22 102 -26 137 -7 12 7 35 29 50 49 22 29 28 48 31 103
7 126 -36 190 -134 198 -46 4 -61 1 -85 -17 -29 -21 -29 -21 -29 -1 0 15 -7
20 -25 20 -19 0 -25 -5 -25 -22z m198 -50 c43 -47 53 -112 27 -175 -19 -45
-41 -62 -81 -63 -88 -1 -125 160 -54 232 35 35 78 37 108 6z"/>
<path d="M6732 8955 c0 -16 2 -22 5 -12 2 9 2 23 0 30 -3 6 -5 -1 -5 -18z"/>
<path d="M1350 8920 c-1 -20 -3 -21 -8 -8 -7 17 -8 17 -19 -1 -9 -15 -9 -23 2
-37 13 -17 14 -17 15 -2 0 9 -3 18 -7 21 -5 2 -3 3 3 1 23 -5 37 13 25 32 -9
17 -10 17 -11 -6z"/>
<path d="M6753 8913 c5 -25 4 -26 -8 -10 -11 16 -13 16 -19 1 -8 -22 -8 -26 4
-19 6 3 10 1 10 -5 0 -21 25 -4 26 17 1 11 4 25 8 32 4 6 0 11 -10 11 -12 0
-15 -6 -11 -27z"/>
<path d="M1343 8855 c-6 -14 -8 -25 -4 -25 4 0 13 11 19 25 6 14 8 25 4 25 -4
0 -12 -11 -19 -25z"/>
<path d="M6710 8848 c0 -6 3 -8 7 -5 3 4 12 2 20 -4 10 -9 13 -8 13 3 0 7 -9
14 -20 15 -11 1 -20 -3 -20 -9z"/>
<path d="M6700 8816 c0 -19 17 -29 25 -15 4 5 14 8 24 5 12 -5 11 -2 -3 9 -25
19 -46 19 -46 1z"/>
<path d="M1342 8796 c7 -8 16 -12 21 -9 4 2 7 0 7 -6 0 -5 -3 -11 -7 -14 -5
-2 -2 -2 6 0 8 2 12 -3 9 -14 -2 -10 9 -31 25 -48 16 -16 27 -25 23 -19 -6 13
21 23 43 16 10 -3 7 -9 -10 -18 -24 -14 -24 -14 6 -9 17 3 24 2 18 -1 -7 -3
-13 -10 -13 -16 0 -6 6 -6 15 2 8 7 13 16 10 20 -3 5 1 11 7 13 8 3 6 6 -4 6
-10 1 -32 17 -50 37 -18 20 -38 42 -45 49 -7 7 -9 16 -5 21 4 5 0 3 -8 -3 -10
-8 -21 -9 -30 -3 -22 14 -32 12 -18 -4z m83 -64 c-2 -7 -1 -10 4 -7 5 3 12 1
15 -4 3 -5 -3 -11 -14 -14 -11 -3 -17 -1 -14 4 3 5 -2 12 -10 15 -9 3 -16 10
-16 16 0 5 5 6 10 3 6 -3 10 -1 10 4 0 6 -4 11 -9 11 -5 0 -12 8 -15 17 -5 13
0 11 19 -7 14 -13 23 -30 20 -38z"/>
<path d="M6716 8774 c-11 -13 -23 -24 -29 -24 -5 0 -4 6 2 14 9 11 9 16 0 22
-8 4 -9 3 -5 -4 4 -7 2 -12 -4 -12 -6 0 -10 -6 -9 -12 3 -26 -1 -39 -11 -33
-6 4 -7 12 -4 18 4 7 3 9 -1 4 -11 -10 -17 -47 -7 -47 4 0 16 7 26 15 10 8 23
12 27 9 8 -5 13 10 10 29 0 4 6 7 15 7 8 0 13 4 10 9 -4 5 -1 11 6 13 8 3 8 7
2 11 -6 3 -18 -5 -28 -19z"/>
<path d="M6584 8688 c-3 -5 -13 -7 -21 -4 -9 4 -11 2 -7 -6 5 -7 2 -9 -8 -6
-9 4 -15 0 -15 -8 0 -16 13 -19 22 -5 3 6 14 8 25 6 10 -2 24 2 30 10 6 7 20
11 33 7 12 -3 19 -2 16 2 -10 10 -69 14 -75 4z"/>
<path d="M1511 8666 c-23 -25 -16 -41 13 -30 9 3 16 1 16 -6 0 -6 5 -8 11 -4
8 4 7 9 -2 16 -10 6 -6 7 11 2 14 -3 22 -3 18 1 -4 5 -1 13 7 19 13 9 11 11
-11 13 -19 1 -23 -1 -13 -8 16 -10 8 -12 -15 -3 -9 3 -13 10 -10 15 10 17 -2
9 -25 -15z m14 -15 c-3 -6 -11 -11 -17 -11 -6 0 -6 6 2 15 14 17 26 13 15 -4z"/>
<path d="M6488 8673 c7 -3 16 -2 19 1 4 3 -2 6 -13 5 -11 0 -14 -3 -6 -6z"/>
<path d="M2202 8663 c329 -2 867 -2 1195 0 329 1 60 2 -597 2 -657 0 -926 -1
-598 -2z"/>
<path d="M4002 8654 c-12 -13 -183 -15 -1207 -14 -657 1 -1201 -2 -1209 -7
-13 -7 1854 -7 2267 0 93 1 147 -2 148 -8 0 -5 5 1 10 14 11 29 8 34 -9 15z
m-2339 -21 c-13 -2 -33 -2 -45 0 -13 2 -3 4 22 4 25 0 35 -2 23 -4z"/>
<path d="M4034 8663 c10 -10 46 -11 40 -1 -3 4 -15 8 -26 8 -12 0 -18 -3 -14
-7z"/>
<path d="M5268 8663 c740 -2 1132 -7 1132 -13 0 -6 -386 -11 -1112 -13 l-1113
-2 1145 -1 c630 -1 1135 1 1122 3 -19 4 -21 7 -11 19 10 12 -152 13 -1142 11
l-1154 -2 1133 -2z"/>
<path d="M6569 8649 c-7 -4 -5 -8 4 -12 8 -3 23 0 32 7 15 11 14 12 -5 12 -11
0 -25 -3 -31 -7z"/>
<path d="M4105 8640 c3 -5 8 -10 11 -10 2 0 4 5 4 10 0 6 -5 10 -11 10 -5 0
-7 -4 -4 -10z"/>
<path d="M6515 8630 c-3 -5 1 -10 9 -10 8 0 18 5 21 10 3 6 -1 10 -9 10 -8 0
-18 -4 -21 -10z"/>
<path d="M4060 7223 c0 -63 -1 -65 -18 -50 -21 19 -83 22 -113 7 -35 -19 -51
-67 -47 -138 4 -55 8 -68 32 -88 33 -29 100 -33 128 -8 16 16 18 16 24 0 3 -9
12 -16 20 -16 10 0 14 34 16 158 4 191 2 202 -23 202 -17 0 -19 -7 -19 -67z
m-20 -88 c21 -26 25 -111 6 -140 -21 -32 -74 -35 -101 -5 -25 28 -25 113 0
140 22 24 77 27 95 5z"/>
<path d="M3476 7271 c-10 -16 5 -41 25 -41 14 0 19 7 19 25 0 18 -5 25 -19 25
-11 0 -22 -4 -25 -9z"/>
<path d="M3480 7060 c0 -123 1 -130 20 -130 19 0 20 7 20 130 0 123 -1 130
-20 130 -19 0 -20 -7 -20 -130z"/>
<path d="M3600 7060 c0 -121 1 -130 19 -130 16 0 19 10 23 90 5 104 20 130 74
130 46 0 54 -21 54 -130 0 -89 1 -91 23 -88 20 3 22 9 25 68 4 88 -6 148 -29
171 -24 24 -95 26 -127 3 -20 -14 -22 -14 -22 0 0 9 -9 16 -20 16 -19 0 -20
-7 -20 -130z"/>
<path d="M4208 7161 c-29 -25 -32 -35 -36 -95 -4 -64 -3 -67 31 -101 30 -30
41 -35 84 -35 66 0 93 9 93 30 0 16 -8 17 -64 13 -58 -5 -64 -4 -80 18 -9 13
-16 31 -16 41 0 16 10 18 86 18 l87 0 -7 40 c-8 50 -23 75 -53 89 -44 20 -90
13 -125 -18z m116 -33 c9 -12 16 -26 16 -30 0 -5 -27 -8 -60 -8 -64 0 -73 9
-43 42 23 25 68 23 87 -4z"/>
<path d="M4416 7178 c5 -7 23 -34 41 -59 18 -26 33 -51 33 -56 0 -5 -18 -35
-40 -66 -22 -30 -40 -58 -40 -61 0 -3 10 -6 23 -6 17 0 34 14 56 45 37 51 44
50 82 -11 14 -24 28 -34 45 -34 13 0 24 3 24 6 0 3 -18 31 -40 61 -22 31 -40
61 -40 67 0 6 19 36 41 66 38 53 39 55 17 59 -16 2 -29 -5 -43 -24 -53 -73
-47 -72 -83 -21 -24 34 -40 46 -58 46 -18 0 -23 -4 -18 -12z"/>
<path d="M3225 5273 c-556 -28 -1099 -301 -1450 -728 -236 -287 -392 -640
-446 -1010 -18 -120 -18 -512 -1 -630 68 -450 259 -832 576 -1151 319 -320
705 -510 1169 -578 160 -24 1784 -24 1944 0 536 78 999 340 1325 749 216 271
372 639 419 990 18 128 18 490 0 610 -73 499 -311 941 -675 1252 -198 169
-397 287 -626 371 -296 108 -396 122 -944 129 -389 5 -430 4 -438 -11 -11 -20
-57 -21 -64 -1 -5 13 -54 15 -368 13 -198 -1 -388 -3 -421 -5z m1793 -78 c443
-66 820 -254 1119 -557 121 -121 185 -200 265 -323 325 -498 404 -1160 212
-1750 -217 -663 -779 -1160 -1469 -1300 -207 -42 -349 -47 -1205 -42 -764 4
-800 5 -914 26 -420 76 -749 238 -1035 507 -319 300 -526 695 -597 1145 -23
144 -23 494 0 639 90 564 401 1048 874 1358 217 143 511 253 793 297 131 20
1822 21 1957 0z"/>
<path d="M4824 3836 c-36 -16 -44 -32 -44 -86 0 -35 -3 -39 -27 -42 -22 -2
-28 -8 -28 -28 0 -14 6 -26 13 -26 6 -1 19 -2 27 -3 13 -1 15 -25 15 -151 l0
-150 30 0 30 0 0 149 0 150 33 3 c27 2 33 8 35 31 3 25 1 27 -32 27 -31 0 -36
3 -36 24 0 33 25 56 61 56 24 0 29 4 29 24 0 36 -50 46 -106 22z"/>
<path d="M2630 3595 l0 -245 35 0 35 0 0 111 0 112 56 -6 c30 -3 67 -13 81
-22 14 -9 51 -57 82 -106 56 -88 56 -88 99 -89 23 0 42 2 42 5 0 12 -95 153
-123 182 -17 18 -29 34 -26 36 2 1 21 10 41 19 49 23 72 67 66 130 -6 58 -35
93 -87 108 -20 5 -96 10 -168 10 l-133 0 0 -245z m279 170 c48 -24 55 -72 16
-110 -22 -23 -31 -25 -125 -25 l-100 0 0 75 0 75 90 0 c60 0 101 -5 119 -15z"/>
<path d="M4090 3760 c0 -44 -3 -80 -7 -80 -5 0 -17 7 -27 15 -28 21 -105 19
-143 -5 -49 -30 -68 -73 -68 -160 0 -93 26 -142 89 -171 52 -24 73 -24 119 0
29 15 37 16 37 5 0 -9 11 -14 30 -14 l30 0 0 245 0 245 -30 0 -30 0 0 -80z
m-39 -128 c60 -54 46 -202 -22 -226 -67 -23 -119 30 -119 122 0 115 70 167
141 104z"/>
<path d="M3185 3701 c-34 -15 -74 -62 -85 -100 -40 -146 45 -272 173 -256 68
8 90 21 121 68 l27 42 -31 8 c-27 7 -35 4 -64 -28 -26 -27 -41 -35 -67 -35
-37 0 -70 22 -88 57 -26 51 -21 53 119 53 125 0 130 1 130 21 0 50 -24 108
-56 140 -30 29 -41 33 -97 36 -34 2 -71 -1 -82 -6z m109 -51 c27 -10 61 -64
51 -80 -7 -12 -172 -14 -179 -2 -8 14 24 69 47 80 28 14 50 14 81 2z"/>
<path d="M3544 3696 c-34 -15 -64 -51 -64 -77 0 -19 53 -34 59 -16 10 29 52
57 84 57 43 0 89 -34 85 -64 -3 -18 -14 -23 -83 -34 -98 -16 -136 -37 -151
-82 -22 -68 14 -122 89 -134 40 -7 112 8 122 24 10 16 35 12 35 -5 0 -11 11
-15 36 -15 33 0 36 2 29 23 -4 12 -10 82 -14 154 -8 167 -14 176 -124 180 -46
2 -83 -2 -103 -11z m166 -196 c0 -29 -27 -78 -49 -90 -11 -5 -38 -10 -60 -10
-32 0 -44 5 -56 24 -28 42 -1 66 95 85 67 13 70 13 70 -9z"/>
<path d="M4210 3696 c0 -8 27 -86 61 -173 46 -122 59 -165 54 -191 -7 -37 -45
-67 -76 -59 -18 5 -20 1 -17 -26 3 -28 7 -32 36 -35 40 -4 76 17 97 57 14 29
165 427 165 437 0 3 -14 4 -32 2 -32 -3 -33 -6 -76 -123 -24 -66 -46 -127 -49
-135 -3 -8 -26 46 -52 120 -46 133 -48 135 -79 138 -23 2 -32 -1 -32 -12z"/>
<path d="M5013 3694 c-49 -24 -75 -74 -80 -152 -6 -92 22 -147 91 -181 45 -23
53 -24 104 -13 93 20 132 74 132 184 0 116 -56 178 -159 178 -31 0 -71 -8 -88
-16z m121 -44 c45 -17 74 -104 56 -171 -25 -90 -134 -109 -175 -29 -18 36 -19
126 -1 159 24 44 71 60 120 41z"/>
<path d="M5330 3530 l0 -180 30 0 30 0 0 109 c0 156 20 198 88 185 26 -5 30
-3 36 22 9 33 -5 44 -53 44 -22 0 -43 -8 -59 -22 -13 -13 -23 -18 -22 -13 5
25 -2 35 -25 35 l-25 0 0 -180z"/>
<path d="M2760 2855 l0 -245 35 0 35 0 0 111 0 112 56 -6 c30 -3 67 -13 81
-22 14 -9 51 -57 82 -106 56 -88 56 -88 99 -89 23 0 42 2 42 5 0 12 -109 172
-128 189 -29 26 -28 30 14 45 101 36 96 203 -6 238 -20 7 -94 12 -172 12
l-138 1 0 -245z m279 170 c48 -24 55 -72 16 -110 -22 -23 -31 -25 -125 -25
l-100 0 0 75 0 75 90 0 c60 0 101 -5 119 -15z"/>
<path d="M4030 3065 c0 -32 2 -35 30 -35 28 0 30 3 30 35 0 32 -2 35 -30 35
-28 0 -30 -3 -30 -35z"/>
<path d="M5270 2855 l0 -245 30 0 30 0 0 245 0 245 -30 0 -30 0 0 -245z"/>
<path d="M3658 3072 c-23 -14 -28 -24 -28 -59 0 -36 -3 -42 -22 -45 -17 -2
-23 -10 -23 -28 0 -18 6 -26 23 -28 22 -3 22 -6 22 -136 0 -116 2 -135 18
-149 24 -22 112 -24 112 -3 0 29 -13 46 -35 46 -31 0 -35 15 -35 136 l0 104
30 0 c27 0 30 3 30 30 0 27 -3 30 -30 30 -29 0 -29 1 -32 59 l-3 60 -27 -17z"/>
<path d="M3300 2947 c-54 -36 -75 -81 -75 -162 0 -120 56 -179 166 -179 69 1
117 26 142 74 l17 35 -31 9 c-26 8 -33 6 -41 -8 -36 -63 -105 -76 -150 -28
-15 15 -30 39 -33 55 l-7 27 132 0 133 0 -6 51 c-12 98 -66 149 -160 149 -40
0 -63 -6 -87 -23z m151 -56 c16 -16 29 -39 29 -50 0 -20 -6 -21 -90 -21 -88 0
-90 0 -90 24 0 32 53 76 92 76 19 0 39 -10 59 -29z"/>
<path d="M3807 2963 c-4 -3 -7 -84 -7 -180 l0 -173 34 0 34 0 4 131 c3 124 4
132 27 150 17 14 33 18 53 14 24 -6 29 -3 38 21 13 33 1 44 -49 44 -22 0 -43
-8 -58 -22 l-23 -21 0 21 c0 16 -6 22 -23 22 -13 0 -27 -3 -30 -7z"/>
<path d="M4030 2790 l0 -180 30 0 30 0 0 180 0 180 -30 0 -30 0 0 -180z"/>
<path d="M4255 2961 c-85 -38 -122 -174 -72 -271 28 -57 75 -84 142 -84 70 0
106 17 138 67 l28 42 -32 8 c-29 7 -35 5 -61 -27 -24 -30 -36 -36 -66 -36 -39
0 -73 21 -91 57 -26 51 -21 53 119 53 125 0 130 1 130 21 0 50 -24 108 -56
140 -30 29 -41 33 -97 36 -34 2 -71 -1 -82 -6z m110 -51 c25 -9 58 -66 49 -82
-7 -11 -171 -10 -178 0 -8 14 24 69 47 80 28 14 50 14 82 2z"/>
<path d="M4523 2958 c2 -7 33 -88 68 -180 62 -167 63 -168 93 -168 31 0 31 1
97 175 37 96 64 177 61 180 -3 3 -18 5 -32 5 -26 0 -30 -7 -76 -135 -35 -96
-51 -130 -56 -118 -4 10 -26 71 -49 136 l-41 117 -35 0 c-24 0 -34 -4 -30 -12z"/>
<path d="M4954 2956 c-34 -15 -64 -51 -64 -77 0 -19 53 -34 59 -16 2 6 14 21
27 34 32 32 87 31 120 -2 42 -42 29 -58 -56 -72 -41 -7 -90 -19 -108 -28 -66
-31 -75 -131 -15 -171 36 -23 132 -24 167 -1 31 21 46 22 46 2 0 -11 11 -15
36 -15 33 0 36 2 29 23 -3 12 -10 82 -13 154 -9 167 -15 176 -125 180 -46 2
-83 -2 -103 -11z m166 -196 c0 -29 -27 -78 -49 -90 -11 -5 -38 -10 -60 -10
-32 0 -44 5 -56 24 -27 41 -2 66 85 84 71 15 80 14 80 -8z"/>
</g>
</svg>
