<?xml version="1.0" standalone="no"?>
<!DOCTYPE svg PUBLIC "-//W3C//DTD SVG 20010904//EN"
 "http://www.w3.org/TR/2001/REC-SVG-20010904/DTD/svg10.dtd">
<svg version="1.0" xmlns="http://www.w3.org/2000/svg"
 width="1288.000000pt" height="3103.000000pt" viewBox="0 0 1288.000000 3103.000000"
 preserveAspectRatio="xMidYMid meet">

<g transform="translate(0.000000,3103.000000) scale(0.100000,-0.100000)"
fill="#000000" stroke="none">
<path d="M6387 30335 c-207 -45 -397 -233 -454 -446 -25 -96 -22 -283 7 -374
69 -222 258 -391 478 -431 95 -16 862 -20 862 -4 0 6 9 10 20 10 11 0 20 -4
20 -10 0 -17 772 -13 865 5 122 23 215 74 310 169 136 137 185 258 185 461 0
193 -52 327 -177 451 -85 86 -172 137 -278 164 -75 19 -110 20 -929 19 -647
-1 -865 -4 -909 -14z m1864 -46 c101 -39 158 -76 229 -148 116 -117 170 -254
170 -426 -1 -188 -48 -304 -174 -431 -89 -90 -165 -135 -268 -159 -98 -23
-1732 -22 -1822 1 -198 51 -369 222 -421 420 -19 75 -20 260 0 334 8 30 29 84
46 120 45 90 170 214 262 258 126 62 107 61 1052 59 l860 -2 66 -26z"/>
<path d="M6900 29724 c-25 -65 -46 -121 -48 -126 -2 -4 5 -8 16 -8 14 0 24 10
32 35 11 34 13 35 65 35 52 0 54 -1 65 -35 8 -24 18 -35 31 -35 10 0 19 3 19
8 0 4 -22 59 -48 122 -65 157 -73 157 -132 4z m94 -11 c7 -21 4 -23 -29 -23
-34 0 -37 2 -31 25 3 13 11 37 17 52 l11 28 13 -30 c7 -16 16 -40 19 -52z"/>
<path d="M7687 29823 c-4 -3 -7 -17 -7 -30 0 -14 -6 -23 -15 -23 -19 0 -19
-17 -1 -27 10 -6 16 -30 18 -78 3 -68 4 -70 31 -73 19 -2 27 1 27 12 0 9 -7
16 -15 16 -12 0 -15 13 -15 59 0 43 4 60 15 65 8 3 15 10 15 16 0 5 -7 10 -15
10 -10 0 -15 10 -15 30 0 29 -9 38 -23 23z"/>
<path d="M7111 29743 c-49 -62 -6 -161 65 -150 34 6 39 1 28 -27 -8 -20 -57
-21 -74 -1 -17 21 -30 19 -30 -5 0 -44 86 -55 125 -15 23 22 25 31 25 123 l0
98 -59 2 c-54 2 -62 -1 -80 -25z m79 -3 c10 -5 21 -24 25 -40 13 -58 -42 -104
-76 -64 -19 23 -15 85 7 101 21 16 21 16 44 3z"/>
<path d="M7309 29751 c-20 -16 -24 -29 -24 -71 0 -42 4 -55 24 -71 44 -36 131
-16 131 29 0 17 -25 15 -40 -3 -23 -28 -80 -13 -80 22 0 9 19 13 66 13 l66 0
-7 28 c-13 53 -32 72 -74 72 -23 0 -48 -8 -62 -19z m99 -39 c2 -8 -12 -12 -42
-12 -50 0 -58 11 -24 34 19 13 25 14 42 3 11 -8 22 -19 24 -25z"/>
<path d="M7480 29680 c0 -73 3 -90 15 -90 11 0 15 12 16 48 2 74 11 97 42 100
33 4 47 -25 47 -99 0 -37 4 -49 15 -49 22 0 21 142 -1 164 -18 19 -75 21 -92
4 -9 -9 -12 -9 -12 0 0 7 -7 12 -15 12 -12 0 -15 -17 -15 -90z"/>
<path d="M6050 27910 c-8 -5 -17 -7 -21 -4 -4 2 -10 0 -14 -6 -4 -6 -12 -7
-18 -4 -7 4 -9 3 -4 -1 10 -11 57 -13 50 -2 -3 5 1 7 8 6 8 -1 21 1 29 4 8 4
265 8 570 10 l555 2 -570 2 c-325 1 -576 -2 -585 -7z"/>
<path d="M7648 27913 c156 -2 408 -2 560 0 152 1 25 2 -283 2 -308 0 -433 -1
-277 -2z"/>
<path d="M8499 27911 c12 -8 12 -10 0 -14 -8 -2 -5 -3 5 -1 11 2 26 -2 33 -8
8 -6 16 -8 19 -5 3 3 -8 13 -25 21 -32 17 -56 22 -32 7z"/>
<path d="M8560 27906 c0 -2 8 -10 18 -17 15 -13 16 -12 3 4 -13 16 -21 21 -21
13z"/>
<path d="M5960 27850 c-9 -6 -10 -10 -3 -10 6 0 15 5 18 10 8 12 4 12 -15 0z"/>
<path d="M8620 27852 c0 -5 7 -9 15 -9 8 0 12 4 9 9 -3 4 -9 8 -15 8 -5 0 -9
-4 -9 -8z"/>
<path d="M8640 27818 c11 -9 14 -28 12 -62 -3 -61 4 -58 12 4 5 48 0 63 -24
68 -13 2 -13 1 0 -10z"/>
<path d="M5925 27803 c-13 -30 -12 -50 2 -50 16 0 17 13 3 22 -8 5 -7 11 1 21
6 8 10 17 7 20 -3 3 -9 -3 -13 -13z"/>
<path d="M5925 27265 c0 -220 1 -309 2 -197 2 112 2 292 0 400 -1 108 -2 17
-2 -203z"/>
<path d="M6360 27418 c-5 -13 -28 -69 -49 -126 -38 -98 -39 -103 -19 -100 14
2 25 15 33 38 11 33 15 35 59 37 47 2 48 2 64 -37 11 -25 24 -40 35 -40 9 0
17 3 17 8 0 4 -21 60 -47 124 -36 88 -53 118 -66 118 -9 0 -22 -10 -27 -22z
m56 -102 c6 -25 4 -26 -31 -26 -28 0 -36 4 -32 14 3 8 11 33 18 57 l13 42 13
-30 c6 -17 15 -42 19 -57z"/>
<path d="M6697 27433 c-4 -3 -7 -60 -7 -125 0 -111 1 -118 20 -118 17 0 20 7
20 39 0 56 14 58 44 6 17 -29 34 -45 46 -45 26 0 26 2 -15 63 l-35 51 32 33
c27 28 29 33 13 33 -11 0 -34 -14 -52 -32 l-33 -32 0 67 c0 49 -4 67 -13 67
-8 0 -17 -3 -20 -7z"/>
<path d="M7009 27425 c-50 -27 -68 -119 -36 -182 20 -38 63 -56 119 -51 24 2
54 -2 68 -9 30 -15 43 3 16 23 -16 11 -16 15 -2 43 33 64 7 160 -50 181 -36
14 -84 12 -115 -5z m116 -40 c27 -26 34 -89 15 -126 -9 -16 -14 -17 -31 -8
-27 14 -53 -6 -29 -21 12 -8 11 -10 -7 -10 -35 0 -53 11 -68 41 -50 97 47 198
120 124z"/>
<path d="M7877 27433 c-14 -13 -6 -33 13 -33 13 0 20 7 20 20 0 19 -20 27 -33
13z"/>
<path d="M7792 27418 c-7 -7 -12 -20 -12 -29 0 -10 -6 -20 -12 -23 -10 -5 -10
-7 0 -12 7 -3 12 -26 12 -59 0 -74 13 -105 45 -105 16 0 25 6 25 15 0 8 -7 15
-15 15 -12 0 -15 14 -15 65 0 51 3 65 15 65 8 0 15 5 15 10 0 6 -7 10 -15 10
-10 0 -15 10 -15 30 0 32 -9 37 -28 18z"/>
<path d="M6532 27358 c-16 -16 -15 -53 2 -67 7 -6 31 -17 52 -25 44 -15 50
-34 16 -47 -17 -6 -27 -4 -42 11 -25 25 -52 27 -43 3 10 -29 34 -43 73 -43 41
0 70 24 70 58 0 24 -9 31 -64 52 -22 8 -41 20 -43 26 -7 20 28 25 58 7 32 -19
49 -11 33 15 -14 21 -93 29 -112 10z"/>
<path d="M7230 27292 c0 -87 8 -102 55 -102 17 0 36 5 43 12 9 9 12 9 12 0 0
-7 7 -12 15 -12 12 0 15 17 15 90 0 73 -3 90 -15 90 -12 0 -15 -14 -15 -64 0
-70 -12 -90 -52 -84 -21 3 -23 8 -26 76 -2 55 -6 72 -17 72 -12 0 -15 -16 -15
-78z"/>
<path d="M7431 27344 c-13 -16 -21 -41 -21 -64 0 -54 31 -90 79 -90 40 0 81
23 81 46 0 20 -17 18 -47 -6 -28 -22 -54 -15 -73 20 -10 19 -7 20 55 20 l65 0
0 30 c0 68 -96 98 -139 44z m87 -10 c34 -23 27 -34 -23 -34 -48 0 -62 19 -27
39 23 14 24 14 50 -5z"/>
<path d="M7616 27354 c-9 -8 -16 -22 -16 -30 0 -20 37 -54 58 -54 10 0 27 -7
38 -15 18 -14 18 -16 1 -29 -20 -16 -56 -10 -64 10 -7 18 -33 18 -33 1 0 -45
93 -64 130 -27 11 11 20 25 20 30 0 18 -48 60 -68 60 -10 0 -26 6 -36 13 -16
12 -16 14 -2 26 16 13 56 6 56 -10 0 -5 9 -9 20 -9 11 0 20 4 20 9 0 21 -34
41 -70 41 -22 0 -45 -7 -54 -16z"/>
<path d="M7870 27280 c0 -83 1 -90 20 -90 19 0 20 7 20 90 0 83 -1 90 -20 90
-19 0 -20 -7 -20 -90z"/>
<path d="M7965 27350 c-9 -10 -20 -39 -22 -64 -5 -38 -2 -48 20 -70 32 -32 84
-35 118 -7 31 25 34 108 5 140 -26 28 -96 29 -121 1z m89 -19 c24 -26 18 -89
-10 -108 -19 -12 -24 -11 -44 5 -32 26 -32 78 -1 104 29 23 34 23 55 -1z"/>
<path d="M8140 27280 c0 -73 3 -90 15 -90 11 0 15 12 15 49 0 90 31 130 70 91
16 -16 20 -34 20 -80 0 -48 3 -60 16 -60 14 0 16 12 12 80 -2 58 -7 84 -18 90
-21 14 -74 12 -88 -2 -9 -9 -12 -9 -12 0 0 7 -7 12 -15 12 -12 0 -15 -17 -15
-90z"/>
<path d="M8656 26857 c3 -10 9 -15 12 -12 3 3 0 11 -7 18 -10 9 -11 8 -5 -6z"/>
<path d="M5910 26853 c0 -4 9 -21 19 -37 11 -17 17 -34 14 -39 -3 -6 -1 -7 5
-4 12 8 4 47 -10 47 -5 0 -8 7 -6 16 2 10 -3 19 -9 21 -7 3 -13 1 -13 -4z"/>
<path d="M8645 26834 c4 -15 0 -24 -11 -28 -9 -3 -14 -12 -11 -20 3 -7 -3 -20
-14 -29 -13 -12 -19 -13 -19 -4 0 9 -3 8 -9 -1 -4 -8 -12 -14 -17 -14 -10 0
-52 -28 -42 -28 4 0 19 5 35 11 15 6 29 9 30 7 1 -2 13 8 28 22 35 32 48 67
35 88 -9 14 -10 14 -5 -4z"/>
<path d="M6025 26733 c21 -21 52 -25 52 -7 0 7 -6 10 -13 7 -7 -2 -23 1 -36 8
-23 11 -23 11 -3 -8z"/>
<path d="M7321 26724 c0 -11 3 -14 6 -6 3 7 2 16 -1 19 -3 4 -6 -2 -5 -13z"/>
<path d="M6363 26723 c152 -2 402 -2 555 0 152 1 27 2 -278 2 -305 0 -430 -1
-277 -2z"/>
<path d="M7470 26723 c237 -7 1040 -7 1040 -1 0 4 -258 6 -572 5 -315 0 -526
-2 -468 -4z"/>
<path d="M6013 25543 c-18 -9 -33 -24 -32 -32 0 -11 2 -12 6 -3 2 6 10 9 15 6
7 -4 8 -2 4 4 -5 8 3 12 26 12 22 0 29 3 19 9 -11 7 -11 9 0 14 8 3 10 5 4 6
-5 0 -25 -8 -42 -16z"/>
<path d="M6075 25550 c-4 -7 178 -10 554 -10 307 0 568 -3 578 -6 15 -5 15 -4
3 5 -12 9 -11 11 8 11 16 0 21 -4 16 -12 -6 -10 -5 -10 7 -1 12 10 18 10 29 0
12 -10 12 -9 1 5 -12 16 -57 17 -601 18 -388 0 -591 -3 -595 -10z"/>
<path d="M7326 25553 c-3 -3 -6 -11 -6 -17 0 -6 5 -4 10 4 6 10 10 11 10 3 0
-7 5 -13 11 -13 5 0 8 3 6 8 -3 4 251 6 565 4 392 -2 567 1 563 8 -7 11 -1147
14 -1159 3z"/>
<path d="M8503 25545 c0 -8 2 -15 4 -15 3 0 11 7 19 15 14 13 13 15 -4 15 -10
0 -19 -7 -19 -15z"/>
<path d="M8555 25541 c-3 -6 -4 -12 -1 -12 3 -1 9 -2 14 -3 14 -2 52 -33 47
-38 -3 -3 2 -11 12 -19 11 -9 14 -10 9 -1 -4 7 -2 12 5 12 8 0 5 7 -7 18 -10
10 -22 18 -25 18 -4 -1 -16 7 -27 17 -13 12 -22 15 -27 8z"/>
<path d="M5961 25506 c0 -11 -4 -16 -8 -13 -3 4 -13 -2 -21 -14 -19 -28 -12
-31 16 -8 14 11 22 26 19 36 -4 16 -5 16 -6 -1z"/>
<path d="M8656 25403 c-2 -10 -1 -47 4 -83 l8 -65 -2 82 c0 46 -2 83 -3 83 -1
0 -4 -8 -7 -17z"/>
<path d="M5922 25390 c7 -10 14 -18 15 -16 6 6 -9 36 -18 36 -5 0 -4 -9 3 -20z"/>
<path d="M5925 24870 c0 -217 1 -306 2 -197 2 108 2 286 0 395 -1 108 -2 19
-2 -198z"/>
<path d="M6890 25065 c0 -118 1 -125 20 -125 19 0 20 7 20 125 0 118 -1 125
-20 125 -19 0 -20 -7 -20 -125z"/>
<path d="M7187 25173 c-4 -3 -7 -17 -7 -30 0 -12 -4 -23 -10 -23 -5 0 -10 -7
-10 -15 0 -8 4 -15 10 -15 5 0 10 -33 12 -72 3 -71 4 -73 31 -76 19 -2 27 1
27 12 0 9 -7 16 -15 16 -12 0 -15 13 -15 60 0 45 4 62 15 66 8 4 15 10 15 15
0 5 -7 9 -15 9 -10 0 -15 10 -15 30 0 29 -9 38 -23 23z"/>
<path d="M7663 25173 c-7 -3 -13 -15 -13 -28 0 -13 -6 -25 -12 -28 -10 -4 -10
-7 0 -18 7 -7 12 -39 12 -74 0 -66 11 -85 47 -85 28 0 31 26 3 33 -17 4 -20
14 -20 61 0 41 4 58 15 62 19 8 20 24 1 24 -9 0 -16 12 -18 28 -2 18 -8 27
-15 25z"/>
<path d="M6980 25030 c0 -73 3 -90 15 -90 12 0 15 14 15 64 0 55 3 67 22 80
15 11 26 12 40 5 15 -8 18 -22 18 -79 0 -63 2 -70 20 -70 18 0 20 7 20 63 0
81 -16 111 -58 115 -18 2 -40 -2 -48 -9 -10 -8 -14 -8 -14 0 0 6 -7 11 -15 11
-12 0 -15 -17 -15 -90z"/>
<path d="M7282 25097 c-31 -33 -31 -105 1 -135 30 -29 89 -30 117 -2 39 39 17
55 -27 21 -26 -21 -50 -18 -70 7 -22 27 -15 32 52 32 62 0 65 1 65 24 0 13 -9
35 -21 50 -27 35 -86 36 -117 3z m91 -19 l22 -23 -27 -3 c-16 -2 -40 -2 -55 0
l-28 3 23 23 c12 12 27 22 32 22 6 0 20 -10 33 -22z"/>
<path d="M7460 25029 c0 -72 3 -89 15 -89 12 0 15 14 15 64 0 70 12 90 52 84
21 -3 23 -8 26 -75 2 -56 6 -73 17 -73 21 0 22 152 1 169 -7 6 -38 10 -70 10
l-56 -2 0 -88z"/>
<path d="M6600 24676 l0 -126 58 0 c31 0 68 6 82 13 63 31 79 153 26 205 -22
22 -36 27 -96 30 l-70 4 0 -126z m142 64 c11 -14 18 -39 18 -67 0 -59 -32 -93
-90 -93 l-40 0 0 96 0 97 47 -6 c32 -3 53 -12 65 -27z"/>
<path d="M7580 24780 c0 -11 7 -20 15 -20 8 0 15 9 15 20 0 11 -7 20 -15 20
-8 0 -15 -9 -15 -20z"/>
<path d="M7042 24778 c-7 -7 -12 -20 -12 -29 0 -10 -6 -19 -12 -22 -10 -4 -10
-7 0 -18 6 -7 12 -37 12 -67 0 -29 5 -62 10 -73 13 -23 60 -26 60 -4 0 8 -7
15 -15 15 -12 0 -15 14 -15 65 0 43 4 64 11 63 6 -2 14 3 16 10 3 6 -2 12 -11
12 -11 0 -16 9 -16 30 0 32 -9 37 -28 18z"/>
<path d="M7503 24783 c-7 -3 -13 -16 -13 -29 0 -13 -4 -24 -10 -24 -5 0 -10
-7 -10 -15 0 -8 5 -15 10 -15 6 0 10 -30 10 -70 0 -75 6 -85 52 -78 l23 3 -22
20 c-19 16 -23 30 -23 73 0 38 4 54 15 58 19 8 20 24 1 24 -9 0 -16 12 -18 28
-2 18 -8 27 -15 25z"/>
<path d="M6851 24704 c-30 -38 -28 -103 2 -132 30 -29 89 -30 117 -2 11 11 20
25 20 30 0 17 -29 11 -50 -10 -21 -21 -46 -18 -67 8 -22 27 -15 32 52 32 62 0
65 1 65 24 0 13 -9 35 -21 50 -16 20 -29 26 -59 26 -30 0 -43 -6 -59 -26z m92
-16 l22 -23 -27 -3 c-16 -2 -40 -2 -55 0 l-28 3 23 23 c12 12 27 22 32 22 6 0
20 -10 33 -22z"/>
<path d="M7148 24719 c-41 -24 -40 -137 2 -159 33 -18 87 -12 110 12 11 12 20
25 20 30 0 14 -38 8 -44 -7 -7 -18 -57 -20 -74 -3 -28 28 -13 38 53 38 62 0
65 1 65 24 0 41 -36 76 -78 76 -20 0 -45 -5 -54 -11z m73 -19 c36 -20 23 -40
-26 -40 -50 0 -57 11 -23 34 27 19 24 19 49 6z"/>
<path d="M7337 24717 c-38 -27 -38 -127 -1 -154 41 -30 124 -2 124 42 0 22
-16 18 -45 -11 -24 -24 -28 -25 -48 -11 -16 10 -23 26 -25 55 -3 35 1 43 23
58 25 16 27 16 51 -6 30 -29 52 -16 28 18 -17 25 -78 31 -107 9z"/>
<path d="M7580 24640 c0 -73 3 -90 15 -90 12 0 15 17 15 90 0 73 -3 90 -15 90
-12 0 -15 -17 -15 -90z"/>
<path d="M7670 24708 c-14 -15 -20 -35 -20 -68 0 -58 29 -90 81 -90 50 0 79
33 79 91 0 60 -26 89 -80 89 -27 0 -45 -7 -60 -22z m90 -18 c35 -35 22 -98
-23 -113 -25 -9 -57 27 -57 63 0 29 29 70 50 70 6 0 19 -9 30 -20z"/>
<path d="M7850 24639 c0 -72 3 -89 15 -89 12 0 15 14 15 64 0 55 3 67 22 80
15 11 26 12 40 5 15 -8 18 -22 18 -79 0 -56 3 -70 15 -70 21 0 22 152 1 169
-7 6 -38 10 -70 10 l-56 -2 0 -88z"/>
<path d="M8652 24440 c0 -14 2 -19 5 -12 2 6 2 18 0 25 -3 6 -5 1 -5 -13z"/>
<path d="M8657 24393 c-4 -3 -7 -13 -7 -22 1 -13 3 -13 11 2 11 19 8 33 -4 20z"/>
<path d="M5915 24348 c7 -58 11 -72 26 -76 12 -3 12 -2 0 6 -11 8 -11 10 0 15
11 4 11 6 1 6 -7 1 -10 6 -7 11 3 6 1 10 -6 10 -8 0 -8 4 -1 13 7 8 6 17 -3
30 -12 17 -13 15 -10 -15z"/>
<path d="M8650 24330 c0 -5 5 -10 10 -10 6 0 10 5 10 10 0 6 -4 10 -10 10 -5
0 -10 -4 -10 -10z"/>
<path d="M8644 24301 c4 -5 1 -12 -4 -14 -6 -3 -5 -4 2 -3 15 3 23 26 8 26 -6
0 -9 -4 -6 -9z"/>
<path d="M5958 24260 c-7 -21 40 -59 64 -52 15 3 16 7 7 13 -8 5 -17 3 -21 -4
-4 -7 -10 -3 -17 13 -5 14 -10 21 -11 15 -1 -5 -5 -1 -9 10 -6 15 -9 16 -13 5z"/>
<path d="M8606 24248 c-9 -12 -16 -19 -16 -15 0 5 -10 1 -21 -7 -12 -8 -34
-14 -48 -12 -14 2 -18 1 -8 -1 9 -2 17 -8 17 -13 0 -5 22 2 48 16 27 14 49 32
49 40 0 19 -3 18 -21 -8z"/>
<path d="M7196 24205 c-7 -18 10 -20 17 -2 4 9 8 8 16 -3 9 -13 11 -13 11 3 0
21 -35 23 -44 2z"/>
<path d="M7255 24209 c-11 -16 -1 -19 13 -3 7 8 8 14 3 14 -5 0 -13 -5 -16
-11z"/>
<path d="M7310 24211 c0 -5 5 -13 10 -16 6 -3 10 -2 10 4 0 5 -4 13 -10 16 -5
3 -10 2 -10 -4z"/>
<path d="M6050 24206 c0 -2 9 -6 20 -9 11 -3 18 -1 14 4 -5 9 -34 13 -34 5z"/>
<path d="M8470 24199 c0 -5 11 -9 25 -9 14 0 25 2 25 4 0 2 -11 6 -25 8 -14 3
-25 1 -25 -3z"/>
<path d="M2340 23577 c0 -5 -6 -7 -14 -4 -14 6 -46 -22 -46 -39 1 -5 10 2 20
15 11 13 20 18 20 11 0 -9 3 -10 14 -1 7 6 22 9 32 5 14 -4 16 -3 5 4 -11 8
-11 10 0 15 8 3 4 4 -8 4 -13 -1 -23 -5 -23 -10z"/>
<path d="M2393 23575 c0 -7 299 -8 886 -5 487 3 744 6 571 7 -953 8 -1457 7
-1457 -2z"/>
<path d="M4286 23571 c20 -12 31 -15 36 -7 6 8 8 8 8 0 0 -7 8 -15 17 -18 15
-6 15 -5 -1 13 -10 11 -24 17 -32 14 -8 -3 -14 -1 -14 4 0 5 -10 9 -22 10 -19
2 -18 0 8 -16z"/>
<path d="M4367 23513 c4 -11 8 -12 13 -2 6 8 10 6 13 -7 6 -19 6 -19 4 0 -1
11 -10 20 -19 22 -11 1 -15 -3 -11 -13z"/>
<path d="M2252 23504 c-7 -8 -8 -14 -3 -14 10 0 25 19 20 25 -2 1 -10 -3 -17
-11z"/>
<path d="M2220 22923 c0 -312 2 -564 5 -562 3 3 5 251 6 552 0 300 4 547 8
549 5 2 3 9 -4 15 -12 11 -14 -80 -15 -554z"/>
<path d="M4402 23475 c-7 -8 -9 -15 -4 -15 6 0 10 -107 11 -252 1 -139 4 -255
7 -257 3 -3 4 117 3 267 0 150 -2 272 -3 272 0 -1 -7 -7 -14 -15z"/>
<path d="M2680 23095 c0 -104 2 -125 15 -125 11 0 15 11 15 43 0 32 6 49 21
63 23 21 15 27 76 -60 21 -29 40 -46 53 -46 25 0 21 10 -39 90 l-41 54 52 53
c49 49 51 53 27 53 -17 0 -42 -17 -79 -55 -30 -30 -58 -55 -62 -55 -4 0 -8 25
-8 55 0 42 -3 55 -15 55 -13 0 -15 -21 -15 -125z"/>
<path d="M3930 23181 l0 -39 -39 5 c-55 7 -81 -20 -81 -85 0 -67 26 -91 98
-90 l52 1 0 124 c0 103 -2 123 -15 123 -11 0 -15 -11 -15 -39z m-16 -70 c24
-27 18 -89 -11 -108 -19 -13 -24 -12 -42 6 -25 25 -28 77 -4 103 21 23 36 23
57 -1z"/>
<path d="M2926 23137 c-22 -16 -35 -73 -25 -110 10 -38 36 -56 81 -57 28 0 41
6 58 28 18 22 19 28 7 30 -9 2 -25 -6 -36 -17 -25 -25 -30 -26 -59 -5 -42 29
-28 44 44 44 l67 0 -7 32 c-3 17 -14 40 -23 50 -19 21 -81 24 -107 5z m75 -17
c36 -20 23 -40 -26 -40 -49 0 -53 4 -28 32 19 21 27 22 54 8z"/>
<path d="M3083 23137 c37 -98 58 -169 53 -183 -3 -9 -15 -18 -26 -21 -11 -3
-20 -12 -20 -19 0 -18 44 -19 58 -1 14 17 93 229 88 235 -14 13 -33 -11 -50
-62 -11 -31 -22 -56 -26 -56 -3 0 -15 26 -27 58 -13 36 -27 58 -38 61 -13 2
-16 -1 -12 -12z"/>
<path d="M3250 23141 c0 -6 11 -46 25 -90 17 -54 31 -81 41 -81 16 0 16 0 37
75 l14 50 18 -62 c26 -92 45 -86 78 24 14 48 24 89 22 92 -14 13 -33 -15 -45
-63 -7 -31 -16 -56 -20 -56 -4 0 -13 27 -20 60 -10 45 -17 60 -30 60 -13 0
-22 -17 -35 -62 -19 -68 -23 -67 -45 20 -7 25 -17 42 -25 42 -8 0 -15 -4 -15
-9z"/>
<path d="M3529 23131 c-20 -16 -24 -29 -24 -71 0 -42 4 -55 24 -71 13 -10 38
-19 56 -19 18 0 43 9 56 19 20 16 24 29 24 71 0 42 -4 55 -24 71 -13 10 -38
19 -56 19 -18 0 -43 -9 -56 -19z m86 -21 c26 -29 24 -79 -4 -101 -56 -45 -107
54 -55 106 21 20 37 19 59 -5z"/>
<path d="M3700 23058 c0 -81 2 -88 20 -88 18 0 20 7 20 59 0 75 6 91 36 91 14
0 24 6 24 14 0 11 -13 15 -50 14 l-50 -1 0 -89z"/>
<path d="M4400 22910 c0 -16 2 -30 4 -30 2 0 6 14 8 30 3 17 1 30 -4 30 -4 0
-8 -13 -8 -30z"/>
<path d="M4409 22618 c-1 -139 -2 -261 -3 -270 -1 -10 -11 -25 -23 -33 -27
-19 -46 -52 -34 -59 4 -3 19 6 32 20 21 22 21 24 4 19 -15 -5 -13 -1 7 15 l27
21 1 269 c0 149 -2 270 -5 270 -3 0 -6 -114 -6 -252z"/>
<path d="M3667 22824 c-4 -4 -7 -61 -7 -126 0 -111 1 -118 20 -118 18 0 20 7
20 63 0 66 5 80 32 90 31 11 48 -19 48 -89 0 -50 3 -64 15 -64 12 0 15 15 15
73 0 93 -12 111 -68 105 -40 -3 -41 -3 -44 31 -3 33 -17 49 -31 35z"/>
<path d="M2835 22736 c-23 -34 -6 -62 45 -76 45 -12 57 -25 40 -45 -17 -20
-36 -19 -60 5 -23 23 -40 26 -40 7 0 -24 35 -47 71 -47 58 0 90 40 63 79 -8
11 -20 21 -25 21 -5 0 -26 7 -46 15 -30 13 -33 17 -23 30 16 19 34 19 54 0 16
-17 46 -20 46 -6 0 22 -34 41 -70 41 -31 0 -43 -5 -55 -24z"/>
<path d="M3011 22734 c-48 -61 -11 -154 61 -154 38 0 78 24 78 46 0 19 -17 18
-46 -5 -30 -23 -58 -17 -73 15 l-11 24 65 0 65 0 0 30 c0 68 -96 98 -139 44z
m91 -11 c28 -25 22 -33 -27 -33 -48 0 -62 19 -27 39 24 14 33 13 54 -6z"/>
<path d="M3208 22749 c-21 -12 -24 -39 -4 -39 7 0 19 7 26 15 15 18 42 19 58
3 22 -22 12 -36 -33 -42 -49 -8 -75 -27 -75 -56 0 -42 63 -65 111 -40 13 7 19
7 19 0 0 -5 6 -10 14 -10 12 0 13 15 9 78 -3 42 -10 83 -16 90 -11 14 -85 16
-109 1z m72 -131 c-27 -22 -44 -23 -60 -3 -17 20 -3 35 42 44 41 9 51 -14 18
-41z"/>
<path d="M3380 22669 c0 -72 3 -89 15 -89 12 0 15 14 15 63 0 65 11 87 42 87
10 0 18 7 18 15 0 10 -12 14 -45 13 l-45 -1 0 -88z"/>
<path d="M3510 22740 c-29 -29 -28 -112 2 -140 28 -26 82 -26 108 0 22 22 25
36 10 45 -5 3 -21 -6 -34 -21 -23 -27 -24 -28 -50 -11 -21 14 -26 25 -26 56 0
24 7 44 18 54 25 22 37 21 62 -5 26 -29 47 -12 24 20 -20 29 -85 31 -114 2z"/>
<path d="M2259 22276 c14 -15 29 -22 39 -19 8 4 13 2 9 -3 -3 -5 3 -10 13 -10
14 0 16 3 8 13 -6 7 -17 13 -24 13 -8 0 -14 6 -14 13 0 8 -4 7 -10 -3 -5 -8
-10 -10 -10 -4 0 7 -8 15 -17 18 -13 5 -12 1 6 -18z"/>
<path d="M4307 22248 c4 -7 -2 -9 -17 -5 -16 4 -20 3 -12 -5 6 -6 18 -7 29 -3
10 5 23 7 28 6 6 -2 6 1 2 5 -12 12 -38 14 -30 2z"/>
<path d="M2355 22240 c-3 -6 1 -7 9 -4 18 7 21 14 7 14 -6 0 -13 -4 -16 -10z"/>
<path d="M6033 22236 c0 -8 10 -13 23 -12 12 0 20 5 17 9 -3 4 265 7 595 5
330 -2 595 0 589 4 -7 4 -285 7 -618 7 -505 1 -606 -2 -606 -13z"/>
<path d="M7298 22242 c-10 -4 248 -6 573 -4 409 2 595 0 603 -8 10 -7 17 -6
26 5 12 14 -48 15 -586 14 -329 0 -607 -4 -616 -7z"/>
<path d="M8520 22246 c0 -2 12 -11 26 -21 15 -9 23 -12 20 -6 -8 13 -4 14 18
5 9 -3 13 -11 9 -17 -4 -6 -1 -7 7 -2 10 6 9 11 -6 22 -10 7 -24 11 -31 9 -7
-3 -15 -1 -18 4 -6 10 -25 14 -25 6z"/>
<path d="M4235 22230 c-3 -5 1 -10 10 -10 9 0 13 5 10 10 -3 6 -8 10 -10 10
-2 0 -7 -4 -10 -10z"/>
<path d="M2853 22223 c247 -2 647 -2 890 0 243 1 42 2 -448 2 -490 0 -688 -1
-442 -2z"/>
<path d="M5996 22222 c-3 -5 1 -9 9 -9 8 0 12 4 9 9 -3 4 -7 8 -9 8 -2 0 -6
-4 -9 -8z"/>
<path d="M5967 22195 c-4 -8 -13 -15 -22 -15 -14 0 -19 -11 -16 -37 1 -7 -3
-13 -9 -13 -5 0 -10 -5 -10 -11 0 -5 5 -7 10 -4 6 3 10 -1 10 -9 0 -9 -3 -16
-7 -16 -5 0 -8 -112 -8 -250 0 -137 3 -246 7 -242 4 4 8 125 9 269 l2 262 25
36 c14 19 23 38 20 40 -3 3 -8 -1 -11 -10z"/>
<path d="M8635 22168 c3 -12 8 -39 12 -58 l6 -35 9 30 c9 34 4 58 -17 75 -12
10 -13 8 -10 -12z m22 -40 c-3 -8 -6 -5 -6 6 -1 11 2 17 5 13 3 -3 4 -12 1
-19z"/>
<path d="M6820 21755 c0 -118 1 -125 20 -125 18 0 20 7 20 60 l0 60 60 0 60 0
0 -60 c0 -53 2 -60 20 -60 19 0 20 7 20 125 0 118 -1 125 -20 125 -17 0 -20
-7 -20 -50 l0 -50 -60 0 -60 0 0 50 c0 43 -3 50 -20 50 -19 0 -20 -7 -20 -125z"/>
<path d="M7240 21756 l0 -123 54 -2 c48 -1 57 2 75 25 29 36 28 102 0 133 -17
18 -30 22 -60 19 l-39 -4 0 38 c0 27 -4 38 -15 38 -13 0 -15 -20 -15 -124z
m100 14 c36 -36 20 -110 -23 -110 -32 0 -47 18 -47 59 0 32 23 71 42 71 4 0
17 -9 28 -20z"/>
<path d="M7540 21860 c0 -11 7 -20 15 -20 8 0 15 9 15 20 0 11 -7 20 -15 20
-8 0 -15 -9 -15 -20z"/>
<path d="M7730 21842 l0 -37 -44 3 c-55 5 -76 -20 -76 -90 0 -68 22 -88 95
-86 l55 2 0 123 c0 103 -2 123 -15 123 -11 0 -15 -11 -15 -38z m-22 -68 c31
-21 28 -90 -5 -111 -19 -13 -24 -12 -42 6 -25 25 -28 77 -4 103 20 22 23 22
51 2z"/>
<path d="M7050 21807 c0 -1 14 -38 30 -80 38 -98 39 -124 5 -133 -30 -7 -28
-28 2 -32 28 -4 39 13 84 130 44 116 44 118 25 118 -8 0 -24 -28 -38 -67 l-25
-67 -22 58 c-11 31 -21 61 -21 66 0 6 -9 10 -20 10 -11 0 -20 -1 -20 -3z"/>
<path d="M7430 21719 c0 -72 3 -89 15 -89 12 0 15 14 15 63 0 65 11 87 42 87
10 0 18 7 18 15 0 10 -12 14 -45 13 l-45 -1 0 -88z"/>
<path d="M7540 21720 c0 -73 3 -90 15 -90 12 0 15 17 15 90 0 73 -3 90 -15 90
-12 0 -15 -17 -15 -90z"/>
<path d="M6640 21376 c0 -119 1 -126 20 -126 18 0 20 7 20 55 0 54 0 55 30 55
29 0 31 -2 100 -92 9 -11 24 -19 34 -17 16 4 14 11 -18 58 l-36 53 25 20 c28
22 33 63 11 94 -12 16 -29 20 -100 23 l-86 3 0 -126z m154 72 c19 -31 -4 -53
-63 -56 l-51 -3 0 41 0 41 51 -3 c36 -2 55 -8 63 -20z"/>
<path d="M7280 21480 c0 -13 7 -20 20 -20 13 0 20 7 20 20 0 13 -7 20 -20 20
-13 0 -20 -7 -20 -20z"/>
<path d="M7910 21375 c0 -104 2 -125 15 -125 13 0 15 21 15 125 0 104 -2 125
-15 125 -13 0 -15 -21 -15 -125z"/>
<path d="M7093 21483 c-7 -3 -13 -16 -13 -29 0 -13 -4 -24 -10 -24 -5 0 -10
-7 -10 -15 0 -8 5 -15 10 -15 6 0 10 -28 10 -63 0 -68 10 -87 47 -87 28 0 31
26 3 33 -17 4 -20 14 -20 60 0 40 4 56 15 61 19 7 20 26 1 26 -9 0 -16 12 -18
28 -2 18 -8 27 -15 25z"/>
<path d="M5910 21470 c0 -5 5 -10 11 -10 5 0 7 5 4 10 -3 6 -8 10 -11 10 -2 0
-4 -4 -4 -10z"/>
<path d="M2393 21462 c-10 -6 893 -6 1517 1 135 1 -149 3 -630 5 -481 1 -880
-2 -887 -6z"/>
<path d="M4313 21455 c0 -6 6 -12 12 -12 6 0 12 6 12 12 0 6 -6 12 -12 12 -6
0 -12 -6 -12 -12z"/>
<path d="M2290 21444 c-17 -10 -18 -13 -5 -8 11 3 25 7 32 7 7 0 10 4 7 9 -6
10 -4 10 -34 -8z"/>
<path d="M4371 21427 c-1 -10 6 -20 14 -23 8 -4 12 -10 9 -15 -3 -5 1 -9 8 -9
8 0 9 -3 3 -8 -14 -9 -13 -22 3 -47 11 -17 12 -14 8 24 -2 24 -10 49 -18 55
-8 6 -17 18 -21 26 -4 12 -6 11 -6 -3z"/>
<path d="M6908 21419 c-41 -24 -40 -137 2 -159 22 -12 80 -13 96 -2 6 4 16 17
23 30 10 18 9 22 -4 22 -8 0 -24 -9 -35 -20 -25 -25 -80 -8 -80 26 0 11 16 14
65 14 62 0 65 1 65 24 0 41 -36 76 -78 76 -20 0 -45 -5 -54 -11z m73 -19 c36
-20 23 -40 -26 -40 -50 0 -57 11 -23 34 27 19 24 19 49 6z"/>
<path d="M7170 21339 c0 -72 3 -89 15 -89 11 0 15 12 16 48 1 69 11 95 39 102
47 11 34 30 -19 29 l-51 -2 0 -88z"/>
<path d="M7280 21340 c0 -83 1 -90 20 -90 19 0 20 7 20 90 0 83 -1 90 -20 90
-19 0 -20 -7 -20 -90z"/>
<path d="M7380 21410 c-60 -60 -23 -160 58 -160 38 0 72 23 72 48 0 17 -30 15
-36 -2 -13 -33 -84 -17 -84 20 0 11 15 14 65 14 36 0 65 4 65 9 0 23 -24 73
-40 81 -30 16 -79 11 -100 -10z m84 -16 c26 -25 19 -34 -29 -34 -25 0 -45 4
-45 9 0 14 30 41 45 41 7 0 21 -7 29 -16z"/>
<path d="M7533 21423 c3 -5 19 -45 37 -90 33 -88 53 -103 71 -55 59 152 59
152 40 152 -12 0 -24 -18 -41 -67 l-24 -67 -24 67 c-19 51 -29 67 -44 67 -11
0 -17 -3 -15 -7z"/>
<path d="M7736 21414 c-20 -19 -20 -30 -1 -38 8 -3 15 -1 15 4 0 15 39 32 60
25 11 -4 20 -14 20 -24 0 -14 -11 -20 -42 -25 -69 -11 -99 -54 -62 -90 18 -18
66 -21 95 -6 13 7 19 7 19 0 0 -5 8 -10 18 -10 15 0 16 9 12 80 -4 57 -9 84
-20 90 -24 16 -97 12 -114 -6z m94 -94 c0 -24 -41 -53 -64 -44 -27 10 -19 43
12 50 15 3 32 7 37 9 6 2 11 4 13 4 1 1 2 -8 2 -19z"/>
<path d="M5919 21268 c-1 -84 -3 -167 -5 -185 -2 -21 1 -33 12 -37 9 -3 12 -2
9 5 -4 5 -6 91 -5 189 0 99 -2 180 -5 180 -3 0 -6 -69 -6 -152z"/>
<path d="M2237 21383 c-10 -10 -8 -23 4 -23 5 0 8 4 5 9 -4 5 0 12 6 14 7 3 8
6 2 6 -6 1 -14 -2 -17 -6z"/>
<path d="M2227 21343 c-11 -10 -8 -43 3 -43 6 0 10 11 10 25 0 26 -2 29 -13
18z"/>
<path d="M4410 21293 c-4 -59 0 -416 4 -421 3 -3 6 92 6 211 0 120 -2 217 -5
217 -3 0 -5 -3 -5 -7z"/>
<path d="M2225 20785 c0 -269 1 -378 2 -242 2 137 2 357 0 490 -1 133 -2 22
-2 -248z"/>
<path d="M8660 21084 c0 -19 -4 -43 -9 -53 -6 -10 -6 -23 0 -32 5 -7 9 -12 9
-9 7 41 11 130 6 130 -3 0 -6 -16 -6 -36z"/>
<path d="M2655 21085 c-47 -46 -26 -83 66 -113 56 -18 72 -40 49 -67 -25 -30
-110 -10 -110 26 0 5 -9 9 -20 9 -23 0 -24 -1 -9 -33 24 -52 122 -65 164 -22
48 47 23 94 -65 122 -37 12 -56 24 -58 37 -8 38 62 50 93 16 21 -23 45 -26 45
-6 0 26 -50 56 -92 56 -28 0 -46 -7 -63 -25z"/>
<path d="M3810 21090 c0 -11 7 -20 15 -20 8 0 15 9 15 20 0 11 -7 20 -15 20
-8 0 -15 -9 -15 -20z"/>
<path d="M3727 21093 c-4 -3 -7 -16 -7 -29 0 -12 -6 -24 -12 -27 -10 -3 -10
-7 -1 -18 7 -8 13 -46 15 -84 3 -68 4 -70 31 -73 19 -2 27 1 27 12 0 9 -7 16
-15 16 -12 0 -15 14 -15 65 0 51 3 65 15 65 8 0 15 5 15 10 0 6 -7 10 -15 10
-10 0 -15 10 -15 30 0 29 -9 38 -23 23z"/>
<path d="M2871 21014 c-30 -38 -28 -103 2 -132 30 -29 89 -30 117 -2 39 39 17
55 -27 21 -26 -21 -50 -18 -70 7 -22 27 -15 32 52 32 62 0 65 1 65 24 0 13 -9
35 -21 50 -16 20 -29 26 -59 26 -30 0 -43 -6 -59 -26z m92 -16 l22 -23 -27 -3
c-16 -2 -40 -2 -55 0 l-28 3 23 23 c12 12 27 22 32 22 6 0 20 -10 33 -22z"/>
<path d="M3050 20949 c0 -72 3 -89 15 -89 12 0 15 14 15 64 0 55 3 67 22 80
35 25 48 4 48 -75 0 -52 3 -69 14 -69 10 0 15 19 18 66 5 74 25 102 59 83 16
-8 19 -22 19 -79 0 -56 3 -70 15 -70 12 0 15 15 15 71 0 88 -10 109 -53 109
-18 0 -38 -5 -45 -12 -8 -8 -15 -8 -25 0 -8 7 -37 11 -65 11 l-52 -2 0 -88z"/>
<path d="M3346 21024 c-19 -19 -20 -31 -4 -36 7 -3 20 4 29 15 20 25 69 17 69
-12 0 -15 -10 -20 -45 -25 -43 -7 -75 -33 -75 -63 0 -36 67 -56 111 -33 13 7
19 7 19 0 0 -5 8 -10 18 -10 15 0 16 9 12 80 -4 57 -9 84 -20 90 -24 16 -97
12 -114 -6z m94 -94 c0 -24 -41 -53 -64 -44 -27 10 -19 43 12 50 15 3 32 7 37
9 6 2 11 4 13 4 1 1 2 -8 2 -19z"/>
<path d="M3520 20950 c0 -73 3 -90 15 -90 11 0 15 12 15 49 0 90 31 130 70 91
16 -16 20 -34 20 -80 0 -47 3 -60 15 -60 22 0 21 127 -1 158 -17 25 -71 31
-92 10 -9 -9 -12 -9 -12 0 0 7 -7 12 -15 12 -12 0 -15 -17 -15 -90z"/>
<path d="M3810 20950 c0 -73 3 -90 15 -90 12 0 15 17 15 90 0 73 -3 90 -15 90
-12 0 -15 -17 -15 -90z"/>
<path d="M3900 21020 c-15 -15 -20 -33 -20 -70 0 -62 23 -90 75 -90 47 0 95
47 66 65 -5 3 -21 -6 -36 -21 -24 -24 -28 -25 -48 -11 -29 19 -35 81 -11 108
22 25 39 24 64 -3 26 -29 47 -12 24 20 -20 29 -85 31 -114 2z"/>
<path d="M5927 20994 c-4 -4 2 -13 13 -21 10 -7 17 -19 14 -27 -3 -7 2 -13 10
-13 11 0 12 5 6 16 -18 33 -36 52 -43 45z"/>
<path d="M8612 20954 c-12 -8 -20 -19 -17 -24 8 -13 35 0 35 17 0 8 5 11 12 7
7 -4 8 -3 4 4 -9 15 -7 15 -34 -4z"/>
<path d="M5985 20920 c-3 -5 -5 -10 -3 -11 2 0 10 -2 18 -4 8 -2 22 -5 30 -7
8 -3 11 -3 6 0 -4 2 -2 9 5 14 11 7 9 8 -5 4 -10 -4 -24 -2 -31 4 -9 8 -15 8
-20 0z"/>
<path d="M8566 20915 c-4 -13 -85 -14 -616 -12 -335 1 -605 0 -600 -1 6 -2 7
-8 4 -13 -9 -16 1189 -7 1208 8 8 7 18 10 22 6 4 -4 4 0 0 10 -8 21 -10 21
-18 2z"/>
<path d="M6648 20903 c-367 -2 -568 -7 -568 -13 0 -7 198 -10 564 -10 492 0
565 2 570 15 3 8 4 14 3 13 -1 -2 -257 -4 -569 -5z"/>
<path d="M7226 20895 c-3 -10 1 -15 13 -15 10 0 24 7 31 15 15 18 -1 20 -19 3
-11 -10 -13 -10 -7 0 4 6 3 12 -2 12 -6 0 -12 -7 -16 -15z"/>
<path d="M7312 20894 c10 -10 20 -15 24 -12 3 4 -5 12 -18 18 -22 12 -22 12
-6 -6z"/>
<path d="M4401 20784 c0 -11 3 -14 6 -6 3 7 2 16 -1 19 -3 4 -6 -2 -5 -13z"/>
<path d="M3667 20724 c-4 -4 -7 -61 -7 -126 0 -111 1 -118 20 -118 18 0 20 7
20 63 0 66 5 80 32 90 31 11 48 -19 48 -89 0 -50 3 -64 15 -64 12 0 15 15 15
73 0 93 -12 111 -68 105 -40 -3 -41 -3 -44 31 -3 33 -17 49 -31 35z"/>
<path d="M4405 20515 c0 -117 3 -211 8 -208 4 2 7 96 7 208 0 112 -3 206 -7
208 -5 3 -8 -91 -8 -208z"/>
<path d="M2835 20640 c-27 -30 -7 -66 45 -80 43 -12 62 -36 39 -51 -22 -14
-37 -11 -59 11 -23 23 -40 26 -40 7 0 -24 35 -47 71 -47 58 0 90 40 63 79 -8
11 -20 21 -25 21 -5 0 -26 7 -46 15 -30 13 -33 17 -23 30 16 19 34 19 54 0 16
-17 46 -20 46 -6 0 41 -93 56 -125 21z"/>
<path d="M3011 20634 c-48 -61 -11 -154 61 -154 38 0 78 24 78 46 0 20 -17 18
-47 -6 -28 -22 -54 -15 -73 20 -10 19 -7 20 55 20 l65 0 0 30 c0 68 -96 98
-139 44z m91 -11 c28 -25 22 -33 -27 -33 -48 0 -62 19 -27 39 24 14 33 13 54
-6z"/>
<path d="M3208 20649 c-21 -12 -24 -39 -4 -39 7 0 19 7 26 15 15 18 42 19 58
3 22 -22 12 -36 -33 -42 -52 -8 -75 -27 -75 -61 0 -27 26 -45 65 -45 14 0 35
5 46 10 13 7 19 7 19 0 0 -5 7 -10 15 -10 12 0 14 13 9 78 -4 42 -11 83 -17
90 -11 14 -85 16 -109 1z m72 -131 c-27 -22 -44 -23 -60 -3 -17 20 -3 35 42
44 41 9 51 -14 18 -41z"/>
<path d="M3380 20569 c0 -72 3 -89 15 -89 12 0 15 13 15 56 0 64 13 94 40 94
11 0 20 7 20 15 0 10 -12 14 -45 13 l-45 -1 0 -88z"/>
<path d="M3510 20640 c-15 -15 -20 -33 -20 -70 0 -62 23 -90 75 -90 47 0 95
47 66 65 -5 3 -21 -6 -36 -21 -24 -24 -28 -25 -48 -11 -29 19 -35 81 -11 108
22 25 39 24 64 -3 26 -29 47 -12 24 20 -20 29 -85 31 -114 2z"/>
<path d="M2227 20235 c-4 -8 -2 -15 4 -15 6 0 7 -4 4 -10 -3 -5 -1 -10 5 -10
6 0 9 -4 5 -9 -3 -5 -1 -12 4 -16 6 -3 8 4 5 17 -3 13 -6 28 -8 35 -4 21 -13
25 -19 8z"/>
<path d="M4390 20235 c0 -8 0 -18 1 -21 0 -3 -11 -14 -25 -25 -14 -11 -25 -25
-23 -31 1 -6 -10 -14 -26 -19 -15 -4 -459 -7 -987 -6 -528 1 -960 -1 -960 -5
0 -13 18 -18 23 -6 3 7 6 9 6 3 1 -6 67 -9 183 -7 509 7 1665 6 1661 -2 -3 -4
3 -6 13 -3 11 3 33 8 49 12 17 3 44 17 60 31 17 13 22 22 13 18 -10 -3 -18 -3
-18 0 0 4 12 11 26 16 14 6 23 14 20 19 -4 5 -2 11 3 13 5 1 3 9 -5 16 -12 11
-14 10 -14 -3z"/>
<path d="M2270 20179 c0 -19 27 -44 58 -53 28 -9 29 5 1 22 -12 8 -18 9 -14 3
3 -6 1 -11 -4 -11 -6 0 -11 4 -11 8 0 5 -7 17 -15 28 -12 16 -14 16 -15 3z"/>
<path d="M7228 19875 c-3 -3 -270 -5 -593 -5 -323 0 -586 -3 -583 -5 10 -11
1172 -5 1182 5 5 5 8 10 5 10 -3 0 -8 -2 -11 -5z"/>
<path d="M7305 19863 l-30 -14 30 6 c31 7 41 12 34 19 -2 2 -17 -3 -34 -11z"/>
<path d="M7350 19863 c0 -5 263 -8 585 -8 321 0 577 3 567 7 -23 9 -1152 10
-1152 1z"/>
<path d="M5992 19839 c-12 -19 -11 -19 8 -9 11 6 18 15 15 21 -8 12 -8 12 -23
-12z"/>
<path d="M8573 19849 c19 -11 61 -51 65 -62 2 -7 4 -7 20 -7 4 1 -3 9 -15 19
-12 10 -20 21 -17 24 3 3 -8 13 -25 21 -33 18 -57 22 -28 5z"/>
<path d="M5956 19817 c3 -10 3 -17 -2 -15 -5 2 -10 -1 -11 -6 -1 -5 -7 -12
-14 -17 -10 -6 -10 -12 -1 -31 l13 -23 -5 23 c-2 12 -1 22 3 22 3 0 12 10 19
21 10 16 11 24 2 33 -8 8 -9 6 -4 -7z"/>
<path d="M8650 19755 c-8 -9 -8 -15 -2 -15 6 0 13 -8 15 -17 2 -10 4 -3 3 14
-1 38 0 37 -16 18z"/>
<path d="M5922 19700 c-7 -15 -2 -1185 5 -1187 4 -2 7 207 5 464 -2 476 -6
732 -10 723z"/>
<path d="M6470 19335 c0 -104 2 -125 15 -125 11 0 15 11 15 43 0 32 6 49 21
63 23 21 15 27 76 -60 21 -29 40 -46 53 -46 11 0 20 2 20 5 0 3 -23 36 -50 72
l-51 67 53 53 c49 49 51 53 27 53 -17 0 -42 -17 -79 -55 -30 -30 -58 -55 -62
-55 -4 0 -8 25 -8 55 0 42 -3 55 -15 55 -13 0 -15 -21 -15 -125z"/>
<path d="M7320 19335 c0 -104 2 -125 15 -125 13 0 15 21 15 125 0 104 -2 125
-15 125 -13 0 -15 -21 -15 -125z"/>
<path d="M7700 19421 c0 -35 -2 -38 -25 -33 -13 2 -35 2 -48 -2 -47 -11 -63
-103 -26 -150 18 -23 27 -26 75 -25 l54 2 0 123 c0 104 -2 124 -15 124 -11 0
-15 -11 -15 -39z m-5 -121 c0 -33 -5 -46 -22 -57 -19 -13 -24 -12 -42 6 -27
27 -27 75 0 102 18 18 23 19 42 6 17 -11 22 -24 22 -57z"/>
<path d="M6690 19298 c0 -81 2 -88 20 -88 18 0 20 7 20 63 0 66 5 80 32 90 31
11 48 -19 48 -89 0 -50 3 -64 15 -64 12 0 15 15 15 71 0 101 -6 109 -85 107
l-65 -2 0 -88z"/>
<path d="M6908 19380 c-27 -16 -41 -74 -28 -115 13 -41 35 -55 84 -55 45 0 76
37 76 90 0 54 -31 90 -78 90 -20 0 -45 -5 -54 -10z m82 -30 c27 -27 25 -66 -5
-96 -24 -24 -28 -25 -48 -11 -33 21 -36 90 -5 111 29 20 34 20 58 -4z"/>
<path d="M7060 19378 c0 -7 11 -47 24 -88 31 -97 52 -101 76 -15 l17 60 18
-62 c26 -92 45 -86 78 24 14 48 24 89 22 92 -13 12 -32 -13 -44 -58 -7 -28
-17 -51 -21 -51 -5 0 -14 25 -21 55 -9 41 -17 55 -30 55 -10 0 -20 -8 -23 -17
-3 -10 -10 -38 -17 -63 -13 -50 -18 -45 -39 38 -7 25 -17 42 -25 42 -8 0 -15
-6 -15 -12z"/>
<path d="M7411 19364 c-13 -16 -21 -41 -21 -64 0 -54 31 -90 79 -90 40 0 81
23 81 46 0 20 -17 18 -47 -6 -28 -22 -54 -15 -73 20 -10 19 -7 20 55 20 l65 0
0 30 c0 68 -96 98 -139 44z m87 -10 c34 -23 27 -34 -23 -34 -48 0 -62 19 -27
39 23 14 24 14 50 -5z"/>
<path d="M7790 19368 c-30 -32 -28 -101 5 -133 26 -27 64 -32 83 -13 9 9 12 8
12 -8 0 -41 -54 -60 -80 -29 -17 21 -30 19 -30 -5 0 -40 80 -54 120 -22 21 17
24 30 28 124 l4 104 -61 2 c-51 1 -64 -2 -81 -20z m84 -14 c34 -33 18 -114
-22 -114 -47 0 -69 73 -32 110 24 24 34 25 54 4z"/>
<path d="M7981 19364 c-13 -16 -21 -41 -21 -64 0 -54 31 -90 79 -90 40 0 81
23 81 46 0 20 -17 18 -47 -6 -28 -22 -54 -15 -73 20 -10 19 -7 20 55 20 l65 0
0 30 c0 68 -96 98 -139 44z m87 -10 c34 -23 27 -34 -23 -34 -48 0 -62 19 -27
39 23 14 24 14 50 -5z"/>
<path d="M6892 19057 c-78 -44 -79 -182 -1 -222 36 -19 102 -19 139 0 27 14
30 20 30 66 l0 50 -52 -3 c-58 -3 -68 -20 -16 -28 71 -11 34 -70 -43 -70 -73
0 -108 106 -54 164 33 36 86 36 114 0 25 -32 59 -27 41 5 -25 48 -105 67 -158
38z"/>
<path d="M7600 18945 c0 -104 2 -125 15 -125 12 0 15 14 15 64 0 55 3 67 22
80 15 11 26 12 40 5 15 -8 18 -22 18 -79 0 -63 2 -70 20 -70 18 0 20 7 20 63
0 34 -6 73 -13 87 -11 21 -20 25 -60 24 l-47 0 0 38 c0 27 -4 38 -15 38 -13 0
-15 -21 -15 -125z"/>
<path d="M7100 18908 c0 -81 2 -88 20 -88 18 0 20 7 20 59 0 75 6 91 36 91 14
0 24 6 24 14 0 11 -13 15 -50 14 l-50 -1 0 -89z"/>
<path d="M7235 18986 c-12 -8 -16 -19 -11 -31 6 -17 8 -17 29 4 26 24 47 27
65 9 22 -22 12 -36 -33 -42 -25 -4 -52 -14 -60 -22 -18 -18 -20 -55 -3 -72 15
-15 72 -16 99 -2 13 7 19 7 19 0 0 -5 7 -10 15 -10 14 0 15 11 9 78 -4 42 -11
83 -17 90 -13 16 -88 15 -112 -2z m75 -128 c-26 -21 -44 -23 -58 -5 -16 19 1
38 39 46 42 9 53 -14 19 -41z"/>
<path d="M7410 18874 c0 -104 2 -124 15 -124 11 0 15 11 15 39 l0 39 39 -5
c31 -4 42 -1 60 18 29 31 32 95 5 137 -13 19 -22 22 -74 21 l-60 -2 0 -123z
m102 89 c24 -22 24 -77 -2 -103 -47 -47 -95 40 -54 98 18 26 31 28 56 5z"/>
<path d="M8651 18526 c-9 -10 -8 -15 2 -19 8 -3 13 3 14 14 2 23 -1 24 -16 5z"/>
<path d="M8624 18468 c-9 -29 -34 -55 -34 -36 0 11 -2 11 -9 0 -4 -8 -10 -12
-12 -11 -2 2 -15 -4 -29 -14 -27 -19 -23 -22 12 -8 13 5 26 8 30 7 12 -2 78
67 72 76 -9 15 -22 9 -30 -14z"/>
<path d="M5948 18453 c9 -14 18 -21 20 -14 2 6 9 8 15 4 8 -4 7 -1 -1 9 -7 9
-21 18 -32 21 -18 5 -18 4 -2 -20z"/>
<path d="M6014 18422 c3 -6 0 -13 -6 -16 -7 -3 -3 -3 10 0 12 3 22 2 22 -3 0
-5 8 -9 18 -9 10 0 19 6 19 12 0 7 -6 10 -13 7 -7 -2 -22 1 -34 7 -13 7 -20 8
-16 2z"/>
<path d="M7321 18404 c0 -11 3 -14 6 -6 3 7 2 16 -1 19 -3 4 -6 -2 -5 -13z"/>
<path d="M8484 18412 c2 -4 -249 -7 -557 -7 -309 1 -515 0 -457 -2 230 -6
1040 -8 1040 -2 0 4 -7 10 -16 13 -8 3 -13 2 -10 -2z"/>
<path d="M6368 18403 c156 -2 408 -2 560 0 152 1 25 2 -283 2 -308 0 -433 -1
-277 -2z"/>
<path d="M6015 17100 c-3 -5 -1 -10 4 -10 6 0 11 5 11 10 0 6 -2 10 -4 10 -3
0 -8 -4 -11 -10z"/>
<path d="M8480 17096 c7 -7 14 -6 21 1 9 9 7 12 -9 10 -14 -1 -18 -5 -12 -11z"/>
<path d="M8536 17102 c-7 -11 18 -24 54 -28 17 -2 21 -1 11 5 -8 5 -20 7 -28
4 -8 -3 -13 0 -11 7 4 15 -18 25 -26 12z"/>
<path d="M7313 17093 c9 -2 25 -2 35 0 9 3 1 5 -18 5 -19 0 -27 -2 -17 -5z"/>
<path d="M5961 17066 c-8 -9 -8 -16 -2 -20 5 -4 12 -2 16 4 3 5 3 10 -2 10 -4
0 -1 5 7 10 8 5 10 10 4 10 -6 0 -17 -6 -23 -14z"/>
<path d="M8612 17061 c-10 -6 -10 -10 2 -20 10 -8 16 -9 21 -1 3 5 1 10 -5 10
-6 0 -8 5 -5 10 7 12 4 12 -13 1z"/>
<path d="M5934 17032 c3 -6 2 -13 -2 -16 -5 -3 -8 -17 -7 -31 2 -14 0 -25 -3
-25 -8 0 -5 -1137 3 -1150 3 -5 1 -11 -5 -15 -5 -3 -10 -14 -10 -23 1 -16 1
-16 10 0 6 10 10 252 11 624 0 387 4 613 10 620 7 8 6 15 -2 20 -7 4 -9 3 -5
-4z"/>
<path d="M8644 17005 c-4 -9 -4 -19 0 -22 3 -4 6 2 6 13 0 16 2 17 10 4 6 -9
10 -10 10 -3 0 19 -20 26 -26 8z"/>
<path d="M8656 16963 c-6 -14 -5 -15 5 -6 7 7 10 15 7 18 -3 3 -9 -2 -12 -12z"/>
<path d="M6770 16566 c0 -105 2 -126 15 -126 11 0 15 12 15 49 l0 49 61 4 c69
5 89 21 89 73 0 56 -19 69 -104 73 l-76 4 0 -126z m132 77 c39 -35 9 -73 -58
-73 l-44 0 0 45 0 45 42 0 c24 0 49 -7 60 -17z"/>
<path d="M7782 16668 c-7 -7 -12 -20 -12 -29 0 -10 -6 -20 -12 -23 -10 -5 -10
-7 0 -12 7 -3 12 -26 12 -59 0 -74 13 -105 45 -105 16 0 25 6 25 15 0 8 -7 15
-15 15 -12 0 -15 14 -15 65 0 51 3 65 15 65 8 0 15 5 15 10 0 6 -7 10 -15 10
-10 0 -15 10 -15 30 0 32 -9 37 -28 18z"/>
<path d="M6990 16529 c0 -72 3 -89 15 -89 12 0 15 13 15 56 0 64 13 94 39 94
11 0 21 7 25 15 4 12 -4 14 -44 14 l-50 -2 0 -88z"/>
<path d="M7128 16610 c-27 -16 -41 -74 -28 -115 13 -41 35 -55 84 -55 45 0 76
37 76 90 0 54 -31 90 -78 90 -20 0 -45 -5 -54 -10z m82 -30 c27 -27 25 -66 -5
-96 -24 -24 -28 -25 -48 -11 -33 21 -36 90 -5 111 29 20 34 20 58 -4z"/>
<path d="M7290 16530 c0 -83 1 -90 20 -90 18 0 20 7 20 63 0 73 9 90 41 85 22
-3 24 -8 27 -75 2 -56 6 -73 17 -73 12 0 15 15 15 64 0 55 3 67 21 80 37 25
48 10 51 -67 2 -59 6 -72 21 -75 15 -3 17 5 17 62 0 91 -11 116 -53 116 -18 0
-38 -5 -45 -12 -9 -9 -15 -9 -24 0 -7 7 -26 12 -43 12 -17 0 -36 -5 -43 -12
-9 -9 -12 -9 -12 0 0 7 -7 12 -15 12 -12 0 -15 -17 -15 -90z"/>
<path d="M7580 16494 c0 -104 2 -124 15 -124 11 0 15 11 15 39 l0 39 39 -5
c31 -4 43 -1 60 16 29 29 32 97 5 139 -13 19 -22 22 -74 21 l-60 -2 0 -123z
m102 89 c24 -22 24 -77 -2 -103 -47 -47 -95 40 -54 98 18 26 31 28 56 5z"/>
<path d="M6780 16185 l0 -125 70 0 c62 0 74 3 95 25 30 29 32 68 5 93 -18 17
-19 20 -5 32 23 19 18 56 -11 79 -21 16 -41 21 -90 21 l-64 0 0 -125z m124 82
c10 -7 17 -22 14 -33 -2 -15 -13 -20 -51 -22 l-47 -3 0 35 c0 34 2 36 33 36
18 0 41 -6 51 -13z m10 -103 c22 -9 20 -51 -3 -64 -11 -5 -36 -10 -55 -10 -35
0 -36 1 -36 40 0 40 0 40 39 40 22 0 46 -3 55 -6z"/>
<path d="M7200 16290 c0 -11 7 -20 15 -20 8 0 15 9 15 20 0 11 -7 20 -15 20
-8 0 -15 -9 -15 -20z"/>
<path d="M7280 16185 c0 -104 2 -125 15 -125 13 0 15 21 15 125 0 104 -2 125
-15 125 -13 0 -15 -21 -15 -125z"/>
<path d="M7467 16303 c-4 -3 -7 -20 -7 -37 0 -30 -1 -31 -38 -28 -52 5 -77
-23 -77 -88 0 -70 22 -90 96 -88 l59 2 0 123 c0 96 -3 123 -13 123 -8 0 -17
-3 -20 -7z m-27 -93 c43 -23 32 -120 -14 -120 -13 0 -29 7 -37 16 -19 23 -15
85 7 101 21 16 21 16 44 3z"/>
<path d="M7010 16166 c0 -54 4 -79 16 -90 18 -18 56 -21 85 -6 13 7 19 7 19 0
0 -5 5 -10 10 -10 6 0 10 37 10 90 0 73 -3 90 -15 90 -12 0 -15 -14 -15 -63 0
-67 -10 -87 -46 -87 -28 0 -34 17 -34 91 0 46 -3 59 -15 59 -12 0 -15 -15 -15
-74z"/>
<path d="M7200 16150 c0 -73 3 -90 15 -90 12 0 15 17 15 90 0 73 -3 90 -15 90
-12 0 -15 -17 -15 -90z"/>
<path d="M7568 16230 c-27 -16 -41 -74 -28 -115 13 -41 35 -55 83 -55 33 0 67
24 67 48 0 17 -30 15 -36 -2 -13 -33 -84 -17 -84 20 0 11 15 14 65 14 36 0 65
4 65 9 0 23 -24 73 -40 81 -24 13 -70 12 -92 0z m76 -26 c26 -25 19 -34 -29
-34 -49 0 -53 4 -28 32 20 22 37 23 57 2z"/>
<path d="M7730 16149 c0 -72 3 -89 15 -89 11 0 15 12 16 48 1 69 11 95 39 102
47 11 34 30 -19 29 l-51 -2 0 -88z"/>
<path d="M8652 15798 c-8 -41 -6 -65 5 -54 6 6 13 96 8 96 -2 0 -8 -19 -13
-42z"/>
<path d="M5931 15752 c-1 -8 -6 -10 -13 -6 -7 4 -2 -7 10 -24 28 -38 41 -47
38 -26 -1 8 -8 19 -15 23 -7 5 -12 11 -11 15 1 4 -1 12 -3 19 -4 9 -6 9 -6 -1z"/>
<path d="M8623 15701 c-15 -20 -17 -28 -8 -28 8 0 13 4 12 8 -1 4 7 14 17 22
11 8 15 17 9 20 -5 3 -19 -6 -30 -22z"/>
<path d="M5980 15668 c0 -20 25 -24 36 -6 5 7 3 8 -6 3 -7 -4 -16 -2 -21 6 -7
11 -9 10 -9 -3z"/>
<path d="M8552 15658 c-7 -7 -12 -16 -12 -22 0 -5 7 -1 15 10 9 12 14 14 15 6
0 -7 5 -10 10 -7 11 7 4 25 -9 25 -4 0 -12 -5 -19 -12z"/>
<path d="M7210 15653 c8 -3 22 -9 31 -14 11 -5 21 -4 27 4 8 9 0 12 -31 14
-23 1 -35 -1 -27 -4z"/>
<path d="M7298 15653 c6 -2 18 -2 25 0 6 3 1 5 -13 5 -14 0 -19 -2 -12 -5z"/>
<path d="M7337 15646 c-4 -10 -1 -13 8 -9 8 3 12 9 9 14 -7 12 -11 11 -17 -5z"/>
<path d="M8489 15651 c11 -7 11 -9 0 -14 -10 -4 -10 -6 2 -6 9 -1 22 6 29 14
11 13 8 15 -16 15 -20 0 -25 -3 -15 -9z"/>
<path d="M6090 14360 c0 -7 191 -10 553 -11 303 0 562 -2 574 -3 14 -2 19 2
16 11 -4 10 -9 11 -19 2 -10 -8 -14 -8 -14 0 0 8 -151 11 -555 11 -363 0 -555
-3 -555 -10z"/>
<path d="M7245 14360 c3 -5 8 -10 11 -10 2 0 4 5 4 10 0 6 -5 10 -11 10 -5 0
-7 -4 -4 -10z"/>
<path d="M7315 14359 c-11 -16 -1 -19 13 -3 7 8 8 14 3 14 -5 0 -13 -5 -16
-11z"/>
<path d="M7350 14358 c0 -12 202 -13 1174 -8 34 0 32 5 -7 14 -19 4 -26 3 -22
-4 3 -5 2 -10 -4 -10 -5 0 -13 5 -16 10 -10 16 -1125 14 -1125 -2z"/>
<path d="M6013 14344 c-4 -11 -8 -12 -13 -4 -5 8 -9 5 -13 -9 -4 -17 -2 -19
13 -11 16 9 36 40 24 40 -2 0 -7 -7 -11 -16z"/>
<path d="M8551 14343 c-12 -13 -11 -14 9 -8 17 5 21 4 15 -5 -5 -9 -4 -11 4
-6 9 6 9 11 0 22 -14 17 -11 17 -28 -3z"/>
<path d="M8595 14320 c-3 -6 1 -7 9 -4 18 7 21 14 7 14 -6 0 -13 -4 -16 -10z"/>
<path d="M5940 14290 c-13 -8 -13 -10 -1 -10 12 0 11 -3 -2 -12 -24 -18 -28
-53 -11 -91 l15 -32 -6 31 c-3 17 -1 44 5 60 12 28 21 64 17 64 -1 0 -9 -5
-17 -10z"/>
<path d="M8639 14288 c11 -15 11 -18 0 -18 -12 0 -12 -2 0 -9 8 -5 10 -14 6
-21 -6 -9 -4 -11 5 -5 9 6 11 0 6 -21 -3 -16 -2 -35 3 -42 5 -8 7 3 5 30 -3
59 -8 76 -24 91 -12 10 -12 9 -1 -5z"/>
<path d="M5924 13745 c0 -176 2 -247 3 -157 2 90 2 234 0 320 -1 86 -3 13 -3
-163z"/>
<path d="M6980 13785 l0 -125 80 0 c64 0 80 3 80 15 0 12 -13 15 -60 15 l-60
0 0 110 c0 103 -1 110 -20 110 -19 0 -20 -7 -20 -125z"/>
<path d="M7170 13785 l0 -125 80 0 c64 0 80 3 80 15 0 12 -13 15 -60 15 l-60
0 0 110 c0 103 -1 110 -20 110 -19 0 -20 -7 -20 -125z"/>
<path d="M7360 13785 c0 -118 1 -125 20 -125 18 0 20 7 21 93 l1 92 31 -92
c40 -120 55 -123 91 -15 40 118 46 120 46 15 0 -76 3 -93 15 -93 13 0 15 21
15 125 l0 125 -25 0 c-14 0 -25 -6 -26 -12 0 -7 -15 -53 -33 -103 l-33 -90
-34 103 c-32 97 -35 102 -61 102 l-28 0 0 -125z"/>
<path d="M8654 13388 c-4 -29 -8 -57 -9 -63 0 -5 -4 -16 -8 -22 -5 -8 -3 -13
6 -13 7 0 14 6 15 13 0 6 3 40 7 75 7 76 1 82 -11 10z"/>
<path d="M5920 13360 c0 -5 5 -10 10 -10 6 0 10 5 10 10 0 6 -4 10 -10 10 -5
0 -10 -4 -10 -10z"/>
<path d="M5936 13321 c4 -15 2 -21 -4 -17 -6 3 -5 -4 1 -19 7 -14 18 -23 25
-20 6 2 12 0 12 -5 0 -6 6 -10 13 -10 6 0 0 11 -15 24 -15 13 -24 26 -21 29 2
3 0 14 -7 24 -10 16 -10 15 -4 -6z"/>
<path d="M8628 13273 c7 -3 16 -2 19 1 4 3 -2 6 -13 5 -11 0 -14 -3 -6 -6z"/>
<path d="M8615 13250 c-4 -6 -11 -7 -17 -4 -6 4 -13 3 -17 -2 -3 -5 -19 -15
-35 -22 -16 -7 -26 -15 -23 -19 4 -3 13 0 21 6 8 7 20 10 26 6 5 -3 10 -1 10
5 0 6 4 9 9 6 4 -3 16 3 26 14 10 11 15 20 12 20 -3 0 -9 -5 -12 -10z"/>
<path d="M5998 13233 c6 -2 10 -8 8 -12 -3 -4 3 -8 12 -10 9 -2 278 -4 597 -5
l580 -1 -554 2 c-354 2 -559 7 -566 13 -7 6 -19 8 -28 4 -8 -3 -18 -1 -22 5
-3 6 -14 11 -23 10 -11 0 -12 -2 -4 -6z"/>
<path d="M7222 13214 c-7 -8 -8 -14 -3 -14 10 0 25 19 20 25 -2 1 -10 -3 -17
-11z"/>
<path d="M7310 13221 c0 -10 19 -25 25 -20 1 2 -3 10 -11 17 -8 7 -14 8 -14 3z"/>
<path d="M8487 13214 c6 -15 23 -19 23 -5 0 5 -7 11 -14 14 -10 4 -13 1 -9 -9z"/>
<path d="M7648 13203 c156 -2 408 -2 560 0 152 1 25 2 -283 2 -308 0 -433 -1
-277 -2z"/>
<path d="M7129 11789 c-106 -61 -334 -193 -1258 -725 -84 -49 -166 -101 -181
-115 -58 -53 -59 -168 -2 -222 43 -41 202 -128 222 -122 12 4 19 -1 22 -13 3
-12 154 -104 419 -257 228 -131 522 -301 654 -377 284 -164 283 -164 407 -95
246 136 1168 674 1172 684 3 7 2 14 -2 17 -4 2 -156 -81 -337 -186 -873 -504
-917 -528 -954 -528 -30 0 -170 77 -766 421 -402 231 -751 434 -776 450 -53
34 -69 62 -69 126 0 39 5 50 33 76 31 29 210 134 1107 649 332 192 443 251
470 252 37 1 184 -83 1525 -859 68 -39 90 -70 90 -125 0 -68 -22 -92 -150
-167 -61 -35 -116 -68 -124 -72 -7 -4 -11 -15 -10 -24 3 -13 33 1 139 62 109
63 139 86 157 117 41 70 24 160 -38 206 -34 25 -1436 836 -1516 877 -69 34
-96 29 -234 -50z"/>
<path d="M6492 11144 c-67 -46 -67 -171 -1 -218 35 -24 102 -21 133 7 31 27
38 60 14 65 -11 2 -18 -3 -18 -12 0 -21 -39 -46 -71 -46 -65 0 -95 115 -44
165 31 32 70 32 100 -1 24 -26 45 -25 45 1 0 45 -110 73 -158 39z"/>
<path d="M7090 11141 c-5 -11 -10 -27 -10 -35 0 -9 -4 -16 -10 -16 -5 0 -10
-7 -10 -15 0 -8 5 -15 10 -15 6 0 10 -32 10 -75 0 -68 2 -75 20 -75 18 0 20 7
20 75 0 60 3 75 15 75 8 0 15 7 15 15 0 8 -7 15 -15 15 -8 0 -15 9 -15 20 0
13 7 20 20 20 11 0 20 7 20 15 0 23 -57 20 -70 -4z"/>
<path d="M7170 11140 c0 -11 7 -20 15 -20 8 0 15 9 15 20 0 11 -7 20 -15 20
-8 0 -15 -9 -15 -20z"/>
<path d="M7360 11122 l0 -37 -44 3 c-38 3 -47 0 -59 -20 -27 -41 -25 -110 3
-138 15 -15 32 -20 75 -19 l55 2 0 123 c0 104 -2 124 -15 124 -11 0 -15 -11
-15 -38z m-4 -99 c10 -38 -7 -77 -36 -81 -48 -7 -69 69 -30 108 25 25 56 13
66 -27z"/>
<path d="M8043 11092 c-57 -9 -83 -104 -42 -156 15 -20 29 -26 58 -26 40 0 81
23 81 46 0 19 -24 18 -40 -2 -18 -21 -60 -14 -78 14 l-14 22 66 0 c64 0 66 1
66 26 0 52 -42 85 -97 76z m45 -38 c34 -23 27 -34 -23 -34 -48 0 -62 19 -27
39 23 14 24 14 50 -5z"/>
<path d="M6713 11075 c-28 -20 -38 -66 -23 -110 13 -41 35 -55 84 -55 45 0 76
37 76 90 0 54 -31 90 -79 90 -20 0 -46 -7 -58 -15z m77 -15 c46 -25 27 -120
-23 -120 -33 0 -47 19 -47 61 0 28 6 42 22 53 27 19 24 19 48 6z"/>
<path d="M6880 10998 c0 -81 2 -88 20 -88 18 0 20 7 20 59 0 77 6 91 40 91 34
0 40 -14 40 -91 0 -46 3 -59 15 -59 12 0 15 15 15 71 0 101 -6 109 -85 107
l-65 -2 0 -88z"/>
<path d="M7170 11000 c0 -73 3 -90 15 -90 12 0 15 17 15 90 0 73 -3 90 -15 90
-12 0 -15 -17 -15 -90z"/>
<path d="M7452 11067 c-31 -33 -31 -105 1 -135 30 -29 89 -30 117 -2 11 11 20
25 20 30 0 16 -37 12 -44 -5 -8 -22 -63 -19 -76 4 -5 11 -10 22 -10 25 0 3 29
6 65 6 65 0 65 0 65 28 0 65 -93 97 -138 49z m91 -19 l22 -23 -27 -3 c-16 -2
-40 -2 -55 0 l-28 3 23 23 c12 12 27 22 32 22 6 0 20 -10 33 -22z"/>
<path d="M7630 10999 c0 -72 3 -89 15 -89 12 0 15 14 15 64 0 70 12 90 52 84
21 -3 23 -8 26 -75 2 -56 6 -73 17 -73 21 0 22 152 1 169 -7 6 -38 10 -70 10
l-56 -2 0 -88z"/>
<path d="M7830 11070 c-30 -30 -28 -109 3 -138 43 -41 127 -20 127 31 0 23
-23 21 -38 -3 -27 -44 -82 -15 -82 44 0 26 31 66 50 66 6 0 18 -9 27 -20 20
-23 43 -26 43 -7 0 45 -93 64 -130 27z"/>
<path d="M6883 10760 c-69 -28 -80 -169 -16 -219 40 -33 107 -29 144 8 31 32
36 46 18 57 -7 4 -22 -7 -36 -25 -29 -37 -68 -41 -104 -12 -20 16 -24 28 -24
76 0 48 4 60 24 76 34 27 75 24 100 -7 25 -32 59 -27 41 5 -24 46 -90 64 -147
41z"/>
<path d="M7080 10645 c0 -104 2 -125 15 -125 12 0 15 14 15 64 0 70 12 90 52
84 21 -3 23 -8 26 -75 2 -56 6 -73 17 -73 12 0 15 16 15 79 0 92 -9 105 -70
99 l-40 -4 0 38 c0 27 -4 38 -15 38 -13 0 -15 -21 -15 -125z"/>
<path d="M7630 10645 c0 -104 2 -125 15 -125 11 0 15 11 15 40 0 26 5 40 13
40 7 0 23 -18 37 -40 14 -22 33 -40 42 -40 24 0 23 5 -13 62 l-32 49 34 35
c32 33 32 34 9 34 -13 0 -39 -14 -57 -32 l-33 -32 0 67 c0 53 -3 67 -15 67
-13 0 -15 -21 -15 -125z"/>
<path d="M7493 10695 c-35 -15 -43 -31 -43 -89 0 -32 6 -48 23 -64 43 -41 127
-20 127 31 0 24 -27 21 -35 -3 -4 -14 -15 -20 -35 -20 -32 0 -50 23 -50 64 0
26 31 66 50 66 6 0 18 -9 27 -20 20 -23 43 -26 43 -7 0 37 -62 61 -107 42z"/>
<path d="M7280 10678 c-29 -32 -28 -107 3 -136 30 -29 89 -30 117 -2 11 11 20
25 20 30 0 17 -29 11 -50 -10 -21 -21 -46 -18 -67 8 -22 27 -15 32 52 32 65 0
65 0 65 28 0 64 -95 98 -140 50z m93 -20 l22 -23 -27 -3 c-16 -2 -40 -2 -55 0
l-28 3 23 23 c12 12 27 22 32 22 6 0 20 -10 33 -22z"/>
<path d="M5797 8993 c-4 -3 -7 -48 -7 -100 0 -76 3 -93 15 -93 11 0 15 12 15
44 0 59 8 76 35 76 27 0 35 -17 35 -76 0 -24 5 -44 10 -44 6 0 10 26 10 59 0
67 -14 86 -60 79 -28 -4 -30 -3 -30 29 0 31 -9 41 -23 26z"/>
<path d="M5386 8983 c-3 -3 -6 -46 -6 -95 0 -72 3 -88 15 -88 11 0 15 12 15
45 l0 45 45 0 45 0 0 -45 c0 -25 5 -45 10 -45 6 0 10 38 10 95 0 57 -4 95 -10
95 -5 0 -10 -18 -10 -40 l0 -40 -45 0 c-45 0 -45 0 -45 34 0 34 -11 52 -24 39z"/>
<path d="M5570 8975 c0 -8 5 -15 10 -15 6 0 10 7 10 15 0 8 -4 15 -10 15 -5 0
-10 -7 -10 -15z"/>
<path d="M8640 8895 l0 -95 50 0 c58 0 68 17 13 22 l-38 3 -3 83 c-4 114 -22
104 -22 -13z"/>
<path d="M5570 8870 c0 -40 4 -70 10 -70 6 0 10 30 10 70 0 40 -4 70 -10 70
-6 0 -10 -30 -10 -70z"/>
<path d="M5646 8921 c-9 -9 -16 -33 -16 -53 0 -46 28 -73 70 -65 21 5 30 3 30
-7 0 -23 -28 -39 -60 -34 -19 3 -29 1 -27 -6 2 -6 20 -12 39 -14 56 -5 68 15
68 112 l0 82 -44 2 c-31 1 -48 -4 -60 -17z m78 -34 c12 -34 -1 -61 -32 -65
-30 -5 -47 33 -33 71 14 37 51 34 65 -6z"/>
<path d="M8793 8932 c-22 -14 -33 -60 -22 -89 12 -33 26 -43 60 -43 35 0 59
29 59 72 0 53 -54 87 -97 60z m69 -37 c22 -49 -25 -98 -60 -63 -7 7 -12 24
-12 38 0 51 52 69 72 25z"/>
<path d="M8921 8873 c10 -38 19 -69 19 -70 0 -2 6 -3 14 -3 7 0 19 20 26 45 7
25 16 47 20 50 3 2 12 -19 19 -46 18 -69 39 -62 62 21 10 36 18 66 19 68 0 1
-6 2 -14 2 -9 0 -17 -15 -21 -38 -11 -65 -21 -69 -36 -13 -16 65 -36 64 -59
-4 l-17 -50 -12 53 c-8 30 -19 52 -26 52 -11 0 -9 -14 6 -67z"/>
<path d="M5230 7201 c0 -10 39 -11 45 -2 2 5 -7 9 -20 9 -14 0 -25 -3 -25 -7z"/>
<path d="M6190 7200 c8 -5 22 -10 30 -10 13 0 13 1 0 10 -8 5 -22 10 -30 10
-13 0 -13 -1 0 -10z"/>
<path d="M4108 7187 c-8 -9 -19 -13 -23 -9 -5 4 -5 1 -1 -5 5 -9 1 -13 -11
-13 -15 0 -16 -2 -3 -10 14 -9 7 -14 -13 -11 -5 1 -5 -4 -1 -10 5 -9 12 -6 25
9 9 12 22 22 29 22 6 0 8 5 5 11 -4 6 0 9 10 7 10 -2 20 4 22 12 4 12 3 12 -5
1 -7 -10 -11 -10 -14 -1 -3 9 -8 9 -20 -3z"/>
<path d="M4165 7190 c-8 -13 5 -13 25 0 13 8 13 10 -2 10 -9 0 -20 -4 -23 -10z"/>
<path d="M5138 7193 c7 -3 16 -2 19 1 4 3 -2 6 -13 5 -11 0 -14 -3 -6 -6z"/>
<path d="M8010 7185 c-5 -6 5 -11 26 -12 19 -1 34 1 34 5 0 4 273 6 607 4 334
-1 604 0 601 3 -10 10 -1259 10 -1268 0z"/>
<path d="M9360 7188 c0 -5 271 -9 603 -9 331 -1 616 -3 634 -5 24 -2 29 1 21
9 -12 14 -1258 18 -1258 5z"/>
<path d="M6260 7184 c0 -6 12 -19 28 -30 32 -24 62 -41 47 -28 -5 5 -25 22
-42 38 -18 17 -33 25 -33 20z"/>
<path d="M7940 7176 c0 -2 7 -7 16 -10 8 -3 12 -2 9 4 -6 10 -25 14 -25 6z"/>
<path d="M7935 7150 c-4 -6 -12 -7 -18 -4 -7 4 -9 4 -5 -1 4 -4 0 -13 -9 -20
-13 -10 -14 -13 -2 -20 8 -5 11 -5 7 -1 -4 5 5 19 20 32 15 13 24 24 20 24 -4
0 -10 -5 -13 -10z"/>
<path d="M10662 7146 c7 -8 17 -12 22 -9 4 3 2 9 -5 14 -22 13 -31 11 -17 -5z"/>
<path d="M10695 7119 c4 -5 8 -21 10 -35 3 -29 12 -41 23 -29 4 4 1 10 -5 12
-7 3 -13 9 -13 14 0 6 5 7 11 3 6 -3 3 5 -6 20 -16 24 -34 39 -20 15z"/>
<path d="M4035 7110 c-3 -5 -1 -10 4 -10 6 0 11 5 11 10 0 6 -2 10 -4 10 -3 0
-8 -4 -11 -10z"/>
<path d="M6326 7102 c-3 -5 1 -9 9 -9 8 0 15 4 15 9 0 4 -4 8 -9 8 -6 0 -12
-4 -15 -8z"/>
<path d="M7879 7093 c-4 -46 4 -709 8 -720 5 -12 3 -14 -7 -8 -9 5 -11 4 -6
-3 13 -21 28 -13 22 11 -3 13 -6 181 -6 375 -1 194 -3 352 -6 352 -2 0 -4 -3
-5 -7z"/>
<path d="M4020 7075 c0 -8 2 -15 4 -15 2 0 6 7 10 15 3 8 1 15 -4 15 -6 0 -10
-7 -10 -15z"/>
<path d="M6347 7051 c-4 -17 -3 -21 5 -13 5 5 8 16 6 23 -3 8 -7 3 -11 -10z"/>
<path d="M4027 6692 c2 -196 3 -360 3 -364 0 -5 8 -8 18 -8 15 1 15 2 2 13
-13 10 -15 60 -12 356 1 190 -1 348 -5 352 -5 5 -7 -153 -6 -349z"/>
<path d="M10726 7024 c-11 -28 -7 -644 4 -644 6 0 10 117 10 330 0 182 -2 330
-4 330 -2 0 -7 -7 -10 -16z"/>
<path d="M4682 6827 c-68 -38 -78 -162 -17 -214 40 -35 108 -32 146 6 31 32
36 46 18 57 -7 4 -22 -7 -36 -25 -19 -23 -32 -31 -57 -31 -49 0 -71 30 -71 97
0 45 4 58 24 74 33 27 75 24 100 -7 16 -20 24 -23 37 -16 16 9 15 13 -13 41
-25 24 -40 31 -70 31 -21 -1 -48 -6 -61 -13z"/>
<path d="M4880 6820 c0 -11 7 -20 15 -20 8 0 15 9 15 20 0 11 -7 20 -15 20 -8
0 -15 -9 -15 -20z"/>
<path d="M5337 6833 c-14 -13 -6 -33 13 -33 13 0 20 7 20 20 0 19 -20 27 -33
13z"/>
<path d="M4967 6823 c-4 -3 -7 -16 -7 -29 0 -12 -8 -25 -17 -29 -17 -6 -17 -7
-1 -19 13 -9 18 -31 20 -82 3 -67 4 -69 31 -72 19 -2 27 1 27 12 0 9 -7 16
-15 16 -12 0 -15 13 -15 60 0 45 4 62 15 66 8 4 15 10 15 15 0 5 -7 9 -15 9
-10 0 -15 10 -15 30 0 29 -9 38 -23 23z"/>
<path d="M5252 6818 c-7 -7 -12 -20 -12 -29 0 -10 -6 -19 -12 -22 -10 -4 -10
-7 0 -18 6 -7 12 -34 12 -60 0 -68 14 -99 45 -99 16 0 25 6 25 15 0 8 -7 15
-15 15 -12 0 -15 14 -15 65 0 51 3 65 15 65 8 0 15 5 15 10 0 6 -7 10 -15 10
-10 0 -15 10 -15 30 0 32 -9 37 -28 18z"/>
<path d="M8250 6706 c0 -119 1 -126 20 -126 18 0 20 7 20 55 0 54 0 55 30 55
29 0 31 -2 100 -92 9 -11 24 -19 34 -17 16 4 13 11 -19 57 l-36 53 25 20 c29
23 34 64 12 95 -12 16 -29 20 -100 23 l-86 3 0 -126z m154 72 c19 -31 -4 -53
-63 -56 l-51 -3 0 41 0 41 51 -3 c36 -2 55 -8 63 -20z"/>
<path d="M8890 6810 c0 -13 7 -20 20 -20 13 0 20 7 20 20 0 13 -7 20 -20 20
-13 0 -20 -7 -20 -20z"/>
<path d="M9620 6706 c0 -121 1 -126 21 -126 19 0 20 5 17 85 -2 47 -1 85 2 85
3 0 19 -38 35 -85 20 -57 34 -85 45 -85 10 0 26 29 47 88 l32 87 0 -87 c1 -81
3 -88 21 -88 19 0 20 7 20 125 l0 125 -24 0 c-22 0 -28 -10 -57 -100 -18 -54
-35 -97 -39 -94 -3 3 -19 47 -36 97 -28 83 -33 92 -57 95 l-27 3 0 -125z"/>
<path d="M8703 6813 c-7 -3 -13 -15 -13 -28 0 -13 -6 -25 -12 -28 -10 -4 -10
-7 0 -18 7 -7 12 -39 12 -74 0 -66 11 -85 47 -85 28 0 31 26 3 33 -17 4 -20
14 -20 61 0 41 4 58 15 62 19 8 20 24 1 24 -9 0 -16 12 -18 28 -2 18 -8 27
-15 25z"/>
<path d="M4880 6680 c0 -73 3 -90 15 -90 12 0 15 17 15 90 0 73 -3 90 -15 90
-12 0 -15 -17 -15 -90z"/>
<path d="M5056 6748 c-21 -30 1 -45 27 -17 21 22 36 24 62 6 21 -16 12 -37
-16 -37 -11 0 -35 -7 -54 -14 -28 -12 -35 -20 -35 -43 0 -16 5 -34 12 -41 15
-15 84 -16 94 -1 4 8 9 8 17 0 26 -26 32 -10 29 67 -2 42 -9 83 -14 90 -6 6
-32 12 -59 12 -38 0 -51 -5 -63 -22z m100 -103 c-3 -9 -18 -20 -32 -26 -22 -8
-31 -6 -43 6 -19 19 -5 34 41 44 34 7 44 1 34 -24z"/>
<path d="M5330 6680 c0 -83 1 -90 20 -90 19 0 20 7 20 90 0 83 -1 90 -20 90
-19 0 -20 -7 -20 -90z"/>
<path d="M5421 6744 c-47 -60 -13 -154 55 -154 20 0 44 5 54 10 43 23 43 137
0 160 -36 20 -87 12 -109 -16z m87 -10 c30 -21 31 -87 1 -108 -56 -39 -109 54
-59 104 24 24 29 24 58 4z"/>
<path d="M5600 6680 c0 -73 3 -90 15 -90 12 0 15 13 15 60 0 47 4 64 20 80 16
16 25 18 40 10 17 -9 20 -21 20 -80 0 -63 2 -70 20 -70 18 0 20 7 20 63 0 81
-16 111 -58 115 -18 2 -40 -2 -48 -9 -10 -8 -14 -8 -14 0 0 6 -7 11 -15 11
-12 0 -15 -17 -15 -90z"/>
<path d="M8512 6737 c-31 -33 -31 -105 1 -135 30 -29 89 -30 117 -2 39 39 17
55 -27 21 -26 -21 -50 -18 -70 7 -22 27 -15 32 52 32 62 0 65 1 65 24 0 13 -9
35 -21 50 -27 35 -86 36 -117 3z m91 -19 l22 -23 -27 -3 c-16 -2 -40 -2 -55 0
l-28 3 23 23 c12 12 27 22 32 22 6 0 20 -10 33 -22z"/>
<path d="M8780 6669 c0 -72 3 -89 15 -89 11 0 15 12 15 49 0 65 14 99 41 103
12 2 24 9 26 15 3 9 -10 12 -46 12 l-51 -2 0 -88z"/>
<path d="M8890 6670 c0 -83 1 -90 20 -90 19 0 20 7 20 90 0 83 -1 90 -20 90
-19 0 -20 -7 -20 -90z"/>
<path d="M8991 6741 c-41 -41 -32 -137 14 -155 49 -19 115 5 115 42 0 17 -30
15 -36 -2 -13 -33 -84 -17 -84 20 0 11 15 14 65 14 36 0 65 4 65 9 0 23 -24
73 -40 81 -30 16 -79 11 -99 -9z m83 -17 c26 -25 19 -34 -29 -34 -49 0 -53 4
-28 32 20 22 37 23 57 2z"/>
<path d="M9143 6753 c3 -5 19 -45 37 -90 33 -88 53 -103 71 -55 59 152 59 152
40 152 -12 0 -24 -18 -41 -67 l-24 -67 -24 67 c-19 51 -29 67 -44 67 -11 0
-17 -3 -15 -7z"/>
<path d="M9350 6740 c-60 -60 -23 -160 58 -160 38 0 72 23 72 48 0 17 -30 15
-36 -2 -9 -23 -35 -28 -60 -11 -45 29 -31 45 41 45 36 0 65 4 65 9 0 23 -24
73 -40 81 -30 16 -79 11 -100 -10z m84 -16 c26 -25 19 -34 -29 -34 -49 0 -53
4 -28 32 20 22 37 23 57 2z"/>
<path d="M9923 6745 c-41 -29 -36 -132 7 -155 10 -6 34 -10 54 -10 45 0 76 37
76 90 0 54 -31 90 -79 90 -20 0 -46 -7 -58 -15z m82 -19 c24 -18 27 -92 5
-106 -21 -13 -54 -12 -68 2 -21 21 -15 85 10 102 27 19 29 20 53 2z"/>
<path d="M10090 6668 c0 -81 2 -88 20 -88 18 0 20 7 20 59 0 75 6 91 36 91 14
0 24 6 24 14 0 11 -13 15 -50 14 l-50 -1 0 -89z"/>
<path d="M10222 6737 c-31 -33 -31 -105 1 -135 30 -29 89 -30 117 -2 39 39 17
55 -27 21 -26 -21 -50 -18 -70 7 -22 27 -15 32 52 32 62 0 65 1 65 24 0 13 -9
35 -21 50 -27 35 -86 36 -117 3z m91 -19 l22 -23 -27 -3 c-16 -2 -40 -2 -55 0
l-28 3 23 23 c12 12 27 22 32 22 6 0 20 -10 33 -22z"/>
<path d="M6340 6378 c0 -9 5 -20 10 -23 13 -8 13 5 0 25 -8 13 -10 13 -10 -2z"/>
<path d="M10709 6363 c-3 -31 -7 -50 -14 -65 -12 -30 3 -20 18 12 11 21 12 30
3 34 -7 3 -7 5 2 5 14 1 17 21 2 21 -5 0 -10 -3 -11 -7z"/>
<path d="M6329 6330 c-1 -5 -2 -14 -3 -20 -1 -13 -42 -41 -50 -35 -3 3 -4 2
-1 -2 3 -3 -3 -12 -13 -19 -20 -15 -36 -18 -28 -5 4 5 -4 7 -16 3 l-22 -5 23
-9 c19 -6 33 -1 73 28 27 20 47 39 44 42 -3 3 -1 11 5 19 9 9 8 13 0 13 -6 0
-12 -4 -12 -10z"/>
<path d="M7903 6318 c3 -9 2 -18 -3 -20 -5 -2 2 -13 15 -25 20 -17 24 -18 22
-4 -1 9 -11 27 -21 41 -10 14 -16 17 -13 8z"/>
<path d="M4069 6298 c7 -10 10 -18 6 -18 -5 0 0 -9 9 -19 12 -13 26 -18 43
-15 17 3 22 1 17 -7 -4 -7 -2 -10 5 -8 21 7 7 24 -19 25 -31 0 -52 12 -45 24
3 4 -3 14 -13 21 -15 13 -16 12 -3 -3z"/>
<path d="M10654 6275 c-4 -8 -11 -12 -17 -8 -5 3 -7 1 -4 -5 10 -15 42 -8 45
11 4 21 -17 22 -24 2z"/>
<path d="M7973 6245 c0 -7 6 -12 14 -11 19 3 21 19 2 21 -9 2 -16 -3 -16 -10z"/>
<path d="M5148 6243 c7 -3 16 -2 19 1 4 3 -2 6 -13 5 -11 0 -14 -3 -6 -6z"/>
<path d="M5227 6237 c-3 -8 1 -14 8 -14 7 0 11 6 8 14 -3 7 -6 13 -8 13 -2 0
-5 -6 -8 -13z"/>
<path d="M6165 6239 c-4 -6 -5 -12 -2 -15 2 -3 7 2 10 11 7 17 1 20 -8 4z"/>
<path d="M8048 6243 c7 -3 16 -2 19 1 4 3 -2 6 -13 5 -11 0 -14 -3 -6 -6z"/>
<path d="M9320 6246 c0 -2 7 -9 15 -16 12 -10 15 -10 15 4 0 9 -7 16 -15 16
-8 0 -15 -2 -15 -4z"/>
<path d="M4187 6228 c-7 -4 200 -7 458 -6 259 1 434 3 390 5 -184 7 -838 7
-848 1z"/>
<path d="M5260 6228 c0 -4 186 -6 413 -6 226 1 363 3 302 5 -260 7 -715 7
-715 1z"/>
<path d="M8373 6223 c170 -2 444 -2 610 0 166 1 28 2 -308 2 -335 0 -471 -1
-302 -2z"/>
<path d="M9717 6223 c155 -2 411 -2 570 0 158 1 32 2 -282 2 -313 0 -443 -1
-288 -2z"/>
<path d="M8158 4738 c16 -16 1082 -19 1082 -3 0 6 4 5 8 -1 5 -9 10 -8 19 2
11 11 -83 13 -554 14 -460 0 -565 -2 -555 -12z"/>
<path d="M9326 4734 c-5 -14 -4 -15 9 -4 11 9 15 9 15 1 0 -7 5 -9 11 -5 8 4
7 9 -2 15 -20 12 -26 11 -33 -7z"/>
<path d="M9390 4740 c-11 -7 -6 -10 23 -11 99 -4 964 -5 974 -1 7 2 10 8 7 13
-7 12 -985 11 -1004 -1z"/>
<path d="M8110 4729 c12 -9 10 -10 -7 -6 -15 3 -23 0 -23 -8 0 -11 6 -12 30
-4 36 13 39 24 8 26 -19 2 -20 0 -8 -8z"/>
<path d="M10480 4729 c-22 -6 -10 -14 14 -10 5 1 13 -4 17 -11 5 -7 9 -8 9 -3
0 22 -16 31 -40 24z"/>
<path d="M9278 4723 c7 -3 16 -2 19 1 4 3 -2 6 -13 5 -11 0 -14 -3 -6 -6z"/>
<path d="M10545 4700 c-3 -5 4 -15 15 -23 11 -7 17 -17 13 -21 -4 -4 1 -4 11
0 17 7 17 8 -4 19 -16 9 -19 14 -10 17 11 3 10 6 -3 11 -9 3 -19 2 -22 -3z"/>
<path d="M8030 4696 c0 -2 7 -7 16 -10 8 -3 12 -2 9 4 -6 10 -25 14 -25 6z"/>
<path d="M8007 4660 c-10 -12 -12 -20 -5 -20 6 0 3 -9 -7 -20 -10 -11 -15 -26
-11 -35 6 -18 26 -11 26 8 0 7 -4 6 -10 -3 -8 -13 -10 -13 -10 1 0 9 7 22 15
29 8 6 14 15 13 18 -2 20 3 32 12 27 6 -3 10 -1 10 4 0 17 -14 13 -33 -9z"/>
<path d="M10595 4639 c-4 -6 -5 -12 -2 -15 2 -3 7 2 10 11 7 17 1 20 -8 4z"/>
<path d="M10611 4593 c-1 -6 -4 -20 -7 -30 -5 -17 -5 -17 6 0 6 10 9 23 6 30
-3 9 -5 9 -5 0z"/>
<path d="M7985 4000 c0 -311 1 -438 2 -283 2 156 2 410 0 565 -1 156 -2 29 -2
-282z"/>
<path d="M8005 4030 c0 -289 1 -407 2 -262 2 144 2 380 0 525 -1 144 -2 26 -2
-263z"/>
<path d="M10603 4000 c-1 -261 1 -493 5 -514 6 -36 5 778 -1 924 -2 36 -4
-149 -4 -410z"/>
<path d="M8780 4215 c0 -104 2 -125 15 -125 12 0 15 13 15 60 l0 61 63 -3 62
-3 3 -57 c2 -43 7 -58 17 -58 12 0 15 22 15 125 0 104 -2 125 -15 125 -11 0
-15 -12 -15 -50 l0 -50 -65 0 -65 0 0 50 c0 38 -4 50 -15 50 -13 0 -15 -21
-15 -125z"/>
<path d="M9020 4196 c0 -54 4 -79 16 -90 18 -18 56 -21 85 -6 13 7 19 7 19 0
0 -5 5 -10 10 -10 6 0 10 37 10 90 0 73 -3 90 -15 90 -12 0 -15 -14 -15 -63 0
-67 -10 -87 -46 -87 -28 0 -34 17 -34 91 0 46 -3 59 -15 59 -12 0 -15 -15 -15
-74z"/>
<path d="M9210 4180 c0 -73 3 -90 15 -90 12 0 15 13 15 60 0 46 4 64 20 80 35
35 50 16 50 -66 0 -67 2 -74 20 -74 18 0 20 7 20 70 0 56 3 71 18 79 11 6 24
6 35 0 14 -8 17 -24 17 -79 0 -56 3 -70 15 -70 12 0 15 15 15 78 0 47 -5 83
-12 90 -16 16 -70 15 -87 0 -11 -10 -14 -10 -18 0 -6 15 -65 16 -81 0 -9 -9
-12 -9 -12 0 0 7 -7 12 -15 12 -12 0 -15 -17 -15 -90z"/>
<path d="M9506 4248 c-21 -30 1 -45 27 -17 21 22 36 24 62 6 26 -20 12 -34
-40 -41 -60 -10 -86 -43 -61 -81 18 -27 61 -34 97 -15 13 7 19 7 19 0 0 -5 8
-10 18 -10 16 0 17 8 14 73 -6 98 -12 107 -72 107 -39 0 -52 -4 -64 -22z m98
-102 c-13 -34 -84 -43 -84 -11 0 17 20 32 50 37 31 5 43 -4 34 -26z"/>
<path d="M9680 4180 c0 -83 1 -90 20 -90 18 0 20 7 20 63 0 66 5 80 32 90 31
11 48 -19 48 -89 0 -50 3 -64 15 -64 22 0 21 142 -1 164 -18 19 -75 21 -92 4
-9 -9 -12 -9 -12 0 0 7 -7 12 -15 12 -12 0 -15 -17 -15 -90z"/>
<path d="M8770 3825 c0 -104 2 -125 15 -125 12 0 15 13 15 55 0 54 1 55 28 55
29 0 63 -29 97 -82 9 -16 26 -28 36 -28 26 0 24 5 -17 63 -23 31 -32 53 -25
55 27 9 42 36 39 71 -4 46 -32 61 -120 61 l-68 0 0 -125z m144 79 c34 -34 4
-64 -65 -64 l-49 0 0 40 0 40 49 0 c32 0 55 -6 65 -16z"/>
<path d="M9370 3930 c0 -11 7 -20 15 -20 8 0 15 9 15 20 0 11 -7 20 -15 20 -8
0 -15 -9 -15 -20z"/>
<path d="M9021 3854 c-13 -16 -21 -41 -21 -64 0 -54 31 -90 79 -90 40 0 81 23
81 46 0 20 -17 18 -47 -6 -28 -22 -54 -15 -73 20 -10 19 -7 20 55 20 l65 0 0
30 c0 68 -96 98 -139 44z m87 -10 c34 -23 27 -34 -23 -34 -48 0 -62 19 -27 39
23 14 24 14 50 -5z"/>
<path d="M9204 3818 c13 -35 29 -75 35 -90 18 -48 37 -33 70 53 35 92 36 99
17 99 -8 0 -24 -28 -38 -67 l-25 -66 -24 66 c-17 48 -29 67 -41 67 -16 0 -16
-5 6 -62z"/>
<path d="M9370 3790 c0 -73 3 -90 15 -90 12 0 15 17 15 90 0 73 -3 90 -15 90
-12 0 -15 -17 -15 -90z"/>
<path d="M9462 3857 c-31 -33 -31 -105 1 -135 30 -29 89 -30 117 -2 11 11 20
25 20 30 0 17 -29 11 -50 -10 -21 -21 -46 -18 -67 8 -22 27 -15 32 52 32 62 0
65 1 65 24 0 13 -9 35 -21 50 -27 35 -86 36 -117 3z m91 -19 l22 -23 -27 -3
c-16 -2 -40 -2 -55 0 l-28 3 23 23 c12 12 27 22 32 22 6 0 20 -10 33 -22z"/>
<path d="M9620 3868 c0 -7 11 -47 24 -88 31 -97 52 -101 76 -15 l17 60 12 -45
c7 -25 14 -53 17 -62 3 -10 13 -18 23 -18 13 0 24 21 44 87 14 48 24 89 22 92
-13 12 -32 -13 -44 -58 -7 -28 -16 -51 -20 -51 -4 0 -14 25 -21 55 -19 78 -42
75 -65 -7 -19 -68 -23 -67 -45 20 -7 25 -17 42 -25 42 -8 0 -15 -6 -15 -12z"/>
<path d="M10591 3444 c0 -11 3 -14 6 -6 3 7 2 16 -1 19 -3 4 -6 -2 -5 -13z"/>
<path d="M7995 3400 c-7 -12 12 -50 25 -50 6 0 10 7 10 15 0 8 -7 15 -15 15
-9 0 -12 6 -9 15 7 17 -1 20 -11 5z"/>
<path d="M10589 3400 c-1 -8 -1 -21 0 -28 1 -7 -2 -11 -6 -10 -9 3 -16 -11 -7
-14 14 -6 33 37 24 52 -9 13 -10 13 -11 0z"/>
<path d="M8020 3336 c0 -2 7 -7 16 -10 8 -3 12 -2 9 4 -6 10 -25 14 -25 6z"/>
<path d="M10526 3325 c-19 -14 -19 -15 6 -15 15 0 30 4 33 10 4 6 -1 7 -11 3
-12 -4 -15 -3 -10 5 9 15 5 15 -18 -3z"/>
<path d="M8061 3325 c-2 -18 20 -34 37 -28 11 5 13 3 7 -7 -6 -9 -4 -11 5 -5
10 6 9 11 -5 21 -10 7 -21 11 -26 9 -4 -3 -10 1 -12 7 -3 7 -6 8 -6 3z"/>
<path d="M8140 3295 c-8 -9 504 -10 995 -2 88 1 -98 5 -413 7 -376 3 -577 2
-582 -5z"/>
<path d="M9340 3297 c0 -5 -6 -5 -12 -1 -8 4 -8 2 1 -7 9 -10 15 -11 18 -3 2
7 12 10 21 7 29 -7 1051 -8 1038 -1 -18 10 -1066 15 -1066 5z"/>
<path d="M10439 3296 c13 -16 53 -18 44 -3 -3 5 5 6 18 3 22 -6 22 -6 5 5 -15
9 -24 9 -38 0 -11 -7 -18 -7 -18 -1 0 5 -5 10 -11 10 -8 0 -8 -4 0 -14z"/>
<path d="M8403 2039 c-203 -34 -375 -191 -437 -398 -20 -70 -21 -255 -1 -330
25 -96 65 -162 144 -242 52 -51 97 -86 141 -107 126 -62 121 -62 1044 -62 563
0 861 4 905 11 143 24 306 134 376 253 91 155 108 360 45 529 -64 172 -239
316 -421 346 -86 14 -875 15 -884 1 -4 -7 -12 -7 -25 0 -23 12 -812 12 -887
-1z m1871 -51 c112 -38 241 -153 294 -261 44 -89 55 -150 50 -285 -5 -139 -26
-201 -97 -295 -85 -113 -202 -184 -343 -207 -39 -6 -374 -10 -888 -10 -910 0
-906 0 -1029 62 -122 62 -230 198 -266 333 -17 68 -20 197 -5 276 29 158 165
315 329 381 55 22 67 23 511 28 250 3 667 3 925 0 403 -5 477 -8 519 -22z"/>
<path d="M9020 1485 l0 -125 95 0 c78 0 95 3 95 15 0 12 -15 15 -75 15 l-75 0
0 40 0 40 65 0 c51 0 65 3 65 15 0 12 -14 15 -65 15 l-65 0 0 40 0 40 70 0
c56 0 70 3 70 15 0 12 -17 15 -90 15 l-90 0 0 -125z"/>
<path d="M9550 1572 l0 -37 -44 3 c-55 5 -76 -20 -76 -90 0 -68 23 -88 95 -87
l55 2 0 123 c0 104 -2 124 -15 124 -11 0 -15 -11 -15 -38z m-10 -83 c14 -25
12 -73 -2 -87 -7 -7 -22 -12 -35 -12 -43 0 -59 74 -23 110 22 22 45 18 60 -11z"/>
<path d="M9250 1449 c0 -72 3 -89 15 -89 12 0 15 14 15 64 0 70 12 90 52 84
21 -3 23 -8 26 -75 2 -56 6 -73 17 -73 21 0 22 152 1 169 -7 6 -38 10 -70 10
l-56 -2 0 -88z"/>
<path d="M4185 1946 c-76 -19 -153 -63 -217 -124 -119 -113 -160 -213 -161
-387 -1 -117 8 -164 51 -254 36 -75 149 -189 226 -225 118 -56 113 -56 1096
-56 563 0 930 4 970 10 188 30 367 195 409 380 16 67 13 227 -4 295 -9 32 -28
81 -43 109 -35 66 -143 174 -208 208 -111 59 -81 58 -1118 57 -719 -1 -963 -4
-1001 -13z m1988 -31 c124 -32 226 -107 298 -218 64 -99 88 -271 54 -400 -48
-183 -204 -328 -385 -357 -88 -13 -1812 -13 -1900 0 -178 28 -344 177 -390
349 -20 75 -15 238 10 311 53 158 197 289 350 319 25 5 464 9 975 10 795 1
939 -1 988 -14z"/>
<path d="M4703 1543 c-3 -10 -23 -62 -45 -116 -44 -112 -45 -117 -19 -117 12
0 21 11 27 33 9 30 13 32 61 35 51 3 53 2 67 -32 10 -25 21 -36 36 -36 20 0
20 1 4 38 -8 20 -31 76 -51 125 -27 67 -39 87 -54 87 -11 0 -22 -8 -26 -17z
m42 -69 c22 -52 19 -64 -13 -64 -16 0 -31 2 -34 5 -5 5 23 95 29 95 2 0 10
-16 18 -36z"/>
<path d="M4870 1399 c0 -72 3 -89 15 -89 12 0 15 14 15 64 0 70 12 90 52 84
21 -3 23 -8 26 -75 2 -56 6 -73 17 -73 21 0 22 152 1 169 -7 6 -38 10 -70 10
l-56 -2 0 -88z"/>
<path d="M5062 1478 c-32 -32 -3 -78 61 -93 35 -9 44 -25 23 -40 -20 -15 -55
-8 -63 11 -7 18 -33 18 -33 0 0 -26 30 -46 69 -46 50 0 74 18 69 54 -3 31 -10
37 -72 61 -33 13 -37 17 -26 30 13 16 49 11 61 -7 4 -6 14 -8 23 -6 15 3 15 5
1 26 -12 17 -26 22 -59 22 -23 0 -47 -5 -54 -12z"/>
<path d="M5210 1485 c0 -4 12 -45 26 -91 19 -64 29 -84 43 -84 13 0 21 14 31
55 7 30 16 55 20 55 4 0 12 -25 19 -55 10 -43 17 -55 31 -55 15 0 24 18 44 84
30 99 30 96 11 96 -10 0 -21 -21 -32 -61 -18 -66 -22 -65 -43 19 -8 30 -16 42
-29 42 -15 0 -22 -12 -31 -52 -18 -77 -22 -78 -40 -13 -11 39 -22 61 -33 63
-9 2 -17 0 -17 -3z"/>
<path d="M5492 1467 c-31 -33 -31 -105 1 -135 30 -29 89 -30 117 -2 11 11 20
25 20 30 0 16 -37 12 -44 -5 -8 -22 -63 -19 -76 4 -5 11 -10 22 -10 25 0 3 29
6 65 6 65 0 65 0 65 28 0 65 -93 97 -138 49z m91 -19 l22 -23 -27 -3 c-16 -2
-40 -2 -55 0 l-28 3 23 23 c12 12 27 22 32 22 6 0 20 -10 33 -22z"/>
<path d="M5670 1399 c0 -72 3 -89 15 -89 12 0 15 14 15 63 0 65 11 87 42 87
10 0 18 7 18 15 0 10 -12 14 -45 13 l-45 -1 0 -88z"/>
</g>
</svg>
