<?xml version="1.0" encoding="UTF-8" standalone="no"?>
<!DOCTYPE svg PUBLIC "-//W3C//DTD SVG 1.1//EN"
 "http://www.w3.org/Graphics/SVG/1.1/DTD/svg11.dtd">
<!-- Generated by graphviz version 2.43.0 (0)
 -->
<!-- Title: SearchFlow Pages: 1 -->
<svg width="616pt" height="944pt"
 viewBox="0.00 0.00 615.60 943.60" xmlns="http://www.w3.org/2000/svg" xmlns:xlink="http://www.w3.org/1999/xlink">
<g id="graph0" class="graph" transform="scale(1 1) rotate(0) translate(28.8 914.8)">
<title>SearchFlow</title>
<polygon fill="white" stroke="transparent" points="-28.8,28.8 -28.8,-914.8 586.8,-914.8 586.8,28.8 -28.8,28.8"/>
<!-- Start -->
<g id="node1" class="node">
<title>Start</title>
<path fill="#e85d75" stroke="black" d="M466.5,-886C466.5,-886 359.5,-886 359.5,-886 353.5,-886 347.5,-880 347.5,-874 347.5,-874 347.5,-854 347.5,-854 347.5,-848 353.5,-842 359.5,-842 359.5,-842 466.5,-842 466.5,-842 472.5,-842 478.5,-848 478.5,-854 478.5,-854 478.5,-874 478.5,-874 478.5,-880 472.5,-886 466.5,-886"/>
<text text-anchor="middle" x="413" y="-867.8" font-family="Helvetica,sans-Serif" font-size="11.50" fill="white">Staff taps &#39;Search&#39;</text>
<text text-anchor="middle" x="413" y="-854.8" font-family="Helvetica,sans-Serif" font-size="11.50" fill="white">from home screen</text>
</g>
<!-- Empty -->
<g id="node2" class="node">
<title>Empty</title>
<path fill="#fff8f9" stroke="#e85d75" d="M476,-801C476,-801 350,-801 350,-801 344,-801 338,-795 338,-789 338,-789 338,-756 338,-756 338,-750 344,-744 350,-744 350,-744 476,-744 476,-744 482,-744 488,-750 488,-756 488,-756 488,-789 488,-789 488,-795 482,-801 476,-801"/>
<text text-anchor="middle" x="413" y="-782.8" font-family="Helvetica,sans-Serif" font-size="11.50">Search screen shows</text>
<text text-anchor="middle" x="413" y="-769.8" font-family="Helvetica,sans-Serif" font-size="11.50">empty state:</text>
<text text-anchor="middle" x="413" y="-756.8" font-family="Helvetica,sans-Serif" font-size="11.50">&quot;Type a color or style&quot;</text>
</g>
<!-- Start&#45;&gt;Empty -->
<g id="edge1" class="edge">
<title>Start&#45;&gt;Empty</title>
<path fill="none" stroke="#8a8a8a" stroke-width="1.3" d="M413,-841.79C413,-832.64 413,-821.66 413,-811.2"/>
<polygon fill="#8a8a8a" stroke="#8a8a8a" stroke-width="1.3" points="416.5,-811 413,-801 409.5,-811 416.5,-811"/>
</g>
<!-- Type -->
<g id="node3" class="node">
<title>Type</title>
<path fill="#f3a6b2" stroke="black" d="M471.5,-703C471.5,-703 354.5,-703 354.5,-703 348.5,-703 342.5,-697 342.5,-691 342.5,-691 342.5,-671 342.5,-671 342.5,-665 348.5,-659 354.5,-659 354.5,-659 471.5,-659 471.5,-659 477.5,-659 483.5,-665 483.5,-671 483.5,-671 483.5,-691 483.5,-691 483.5,-697 477.5,-703 471.5,-703"/>
<text text-anchor="middle" x="413" y="-684.8" font-family="Helvetica,sans-Serif" font-size="11.50">Staff types keyword</text>
<text text-anchor="middle" x="413" y="-671.8" font-family="Helvetica,sans-Serif" font-size="11.50">(e.g. &quot;nude glitter&quot;)</text>
</g>
<!-- Empty&#45;&gt;Type -->
<g id="edge2" class="edge">
<title>Empty&#45;&gt;Type</title>
<path fill="none" stroke="#8a8a8a" stroke-width="1.3" d="M413,-743.67C413,-734.1 413,-723.32 413,-713.48"/>
<polygon fill="#8a8a8a" stroke="#8a8a8a" stroke-width="1.3" points="416.5,-713.27 413,-703.27 409.5,-713.27 416.5,-713.27"/>
</g>
<!-- Query -->
<g id="node4" class="node">
<title>Query</title>
<path fill="#cdb4db" stroke="black" d="M472.5,-618C472.5,-618 353.5,-618 353.5,-618 347.5,-618 341.5,-612 341.5,-606 341.5,-606 341.5,-586 341.5,-586 341.5,-580 347.5,-574 353.5,-574 353.5,-574 472.5,-574 472.5,-574 478.5,-574 484.5,-580 484.5,-586 484.5,-586 484.5,-606 484.5,-606 484.5,-612 478.5,-618 472.5,-618"/>
<text text-anchor="middle" x="413" y="-599.8" font-family="Helvetica,sans-Serif" font-size="11.50">System runs search</text>
<text text-anchor="middle" x="413" y="-586.8" font-family="Helvetica,sans-Serif" font-size="11.50">(debounced 300ms)</text>
</g>
<!-- Type&#45;&gt;Query -->
<g id="edge3" class="edge">
<title>Type&#45;&gt;Query</title>
<path fill="none" stroke="#8a8a8a" stroke-width="1.3" d="M413,-658.63C413,-649.36 413,-638.32 413,-628.17"/>
<polygon fill="#8a8a8a" stroke="#8a8a8a" stroke-width="1.3" points="416.5,-628.01 413,-618.01 409.5,-628.01 416.5,-628.01"/>
</g>
<!-- Grid -->
<g id="node5" class="node">
<title>Grid</title>
<path fill="#f3a6b2" stroke="black" d="M471.5,-533C471.5,-533 354.5,-533 354.5,-533 348.5,-533 342.5,-527 342.5,-521 342.5,-521 342.5,-501 342.5,-501 342.5,-495 348.5,-489 354.5,-489 354.5,-489 471.5,-489 471.5,-489 477.5,-489 483.5,-495 483.5,-501 483.5,-501 483.5,-521 483.5,-521 483.5,-527 477.5,-533 471.5,-533"/>
<text text-anchor="middle" x="413" y="-514.8" font-family="Helvetica,sans-Serif" font-size="11.50">Top 6 results shown</text>
<text text-anchor="middle" x="413" y="-501.8" font-family="Helvetica,sans-Serif" font-size="11.50">as 3x3 image grid</text>
</g>
<!-- Query&#45;&gt;Grid -->
<g id="edge4" class="edge">
<title>Query&#45;&gt;Grid</title>
<path fill="none" stroke="#8a8a8a" stroke-width="1.3" d="M413,-573.63C413,-564.36 413,-553.32 413,-543.17"/>
<polygon fill="#8a8a8a" stroke="#8a8a8a" stroke-width="1.3" points="416.5,-543.01 413,-533.01 409.5,-543.01 416.5,-543.01"/>
</g>
<!-- Filter -->
<g id="node6" class="node">
<title>Filter</title>
<path fill="#f3a6b2" stroke="black" d="M401,-438C401,-438 287,-438 287,-438 281,-438 275,-432 275,-426 275,-426 275,-393 275,-393 275,-387 281,-381 287,-381 287,-381 401,-381 401,-381 407,-381 413,-387 413,-393 413,-393 413,-426 413,-426 413,-432 407,-438 401,-438"/>
<text text-anchor="middle" x="344" y="-419.8" font-family="Helvetica,sans-Serif" font-size="11.50">Staff applies filters:</text>
<text text-anchor="middle" x="344" y="-406.8" font-family="Helvetica,sans-Serif" font-size="11.50">Occasion (multi) /</text>
<text text-anchor="middle" x="344" y="-393.8" font-family="Helvetica,sans-Serif" font-size="11.50">Complexity</text>
</g>
<!-- Grid&#45;&gt;Filter -->
<g id="edge5" class="edge">
<title>Grid&#45;&gt;Filter</title>
<path fill="none" stroke="#8a8a8a" stroke-width="1.3" d="M398.37,-488.9C389.85,-476.62 378.88,-460.8 369.03,-446.59"/>
<polygon fill="#8a8a8a" stroke="#8a8a8a" stroke-width="1.3" points="371.65,-444.22 363.07,-438 365.89,-448.21 371.65,-444.22"/>
<text text-anchor="middle" x="402" y="-461" font-family="Helvetica,sans-Serif" font-size="10.00">optional</text>
</g>
<!-- Tap -->
<g id="node10" class="node">
<title>Tap</title>
<path fill="#f3a6b2" stroke="black" d="M343.5,-142C343.5,-142 246.5,-142 246.5,-142 240.5,-142 234.5,-136 234.5,-130 234.5,-130 234.5,-110 234.5,-110 234.5,-104 240.5,-98 246.5,-98 246.5,-98 343.5,-98 343.5,-98 349.5,-98 355.5,-104 355.5,-110 355.5,-110 355.5,-130 355.5,-130 355.5,-136 349.5,-142 343.5,-142"/>
<text text-anchor="middle" x="295" y="-123.8" font-family="Helvetica,sans-Serif" font-size="11.50">Staff taps a</text>
<text text-anchor="middle" x="295" y="-110.8" font-family="Helvetica,sans-Serif" font-size="11.50">result thumbnail</text>
</g>
<!-- Grid&#45;&gt;Tap -->
<g id="edge11" class="edge">
<title>Grid&#45;&gt;Tap</title>
<path fill="none" stroke="#8a8a8a" stroke-width="1.3" d="M438.71,-488.72C457.96,-470.27 481,-441.68 481,-410.5 481,-410.5 481,-410.5 481,-223 481,-168.25 418.27,-142.69 365.67,-130.88"/>
<polygon fill="#8a8a8a" stroke="#8a8a8a" stroke-width="1.3" points="366.15,-127.41 355.65,-128.77 364.71,-134.26 366.15,-127.41"/>
<text text-anchor="middle" x="519.5" y="-315.5" font-family="Helvetica,sans-Serif" font-size="10.00">no filter needed</text>
</g>
<!-- Refine -->
<g id="node7" class="node">
<title>Refine</title>
<path fill="#cdb4db" stroke="black" d="M241,-340C241,-340 137,-340 137,-340 131,-340 125,-334 125,-328 125,-328 125,-308 125,-308 125,-302 131,-296 137,-296 137,-296 241,-296 241,-296 247,-296 253,-302 253,-308 253,-308 253,-328 253,-328 253,-334 247,-340 241,-340"/>
<text text-anchor="middle" x="189" y="-321.8" font-family="Helvetica,sans-Serif" font-size="11.50">Results refine live</text>
<text text-anchor="middle" x="189" y="-308.8" font-family="Helvetica,sans-Serif" font-size="11.50">(no page reload)</text>
</g>
<!-- Filter&#45;&gt;Refine -->
<g id="edge6" class="edge">
<title>Filter&#45;&gt;Refine</title>
<path fill="none" stroke="#8a8a8a" stroke-width="1.3" d="M296.23,-380.92C276.48,-369.51 253.7,-356.36 234.23,-345.12"/>
<polygon fill="#8a8a8a" stroke="#8a8a8a" stroke-width="1.3" points="235.95,-342.07 225.54,-340.1 232.45,-348.13 235.95,-342.07"/>
</g>
<!-- CheckCount -->
<g id="node8" class="node">
<title>CheckCount</title>
<polygon fill="#fff8f9" stroke="#e85d75" points="108,-255 0,-224 108,-193 216,-224 108,-255"/>
<text text-anchor="middle" x="108" y="-221.3" font-family="Helvetica,sans-Serif" font-size="11.50">Results &gt;= 3?</text>
</g>
<!-- Refine&#45;&gt;CheckCount -->
<g id="edge7" class="edge">
<title>Refine&#45;&gt;CheckCount</title>
<path fill="none" stroke="#8a8a8a" stroke-width="1.3" d="M170.21,-295.66C160.07,-284.15 147.36,-269.7 136.06,-256.88"/>
<polygon fill="#8a8a8a" stroke="#8a8a8a" stroke-width="1.3" points="138.49,-254.33 129.26,-249.14 133.24,-258.96 138.49,-254.33"/>
</g>
<!-- Banner -->
<g id="node9" class="node">
<title>Banner</title>
<path fill="#fff8f9" stroke="#e85d75" d="M420,-252.5C420,-252.5 292,-252.5 292,-252.5 286,-252.5 280,-246.5 280,-240.5 280,-240.5 280,-207.5 280,-207.5 280,-201.5 286,-195.5 292,-195.5 292,-195.5 420,-195.5 420,-195.5 426,-195.5 432,-201.5 432,-207.5 432,-207.5 432,-240.5 432,-240.5 432,-246.5 426,-252.5 420,-252.5"/>
<text text-anchor="middle" x="356" y="-234.3" font-family="Helvetica,sans-Serif" font-size="11.50">Banner:</text>
<text text-anchor="middle" x="356" y="-221.3" font-family="Helvetica,sans-Serif" font-size="11.50">&quot;No matching result,</text>
<text text-anchor="middle" x="356" y="-208.3" font-family="Helvetica,sans-Serif" font-size="11.50">try removing a filter?&quot;</text>
</g>
<!-- CheckCount&#45;&gt;Banner -->
<g id="edge8" class="edge">
<title>CheckCount&#45;&gt;Banner</title>
<path fill="none" stroke="#8a8a8a" stroke-width="1.3" d="M216.05,-224C234.06,-224 252.52,-224 269.88,-224"/>
<polygon fill="#8a8a8a" stroke="#8a8a8a" stroke-width="1.3" points="269.97,-227.5 279.97,-224 269.97,-220.5 269.97,-227.5"/>
<text text-anchor="middle" x="248" y="-230" font-family="Helvetica,sans-Serif" font-size="10.00">No</text>
</g>
<!-- CheckCount&#45;&gt;Tap -->
<g id="edge10" class="edge">
<title>CheckCount&#45;&gt;Tap</title>
<path fill="none" stroke="#8a8a8a" stroke-width="1.3" d="M144.06,-203.33C173.55,-187.25 215.49,-164.37 247.68,-146.81"/>
<polygon fill="#8a8a8a" stroke="#8a8a8a" stroke-width="1.3" points="249.38,-149.87 256.48,-142.01 246.03,-143.73 249.38,-149.87"/>
<text text-anchor="middle" x="227" y="-165" font-family="Helvetica,sans-Serif" font-size="10.00">Yes</text>
</g>
<!-- Banner&#45;&gt;Filter -->
<g id="edge9" class="edge">
<title>Banner&#45;&gt;Filter</title>
<path fill="none" stroke="#8a8a8a" stroke-width="1.3" d="M354.2,-252.53C352.15,-283.83 348.8,-335.11 346.5,-370.28"/>
<polygon fill="#8a8a8a" stroke="#8a8a8a" stroke-width="1.3" points="342.98,-370.42 345.82,-380.63 349.97,-370.88 342.98,-370.42"/>
<text text-anchor="middle" x="387.5" y="-315.5" font-family="Helvetica,sans-Serif" font-size="10.00">remove a filter</text>
</g>
<!-- Fullscreen -->
<g id="node11" class="node">
<title>Fullscreen</title>
<path fill="#e85d75" stroke="black" d="M360.5,-57C360.5,-57 229.5,-57 229.5,-57 223.5,-57 217.5,-51 217.5,-45 217.5,-45 217.5,-12 217.5,-12 217.5,-6 223.5,0 229.5,0 229.5,0 360.5,0 360.5,0 366.5,0 372.5,-6 372.5,-12 372.5,-12 372.5,-45 372.5,-45 372.5,-51 366.5,-57 360.5,-57"/>
<text text-anchor="middle" x="295" y="-38.8" font-family="Helvetica,sans-Serif" font-size="11.50" fill="white">Fullscreen view opens</text>
<text text-anchor="middle" x="295" y="-25.8" font-family="Helvetica,sans-Serif" font-size="11.50" fill="white">(&lt; 1 second)</text>
<text text-anchor="middle" x="295" y="-12.8" font-family="Helvetica,sans-Serif" font-size="11.50" fill="white">u2192 show customer</text>
</g>
<!-- Tap&#45;&gt;Fullscreen -->
<g id="edge12" class="edge">
<title>Tap&#45;&gt;Fullscreen</title>
<path fill="none" stroke="#8a8a8a" stroke-width="1.3" d="M295,-97.79C295,-88.64 295,-77.66 295,-67.2"/>
<polygon fill="#8a8a8a" stroke="#8a8a8a" stroke-width="1.3" points="298.5,-67 295,-57 291.5,-67 298.5,-67"/>
</g>
</g>
</svg>
