<?xml version="1.0" encoding="UTF-8" standalone="no"?>
<!DOCTYPE svg PUBLIC "-//W3C//DTD SVG 1.1//EN"
 "http://www.w3.org/Graphics/SVG/1.1/DTD/svg11.dtd">
<!-- Generated by graphviz version 2.43.0 (0)
 -->
<!-- Title: StakeholderMap Pages: 1 -->
<svg width="1017pt" height="342pt"
 viewBox="0.00 0.00 1016.60 341.60" xmlns="http://www.w3.org/2000/svg" xmlns:xlink="http://www.w3.org/1999/xlink">
<g id="graph0" class="graph" transform="scale(1 1) rotate(0) translate(28.8 312.8)">
<title>StakeholderMap</title>
<polygon fill="white" stroke="transparent" points="-28.8,28.8 -28.8,-312.8 987.8,-312.8 987.8,28.8 -28.8,28.8"/>
<!-- Core -->
<g id="node1" class="node">
<title>Core</title>
<path fill="#e85d75" stroke="black" d="M947,-178C947,-178 781,-178 781,-178 775,-178 769,-172 769,-166 769,-166 769,-118 769,-118 769,-112 775,-106 781,-106 781,-106 947,-106 947,-106 953,-106 959,-112 959,-118 959,-118 959,-166 959,-166 959,-172 953,-178 947,-178"/>
<text text-anchor="middle" x="864" y="-147" font-family="Helvetica,sans-Serif" font-size="15.00" fill="white">ManiFolio</text>
<text text-anchor="middle" x="864" y="-130" font-family="Helvetica,sans-Serif" font-size="15.00" fill="white">Shared Photo Library</text>
</g>
<!-- Owner -->
<g id="node2" class="node">
<title>Owner</title>
<path fill="#f3a6b2" stroke="black" d="M598.5,-284C598.5,-284 364.5,-284 364.5,-284 358.5,-284 352.5,-278 352.5,-272 352.5,-272 352.5,-230 352.5,-230 352.5,-224 358.5,-218 364.5,-218 364.5,-218 598.5,-218 598.5,-218 604.5,-218 610.5,-224 610.5,-230 610.5,-230 610.5,-272 610.5,-272 610.5,-278 604.5,-284 598.5,-284"/>
<text text-anchor="middle" x="481.5" y="-261.6" font-family="Helvetica,sans-Serif" font-size="13.00" fill="#2b2b2b">Salon Owner</text>
<text text-anchor="middle" x="481.5" y="-247.6" font-family="Helvetica,sans-Serif" font-size="13.00" fill="#2b2b2b">(Primary persona)</text>
<text text-anchor="middle" x="481.5" y="-233.6" font-family="Helvetica,sans-Serif" font-size="13.00" fill="#2b2b2b">Manages salon, staff &amp; customers</text>
</g>
<!-- Owner&#45;&gt;Core -->
<g id="edge1" class="edge">
<title>Owner&#45;&gt;Core</title>
<path fill="none" stroke="#8a8a8a" stroke-width="1.3" d="M607.66,-215.15C656.65,-201.11 712.19,-185.2 758.93,-171.81"/>
<polygon fill="#8a8a8a" stroke="#8a8a8a" stroke-width="1.3" points="606.6,-211.81 597.95,-217.93 608.53,-218.54 606.6,-211.81"/>
<polygon fill="#8a8a8a" stroke="#8a8a8a" stroke-width="1.3" points="760.12,-175.11 768.77,-168.99 758.19,-168.38 760.12,-175.11"/>
<text text-anchor="middle" x="692" y="-218.6" font-family="Helvetica,sans-Serif" font-size="10.50">manages library</text>
<text text-anchor="middle" x="692" y="-206.6" font-family="Helvetica,sans-Serif" font-size="10.50">&amp; salon settings</text>
</g>
<!-- Staff -->
<g id="node3" class="node">
<title>Staff</title>
<path fill="#f3a6b2" stroke="black" d="M603,-175C603,-175 360,-175 360,-175 354,-175 348,-169 348,-163 348,-163 348,-121 348,-121 348,-115 354,-109 360,-109 360,-109 603,-109 603,-109 609,-109 615,-115 615,-121 615,-121 615,-163 615,-163 615,-169 609,-175 603,-175"/>
<text text-anchor="middle" x="481.5" y="-152.6" font-family="Helvetica,sans-Serif" font-size="13.00" fill="#2b2b2b">Salon Staff</text>
<text text-anchor="middle" x="481.5" y="-138.6" font-family="Helvetica,sans-Serif" font-size="13.00" fill="#2b2b2b">(Secondary persona)</text>
<text text-anchor="middle" x="481.5" y="-124.6" font-family="Helvetica,sans-Serif" font-size="13.00" fill="#2b2b2b">Advises customers, uploads photos</text>
</g>
<!-- Staff&#45;&gt;Core -->
<g id="edge2" class="edge">
<title>Staff&#45;&gt;Core</title>
<path fill="none" stroke="#8a8a8a" stroke-width="1.3" d="M625.23,-142C669.6,-142 717.67,-142 758.89,-142"/>
<polygon fill="#8a8a8a" stroke="#8a8a8a" stroke-width="1.3" points="625.05,-138.5 615.05,-142 625.05,-145.5 625.05,-138.5"/>
<polygon fill="#8a8a8a" stroke="#8a8a8a" stroke-width="1.3" points="758.94,-145.5 768.94,-142 758.94,-138.5 758.94,-145.5"/>
<text text-anchor="middle" x="692" y="-157.6" font-family="Helvetica,sans-Serif" font-size="10.50">uploads, tags,</text>
<text text-anchor="middle" x="692" y="-145.6" font-family="Helvetica,sans-Serif" font-size="10.50">searches, shows</text>
</g>
<!-- Customer -->
<g id="node4" class="node">
<title>Customer</title>
<path fill="#cdb4db" stroke="black" d="M163,-175C163,-175 12,-175 12,-175 6,-175 0,-169 0,-163 0,-163 0,-121 0,-121 0,-115 6,-109 12,-109 12,-109 163,-109 163,-109 169,-109 175,-115 175,-121 175,-121 175,-163 175,-163 175,-169 169,-175 163,-175"/>
<text text-anchor="middle" x="87.5" y="-152.6" font-family="Helvetica,sans-Serif" font-size="13.00" fill="#2b2b2b">Customer</text>
<text text-anchor="middle" x="87.5" y="-138.6" font-family="Helvetica,sans-Serif" font-size="13.00" fill="#2b2b2b">(Indirect stakeholder)</text>
<text text-anchor="middle" x="87.5" y="-124.6" font-family="Helvetica,sans-Serif" font-size="13.00" fill="#2b2b2b">Selects a design</text>
</g>
<!-- Customer&#45;&gt;Staff -->
<g id="edge3" class="edge">
<title>Customer&#45;&gt;Staff</title>
<path fill="none" stroke="#8a8a8a" stroke-width="1.3" d="M185.3,-142C231.29,-142 287.18,-142 337.9,-142"/>
<polygon fill="#8a8a8a" stroke="#8a8a8a" stroke-width="1.3" points="185.01,-138.5 175.01,-142 185.01,-145.5 185.01,-138.5"/>
<polygon fill="#8a8a8a" stroke="#8a8a8a" stroke-width="1.3" points="337.97,-145.5 347.97,-142 337.97,-138.5 337.97,-145.5"/>
<text text-anchor="middle" x="261.5" y="-157.6" font-family="Helvetica,sans-Serif" font-size="10.50">describes / points to</text>
<text text-anchor="middle" x="261.5" y="-145.6" font-family="Helvetica,sans-Serif" font-size="10.50">preferred design</text>
</g>
<!-- BA -->
<g id="node5" class="node">
<title>BA</title>
<path fill="#fff8f9" stroke="#e85d75" d="M588,-66C588,-66 375,-66 375,-66 369,-66 363,-60 363,-54 363,-54 363,-12 363,-12 363,-6 369,0 375,0 375,0 588,0 588,0 594,0 600,-6 600,-12 600,-12 600,-54 600,-54 600,-60 594,-66 588,-66"/>
<text text-anchor="middle" x="481.5" y="-43.6" font-family="Helvetica,sans-Serif" font-size="13.00" fill="#2b2b2b">Business Analyst /</text>
<text text-anchor="middle" x="481.5" y="-29.6" font-family="Helvetica,sans-Serif" font-size="13.00" fill="#2b2b2b">Product Owner</text>
<text text-anchor="middle" x="481.5" y="-15.6" font-family="Helvetica,sans-Serif" font-size="13.00" fill="#2b2b2b">Defines &amp; delivers the solution</text>
</g>
<!-- BA&#45;&gt;Core -->
<g id="edge4" class="edge">
<title>BA&#45;&gt;Core</title>
<path fill="none" stroke="#8a8a8a" stroke-width="1.3" stroke-dasharray="5,2" d="M597.95,-66.07C649.21,-80.76 709.08,-97.91 758.93,-112.19"/>
<polygon fill="#8a8a8a" stroke="#8a8a8a" stroke-width="1.3" points="758.19,-115.62 768.77,-115.01 760.12,-108.89 758.19,-115.62"/>
<text text-anchor="middle" x="692" y="-119.6" font-family="Helvetica,sans-Serif" font-size="10.50">requirements,</text>
<text text-anchor="middle" x="692" y="-107.6" font-family="Helvetica,sans-Serif" font-size="10.50">scope, priorities</text>
</g>
</g>
</svg>
