<?xml version="1.0" encoding="UTF-8" standalone="no"?>
<!DOCTYPE svg PUBLIC "-//W3C//DTD SVG 1.1//EN"
 "http://www.w3.org/Graphics/SVG/1.1/DTD/svg11.dtd">
<!-- Generated by graphviz version 2.43.0 (0)
 -->
<!-- Title: SystemArchitecture Pages: 1 -->
<svg width="1030pt" height="485pt"
 viewBox="0.00 0.00 1029.60 484.71" xmlns="http://www.w3.org/2000/svg" xmlns:xlink="http://www.w3.org/1999/xlink">
<g id="graph0" class="graph" transform="scale(1 1) rotate(0) translate(28.8 455.91)">
<title>SystemArchitecture</title>
<polygon fill="white" stroke="transparent" points="-28.8,28.8 -28.8,-455.91 1000.8,-455.91 1000.8,28.8 -28.8,28.8"/>
<g id="clust1" class="cluster">
<title>cluster_frontend</title>
<path fill="#fff8f9" stroke="#f0e6e8" d="M20,-29.11C20,-29.11 151,-29.11 151,-29.11 157,-29.11 163,-35.11 163,-41.11 163,-41.11 163,-100.11 163,-100.11 163,-106.11 157,-112.11 151,-112.11 151,-112.11 20,-112.11 20,-112.11 14,-112.11 8,-106.11 8,-100.11 8,-100.11 8,-41.11 8,-41.11 8,-35.11 14,-29.11 20,-29.11"/>
<text text-anchor="middle" x="85.5" y="-98.51" font-family="Helvetica,sans-Serif" font-weight="bold" font-size="12.00">Vercel</text>
</g>
<g id="clust2" class="cluster">
<title>cluster_backend</title>
<path fill="#fff8f9" stroke="#f0e6e8" d="M267,-219.11C267,-219.11 949.5,-219.11 949.5,-219.11 955.5,-219.11 961.5,-225.11 961.5,-231.11 961.5,-231.11 961.5,-407.11 961.5,-407.11 961.5,-413.11 955.5,-419.11 949.5,-419.11 949.5,-419.11 267,-419.11 267,-419.11 261,-419.11 255,-413.11 255,-407.11 255,-407.11 255,-231.11 255,-231.11 255,-225.11 261,-219.11 267,-219.11"/>
<text text-anchor="middle" x="608.25" y="-405.51" font-family="Helvetica,sans-Serif" font-weight="bold" font-size="12.00">Supabase</text>
</g>
<g id="clust3" class="cluster">
<title>cluster_external</title>
<path fill="#fff8f9" stroke="#f0e6e8" d="M544.5,-46.11C544.5,-46.11 691.5,-46.11 691.5,-46.11 697.5,-46.11 703.5,-52.11 703.5,-58.11 703.5,-58.11 703.5,-199.11 703.5,-199.11 703.5,-205.11 697.5,-211.11 691.5,-211.11 691.5,-211.11 544.5,-211.11 544.5,-211.11 538.5,-211.11 532.5,-205.11 532.5,-199.11 532.5,-199.11 532.5,-58.11 532.5,-58.11 532.5,-52.11 538.5,-46.11 544.5,-46.11"/>
<text text-anchor="middle" x="618" y="-197.51" font-family="Helvetica,sans-Serif" font-weight="bold" font-size="12.00">External Services</text>
</g>
<!-- Client -->
<g id="node1" class="node">
<title>Client</title>
<path fill="#fff8f9" stroke="#e85d75" d="M960,-210.61C960,-210.61 840,-210.61 840,-210.61 834,-210.61 828,-204.61 828,-198.61 828,-198.61 828,-163.61 828,-163.61 828,-157.61 834,-151.61 840,-151.61 840,-151.61 960,-151.61 960,-151.61 966,-151.61 972,-157.61 972,-163.61 972,-163.61 972,-198.61 972,-198.61 972,-204.61 966,-210.61 960,-210.61"/>
<text text-anchor="middle" x="900" y="-191.01" font-family="Helvetica,sans-Serif" font-size="12.00" fill="#2b2b2b">Client</text>
<text text-anchor="middle" x="900" y="-178.01" font-family="Helvetica,sans-Serif" font-size="12.00" fill="#2b2b2b">Mobile Browser</text>
<text text-anchor="middle" x="900" y="-165.01" font-family="Helvetica,sans-Serif" font-size="12.00" fill="#2b2b2b">(no install required)</text>
</g>
<!-- Frontend -->
<g id="node2" class="node">
<title>Frontend</title>
<path fill="#f3a6b2" stroke="black" d="M143,-83.11C143,-83.11 28,-83.11 28,-83.11 22,-83.11 16,-77.11 16,-71.11 16,-71.11 16,-49.11 16,-49.11 16,-43.11 22,-37.11 28,-37.11 28,-37.11 143,-37.11 143,-37.11 149,-37.11 155,-43.11 155,-49.11 155,-49.11 155,-71.11 155,-71.11 155,-77.11 149,-83.11 143,-83.11"/>
<text text-anchor="middle" x="85.5" y="-63.51" font-family="Helvetica,sans-Serif" font-size="12.00" fill="#2b2b2b">Frontend hosting</text>
<text text-anchor="middle" x="85.5" y="-50.51" font-family="Helvetica,sans-Serif" font-size="12.00" fill="#2b2b2b">(Lovable web app)</text>
</g>
<!-- Client&#45;&gt;Frontend -->
<g id="edge1" class="edge">
<title>Client&#45;&gt;Frontend</title>
<path fill="none" stroke="#8a8a8a" stroke-width="1.3" d="M870.09,-151.34C834.53,-116.9 770.57,-61.76 703.5,-37.11 520.25,30.22 285.45,-9.9 165.2,-38.66"/>
<polygon fill="#8a8a8a" stroke="#8a8a8a" stroke-width="1.3" points="164.22,-35.29 155.33,-41.05 165.88,-42.09 164.22,-35.29"/>
<text text-anchor="middle" x="465.5" y="-4.11" font-family="Helvetica,sans-Serif" font-size="10.00">HTTPS</text>
</g>
<!-- EdgeFn -->
<g id="node3" class="node">
<title>EdgeFn</title>
<path fill="#cdb4db" stroke="black" d="M384,-273.11C384,-273.11 275,-273.11 275,-273.11 269,-273.11 263,-267.11 263,-261.11 263,-261.11 263,-239.11 263,-239.11 263,-233.11 269,-227.11 275,-227.11 275,-227.11 384,-227.11 384,-227.11 390,-227.11 396,-233.11 396,-239.11 396,-239.11 396,-261.11 396,-261.11 396,-267.11 390,-273.11 384,-273.11"/>
<text text-anchor="middle" x="329.5" y="-253.51" font-family="Helvetica,sans-Serif" font-size="12.00" fill="#2b2b2b">EdgeFn Functions</text>
<text text-anchor="middle" x="329.5" y="-240.51" font-family="Helvetica,sans-Serif" font-size="12.00" fill="#2b2b2b">(API layer)</text>
</g>
<!-- Frontend&#45;&gt;EdgeFn -->
<g id="edge2" class="edge">
<title>Frontend&#45;&gt;EdgeFn</title>
<path fill="none" stroke="#8a8a8a" stroke-width="1.3" d="M116.17,-83.41C160.2,-117.98 242.79,-182.82 290.96,-220.64"/>
<polygon fill="#8a8a8a" stroke="#8a8a8a" stroke-width="1.3" points="288.94,-223.5 298.96,-226.92 293.26,-218 288.94,-223.5"/>
<text text-anchor="middle" x="209" y="-175.11" font-family="Helvetica,sans-Serif" font-size="10.00">API calls</text>
</g>
<!-- DB -->
<g id="node4" class="node">
<title>DB</title>
<path fill="#cdb4db" stroke="black" d="M695.5,-384.09C695.5,-387.28 660.76,-389.87 618,-389.87 575.24,-389.87 540.5,-387.28 540.5,-384.09 540.5,-384.09 540.5,-332.14 540.5,-332.14 540.5,-328.95 575.24,-326.36 618,-326.36 660.76,-326.36 695.5,-328.95 695.5,-332.14 695.5,-332.14 695.5,-384.09 695.5,-384.09"/>
<path fill="none" stroke="black" d="M695.5,-384.09C695.5,-380.91 660.76,-378.32 618,-378.32 575.24,-378.32 540.5,-380.91 540.5,-384.09"/>
<text text-anchor="middle" x="618" y="-361.51" font-family="Helvetica,sans-Serif" font-size="12.00" fill="#2b2b2b">Postgres DB</text>
<text text-anchor="middle" x="618" y="-348.51" font-family="Helvetica,sans-Serif" font-size="12.00" fill="#2b2b2b">+ Row&#45;Level Security</text>
</g>
<!-- EdgeFn&#45;&gt;DB -->
<g id="edge3" class="edge">
<title>EdgeFn&#45;&gt;DB</title>
<path fill="none" stroke="#8a8a8a" stroke-width="1.3" d="M391.61,-273.15C432.19,-288.45 486.06,-308.75 530.95,-325.68"/>
<polygon fill="#8a8a8a" stroke="#8a8a8a" stroke-width="1.3" points="529.8,-328.98 540.39,-329.23 532.26,-322.43 529.8,-328.98"/>
<text text-anchor="middle" x="465.5" y="-316.11" font-family="Helvetica,sans-Serif" font-size="10.00">read/write</text>
</g>
<!-- Storage -->
<g id="node5" class="node">
<title>Storage</title>
<path fill="#cdb4db" stroke="black" d="M701,-285.09C701,-288.28 663.8,-290.87 618,-290.87 572.2,-290.87 535,-288.28 535,-285.09 535,-285.09 535,-233.14 535,-233.14 535,-229.95 572.2,-227.36 618,-227.36 663.8,-227.36 701,-229.95 701,-233.14 701,-233.14 701,-285.09 701,-285.09"/>
<path fill="none" stroke="black" d="M701,-285.09C701,-281.91 663.8,-279.32 618,-279.32 572.2,-279.32 535,-281.91 535,-285.09"/>
<text text-anchor="middle" x="618" y="-262.51" font-family="Helvetica,sans-Serif" font-size="12.00" fill="#2b2b2b">Storage</text>
<text text-anchor="middle" x="618" y="-249.51" font-family="Helvetica,sans-Serif" font-size="12.00" fill="#2b2b2b">(image hosting + CDN)</text>
</g>
<!-- EdgeFn&#45;&gt;Storage -->
<g id="edge4" class="edge">
<title>EdgeFn&#45;&gt;Storage</title>
<path fill="none" stroke="#8a8a8a" stroke-width="1.3" d="M396.23,-252.18C434.31,-253.38 482.84,-254.9 524.71,-256.22"/>
<polygon fill="#8a8a8a" stroke="#8a8a8a" stroke-width="1.3" points="524.81,-259.72 534.91,-256.54 525.03,-252.72 524.81,-259.72"/>
<text text-anchor="middle" x="465.5" y="-258.11" font-family="Helvetica,sans-Serif" font-size="10.00">upload/fetch</text>
</g>
<!-- Gemini -->
<g id="node7" class="node">
<title>Gemini</title>
<path fill="#e85d75" stroke="black" d="M681.5,-182.11C681.5,-182.11 554.5,-182.11 554.5,-182.11 548.5,-182.11 542.5,-176.11 542.5,-170.11 542.5,-170.11 542.5,-148.11 542.5,-148.11 542.5,-142.11 548.5,-136.11 554.5,-136.11 554.5,-136.11 681.5,-136.11 681.5,-136.11 687.5,-136.11 693.5,-142.11 693.5,-148.11 693.5,-148.11 693.5,-170.11 693.5,-170.11 693.5,-176.11 687.5,-182.11 681.5,-182.11"/>
<text text-anchor="middle" x="618" y="-162.51" font-family="Helvetica,sans-Serif" font-size="12.00" fill="white">Gemini 2.5 Flash API</text>
<text text-anchor="middle" x="618" y="-149.51" font-family="Helvetica,sans-Serif" font-size="12.00" fill="white">(AI color detection)</text>
</g>
<!-- EdgeFn&#45;&gt;Gemini -->
<g id="edge5" class="edge">
<title>EdgeFn&#45;&gt;Gemini</title>
<path fill="none" stroke="#8a8a8a" stroke-width="1.3" d="M347.43,-226.92C365.01,-205 394.7,-173.53 429,-160.11 461.23,-147.51 499.01,-145.17 532.22,-146.76"/>
<polygon fill="#8a8a8a" stroke="#8a8a8a" stroke-width="1.3" points="532.17,-150.27 542.37,-147.38 532.6,-143.28 532.17,-150.27"/>
<text text-anchor="middle" x="465.5" y="-174.11" font-family="Helvetica,sans-Serif" font-size="10.00">color detection</text>
<text text-anchor="middle" x="465.5" y="-163.11" font-family="Helvetica,sans-Serif" font-size="10.00">request</text>
</g>
<!-- Search -->
<g id="node8" class="node">
<title>Search</title>
<path fill="#e85d75" stroke="black" d="M683.5,-100.11C683.5,-100.11 552.5,-100.11 552.5,-100.11 546.5,-100.11 540.5,-94.11 540.5,-88.11 540.5,-88.11 540.5,-66.11 540.5,-66.11 540.5,-60.11 546.5,-54.11 552.5,-54.11 552.5,-54.11 683.5,-54.11 683.5,-54.11 689.5,-54.11 695.5,-60.11 695.5,-66.11 695.5,-66.11 695.5,-88.11 695.5,-88.11 695.5,-94.11 689.5,-100.11 683.5,-100.11"/>
<text text-anchor="middle" x="618" y="-80.51" font-family="Helvetica,sans-Serif" font-size="12.00" fill="white">Search Index</text>
<text text-anchor="middle" x="618" y="-67.51" font-family="Helvetica,sans-Serif" font-size="12.00" fill="white">(Meilisearch / Algolia)</text>
</g>
<!-- EdgeFn&#45;&gt;Search -->
<g id="edge9" class="edge">
<title>EdgeFn&#45;&gt;Search</title>
<path fill="none" stroke="#8a8a8a" stroke-width="1.3" d="M334.49,-226.93C343.14,-184.73 367.99,-96.3 429,-59.11 464.34,-37.58 510.53,-41.65 548.29,-51.32"/>
<polygon fill="#8a8a8a" stroke="#8a8a8a" stroke-width="1.3" points="547.62,-54.77 558.19,-54.03 549.47,-48.02 547.62,-54.77"/>
<text text-anchor="middle" x="465.5" y="-62.11" font-family="Helvetica,sans-Serif" font-size="10.00">index update</text>
</g>
<!-- Realtime -->
<g id="node6" class="node">
<title>Realtime</title>
<path fill="#cdb4db" stroke="black" d="M941.5,-354.11C941.5,-354.11 858.5,-354.11 858.5,-354.11 852.5,-354.11 846.5,-348.11 846.5,-342.11 846.5,-342.11 846.5,-320.11 846.5,-320.11 846.5,-314.11 852.5,-308.11 858.5,-308.11 858.5,-308.11 941.5,-308.11 941.5,-308.11 947.5,-308.11 953.5,-314.11 953.5,-320.11 953.5,-320.11 953.5,-342.11 953.5,-342.11 953.5,-348.11 947.5,-354.11 941.5,-354.11"/>
<text text-anchor="middle" x="900" y="-334.51" font-family="Helvetica,sans-Serif" font-size="12.00" fill="#2b2b2b">Realtime</text>
<text text-anchor="middle" x="900" y="-321.51" font-family="Helvetica,sans-Serif" font-size="12.00" fill="#2b2b2b">(library sync)</text>
</g>
<!-- DB&#45;&gt;Realtime -->
<g id="edge7" class="edge">
<title>DB&#45;&gt;Realtime</title>
<path fill="none" stroke="#8a8a8a" stroke-width="1.3" d="M695.51,-350.74C739.79,-346.47 794.82,-341.16 836.48,-337.14"/>
<polygon fill="#8a8a8a" stroke="#8a8a8a" stroke-width="1.3" points="836.88,-340.62 846.5,-336.18 836.21,-333.65 836.88,-340.62"/>
<text text-anchor="middle" x="764.5" y="-349.11" font-family="Helvetica,sans-Serif" font-size="10.00">change feed</text>
</g>
<!-- Storage&#45;&gt;Client -->
<g id="edge11" class="edge">
<title>Storage&#45;&gt;Client</title>
<path fill="none" stroke="#8a8a8a" stroke-width="1.3" d="M701.12,-236.24C738,-225.96 781.39,-213.88 818.13,-203.64"/>
<polygon fill="#8a8a8a" stroke="#8a8a8a" stroke-width="1.3" points="819.11,-207 827.81,-200.95 817.23,-200.26 819.11,-207"/>
<text text-anchor="middle" x="764.5" y="-238.11" font-family="Helvetica,sans-Serif" font-size="10.00">CDN image</text>
<text text-anchor="middle" x="764.5" y="-227.11" font-family="Helvetica,sans-Serif" font-size="10.00">delivery</text>
</g>
<!-- Realtime&#45;&gt;Client -->
<g id="edge8" class="edge">
<title>Realtime&#45;&gt;Client</title>
<path fill="none" stroke="#8a8a8a" stroke-width="1.3" d="M900,-307.93C900,-284.76 900,-248.69 900,-220.94"/>
<polygon fill="#8a8a8a" stroke="#8a8a8a" stroke-width="1.3" points="903.5,-220.75 900,-210.75 896.5,-220.75 903.5,-220.75"/>
<text text-anchor="middle" x="886" y="-262.36" font-family="Helvetica,sans-Serif" font-size="10.00">live library</text>
<text text-anchor="middle" x="886" y="-251.36" font-family="Helvetica,sans-Serif" font-size="10.00">updates</text>
</g>
<!-- Gemini&#45;&gt;EdgeFn -->
<g id="edge6" class="edge">
<title>Gemini&#45;&gt;EdgeFn</title>
<path fill="none" stroke="#8a8a8a" stroke-width="1.3" d="M544.54,-182.13C502.12,-195.6 448.65,-212.59 405.77,-226.21"/>
<polygon fill="#8a8a8a" stroke="#8a8a8a" stroke-width="1.3" points="404.7,-222.87 396.23,-229.24 406.82,-229.55 404.7,-222.87"/>
<text text-anchor="middle" x="465.5" y="-231.11" font-family="Helvetica,sans-Serif" font-size="10.00">JSON: colors,</text>
<text text-anchor="middle" x="465.5" y="-220.11" font-family="Helvetica,sans-Serif" font-size="10.00">confidence</text>
</g>
<!-- Search&#45;&gt;EdgeFn -->
<g id="edge10" class="edge">
<title>Search&#45;&gt;EdgeFn</title>
<path fill="none" stroke="#8a8a8a" stroke-width="1.3" d="M540.16,-85.72C504.18,-92.49 462.07,-104.58 429,-126.11 393.45,-149.27 364.97,-189.56 347.95,-217.92"/>
<polygon fill="#8a8a8a" stroke="#8a8a8a" stroke-width="1.3" points="344.86,-216.27 342.84,-226.67 350.91,-219.8 344.86,-216.27"/>
<text text-anchor="middle" x="465.5" y="-129.11" font-family="Helvetica,sans-Serif" font-size="10.00">query results</text>
</g>
</g>
</svg>
